<svg width="24" height="24" viewBox="0 0 24 24" fill="none" xmlns="http://www.w3.org/2000/svg">
<path d="M12.2 11.8001L10.79 13.2101C10.01 13.9901 10.01 15.2601 10.79 16.0401C11.57 16.8201 12.84 16.8201 13.62 16.0401L15.84 13.8201C16.5891 13.0688 17.0098 12.0511 17.0098 10.9901C17.0098 9.92908 16.5891 8.91138 15.84 8.16007C15.0886 7.41092 14.0709 6.99023 13.01 6.99023C11.949 6.99023 10.9313 7.41092 10.18 8.16007L7.75996 10.5801C7.44133 10.8984 7.18856 11.2765 7.0161 11.6926C6.84365 12.1087 6.75488 12.5547 6.75488 13.0051C6.75488 13.4555 6.84365 13.9015 7.0161 14.3176C7.18856 14.7337 7.44133 15.1117 7.75996 15.4301" stroke="#5431D6" stroke-width="1.5" stroke-linecap="round" stroke-linejoin="round"/>
<path d="M12 22C17.523 22 22 17.523 22 12C22 6.477 17.523 2 12 2C6.477 2 2 6.477 2 12C2 17.523 6.477 22 12 22Z" stroke="#5431D6" stroke-width="1.5" stroke-linecap="round" stroke-linejoin="round"/>
</svg>
