<svg xmlns="http://www.w3.org/2000/svg" width="25" height="25" viewBox="0 0 25 25" fill="none">
    <path d="M16.0799 12.4999C16.0799 14.4799 14.4799 16.0799 12.4999 16.0799C10.5199 16.0799 8.91992 14.4799 8.91992 12.4999C8.91992 10.5199 10.5199 8.91992 12.4999 8.91992C14.4799 8.91992 16.0799 10.5199 16.0799 12.4999Z" stroke="#5431D6" stroke-width="1.5" stroke-linecap="round" stroke-linejoin="round"/>
    <path d="M12.4998 20.77C16.0298 20.77 19.3198 18.69 21.6098 15.09C22.5098 13.68 22.5098 11.31 21.6098 9.89997C19.3198 6.29997 16.0298 4.21997 12.4998 4.21997C8.96984 4.21997 5.67984 6.29997 3.38984 9.89997C2.48984 11.31 2.48984 13.68 3.38984 15.09C5.67984 18.69 8.96984 20.77 12.4998 20.77Z" stroke="#5431D6" stroke-width="1.5" stroke-linecap="round" stroke-linejoin="round"/>
</svg>