<svg width="32" height="32" viewBox="0 0 32 32" fill="none" xmlns="http://www.w3.org/2000/svg">
<path d="M11.3334 25.3332H10.6667C5.33341 25.3332 2.66675 23.9998 2.66675 17.3332V10.6665C2.66675 5.33317 5.33341 2.6665 10.6667 2.6665H21.3334C26.6667 2.6665 29.3334 5.33317 29.3334 10.6665V17.3332C29.3334 22.6665 26.6667 25.3332 21.3334 25.3332H20.6667C20.2534 25.3332 19.8534 25.5332 19.6001 25.8665L17.6001 28.5332C16.7201 29.7065 15.2801 29.7065 14.4001 28.5332L12.4001 25.8665C12.1867 25.5732 11.6934 25.3332 11.3334 25.3332Z" stroke="#5431D6" stroke-width="2" stroke-miterlimit="10" stroke-linecap="round" stroke-linejoin="round"/>
<path d="M21.3279 14.6665H21.3412M15.9932 14.6665H16.0066M10.6599 14.6665H10.6706" stroke="#5431D6" stroke-width="2" stroke-linecap="round" stroke-linejoin="round"/>
</svg>
