<svg xmlns="http://www.w3.org/2000/svg" width="100" height="100" viewBox="0 0 100 100" fill="none">
    <path d="M50.6668 45.2917C50.2502 45.25 49.7502 45.25 49.2918 45.2917C44.5093 45.1293 39.9778 43.1118 36.657 39.6665C33.3361 36.2212 31.4866 31.6185 31.5002 26.8333C31.5002 16.625 39.7502 8.33333 50.0002 8.33333C52.4269 8.28955 54.8385 8.72419 57.0972 9.61241C59.356 10.5006 61.4176 11.8251 63.1645 13.51C64.9114 15.195 66.3094 17.2076 67.2785 19.4329C68.2476 21.6581 68.7689 24.0524 68.8127 26.4792C68.8564 28.9059 68.4218 31.3175 67.5336 33.5762C66.6454 35.835 65.3209 37.8966 63.6359 39.6435C61.951 41.3904 59.9384 42.7884 57.7131 43.7575C55.4879 44.7266 53.0936 45.2479 50.6668 45.2917ZM29.8335 60.6667C19.7502 67.4167 19.7502 78.4167 29.8335 85.125C41.2918 92.7917 60.0835 92.7917 71.5418 85.125C81.6252 78.375 81.6252 67.375 71.5418 60.6667C60.1252 53.0417 41.3335 53.0417 29.8335 60.6667Z" stroke="#35295F" stroke-opacity="0.1" stroke-width="6" stroke-linecap="round" stroke-linejoin="round"/>
</svg>