<svg width="24" height="24" viewBox="0 0 24 24" fill="none" xmlns="http://www.w3.org/2000/svg">
<path d="M12.0002 7.75V13M21.0802 8.58V15.42C21.0802 16.54 20.4802 17.58 19.5102 18.15L13.5702 21.58C12.6002 22.14 11.4002 22.14 10.4202 21.58L4.48016 18.15C4.00193 17.8727 3.60509 17.4745 3.32951 16.9953C3.05392 16.5161 2.9093 15.9728 2.91016 15.42V8.58C2.91016 7.46 3.51016 6.42 4.48016 5.85L10.4202 2.42C11.3902 1.86 12.5902 1.86 13.5702 2.42L19.5102 5.85C20.4802 6.42 21.0802 7.45 21.0802 8.58Z" stroke="#5431D6" stroke-width="1.5" stroke-linecap="round" stroke-linejoin="round"/>
<path d="M12 16.2002V16.3002" stroke="#5431D6" stroke-width="2" stroke-linecap="round" stroke-linejoin="round"/>
</svg>
