<svg width="24" height="24" viewBox="0 0 24 24" fill="none" xmlns="http://www.w3.org/2000/svg">
<path d="M12.53 20.4201H6.21C3.05 20.4201 2 18.3201 2 16.2101V7.79008C2 4.63008 3.05 3.58008 6.21 3.58008H12.53C15.69 3.58008 16.74 4.63008 16.74 7.79008V16.2101C16.74 19.3701 15.68 20.4201 12.53 20.4201Z" stroke="#5431D6" stroke-width="1.5" stroke-linecap="round" stroke-linejoin="round"/>
<path d="M19.52 17.1001L16.74 15.1501V8.84013L19.52 6.89013C20.88 5.94013 22 6.52013 22 8.19013V15.8101C22 17.4801 20.88 18.0601 19.52 17.1001ZM11.5 11.0001C11.8978 11.0001 12.2794 10.8421 12.5607 10.5608C12.842 10.2795 13 9.89796 13 9.50013C13 9.10231 12.842 8.72078 12.5607 8.43947C12.2794 8.15817 11.8978 8.00013 11.5 8.00013C11.1022 8.00013 10.7206 8.15817 10.4393 8.43947C10.158 8.72078 10 9.10231 10 9.50013C10 9.89796 10.158 10.2795 10.4393 10.5608C10.7206 10.8421 11.1022 11.0001 11.5 11.0001Z" stroke="#5431D6" stroke-width="1.5" stroke-linecap="round" stroke-linejoin="round"/>
</svg>
