<svg xmlns="http://www.w3.org/2000/svg" width="100" height="100" viewBox="0 0 100 100" fill="none">
    <path d="M37.5002 91.6666H62.5002C83.3335 91.6666 91.6668 83.3332 91.6668 62.4999V37.4999C91.6668 16.6666 83.3335 8.33325 62.5002 8.33325H37.5002C16.6668 8.33325 8.3335 16.6666 8.3335 37.4999V62.4999C8.3335 83.3332 16.6668 91.6666 37.5002 91.6666Z" stroke="#35295F" stroke-opacity="0.1" stroke-width="6" stroke-linecap="round" stroke-linejoin="round"/>
    <path d="M37.9165 50V43.8333C37.9165 35.875 43.5415 32.6666 50.4165 36.625L55.7498 39.7083L61.0832 42.7916C67.9582 46.75 67.9582 53.25 61.0832 57.2083L55.7498 60.2916L50.4165 63.375C43.5415 67.3333 37.9165 64.0833 37.9165 56.1666V50Z" stroke="#35295F" stroke-opacity="0.1" stroke-width="6" stroke-miterlimit="10" stroke-linecap="round" stroke-linejoin="round"/>
</svg>