<svg width="500" height="500" viewBox="0 0 500 500" fill="none" xmlns="http://www.w3.org/2000/svg">
<path d="M500 382.4H0V382.65H500V382.4Z" fill="#EBEBEB"/>
<path d="M173.22 388.78H150.04V389.03H173.22V388.78Z" fill="#EBEBEB"/>
<path d="M458.77 394.14H402.1V394.39H458.77V394.14Z" fill="#EBEBEB"/>
<path d="M99.3902 394.14H42.7202V394.39H99.3902V394.14Z" fill="#EBEBEB"/>
<path d="M237 337.8H43.91C40.76 337.795 38.21 335.24 38.21 332.09V60.66C38.237 57.53 40.78 55.005 43.91 55H237C240.153 55 242.71 57.556 242.71 60.71V332.09C242.71 335.243 240.153 337.8 237 337.8ZM43.91 55.2C40.898 55.206 38.46 57.648 38.46 60.66V332.09C38.46 335.102 40.898 337.544 43.91 337.55H237C240.013 337.545 242.454 335.103 242.46 332.09V60.66C242.454 57.647 240.013 55.206 237 55.2H43.91Z" fill="#EBEBEB"/>
<path d="M453.31 337.8H260.21C257.059 337.795 254.506 335.241 254.5 332.09V60.66C254.533 57.528 257.078 55.005 260.21 55H453.31C456.436 55.011 458.973 57.534 459 60.66V332.09C459 335.236 456.456 337.789 453.31 337.8ZM260.21 55.2C257.197 55.206 254.756 57.647 254.75 60.66V332.09C254.755 335.103 257.197 337.544 260.21 337.55H453.31C456.323 337.545 458.764 335.103 458.77 332.09V60.66C458.765 57.647 456.323 55.206 453.31 55.2H260.21Z" fill="#EBEBEB"/>
<path d="M315.071 303.026H291.98V382.94H315.071V303.026Z" fill="#E6E6E6"/>
<path d="M298.721 303.026H275.63V382.94H298.721V303.026Z" fill="#E6E6E6"/>
<path d="M294.338 382.941H298.721V370.462H289.732L294.338 382.941Z" fill="#F0F0F0"/>
<path d="M182.654 303.026H159.563V382.94H182.654V303.026Z" fill="#E6E6E6"/>
<path d="M298.721 303.026H178.825V376.798H298.721V303.026Z" fill="#F0F0F0"/>
<path d="M291.257 360.2H244.298C241.778 360.195 239.736 358.153 239.73 355.632V310.723C239.735 308.203 241.777 306.161 244.298 306.155H291.248C293.769 306.16 295.81 308.202 295.816 310.723V355.632C295.81 358.148 293.774 360.189 291.257 360.2ZM244.298 307.176C242.337 307.176 240.746 308.763 240.741 310.723V355.632C240.72 357.596 242.295 359.206 244.259 359.228C244.272 359.228 244.285 359.228 244.298 359.228H291.248C293.212 359.244 294.818 357.665 294.834 355.701C294.834 355.678 294.834 355.655 294.834 355.633V310.724C294.829 308.763 293.238 307.177 291.277 307.177H244.298V307.176Z" fill="#E0E0E0"/>
<path d="M233.238 360.2H186.288C183.768 360.195 181.726 358.153 181.72 355.632V310.723C181.725 308.203 183.767 306.161 186.288 306.155H233.238C235.761 306.155 237.806 308.2 237.806 310.723V355.632C237.806 358.155 235.761 360.2 233.238 360.2ZM186.289 307.176C184.33 307.176 182.742 308.764 182.742 310.723V355.632C182.742 357.591 184.33 359.179 186.289 359.179H233.239C235.2 359.179 236.791 357.592 236.796 355.632V310.723C236.791 308.762 235.2 307.176 233.239 307.176H186.289Z" fill="#E0E0E0"/>
<path d="M228.885 320.354C226.448 320.359 224.469 318.388 224.463 315.952C224.458 313.515 226.429 311.535 228.865 311.53C231.302 311.525 233.281 313.496 233.287 315.932C233.287 315.939 233.287 315.945 233.287 315.951C233.282 318.381 231.314 320.349 228.885 320.354Z" fill="#FAFAFA"/>
<path d="M248.662 320.354C246.225 320.37 244.237 318.408 244.221 315.971C244.205 313.534 246.167 311.546 248.604 311.53C251.041 311.514 253.029 313.476 253.045 315.913C253.045 315.936 253.045 315.958 253.045 315.981C253.029 318.393 251.074 320.344 248.662 320.354Z" fill="#FAFAFA"/>
<path d="M183.208 382.941H178.825V370.462H187.815L183.208 382.941Z" fill="#F0F0F0"/>
<path d="M175.297 303.026H152.206V382.94H175.297V303.026Z" fill="#E6E6E6"/>
<path d="M170.914 382.941H175.297V370.462H166.308L170.914 382.941Z" fill="#F0F0F0"/>
<path d="M175.298 303.026H55.4019V376.798H175.298V303.026Z" fill="#F0F0F0"/>
<path d="M167.834 360.2H120.875C118.351 360.2 116.303 358.157 116.298 355.632V310.723C116.303 308.199 118.351 306.155 120.875 306.155H167.825C170.345 306.16 172.387 308.202 172.393 310.723V355.632C172.386 358.148 170.35 360.189 167.834 360.2ZM120.874 307.176C118.913 307.176 117.322 308.763 117.317 310.723V355.632C117.296 357.596 118.871 359.206 120.835 359.228C120.848 359.228 120.861 359.228 120.874 359.228H167.824C169.788 359.244 171.394 357.665 171.41 355.701C171.41 355.678 171.41 355.655 171.41 355.633V310.724C171.405 308.767 169.82 307.182 167.863 307.177H120.874V307.176Z" fill="#E0E0E0"/>
<path d="M109.815 360.2H62.8649C60.3419 360.2 58.2969 358.155 58.2969 355.632V310.723C58.2969 308.2 60.3419 306.155 62.8649 306.155H109.815C112.335 306.16 114.377 308.202 114.383 310.723V355.632C114.377 358.152 112.335 360.194 109.815 360.2ZM62.8649 307.176C60.9039 307.176 59.3129 308.763 59.3079 310.723V355.632C59.2869 357.596 60.8619 359.206 62.8259 359.228C62.8389 359.228 62.8519 359.228 62.8649 359.228H109.815C111.776 359.228 113.367 357.641 113.372 355.681V310.724C113.367 308.763 111.776 307.177 109.815 307.177H62.8649V307.176Z" fill="#E0E0E0"/>
<path d="M105.461 320.354C103.024 320.359 101.045 318.388 101.039 315.952C101.034 313.515 103.005 311.535 105.441 311.53C107.878 311.525 109.857 313.496 109.863 315.932C109.863 315.939 109.863 315.945 109.863 315.951C109.863 318.383 107.892 320.354 105.461 320.354Z" fill="#FAFAFA"/>
<path d="M125.238 320.354C122.801 320.37 120.813 318.408 120.797 315.971C120.781 313.534 122.743 311.546 125.18 311.53C127.617 311.514 129.605 313.476 129.621 315.913C129.621 315.936 129.621 315.958 129.621 315.981C129.605 318.393 127.65 320.344 125.238 320.354Z" fill="#FAFAFA"/>
<path d="M59.7849 382.941H55.4019V370.462H64.3809L59.7849 382.941Z" fill="#F0F0F0"/>
<path d="M267.285 81.52H224.321V124.484H267.285V81.52Z" fill="#EBEBEB"/>
<path d="M269.19 81.527H267.286V124.492H269.19V81.527Z" fill="#E0E0E0"/>
<path d="M261.468 87.345H230.147V118.666H261.468V87.345Z" fill="white"/>
<path d="M251.047 108.244C248.152 111.139 243.459 111.139 240.564 108.244C237.669 105.349 237.669 100.656 240.564 97.761C243.459 94.866 248.152 94.866 251.047 97.761C253.941 100.656 253.941 105.35 251.047 108.244Z" fill="#F5F5F5"/>
<path d="M225.198 136.758H174.826V187.13H225.198V136.758Z" fill="#EBEBEB"/>
<path d="M227.43 136.766H225.198V187.138H227.43V136.766Z" fill="#E0E0E0"/>
<path d="M218.377 143.588H181.656V180.309H218.377V143.588Z" fill="white"/>
<path d="M207.841 154.114H192.181V169.774H207.841V154.114Z" fill="#F5F5F5"/>
<path d="M450.498 120.563H423.227V126.936H450.498V120.563Z" fill="#E6E6E6"/>
<path d="M423.227 120.563H310.349V126.936H423.227V120.563Z" fill="#F5F5F5"/>
<path d="M374.491 86.7371H342.714V120.564H374.491V86.7371Z" fill="#E0E0E0"/>
<path d="M342.715 86.7371H334.575V120.564H342.715V86.7371Z" fill="#F0F0F0"/>
<path d="M382.823 81.52H358.953V120.563H382.823V81.52Z" fill="#E6E6E6"/>
<path d="M358.963 81.52H352.062V120.563H358.963V81.52Z" fill="#F0F0F0"/>
<path d="M386.111 86.7371H365.986V120.564H386.111V86.7371Z" fill="#F0F0F0"/>
<path d="M365.986 86.7371H361.388V120.564H365.986V86.7371Z" fill="#FAFAFA"/>
<path d="M408.856 92.4611H382.458V120.564H408.856V92.4611Z" fill="#E6E6E6"/>
<path d="M382.458 92.4611H375.699V120.564H382.458V92.4611Z" fill="#FAFAFA"/>
<path d="M415.777 88.1271H395.946V120.563H415.777V88.1271Z" fill="#E6E6E6"/>
<path d="M395.956 88.1271H390.222V120.563H395.956V88.1271Z" fill="#F0F0F0"/>
<path d="M421.055 92.4611H401.792V120.564H421.055V92.4611Z" fill="#F0F0F0"/>
<path d="M401.782 92.4611H397.966V120.564H401.782V92.4611Z" fill="#FAFAFA"/>
<path d="M407.091 309.423C415.633 298.257 435.964 294.107 442.991 287.071C452.194 277.838 452.146 263.99 444.313 258.994C437.51 254.65 414.954 284.019 412.417 287.294C403.671 298.577 401.144 306.954 399.501 315.06C399.686 308.17 399.87 301.833 400.016 296.955C400.492 281.017 401.085 275.895 401.357 274.321C402.329 273.544 403.417 272.649 404.059 272.173C409.521 268.101 421.62 263.252 427.675 257.343C436.509 248.703 435.08 238.363 428.88 234.515C422.407 230.492 410.95 240.006 404.866 249.433C398.782 258.86 401.387 267.898 399.686 275.673C399.326 277.209 398.957 283.04 398.617 291.135C397.179 283.163 392.772 276.033 386.284 271.183C377.907 264.497 370.676 256.363 363.776 257.412C356.876 258.462 360.627 269.229 366.05 276.79C370.909 283.525 394.904 290.24 398.432 295.653C398.014 306.615 397.645 320.503 397.382 333.438C395.487 326.762 396.789 326.198 389.044 315.945C384.437 309.861 365.545 302.339 363.3 306.538C361.055 310.736 364.466 318.618 371.599 324.148C377.352 328.609 390.064 328.599 393.067 331.369C393.757 332.01 396.031 334.489 397.333 335.917C397.022 351.7 396.886 365.636 397.041 370.388L398.275 370.437C398.217 369.213 398.362 361.185 398.605 350.553C401.705 344.897 422.57 341.593 429.014 335.713C435.759 329.561 440.598 322.379 437.712 317.569C435.302 313.555 416.332 319.007 408.557 325.655C403.416 330.077 400.277 334.8 398.839 341.146C399.014 333.906 399.218 326.131 399.412 318.794C400.958 316.984 404.525 312.767 407.091 309.423Z" fill="#E6E6E6"/>
<path d="M408.908 382.729H387.246C386.06 382.729 385.04 381.194 384.807 379.046L383.272 365.032H412.884L411.348 379.046C411.104 381.194 410.094 382.729 408.908 382.729Z" fill="#F0F0F0"/>
<path d="M413.505 370.465H382.649C381.91 370.465 381.288 369.445 381.211 368.084L380.579 357.724C380.482 356.13 381.152 354.741 382.017 354.741H414.136C415.001 354.741 415.671 356.131 415.574 357.724L414.942 368.084C414.865 369.444 414.243 370.465 413.505 370.465Z" fill="#F0F0F0"/>
<path d="M250 427.56C357.082 427.56 443.89 422.492 443.89 416.24C443.89 409.988 357.082 404.92 250 404.92C142.917 404.92 56.1099 409.988 56.1099 416.24C56.1099 422.492 142.917 427.56 250 427.56Z" fill="#F5F5F5"/>
<path d="M214.492 155.682C212.278 161.049 199.272 160.689 185.636 155.064C172 149.439 162.74 140.528 164.954 135.162C165.467 133.918 166.898 129.273 168.432 128.626C173.514 126.483 183.178 131.309 193.653 135.63C203.403 139.652 214.546 142.237 216.277 147.534C217.325 150.746 215.123 154.153 214.492 155.682Z" fill="#5431D6"/>
<path opacity="0.2" d="M216.28 147.533C217.108 151.744 215.284 153.76 214.491 155.681C213.676 157.662 211.395 158.859 208.163 159.304C207.774 159.368 207.365 159.407 206.945 159.439C204.778 159.6 202.265 159.474 199.529 159.052C199.178 159.009 198.831 158.943 198.474 158.881C195.798 158.419 192.938 157.68 189.987 156.698C189.668 156.592 189.346 156.476 189.025 156.36C187.908 155.967 186.769 155.54 185.636 155.068C184.507 154.606 183.409 154.112 182.337 153.599C182.028 153.458 181.725 153.304 181.426 153.16C178.74 151.828 176.301 150.384 174.153 148.897C173.87 148.706 173.605 148.508 173.334 148.323C171.099 146.696 169.215 145.018 167.795 143.378C167.547 143.101 167.321 142.828 167.104 142.552C164.951 139.825 164.104 137.23 164.955 135.164C165.507 133.827 166.714 129.277 168.426 128.623C170.141 127.979 172.348 128.068 174.903 128.612C175.232 128.684 175.572 128.762 175.917 128.849C180.963 130.126 187.216 132.976 193.648 135.63C201.234 138.76 210.205 142.006 214.596 145.758C214.87 145.984 215.115 146.22 215.351 146.458C215.709 146.815 216.013 147.168 216.28 147.533Z" fill="black"/>
<g opacity="0.2">
<path d="M176.38 128.014L175.916 128.849L167.795 143.378C167.547 143.101 167.321 142.828 167.104 142.552L174.902 128.613L175.506 127.532L176.38 128.014Z" fill="black"/>
</g>
<g opacity="0.2">
<path d="M182.52 133.931L174.153 148.898C173.87 148.707 173.605 148.509 173.334 148.324L181.654 133.436L182.52 133.931Z" fill="black"/>
</g>
<g opacity="0.2">
<path d="M197.909 142.528L189.986 156.697C189.667 156.591 189.345 156.475 189.024 156.359L197.033 142.035L197.909 142.528Z" fill="black"/>
</g>
<g opacity="0.2">
<path d="M190.755 138.532L182.336 153.6C182.027 153.459 181.724 153.305 181.425 153.161L189.879 138.04L190.755 138.532Z" fill="black"/>
</g>
<g opacity="0.2">
<path d="M207.24 145.267L199.528 159.052C199.177 159.009 198.83 158.943 198.473 158.881L206.364 144.775L207.24 145.267Z" fill="black"/>
</g>
<path d="M216.22 150.962C214.006 156.329 201.157 156.119 187.521 150.494C173.885 144.869 164.625 135.959 166.838 130.592C169.052 125.225 181.901 125.435 195.537 131.06C209.173 136.686 218.433 145.596 216.22 150.962Z" fill="#5431D6"/>
<path opacity="0.2" d="M211.584 149.05C210.02 152.842 200.004 152.307 189.212 147.855C178.42 143.403 170.94 136.721 172.504 132.929C174.068 129.137 184.084 129.672 194.876 134.124C205.668 138.576 213.148 145.258 211.584 149.05Z" fill="white"/>
<path d="M283.413 107.144C286.968 111.734 280.186 122.838 268.524 131.87C256.862 140.902 244.526 144.503 240.971 139.914C240.147 138.85 236.829 135.298 237.031 133.646C237.7 128.171 246.693 122.188 255.652 115.25C263.991 108.792 271.776 100.411 277.232 101.544C280.54 102.231 282.4 105.836 283.413 107.144Z" fill="#5431D6"/>
<path opacity="0.2" d="M277.232 101.539C281.297 102.915 282.138 105.501 283.41 107.144C284.723 108.837 284.627 111.411 283.406 114.436C283.268 114.806 283.098 115.179 282.917 115.56C281.978 117.52 280.619 119.638 278.892 121.802C278.68 122.085 278.45 122.354 278.219 122.632C276.487 124.723 274.424 126.838 272.103 128.909C271.852 129.133 271.592 129.354 271.331 129.576C270.435 130.35 269.497 131.125 268.525 131.873C267.562 132.623 266.588 133.329 265.61 134.004C265.334 134.202 265.05 134.388 264.776 134.576C262.284 136.244 259.818 137.641 257.46 138.765C257.153 138.916 256.85 139.047 256.555 139.19C254.032 140.32 251.639 141.12 249.51 141.535C249.147 141.613 248.797 141.673 248.45 141.723C245.014 142.234 242.341 141.679 240.972 139.913C240.086 138.769 236.74 135.458 237.024 133.648C237.318 131.84 238.493 129.97 240.236 128.024C240.461 127.775 240.699 127.517 240.946 127.262C244.563 123.52 250.146 119.512 255.648 115.253C262.136 110.228 269.414 104.061 274.854 102.117C275.186 101.992 275.513 101.896 275.837 101.811C276.325 101.678 276.783 101.589 277.232 101.539Z" fill="black"/>
<g opacity="0.2">
<path d="M240.453 126.445L240.947 127.263L249.511 141.535C249.148 141.613 248.798 141.673 248.451 141.723L240.237 128.025L239.6 126.963L240.453 126.445Z" fill="black"/>
</g>
<g opacity="0.2">
<path d="M248.64 124.061L257.462 138.764C257.155 138.915 256.852 139.046 256.557 139.189L247.779 124.566L248.64 124.061Z" fill="black"/>
</g>
<g opacity="0.2">
<path d="M263.753 114.987L272.104 128.908C271.853 129.132 271.593 129.353 271.332 129.575L262.89 115.502L263.753 114.987Z" fill="black"/>
</g>
<g opacity="0.2">
<path d="M256.727 119.206L265.611 134.004C265.335 134.202 265.051 134.388 264.777 134.576L255.864 119.721L256.727 119.206Z" fill="black"/>
</g>
<g opacity="0.2">
<path d="M270.77 108.255L278.893 121.802C278.681 122.085 278.451 122.354 278.22 122.632L269.907 108.77L270.77 108.255Z" fill="black"/>
</g>
<path d="M265.49 127.96C277.152 118.928 283.725 107.885 280.171 103.296C276.616 98.7062 264.281 102.308 252.619 111.34C240.956 120.372 234.384 131.414 237.938 136.003C241.493 140.593 253.828 136.992 265.49 127.96Z" fill="#5431D6"/>
<path opacity="0.2" d="M276.213 106.368C278.724 109.611 273.278 118.034 264.049 125.182C254.82 132.33 245.302 135.495 242.79 132.252C240.279 129.009 245.724 120.586 254.954 113.438C264.184 106.29 273.701 103.125 276.213 106.368Z" fill="white"/>
<path d="M235.135 85.64C233.964 92.221 219.243 95.013 202.519 92.037C185.796 89.06 173.188 81.312 174.359 74.73C174.631 73.204 175.099 67.626 176.665 66.522C181.855 62.862 193.914 65.917 206.76 68.203C218.717 70.331 231.889 70.501 235.137 76.035C237.109 79.39 235.469 83.764 235.135 85.64Z" fill="#5431D6"/>
<path opacity="0.2" d="M235.144 76.0319C237.11 80.5659 235.554 83.2819 235.134 85.6379C234.704 88.0669 232.432 89.9739 228.906 91.2689C228.484 91.4369 228.034 91.5809 227.569 91.7199C225.17 92.4329 222.312 92.9089 219.13 93.1069C218.725 93.1449 218.318 93.1559 217.901 93.1739C214.777 93.3119 211.378 93.1839 207.816 92.8039C207.431 92.7629 207.041 92.7119 206.65 92.6599C205.297 92.4929 203.91 92.2919 202.521 92.0389C201.137 91.7959 199.781 91.5109 198.449 91.1979C198.067 91.1149 197.688 91.0169 197.316 90.9279C193.967 90.0899 190.868 89.0639 188.086 87.9189C187.72 87.7729 187.374 87.6159 187.024 87.4739C184.109 86.1939 181.578 84.7689 179.578 83.2719C179.231 83.0219 178.909 82.7699 178.598 82.5119C175.506 79.9739 173.915 77.2629 174.364 74.7289C174.656 73.0889 174.897 67.6739 176.662 66.5179C178.433 65.3719 180.937 64.9299 183.945 64.9139C184.332 64.9139 184.735 64.9179 185.144 64.9309C191.134 65.1279 198.87 66.7959 206.758 68.2019C216.062 69.8579 226.952 71.3049 232.814 74.4469C233.178 74.6339 233.511 74.8389 233.835 75.0499C234.325 75.3649 234.754 75.6869 235.144 76.0319Z" fill="black"/>
<g opacity="0.2">
<path d="M185.459 63.88L185.143 64.933L179.577 83.274C179.23 83.024 178.908 82.772 178.597 82.514L183.944 64.916L184.358 63.551L185.459 63.88Z" fill="black"/>
</g>
<g opacity="0.2">
<path d="M193.82 69.027L188.085 87.921C187.719 87.775 187.373 87.618 187.023 87.476L192.724 68.682L193.82 69.027Z" fill="black"/>
</g>
<g opacity="0.2">
<path d="M213.246 74.917L207.815 92.805C207.43 92.764 207.04 92.713 206.649 92.661L212.139 74.578L213.246 74.917Z" fill="black"/>
</g>
<g opacity="0.2">
<path d="M204.216 72.179L198.448 91.199C198.066 91.116 197.687 91.018 197.315 90.929L203.109 71.84L204.216 72.179Z" fill="black"/>
</g>
<g opacity="0.2">
<path d="M224.417 75.705L219.129 93.108C218.724 93.146 218.317 93.157 217.9 93.175L223.311 75.366L224.417 75.705Z" fill="black"/>
</g>
<path d="M235.909 79.907C237.08 73.3258 224.472 65.578 207.749 62.602C191.026 59.6259 176.519 62.5485 175.348 69.1297C174.177 75.711 186.784 83.4587 203.508 86.4348C220.231 89.4108 234.738 86.4882 235.909 79.907Z" fill="#5431D6"/>
<path opacity="0.2" d="M230.234 78.893C229.406 83.543 218.007 85.403 204.772 83.047C191.537 80.691 181.48 75.012 182.307 70.362C183.134 65.712 194.534 63.852 207.769 66.207C221.004 68.564 231.062 74.243 230.234 78.893Z" fill="white"/>
<path d="M322.44 253.628L219.532 259.615C215.884 259.827 212.303 260.701 208.969 262.194L97.187 312.232C93.129 314.048 90.885 318.401 91.794 322.693L110.288 410.034C111.557 416.027 118.238 419.182 123.791 416.409L234.121 361.331L335.995 357.887C341.347 357.706 345.341 352.921 344.492 347.708L330.856 264.069C330.152 259.749 326.875 253.497 322.44 253.628Z" fill="#5431D6"/>
<path opacity="0.1" d="M322.44 253.628L219.532 259.615C215.884 259.827 212.303 260.701 208.969 262.194L97.187 312.232C93.129 314.048 90.885 318.401 91.794 322.693L110.288 410.034C111.557 416.027 118.238 419.182 123.791 416.409L234.121 361.331L335.995 357.887C341.347 357.706 345.341 352.921 344.492 347.708L330.856 264.069C330.152 259.749 326.875 253.497 322.44 253.628Z" fill="black"/>
<path d="M115.865 196.772L61.8569 246.549L158.759 351.687L212.767 301.91L115.865 196.772Z" fill="#5431D6"/>
<path opacity="0.5" d="M212.78 301.903L158.773 351.68L61.8687 246.548L97.3097 213.878L115.876 196.762L118.972 200.118L212.78 301.903Z" fill="#FAFAFA"/>
<path d="M116.216 203.201L68.5586 247.125L159.204 345.475L206.861 301.55L116.216 203.201Z" stroke="#5431D6" stroke-miterlimit="10"/>
<path d="M148.457 285.955C153.921 280.918 153.23 271.279 146.913 264.426C140.596 257.573 131.046 256.101 125.581 261.138C120.117 266.175 120.808 275.814 127.125 282.667C133.442 289.52 142.993 290.992 148.457 285.955Z" fill="#5431D6"/>
<path opacity="0.1" d="M158.197 309.015L139.007 315.644L97.3096 213.878L115.876 196.762L118.972 200.118L158.197 309.015Z" fill="black"/>
<path d="M161.92 155.574L92.8696 180.605L141.6 315.027L210.65 289.996L161.92 155.574Z" fill="#5431D6"/>
<path opacity="0.5" d="M161.92 155.574L92.8696 180.605L141.6 315.027L210.65 289.996L161.92 155.574Z" fill="#FAFAFA"/>
<path d="M159.759 161.638L98.8271 183.727L144.411 309.469L205.342 287.38L159.759 161.638Z" stroke="#5431D6" stroke-miterlimit="10"/>
<path d="M157.475 250.421C164.461 247.889 167.55 238.733 164.374 229.971C161.198 221.21 152.959 216.16 145.973 218.693C138.986 221.226 135.898 230.381 139.074 239.143C142.25 247.905 150.488 252.954 157.475 250.421Z" fill="#5431D6"/>
<path d="M323.111 257.179L221.611 262.897C218.013 263.1 214.482 263.964 211.198 265.447L101.059 315.171C97.0606 316.976 94.8576 321.321 95.7656 325.613L114.236 412.959C115.504 418.953 122.102 422.123 127.573 419.366L236.266 364.6L336.753 361.422C342.032 361.255 345.96 356.482 345.108 351.27L331.44 267.637C330.735 263.317 327.486 257.059 323.111 257.179Z" fill="#5431D6"/>
<path opacity="0.2" d="M225.74 278.203L312.826 272.836" stroke="black" stroke-width="2" stroke-miterlimit="10" stroke-linecap="round" stroke-linejoin="round"/>
<path opacity="0.2" d="M215.307 280.453L231.221 353.533" stroke="black" stroke-width="2" stroke-miterlimit="10" stroke-linecap="round" stroke-linejoin="round"/>
<path opacity="0.2" d="M109.23 346.429L120.449 402.645C120.449 402.645 129.05 380.338 109.23 346.429Z" fill="#FAFAFA"/>
<path opacity="0.2" d="M110.702 347.09C111.087 348.115 210.356 305.493 210.356 305.493C210.356 305.493 212.868 336.132 182.994 352.889C153.12 369.645 110.702 347.09 110.702 347.09Z" fill="#FAFAFA"/>
<path d="M176.642 348.747C179.017 348.747 180.942 346.822 180.942 344.447C180.942 342.072 179.017 340.147 176.642 340.147C174.267 340.147 172.342 342.072 172.342 344.447C172.342 346.822 174.267 348.747 176.642 348.747Z" fill="#5431D6"/>
<path opacity="0.2" d="M210.408 305.493C210.408 305.493 222.72 324.016 219.742 355.583Z" fill="black"/>
<g opacity="0.2">
<path d="M104.48 324.35L106.767 323.339" stroke="#FAFAFA" stroke-linecap="round" stroke-linejoin="round"/>
<path d="M111.521 321.238L204.221 280.264" stroke="#FAFAFA" stroke-linecap="round" stroke-linejoin="round" stroke-dasharray="5.2 5.2"/>
<path d="M206.598 279.213L208.884 278.203" stroke="#FAFAFA" stroke-linecap="round" stroke-linejoin="round"/>
</g>
<path opacity="0.2" d="M228.661 294.629L315.747 289.262" stroke="black" stroke-width="2" stroke-miterlimit="10" stroke-linecap="round" stroke-linejoin="round"/>
<path opacity="0.2" d="M232.58 315.116L319.666 309.75" stroke="black" stroke-width="2" stroke-miterlimit="10" stroke-linecap="round" stroke-linejoin="round"/>
<path d="M300.583 169.557C300.583 169.557 298.39 192.891 289.724 194.901C281.057 196.911 273.732 193.304 273.732 193.304L266.685 187.882L263.245 199.87C263.245 199.87 267.006 204.982 274.852 201.438C274.852 201.438 288.843 207.605 296.589 201.438C304.335 195.271 306.813 178.382 306.813 178.382L300.583 169.557Z" fill="#B97964"/>
<path d="M307.552 158.256C307.552 158.256 301.504 147.947 304.253 129.253C307.002 110.559 322.672 108.223 328.72 109.597C334.768 110.971 339.716 116.763 343.84 127.819C347.964 138.874 349.476 141.761 356.348 139.837C363.221 137.913 381.502 131.865 386.588 137.225C391.674 142.586 390.024 148.634 390.024 148.634C390.024 148.634 415.453 142.449 413.253 165.128C411.054 187.808 374.354 208.976 339.441 186.571C304.528 164.166 307.552 158.256 307.552 158.256Z" fill="#263238"/>
<path d="M307.269 213.147C307.269 213.147 300.358 272.58 300.588 300.454C300.818 328.328 310.724 393.981 310.724 393.981H322.933C322.933 393.981 321.32 341.459 321.551 323.49C321.782 305.521 325.006 275.805 325.006 275.805C325.006 275.805 328.922 302.527 333.529 311.972C338.136 321.417 363.706 354.819 381.444 365.186L389.737 357.584C389.737 357.584 371.308 334.778 364.397 323.49C357.486 312.202 351.266 308.977 348.732 288.014C346.198 267.051 350.575 233.418 343.203 213.147H307.269Z" fill="#263238"/>
<path opacity="0.2" d="M325.007 275.806L319.697 238.136C319.697 238.136 315.508 260.785 323.764 288.435L325.007 275.806Z" fill="black"/>
<path d="M313.228 397.33L313.637 409.001L321.827 409.683L322.237 408.591V396.511L313.228 397.33Z" fill="#B97964"/>
<path d="M309.338 392.894L310.088 397.262L324.148 397.603L325.035 392.348L309.338 392.894Z" fill="#5431D6"/>
<path d="M377.588 366.004L390.623 353.855L393.49 358.428L382.297 368.665L377.588 366.004Z" fill="#5431D6"/>
<path d="M383.867 366.004L392.466 373.238L397.994 366.754L390.93 359.452L383.867 366.004Z" fill="#B97964"/>
<path d="M399.661 366.248L404.862 369.452C405.873 370.075 406.08 371.457 405.291 372.345C401.516 376.599 391.888 387.418 390.93 388.185C389.736 389.141 388.302 387.503 387.961 386.001C387.961 386.001 390.691 382.384 390.93 380.063C391.106 378.356 391.023 375.873 390.967 374.68C390.946 374.229 391.098 373.792 391.391 373.449L397.205 366.635C397.816 365.918 398.859 365.754 399.661 366.248Z" fill="#263238"/>
<path d="M323.827 409.984L324.909 415.996C325.119 417.165 324.227 418.241 323.039 418.246C317.351 418.271 302.869 418.313 301.659 418.11C300.15 417.857 300.415 415.697 301.306 414.441C301.306 414.441 305.822 414.063 307.71 412.693C309.099 411.685 310.894 409.968 311.746 409.13C312.068 408.814 312.495 408.636 312.946 408.625L321.9 408.412C322.843 408.389 323.66 409.056 323.827 409.984Z" fill="#263238"/>
<path d="M344.515 180.192L356.995 171.429C356.995 171.429 353.676 158.152 348.763 157.489C343.851 156.825 319.422 152.178 303.888 157.489C303.888 157.489 298.312 159.082 296.586 174.749L303.224 176.873C303.224 176.873 305.614 206.214 307.074 210.728H342.522C342.524 210.728 342.922 185.503 344.515 180.192Z" fill="#5431D6"/>
<path d="M347.211 178.299C347.211 178.299 351.935 191.801 352.781 199.056C352.781 199.056 341.536 194.582 338.635 192.527L336.443 184.627L328.962 181.04L326.791 186.965L332.952 194.703C332.952 194.703 349.876 210.542 358.462 206.915C367.048 203.288 355.066 172.784 355.066 172.784L347.211 178.299Z" fill="#B97964"/>
<path d="M315.456 119.186C315.456 119.186 311.133 127.831 311.494 134.855C311.854 141.879 315.366 144.761 322.12 145.752C322.12 145.752 325.002 154.757 317.437 155.658C316.862 155.726 316.654 158.021 316.704 158.389C316.9 159.852 318.348 160.648 319.657 160.989C321.059 161.355 322.551 161.421 323.993 161.468C327.231 161.573 329.898 160.266 332.058 157.879C332.224 157.696 333.738 155.749 333.738 155.749C333.738 155.749 330.134 153.961 331.397 142.241C331.397 142.241 333.828 140.89 335.179 137.558C335.179 137.558 337.52 136.387 338.061 134.046C338.601 131.705 336.53 128.463 332.748 131.705C332.748 131.705 325.634 128.103 322.932 115.495C322.932 115.495 320.139 118.646 315.456 119.186Z" fill="#B97964"/>
<path d="M317.488 132.943L318.104 128.32L314.829 131.942C314.829 131.942 315.87 133.135 317.488 132.943Z" fill="#A24E3F"/>
<path d="M319.39 136.324C319.39 136.324 322.843 136.852 324.499 134.637" stroke="#222221" stroke-width="0.75" stroke-miterlimit="10" stroke-linecap="round" stroke-linejoin="round"/>
<path d="M322.843 121.847C322.843 121.847 325.039 120.999 327.312 123.041" stroke="#222221" stroke-miterlimit="10" stroke-linecap="round" stroke-linejoin="round"/>
<path d="M316.871 120.845C316.871 120.845 314.906 120.535 313.982 121.672" stroke="#222221" stroke-miterlimit="10" stroke-linecap="round" stroke-linejoin="round"/>
<path d="M324.232 127.928C324.141 128.625 323.692 129.14 323.229 129.08C322.765 129.02 322.463 128.406 322.554 127.71C322.644 127.013 323.094 126.498 323.557 126.558C324.02 126.619 324.322 127.232 324.232 127.928Z" fill="#222221"/>
<path d="M316.266 126.399C316.176 127.096 315.726 127.611 315.263 127.551C314.799 127.491 314.497 126.877 314.588 126.181C314.678 125.484 315.128 124.969 315.591 125.029C316.054 125.089 316.357 125.702 316.266 126.399Z" fill="#222221"/>
<path d="M323.556 126.558L321.978 125.87C321.978 125.87 322.303 127.294 323.556 126.558Z" fill="#222221"/>
<path d="M315.722 125.079L314.144 124.391C314.144 124.391 314.469 125.815 315.722 125.079Z" fill="#222221"/>
<path d="M305.843 209.168V213.337L344.235 213.662L343.212 208.696L305.843 209.168Z" fill="#5431D6"/>
<path opacity="0.4" d="M305.843 209.168V213.337L344.235 213.662L343.212 208.696L305.843 209.168Z" fill="white"/>
<path d="M306.308 188.927L285.195 262.394C283.704 267.587 279.22 271.103 274.173 271.606C272.604 271.759 270.974 271.629 269.354 271.166L228.947 259.554C222.154 257.596 218.226 250.504 220.175 243.713L241.296 170.234C242.431 166.304 245.277 163.329 248.808 161.905C251.363 160.868 254.276 160.648 257.14 161.471L297.544 173.073C304.337 175.032 308.264 182.124 306.308 188.927Z" fill="#5431D6"/>
<path opacity="0.2" d="M306.308 188.927L285.195 262.394C283.704 267.587 279.22 271.103 274.173 271.606C272.604 271.759 270.974 271.629 269.354 271.166L228.947 259.554C222.154 257.596 218.226 250.504 220.175 243.713L241.296 170.234C242.431 166.304 245.277 163.329 248.808 161.905C251.363 160.868 254.276 160.648 257.14 161.471L297.544 173.073C304.337 175.032 308.264 182.124 306.308 188.927Z" fill="black"/>
<path d="M302.795 189.801L281.682 263.268C280.549 267.208 277.693 270.185 274.173 271.607C272.604 271.76 270.974 271.63 269.354 271.167L228.947 259.555C222.154 257.597 218.226 250.505 220.175 243.714L241.296 170.235C242.431 166.305 245.277 163.33 248.808 161.906C250.377 161.753 252.007 161.883 253.627 162.346L294.031 173.948C300.824 175.906 304.751 182.998 302.795 189.801Z" fill="#5431D6"/>
<path opacity="0.5" d="M302.795 189.801L281.682 263.268C280.549 267.208 277.693 270.185 274.173 271.607C272.604 271.76 270.974 271.63 269.354 271.167L228.947 259.555C222.154 257.597 218.226 250.505 220.175 243.714L241.296 170.235C242.431 166.305 245.277 163.33 248.808 161.906C250.377 161.753 252.007 161.883 253.627 162.346L294.031 173.948C300.824 175.906 304.751 182.998 302.795 189.801Z" fill="#FAFAFA"/>
<path d="M246.028 196.027L241.705 194.809L226.155 249.995L230.479 251.213L246.028 196.027Z" fill="#FAFAFA"/>
<path d="M236.667 252.985L232.349 251.744L247.895 196.569L252.213 197.81L236.667 252.985Z" fill="#FAFAFA"/>
<path d="M242.949 254.791L238.632 253.55L254.178 198.375L258.496 199.616L242.949 254.791Z" fill="#FAFAFA"/>
<path opacity="0.5" d="M283.668 206.839L279.344 205.62L263.795 260.806L268.118 262.024L283.668 206.839Z" fill="black"/>
<path d="M283.1 191.25L280.95 198.74L278.39 198.02C275.81 197.29 274.31 194.61 275.03 192.03L276.43 187.06L281.6 188.54C282.76 188.88 283.43 190.09 283.1 191.25Z" fill="#FAFAFA"/>
<path d="M281.87 187.58L276.7 186.1L278.25 180.62C278.97 178.04 281.66 176.54 284.24 177.26L286.9 178.01L284.58 186.08C284.25 187.25 283.04 187.92 281.87 187.58Z" fill="#FAFAFA"/>
<path d="M286.77 190.03L291.97 191.52L290.59 196.41C289.87 198.99 287.19 200.5 284.61 199.77L281.91 199.01L284.06 191.53C284.39 190.37 285.6 189.7 286.77 190.03Z" fill="#FAFAFA"/>
<path d="M293.81 185L292.24 190.56L287.04 189.07C285.88 188.73 285.21 187.52 285.54 186.36L287.86 178.29L290.45 179.02C293.03 179.74 294.53 182.42 293.81 185Z" fill="#FAFAFA"/>
</svg>
