<svg width="500" height="500" viewBox="0 0 500 500" fill="none" xmlns="http://www.w3.org/2000/svg">
<path d="M500 382.398H0V382.648H500V382.398Z" fill="#EBEBEB"/>
<path d="M449.901 398.494H416.779V398.744H449.901V398.494Z" fill="#EBEBEB"/>
<path d="M331.22 401.208H322.527V401.458H331.22V401.208Z" fill="#EBEBEB"/>
<path d="M415.778 389.208H396.586V389.458H415.778V389.208Z" fill="#EBEBEB"/>
<path d="M95.652 390.888H52.459V391.138H95.652V390.888Z" fill="#EBEBEB"/>
<path d="M110.889 390.888H104.556V391.138H110.889V390.888Z" fill="#EBEBEB"/>
<path d="M225.147 395.111H131.471V395.361H225.147V395.111Z" fill="#EBEBEB"/>
<path d="M237.014 337.8H43.915C40.768 337.8 38.207 335.239 38.207 332.092V60.66C38.207 57.513 40.768 54.952 43.915 54.952H237.014C240.16 54.952 242.721 57.513 242.721 60.66V332.092C242.721 335.239 240.16 337.8 237.014 337.8ZM43.915 55.203C40.905 55.203 38.457 57.651 38.457 60.661V332.093C38.457 335.103 40.905 337.551 43.915 337.551H237.014C240.023 337.551 242.471 335.103 242.471 332.093V60.66C242.471 57.651 240.023 55.202 237.014 55.202L43.915 55.203Z" fill="#EBEBEB"/>
<path d="M453.31 337.8H260.212C257.065 337.8 254.505 335.239 254.505 332.092V60.66C254.505 57.513 257.066 54.952 260.212 54.952H453.31C456.458 54.952 459.018 57.513 459.018 60.66V332.092C459.019 335.239 456.458 337.8 453.31 337.8ZM260.212 55.203C257.203 55.203 254.755 57.651 254.755 60.661V332.093C254.755 335.103 257.203 337.551 260.212 337.551H453.31C456.32 337.551 458.768 335.103 458.768 332.093V60.66C458.768 57.651 456.32 55.202 453.31 55.202L260.212 55.203Z" fill="#EBEBEB"/>
<path d="M359.323 190.253C388.276 190.253 411.747 166.782 411.747 137.829C411.747 108.876 388.276 85.405 359.323 85.405C330.37 85.405 306.899 108.876 306.899 137.829C306.899 166.782 330.37 190.253 359.323 190.253Z" fill="#E0E0E0"/>
<path d="M355.344 190.253C384.297 190.253 407.768 166.782 407.768 137.829C407.768 108.876 384.297 85.405 355.344 85.405C326.391 85.405 302.92 108.876 302.92 137.829C302.92 166.782 326.391 190.253 355.344 190.253Z" fill="#F5F5F5"/>
<path d="M389.597 172.087C408.516 153.167 408.516 122.493 389.597 103.574C370.677 84.6551 340.003 84.6551 321.084 103.574C302.165 122.493 302.165 153.167 321.084 172.087C340.003 191.006 370.677 191.006 389.597 172.087Z" fill="white"/>
<path d="M363.596 173.093C363.067 173.093 362.585 172.732 362.455 172.194L354.202 138.105C354.05 137.475 354.437 136.84 355.067 136.687C355.695 136.532 356.332 136.921 356.485 137.552L364.738 171.641C364.89 172.271 364.503 172.906 363.873 173.059C363.781 173.083 363.688 173.093 363.596 173.093Z" fill="#F5F5F5"/>
<path d="M355.344 140.178C354.742 140.178 354.142 139.949 353.683 139.49L325.333 111.14C324.416 110.223 324.416 108.736 325.333 107.819C326.251 106.901 327.737 106.901 328.655 107.819L355.344 134.507L370.908 118.944C371.826 118.026 373.312 118.026 374.23 118.944C375.147 119.861 375.147 121.348 374.23 122.265L357.005 139.49C356.546 139.949 355.946 140.178 355.344 140.178Z" fill="#EBEBEB"/>
<path d="M221.501 375.097H229.398V320.999H221.501V375.097Z" fill="#F0F0F0"/>
<path d="M61.7001 382.398H224.184V375.097H61.7001V382.398Z" fill="#F0F0F0"/>
<path d="M221.502 321H56.4868V375.098H221.502V321Z" fill="#F5F5F5"/>
<path d="M210.826 330.415H67.1626V361.312H210.826V330.415Z" fill="#F0F0F0"/>
<path d="M104.042 334.557H173.946C175.249 334.557 176.314 333.491 176.314 332.189V331.743C176.314 330.441 175.248 329.375 173.946 329.375H104.042C102.74 329.375 101.674 330.441 101.674 331.743V332.189C101.674 333.492 102.74 334.557 104.042 334.557Z" fill="#F5F5F5"/>
<path d="M52.8689 321H221.502V316.167H52.8689V321Z" fill="#F0F0F0"/>
<path d="M233.194 316.167H221.502V321H233.194V316.167Z" fill="#E6E6E6"/>
<path d="M429.684 263.88H414.286V382.399H429.684V263.88Z" fill="#F0F0F0"/>
<path d="M279.5 382.398H414.286V263.879H279.5V382.398Z" fill="#F5F5F5"/>
<path d="M278.269 371.995H396.61V308.606H278.269V371.995Z" fill="#FAFAFA"/>
<path d="M278.269 301.879H396.61V281.01H278.269V301.879Z" fill="#FAFAFA"/>
<path opacity="0.7" d="M397.667 308.604H396.611V371.993H397.667V308.604Z" fill="#E6E6E6"/>
<path opacity="0.7" d="M397.667 281.009H396.611V301.878H397.667V281.009Z" fill="#E6E6E6"/>
<path opacity="0.7" d="M429.684 268.881H279.159V271.561H429.684V268.881Z" fill="#E6E6E6"/>
<path d="M431.483 262.258H414.286V270.009H431.483V262.258Z" fill="#F0F0F0"/>
<path d="M277.701 270.009H414.286V262.258H277.701V270.009Z" fill="#F5F5F5"/>
<path d="M328.941 239.44C327.942 238.035 327.475 236.314 327.144 234.621C326.889 232.913 326.76 231.163 326.88 229.439C327.094 225.987 327.845 222.576 329.058 219.384C329.593 217.753 330.373 216.236 331.061 214.679C331.856 213.178 332.664 211.685 333.557 210.248C334.494 208.838 335.453 207.445 336.474 206.104C337.562 204.805 338.638 203.507 339.832 202.304C339.255 203.915 338.558 205.431 337.874 206.946C337.188 208.458 336.575 209.998 335.866 211.477L333.934 215.984L333.046 218.252L332.582 219.376L332.185 220.52C331.031 223.543 330.136 226.626 329.469 229.761C329.131 231.33 328.895 232.917 328.769 234.53C328.644 236.144 328.634 237.776 328.941 239.44Z" fill="#E6E6E6"/>
<path d="M309.529 242.089C309.617 239.528 309.46 237.118 308.901 234.898C308.351 232.68 307.368 230.716 305.969 229.058C304.551 227.411 302.735 226.056 300.686 224.897C298.645 223.713 296.384 222.776 294.047 221.683C296.61 221.41 299.219 221.67 301.732 222.499C302.989 222.91 304.215 223.478 305.372 224.202C306.517 224.945 307.587 225.844 308.505 226.905C310.329 229.046 311.376 231.831 311.484 234.541C311.594 237.251 310.94 239.916 309.529 242.089Z" fill="#E6E6E6"/>
<path d="M310.397 241.74C310.294 238.826 310.058 236.044 309.605 233.341C309.148 230.647 308.477 228.041 307.417 225.63C306.38 223.208 304.968 220.989 303.183 218.992C301.395 216.993 299.231 215.269 296.858 213.551C299.75 213.982 302.564 215.204 304.962 217.074C307.35 218.955 309.276 221.493 310.47 224.312C311.699 227.123 312.216 230.171 312.204 233.143C312.164 236.115 311.65 239.076 310.397 241.74Z" fill="#E6E6E6"/>
<path d="M327.609 236.631C325.381 233.835 323.644 230.717 322.11 227.519C320.601 224.306 319.367 220.961 318.399 217.536C317.406 214.118 316.796 210.582 316.469 207.031C316.162 203.478 316.294 199.868 316.96 196.372C317.69 199.876 318.246 203.271 319.055 206.636C319.846 209.994 320.646 213.331 321.602 216.641C322.534 219.954 323.515 223.26 324.54 226.575C325.553 229.897 326.618 233.208 327.609 236.631Z" fill="#E6E6E6"/>
<path d="M326.712 236.38C324.176 233.991 322.065 231.234 320.129 228.376C318.216 225.5 316.539 222.464 315.099 219.314C313.643 216.171 312.518 212.867 311.66 209.503C310.836 206.129 310.388 202.641 310.508 199.172C311.766 202.424 312.86 205.591 314.15 208.703C315.437 211.808 316.721 214.893 318.127 217.94C319.518 220.991 320.942 224.034 322.395 227.087C323.838 230.15 325.315 233.201 326.712 236.38Z" fill="#E6E6E6"/>
<path d="M330.428 239.577C327.582 238.139 325.055 236.209 322.684 234.125C320.33 232.017 318.178 229.68 316.245 227.165C314.291 224.667 312.656 221.909 311.285 219.042C309.934 216.162 308.982 213.075 308.584 209.93C310.302 212.62 311.821 215.249 313.565 217.759C315.295 220.266 317.02 222.749 318.89 225.147C320.738 227.557 322.63 229.942 324.568 232.322C326.498 234.712 328.473 237.076 330.428 239.577Z" fill="#E6E6E6"/>
<path d="M324.989 236.396C322.233 235.329 319.765 233.67 317.507 231.8C315.249 229.918 313.224 227.751 311.47 225.381C310.564 224.216 309.804 222.944 309.03 221.691C308.349 220.378 307.615 219.099 307.099 217.709C305.934 215.004 305.254 212.09 305.013 209.172C306.58 211.682 307.871 214.169 309.426 216.513C310.133 217.717 310.965 218.843 311.704 220.016C312.531 221.136 313.276 222.305 314.138 223.397C315.786 225.63 317.518 227.811 319.34 229.948C321.155 232.1 323.033 234.206 324.989 236.396Z" fill="#E6E6E6"/>
<path d="M329.258 238.112C327.945 237.272 327.007 235.922 326.277 234.528C325.61 233.102 325.069 231.575 324.832 230.012C324.315 226.889 324.445 223.684 325.091 220.654C325.377 219.125 325.85 217.654 326.294 216.18C326.858 214.752 327.37 213.302 328.052 211.935C328.752 210.577 329.456 209.224 330.263 207.936C331.125 206.673 331.972 205.413 332.949 204.236C332.631 205.751 332.184 207.182 331.75 208.611C331.296 210.029 330.957 211.48 330.494 212.872C330.071 214.279 329.739 215.701 329.315 217.091L328.823 219.202C328.656 219.903 328.448 220.598 328.353 221.306C327.749 224.115 327.432 226.936 327.427 229.758C327.414 231.174 327.549 232.58 327.81 233.987C328.071 235.396 328.502 236.784 329.258 238.112Z" fill="#E6E6E6"/>
<path d="M327.403 234.92C325.165 232.662 323.688 229.714 322.767 226.635C321.874 223.541 321.53 220.237 321.895 217.001C321.95 216.189 322.151 215.397 322.277 214.596L322.512 213.402L322.864 212.24C323.118 211.472 323.341 210.695 323.63 209.944C323.961 209.209 324.305 208.482 324.654 207.761L325.186 206.687L325.835 205.678L327.162 203.7C328.145 202.455 329.228 201.291 330.352 200.204C329.831 201.72 329.14 203.085 328.584 204.505L327.794 206.636L327.386 207.682L327.072 208.759C326.859 209.473 326.642 210.18 326.41 210.879L325.919 213.029L325.662 214.096L325.51 215.181C325.416 215.903 325.238 216.616 325.203 217.343C324.872 220.238 324.96 223.159 325.316 226.089C325.673 229.03 326.363 231.954 327.403 234.92Z" fill="#E6E6E6"/>
<path d="M323.18 233.702L308.849 220.949L310.972 238.258L323.18 233.702Z" fill="#E6E6E6"/>
<path d="M295.565 231.374H337.137L331.694 262.258H301.009L295.565 231.374Z" fill="#F5F5F5"/>
<path d="M321.536 231.374H337.137L331.694 262.258H323.5L321.536 231.374Z" fill="#EBEBEB"/>
<path d="M373.864 239.503C374.063 238.073 373.989 236.714 373.693 235.404C373.406 234.102 373.019 232.853 372.456 231.666C371.362 229.292 369.928 227.079 368.226 225.012C367.852 224.462 367.362 223.987 366.926 223.477C366.482 222.97 366.06 222.445 365.597 221.949C364.629 220.993 363.741 219.953 362.754 218.989C361.753 218.042 360.814 217.009 359.808 216.031C358.807 215.045 357.792 214.063 356.848 212.945C358.201 213.447 359.484 214.085 360.781 214.719C362.06 215.378 363.238 216.204 364.446 216.995C365.058 217.381 365.605 217.856 366.166 218.315C366.73 218.771 367.276 219.249 367.83 219.72C368.866 220.745 369.907 221.778 370.823 222.935C372.689 225.207 374.165 227.909 374.928 230.837C375.315 232.295 375.443 233.84 375.317 235.339C375.173 236.827 374.756 238.336 373.864 239.503Z" fill="#E6E6E6"/>
<path d="M397.237 235.313C396.188 234.457 395.452 233.229 394.985 231.891C394.721 231.22 394.647 230.504 394.541 229.777C394.512 229.415 394.541 229.051 394.547 228.683C394.562 228.316 394.55 227.938 394.651 227.587C395.153 224.659 396.876 222.13 398.889 220.226C399.394 219.743 399.955 219.348 400.488 218.909C401.039 218.497 401.566 218.044 402.165 217.728C402.752 217.388 403.332 217.041 403.926 216.719C404.223 216.559 404.512 216.384 404.814 216.239L405.741 215.851C406.359 215.595 406.98 215.35 407.603 215.115C408.222 214.871 408.85 214.655 409.501 214.507C410.8 214.197 412.086 213.881 413.41 213.713C412.356 214.569 411.263 215.277 410.183 215.991C409.63 216.321 409.104 216.694 408.585 217.069C408.062 217.437 407.536 217.793 407.008 218.139C405.919 218.791 404.99 219.623 403.966 220.319C403.443 220.658 403.004 221.076 402.544 221.472C402.09 221.869 401.59 222.229 401.168 222.648C399.439 224.293 397.988 226.104 397.179 228.214C396.95 228.737 396.875 229.294 396.714 229.855C396.665 230.421 396.54 231.009 396.58 231.605C396.569 232.806 396.801 234.048 397.237 235.313Z" fill="#E6E6E6"/>
<path d="M396.167 235.313C394.345 233.066 393.448 230.095 393.375 227.106C393.295 224.098 394.142 221.062 395.609 218.439L396.811 216.535C397.272 215.951 397.763 215.392 398.248 214.832L398.985 214.002L399.814 213.277C400.367 212.795 400.929 212.327 401.491 211.866C402.68 211.031 403.926 210.287 405.175 209.595C406.503 209.026 407.814 208.457 409.176 208.035C408.182 209.099 407.137 210.017 406.11 210.935C405.152 211.936 404.167 212.871 403.226 213.825C402.791 214.337 402.355 214.84 401.91 215.33L401.243 216.063L400.667 216.859C400.287 217.389 399.87 217.891 399.501 218.422L398.506 220.073C397.265 222.306 396.368 224.696 395.977 227.257C395.572 229.817 395.615 232.512 396.167 235.313Z" fill="#E6E6E6"/>
<path d="M375.141 236.79C375.966 233.697 376.874 230.72 377.74 227.742C378.616 224.771 379.459 221.817 380.243 218.857C380.992 215.889 381.667 212.922 382.244 209.914C382.767 206.897 383.118 203.872 383.394 200.668C384.503 203.68 384.866 206.944 384.847 210.169C384.74 213.39 384.253 216.589 383.462 219.694C382.638 222.789 381.536 225.798 380.174 228.677C378.784 231.54 377.202 234.323 375.141 236.79Z" fill="#E6E6E6"/>
<path d="M376.179 236.294C377.478 233.244 378.878 230.33 380.256 227.416C381.641 224.509 383.028 221.626 384.364 218.73C385.676 215.825 386.966 212.923 388.157 209.966C389.325 206.998 390.365 204.002 391.37 200.832C391.756 204.134 391.362 207.495 390.654 210.743C389.886 213.98 388.75 217.111 387.384 220.12C385.997 223.12 384.358 225.99 382.514 228.716C380.646 231.423 378.618 234.033 376.179 236.294Z" fill="#E6E6E6"/>
<path d="M372.112 240.1C374.059 237.417 376.075 234.89 378.069 232.356C380.068 229.832 382.064 227.332 384.013 224.807C385.941 222.268 387.846 219.727 389.668 217.111C391.469 214.479 393.152 211.791 394.84 208.926C394.479 212.231 393.345 215.419 391.929 218.427C390.458 221.411 388.652 224.209 386.648 226.837C384.626 229.451 382.388 231.883 379.981 234.128C377.553 236.349 374.994 238.44 372.112 240.1Z" fill="#E6E6E6"/>
<path d="M378.23 235.744C380.136 233.348 382.054 231.088 383.926 228.801C385.804 226.526 387.632 224.244 389.408 221.933C391.187 219.622 392.837 217.24 394.458 214.811C396.075 212.369 397.47 209.818 399.001 207.146C398.814 210.201 397.991 213.225 396.763 216.048C395.497 218.85 393.926 221.526 392.053 223.95C390.183 226.378 388.087 228.619 385.791 230.623C383.477 232.603 381.009 234.425 378.23 235.744Z" fill="#E6E6E6"/>
<path d="M373.342 238.529C374.523 236.181 374.928 233.785 374.86 231.496C374.77 229.196 374.104 226.975 373.117 224.844L372.781 224.032L372.347 223.252L371.51 221.666C370.843 220.658 370.236 219.6 369.549 218.573C368.815 217.58 368.156 216.509 367.418 215.479C366.675 214.45 365.917 213.42 365.245 212.263C366.411 212.869 367.491 213.602 368.586 214.336C369.651 215.102 370.593 216.022 371.571 216.913C372.07 217.349 372.462 217.894 372.9 218.394C373.331 218.903 373.751 219.422 374.16 219.953L375.231 221.677L375.742 222.556L376.159 223.499C377.304 225.972 377.901 228.859 377.462 231.663C377.012 234.431 375.593 237.086 373.342 238.529Z" fill="#E6E6E6"/>
<path d="M375.198 235.335C376.037 232.731 376.624 230.201 376.878 227.705C377.132 225.214 376.981 222.779 376.349 220.485C376.045 219.334 375.612 218.216 375.055 217.144C374.517 216.062 373.864 215.018 373.115 214.012C371.636 211.982 369.818 210.107 367.891 208.147C370.531 208.92 372.981 210.332 375.064 212.267C376.114 213.225 377.034 214.352 377.801 215.59C378.582 216.82 379.17 218.188 379.557 219.608C380.342 222.454 380.24 225.491 379.434 228.215C378.615 230.934 377.217 233.445 375.198 235.335Z" fill="#E6E6E6"/>
<path d="M380.086 232.969L395.73 217.949L395.102 232.678L380.086 232.969Z" fill="#E6E6E6"/>
<path d="M362.983 231.374H404.556L399.112 262.258H368.427L362.983 231.374Z" fill="#F5F5F5"/>
<path d="M388.956 231.374H404.557L399.113 262.258H390.919L388.956 231.374Z" fill="#EBEBEB"/>
<path d="M103.873 90.721V252.667C103.873 266.698 92.4983 278.073 78.4673 278.073H196.502C210.533 278.073 221.908 266.698 221.908 252.667V90.721H103.873Z" fill="#F5F5F5"/>
<path d="M203.36 131.725H127.115V207.97H203.36V131.725Z" fill="#F0F0F0"/>
<path d="M201.013 129.378H124.768V205.623H201.013V129.378Z" fill="white"/>
<path d="M143.497 216.916H124.104V236.309H143.497V216.916Z" fill="white"/>
<path d="M201.013 216.916H181.62V236.309H201.013V216.916Z" fill="white"/>
<path d="M172.255 216.916H152.862V236.309H172.255V216.916Z" fill="white"/>
<path d="M103.873 90.721V110H221.908V90.721H103.873Z" fill="#F0F0F0"/>
<path d="M110.96 84.53V96.913C110.96 98.817 112.504 100.361 114.408 100.361C116.312 100.361 117.856 98.817 117.856 96.913V84.53C117.856 82.626 116.312 81.082 114.408 81.082C112.503 81.082 110.96 82.625 110.96 84.53Z" fill="#E6E6E6"/>
<path d="M207.925 84.53V96.913C207.925 98.817 209.469 100.361 211.373 100.361C213.277 100.361 214.821 98.817 214.821 96.913V84.53C214.821 82.626 213.277 81.082 211.373 81.082C209.469 81.082 207.925 82.625 207.925 84.53Z" fill="#E6E6E6"/>
<path d="M188.532 84.53V96.913C188.532 98.817 190.076 100.361 191.98 100.361C193.884 100.361 195.428 98.817 195.428 96.913V84.53C195.428 82.626 193.884 81.082 191.98 81.082C190.076 81.082 188.532 82.625 188.532 84.53Z" fill="#E6E6E6"/>
<path d="M169.139 84.53V96.913C169.139 98.817 170.683 100.361 172.587 100.361C174.491 100.361 176.035 98.817 176.035 96.913V84.53C176.035 82.626 174.491 81.082 172.587 81.082C170.682 81.082 169.139 82.625 169.139 84.53Z" fill="#E6E6E6"/>
<path d="M149.746 84.53V96.913C149.746 98.817 151.29 100.361 153.194 100.361C155.098 100.361 156.642 98.817 156.642 96.913V84.53C156.642 82.626 155.098 81.082 153.194 81.082C151.289 81.082 149.746 82.625 149.746 84.53Z" fill="#E6E6E6"/>
<path d="M130.353 84.53V96.913C130.353 98.817 131.897 100.361 133.801 100.361C135.705 100.361 137.249 98.817 137.249 96.913V84.53C137.249 82.626 135.705 81.082 133.801 81.082C131.896 81.082 130.353 82.625 130.353 84.53Z" fill="#E6E6E6"/>
<path d="M185.873 267.444C185.873 273.314 190.632 278.073 196.502 278.073H185.873H63.6891C57.8191 278.073 53.0601 273.314 53.0601 267.444H185.873Z" fill="#E6E6E6"/>
<path d="M250 427.561C357.082 427.561 443.889 422.492 443.889 416.238C443.889 409.985 357.082 404.915 250 404.915C142.918 404.915 56.1108 409.985 56.1108 416.238C56.1108 422.492 142.918 427.561 250 427.561Z" fill="#F5F5F5"/>
<path opacity="0.2" d="M269.592 320.73C269.592 320.73 196.098 364.118 196.098 405.229H343.086C343.086 364.118 269.592 320.73 269.592 320.73Z" fill="#5431D6"/>
<path opacity="0.2" d="M269.592 372.5C269.592 372.5 201.734 389.305 201.734 405.229H337.45C337.45 389.305 269.592 372.5 269.592 372.5Z" fill="#5431D6"/>
<path opacity="0.3" d="M278.514 332.714C292.307 346.278 319.132 376.351 319.132 405.229H300.745C300.745 376.35 286.059 346.277 278.514 332.714Z" fill="white"/>
<path opacity="0.2" d="M269.592 320.73C269.592 320.73 196.098 277.342 196.098 236.231H343.086C343.086 277.342 269.592 320.73 269.592 320.73Z" fill="#5431D6"/>
<path opacity="0.2" d="M269.592 316.766C269.592 316.766 232.068 298.744 232.068 281.667H307.116C307.116 298.743 269.592 316.766 269.592 316.766Z" fill="#5431D6"/>
<path opacity="0.3" d="M261.58 308.746C247.786 295.182 220.962 265.109 220.962 236.231H239.349C239.349 265.109 254.035 295.182 261.58 308.746Z" fill="white"/>
<path opacity="0.3" d="M278.514 308.746C292.307 295.182 318.46 261.631 319.132 236.231H314.227C311.929 267.196 289.43 295.622 278.514 308.746Z" fill="white"/>
<path d="M333.117 221.722H324.783V222.722H333.117V221.722Z" fill="#5431D6"/>
<path d="M361.394 235.461H360.394C360.394 228.437 354.679 222.722 347.656 222.722H338.867V221.722H347.656C355.231 221.722 361.394 227.885 361.394 235.461Z" fill="#5431D6"/>
<path d="M347.655 247.24H191.529C185.898 247.24 181.29 242.633 181.29 237.001V235.46C181.29 229.829 185.897 225.221 191.529 225.221H347.656C353.287 225.221 357.895 229.828 357.895 235.46V237.001C357.894 242.633 353.287 247.24 347.655 247.24Z" fill="#5431D6"/>
<path d="M347.655 394.22H191.529C185.898 394.22 181.29 398.827 181.29 404.459V406C181.29 411.631 185.897 416.239 191.529 416.239H347.656C353.287 416.239 357.895 411.632 357.895 406V404.459C357.894 398.827 353.287 394.22 347.655 394.22Z" fill="#5431D6"/>
<path d="M140.721 304.52L133.942 298.502L145.497 280.746L152.275 286.764L140.721 304.52Z" fill="#FF8B7B"/>
<path d="M135.34 294.683L143.963 300.665C144.277 300.883 144.362 301.265 144.169 301.584L139.854 308.697C139.406 309.435 138.278 309.644 137.564 309.13C134.598 306.996 133.455 305.961 129.861 303.065C127.65 301.283 122.384 296.997 119.664 294.173C117.003 291.411 119.814 288.738 121.219 289.693C124.545 291.954 130.343 294.437 133.691 294.238C134.295 294.202 134.881 294.365 135.34 294.683Z" fill="#263238"/>
<path opacity="0.2" d="M152.274 286.77L145.492 280.75L139.932 289.302L146.88 295.066L152.274 286.77Z" fill="black"/>
<path d="M221.247 198.1C221.247 198.1 175.75 194.995 170.107 210.414C157.28 245.466 140.585 282.662 140.585 282.662L154.035 292.367C154.035 292.367 182.392 249.025 191.008 221.192C208.508 225.438 240.147 229.075 250.342 217.376C259.038 207.397 252.529 198.101 252.529 198.101L221.247 198.1Z" fill="#263238"/>
<path opacity="0.3" d="M182.275 225.355C181.217 229.627 179.61 241.893 178.611 250.025C180.815 245.744 182.922 241.403 184.813 237.161L182.275 225.355Z" fill="black"/>
<path d="M153.142 296.76L137.925 284.838L141.036 278.161L158.045 291.152L153.142 296.76Z" fill="#5431D6"/>
<path d="M131.692 294.133C132.401 294.625 133.287 295.023 133.928 295.277C134.008 295.309 134.099 295.291 134.16 295.231C134.222 295.17 134.241 295.08 134.212 295C134.085 294.66 132.942 291.667 131.75 291.385C131.474 291.319 131.208 291.394 130.982 291.603C130.609 291.946 130.458 292.325 130.533 292.729C130.628 293.242 131.097 293.721 131.692 294.133ZM133.616 294.677C132.053 293.998 131.072 293.254 130.96 292.649C130.914 292.398 131.017 292.161 131.276 291.922C131.396 291.812 131.514 291.776 131.648 291.808C132.29 291.96 133.119 293.493 133.616 294.677Z" fill="#5431D6"/>
<path d="M133.884 295.254C133.912 295.273 133.945 295.286 133.98 295.291C134.054 295.301 134.128 295.272 134.176 295.214C134.248 295.126 135.952 293.038 135.695 291.754C135.626 291.408 135.428 291.147 135.11 290.978C134.727 290.775 134.363 290.808 134.086 291.069C133.328 291.783 133.361 294.179 133.81 295.165C133.827 295.202 133.852 295.232 133.884 295.254ZM134.993 291.415C135.142 291.518 135.232 291.657 135.268 291.839C135.422 292.605 134.608 293.913 134.081 294.627C133.805 293.6 133.887 291.855 134.384 291.386C134.478 291.296 134.624 291.213 134.906 291.362C134.938 291.379 134.967 291.397 134.993 291.415Z" fill="#5431D6"/>
<path d="M200.501 315.013L191.749 316.765L190.13 293.329L199.022 293.611L200.501 315.013Z" fill="#FF8B7B"/>
<path d="M190.559 313.561L200.534 309.347C200.897 309.194 201.277 309.33 201.449 309.675L205.266 317.363C205.662 318.16 205.221 319.26 204.379 319.599C200.881 321.006 199.136 321.503 194.749 323.356C192.05 324.496 184.777 327.801 180.85 328.773C177.009 329.724 176.072 325.833 177.65 325.071C181.387 323.266 187.585 317.781 189.26 314.753C189.563 314.207 190.028 313.786 190.559 313.561Z" fill="#263238"/>
<path d="M188.066 316.438C188.886 316.092 189.722 315.539 190.298 315.121C190.37 315.069 190.404 314.98 190.386 314.893C190.367 314.806 190.299 314.739 190.213 314.72C189.846 314.643 186.607 313.986 185.702 314.87C185.492 315.074 185.411 315.347 185.468 315.659C185.561 316.174 185.808 316.515 186.201 316.672C186.701 316.873 187.378 316.728 188.066 316.438ZM189.602 315.061C188.147 316.048 186.957 316.493 186.368 316.256C186.124 316.158 185.974 315.937 185.909 315.579C185.879 315.414 185.913 315.291 186.015 315.192C186.502 314.716 188.295 314.84 189.602 315.061Z" fill="#5431D6"/>
<path d="M190.253 315.146C190.285 315.132 190.315 315.111 190.338 315.083C190.387 315.024 190.403 314.943 190.379 314.869C190.342 314.757 189.463 312.119 188.202 311.634C187.862 311.503 187.526 311.532 187.203 311.716C186.815 311.938 186.642 312.273 186.717 312.659C186.921 313.714 189.028 315.008 190.135 315.161C190.176 315.167 190.216 315.161 190.253 315.146ZM187.519 312.059C187.691 311.986 187.862 311.984 188.04 312.053C188.792 312.342 189.483 313.773 189.814 314.627C188.767 314.301 187.291 313.265 187.157 312.573C187.131 312.441 187.139 312.268 187.424 312.105C187.457 312.088 187.488 312.072 187.519 312.059Z" fill="#5431D6"/>
<path opacity="0.2" d="M199.025 293.617L190.128 293.335L190.979 305.573L199.844 305.411L199.025 293.617Z" fill="black"/>
<path d="M243.355 198.1C243.355 198.1 178.327 204.248 180.695 223.822C184.11 252.053 186.612 301.479 186.612 301.479L203.185 302.13C203.185 302.13 209.397 258.669 205.763 229.761C222.592 229.761 259.147 230.646 265.579 221.953C273.215 211.634 269.679 198.1 269.679 198.1H243.355Z" fill="#263238"/>
<path d="M205.015 303.15L185.124 302.164L184.409 293.507L206.222 295.013L205.015 303.15Z" fill="#5431D6"/>
<path d="M228.918 140.791C228.775 142.58 228.622 144.173 228.403 145.844C228.195 147.495 227.965 149.141 227.714 150.786C227.226 154.079 226.573 157.354 225.833 160.642C225.052 163.922 224.182 167.214 223.038 170.516C221.872 173.815 220.563 177.142 218.508 180.523C217.459 182.209 216.239 183.931 214.478 185.607C214.006 186.057 213.602 186.372 213.193 186.694C212.781 187.033 212.368 187.316 211.954 187.609C211.128 188.19 210.296 188.704 209.461 189.161C206.128 191.002 202.821 192.255 199.509 193.235C197.859 193.736 196.204 194.153 194.551 194.518C192.901 194.892 191.249 195.208 189.594 195.467C186.27 196.001 183.024 196.353 179.587 196.468C177.697 196.531 176.113 195.05 176.05 193.16C175.998 191.608 176.988 190.262 178.39 189.796L178.524 189.752C184.369 187.813 190.358 185.712 195.746 183.192C198.433 181.923 201.009 180.546 203.13 179.012C203.658 178.628 204.154 178.239 204.605 177.854C204.827 177.659 205.061 177.469 205.247 177.273C205.45 177.077 205.659 176.876 205.754 176.759C206.271 176.173 206.889 175.233 207.446 174.15C208.577 171.959 209.562 169.257 210.359 166.461C211.167 163.655 211.868 160.723 212.45 157.74C213.069 154.763 213.551 151.726 214.041 148.683C214.514 145.666 214.899 142.5 215.243 139.598L215.262 139.435C215.709 135.671 219.122 132.983 222.885 133.429C226.559 133.864 229.206 137.138 228.918 140.791Z" fill="#5431D6"/>
<path d="M179.816 188.017L174.805 188.334L178.808 197.535C178.808 197.535 187.46 197.338 187.281 193.078L185.718 191.042C184.379 189.296 182.199 188.179 179.816 188.017Z" fill="#FF8B7B"/>
<path d="M169.34 189.072L173.663 197.534H178.808L174.805 188.333L169.34 189.072Z" fill="#FF8B7B"/>
<path d="M228.199 126.611L237.873 124.63L245.566 123.516C246.668 123.356 247.786 123.269 248.895 123.37C254.874 123.912 260.012 128.09 261.641 134.01C263.566 141.005 265.308 149.595 266.647 157.208C268.506 167.777 269.475 183.661 269.679 198.099H223.83C222.87 171.954 217.271 155.088 215.381 144.652C214.206 138.166 217.522 131.698 223.472 128.863L228.199 126.611Z" fill="#5431D6"/>
<path d="M223.83 132.36C223.939 136.66 224.81 151.995 229.436 160.704C230.252 152.539 239.941 127.679 239.941 127.679L223.83 132.36Z" fill="#F5F5F5"/>
<path opacity="0.3" d="M267.685 164.381C267.687 164.382 267.688 164.383 267.69 164.385C267.67 164.222 267.649 164.066 267.629 163.905C267.599 163.659 267.568 163.42 267.537 163.177C267.487 162.79 267.437 162.406 267.386 162.027C267.337 161.667 267.289 161.309 267.238 160.957C267.188 160.607 267.137 160.266 267.086 159.924C267.043 159.641 267.002 159.354 266.958 159.078C266.858 158.441 266.756 157.817 266.651 157.214C266.321 155.34 265.965 153.405 265.59 151.452C265.58 151.397 265.569 151.342 265.559 151.287C265.182 149.333 264.787 147.362 264.371 145.406C264.362 145.363 264.352 145.32 264.343 145.276C264.166 144.443 263.985 143.616 263.801 142.794C263.732 142.484 263.662 142.178 263.592 141.87C263.471 141.337 263.349 140.809 263.225 140.284C263.127 139.867 263.029 139.452 262.93 139.04C262.909 138.956 262.89 138.869 262.869 138.785H262.867C262.468 137.139 262.059 135.533 261.639 134.011L254.689 130.351C255.488 133.425 256.252 136.796 256.973 140.259C256.108 140.711 255.368 141.254 254.692 141.886C253.034 143.371 253.088 146.523 254.749 150.248C259.476 160.851 261.808 172.379 262.313 183.977C262.518 188.688 262.649 193.459 262.71 198.09L269.68 198.1C269.513 186.639 268.872 174.281 267.685 164.381Z" fill="black"/>
<path d="M234.267 107.34L230.345 113.326L225.008 121.485C225.374 121.676 226.189 122.956 226.658 123.9C227.633 125.865 228.439 127.335 224.314 130.147C223.431 130.749 223.4 131.703 223.6 132.753C223.843 134.027 224.59 135.366 229.043 134.579C234.2 133.669 237.652 130.943 240.218 128.376C241.701 126.893 241.361 125.776 239.932 124.24C235.883 119.89 234.672 112.943 234.267 107.34Z" fill="#FF8B7B"/>
<path d="M224.828 134.729L227.665 136.507L232.263 134.556C231.143 133.548 229.905 132.7 228.213 132.469C226.87 132.857 225.81 133.728 224.828 134.729Z" fill="#263238"/>
<path d="M228.212 132.469C230.321 133.34 231.383 135.299 232.338 137.565C232.338 137.565 242.452 129.897 242.664 124.849C242.12 123.134 239.589 123.434 239.589 123.434C239.589 123.434 236.512 128.767 228.212 132.469Z" fill="white"/>
<path d="M228.212 132.469C226.103 133.34 225.007 135.215 225.007 137.483C225.007 137.483 220.51 132.201 224.171 128.214C225.007 127.615 227.307 127.036 227.307 127.036C227.307 127.036 226.211 129.23 228.212 132.469Z" fill="white"/>
<path d="M228.549 135.678C228.549 135.678 227.775 135.678 227.256 135.678C226.845 136.403 226.257 145.779 226.031 150.766C226.707 153.784 227.589 156.733 228.735 159.26C228.754 159.289 228.764 159.329 228.784 159.358C228.852 159.515 228.921 159.672 228.999 159.818C229.136 160.122 229.283 160.416 229.44 160.7C229.655 158.564 230.479 155.262 231.586 151.569C230.234 145.789 228.549 135.678 228.549 135.678Z" fill="#263238"/>
<path opacity="0.2" d="M226.321 119.48L229.596 113.666C229.663 113.811 229.741 113.978 229.819 114.145C230.075 114.769 230.331 115.548 230.521 116.373C231.123 118.957 229.117 122.644 226.912 124.404C226.823 124.237 226.745 124.07 226.656 123.903C226.244 123.056 225.542 121.943 225.141 121.586C225.097 121.541 225.052 121.508 225.007 121.486L226.321 119.48Z" fill="black"/>
<path d="M210.341 106.985C209.549 103.427 215.198 98.524 215.198 98.524L208.508 96.186C205.491 98.375 207.45 104.569 210.341 106.985Z" fill="#263238"/>
<path d="M232.885 96.743C234.461 105.616 235.828 110.714 232.545 116.408C227.606 124.972 215.974 123.946 211.81 115.811C208.062 108.488 206.115 95.208 213.736 89.381C221.243 83.64 231.309 87.87 232.885 96.743Z" fill="#FF8B7B"/>
<path d="M233.005 105.722L228.809 104.572V99.1671C228.809 99.1671 223.497 96.1251 224.325 92.4171C224.69 89.9171 226.032 86.2221 226.032 86.2221C226.032 86.2221 234.45 85.6811 237.006 86.7571C236.562 87.3891 234.84 88.7781 234.84 88.7781C234.84 88.7781 238.156 91.0001 239.941 94.0001C238.671 94.1111 237.06 95.3891 237.06 95.3891C237.06 95.3891 238.172 102.778 233.005 105.722Z" fill="#263238"/>
<path d="M223.34 80.462C226.429 82.396 224.638 85.959 224.638 85.959L232.911 86.136C232.471 83.521 225.302 80.327 223.34 80.462Z" fill="#263238"/>
<path d="M226.566 94.236C225.978 95.904 219.281 97.939 213.172 98.139C209.061 98.274 204.253 96.464 204.253 96.464C204.253 96.464 205.333 95.25 207.284 94.333C203.59 93.416 198.916 90.175 197.634 87.544C200.971 86.359 203.492 86.545 205.951 86.958C202.826 84.291 202.784 80.75 202.784 80.75C202.784 80.75 218.418 86.953 224.438 84.381C230.985 81.584 235.952 86.83 231.652 90.834C227.351 94.838 226.566 94.236 226.566 94.236Z" fill="#263238"/>
<path d="M237.664 103.171C237.76 105.301 236.957 107.285 235.875 108.57C234.246 110.503 231.735 108.961 231.153 106.549C230.63 104.378 231.308 101.026 233.44 99.987C235.541 98.966 237.554 100.736 237.664 103.171Z" fill="#FF8B7B"/>
<path d="M219.356 104.954C219.584 105.648 219.405 106.345 218.957 106.509C218.509 106.673 217.961 106.244 217.733 105.549C217.505 104.855 217.684 104.158 218.132 103.994C218.58 103.83 219.128 104.26 219.356 104.954Z" fill="#263238"/>
<path d="M211.605 107.798C211.833 108.492 211.654 109.189 211.206 109.353C210.758 109.517 210.21 109.088 209.982 108.393C209.754 107.699 209.933 107.002 210.381 106.838C210.829 106.674 211.377 107.104 211.605 107.798Z" fill="#263238"/>
<path d="M214.255 107.431C214.255 107.431 214.308 111.334 213.535 113.573C214.925 114.078 216.458 112.882 216.458 112.882L214.255 107.431Z" fill="#A02724"/>
<path d="M219.001 115.551C221.72 114.61 222.654 112.389 222.696 112.286C222.741 112.177 222.688 112.052 222.579 112.007C222.469 111.962 222.344 112.015 222.3 112.125C222.289 112.15 221.229 114.681 218.091 115.362C217.974 115.387 217.902 115.501 217.928 115.617C217.953 115.733 218.067 115.806 218.183 115.78C218.471 115.717 218.743 115.64 219.001 115.551Z" fill="#263238"/>
<path d="M221.077 100.897C221.139 100.864 221.193 100.815 221.234 100.751C221.362 100.552 221.304 100.286 221.105 100.158C219.132 98.891 217.326 99.726 217.251 99.763C217.04 99.839 216.946 100.12 217.048 100.334C217.15 100.548 217.405 100.638 217.619 100.537C217.694 100.503 219.092 99.884 220.641 100.879C220.778 100.968 220.945 100.969 221.077 100.897Z" fill="#263238"/>
<path d="M210.069 103.59C210.077 103.52 210.068 103.447 210.039 103.378C209.948 103.159 209.697 103.055 209.478 103.146C207.313 104.045 206.97 106.005 206.957 106.088C206.899 106.305 207.076 106.542 207.311 106.58C207.545 106.618 207.765 106.46 207.803 106.227C207.818 106.146 208.106 104.644 209.807 103.939C209.956 103.876 210.051 103.74 210.069 103.59Z" fill="#263238"/>
<path d="M259.505 129.703C260.609 131.06 261.571 132.286 262.55 133.603C263.524 134.898 264.467 136.213 265.393 137.544C267.256 140.195 269.005 142.938 270.704 145.743C272.36 148.58 273.978 151.464 275.405 154.548C276.824 157.632 278.149 160.849 279.052 164.531C279.488 166.383 279.823 168.378 279.833 170.656C279.816 172.904 279.459 174.881 278.948 176.748C277.909 180.454 276.379 183.647 274.632 186.589C273.77 188.066 272.841 189.473 271.871 190.833C270.91 192.197 269.903 193.511 268.852 194.779C266.746 197.337 264.574 199.676 262.064 201.961C260.666 203.234 258.5 203.131 257.228 201.733C256.19 200.592 256.067 198.942 256.815 197.682L256.904 197.534C259.934 192.44 262.93 187.053 265.036 181.79C266.082 179.158 266.922 176.523 267.268 174.138C267.432 172.962 267.503 171.823 267.405 170.95C267.326 170.108 267.095 169.011 266.719 167.852C265.961 165.512 264.822 162.962 263.474 160.457C262.142 157.941 260.638 155.412 259.042 152.923C257.46 150.417 255.766 147.951 254.048 145.491L251.424 141.832C250.546 140.641 249.627 139.376 248.793 138.286L248.732 138.206C246.429 135.195 247.004 130.888 250.014 128.585C252.965 126.324 257.172 126.841 259.505 129.703Z" fill="#5431D6"/>
<path d="M164.234 203.471L249.312 199.62C250.429 199.569 251.384 200.441 251.435 201.559L162.294 205.594C162.244 204.476 163.117 203.522 164.234 203.471Z" fill="#5431D6"/>
<g opacity="0.6">
<path d="M164.234 203.471L249.312 199.62C250.429 199.569 251.384 200.441 251.435 201.559L162.294 205.594C162.244 204.476 163.117 203.522 164.234 203.471Z" fill="white"/>
</g>
<path d="M150.689 163.995L211.218 161.255C211.958 161.222 212.746 161.787 212.976 162.519L224.596 199.395C224.826 200.126 224.413 200.747 223.673 200.78L163.144 203.52C162.403 203.554 161.616 202.988 161.386 202.256L149.766 165.38C149.535 164.649 149.948 164.029 150.689 163.995Z" fill="#5431D6"/>
<path opacity="0.6" d="M150.689 163.995L211.218 161.255C211.958 161.222 212.746 161.787 212.976 162.519L224.596 199.395C224.826 200.126 224.413 200.747 223.673 200.78L163.144 203.52C162.403 203.554 161.616 202.988 161.386 202.256L149.766 165.38C149.535 164.649 149.948 164.029 150.689 163.995Z" fill="white"/>
<path opacity="0.5" d="M212.976 162.519L224.596 199.395C224.826 200.127 224.413 200.747 223.673 200.78L211.218 161.255C211.958 161.221 212.746 161.787 212.976 162.519Z" fill="#5431D6"/>
<path opacity="0.5" d="M226.939 200.633L249.312 199.62C250.429 199.569 251.384 200.441 251.435 201.559L225 202.755C224.949 201.638 225.822 200.683 226.939 200.633Z" fill="#5431D6"/>
<path d="M255.202 197.277L249.48 198.115L255.34 206.259C255.34 206.259 264.646 204.767 263.57 200.642L261.612 198.984C259.932 197.561 257.565 196.931 255.202 197.277Z" fill="#FF8B7B"/>
<path d="M242.481 200.548L249.653 206.804L255.34 206.258L249.48 198.114L242.481 200.548Z" fill="#FF8B7B"/>
</svg>
