<svg width="500" height="500" viewBox="0 0 500 500" fill="none" xmlns="http://www.w3.org/2000/svg">
<path d="M500 382.398H0V382.648H500V382.398Z" fill="#EBEBEB"/>
<path d="M449.901 398.494H416.779V398.744H449.901V398.494Z" fill="#EBEBEB"/>
<path d="M331.22 401.208H322.527V401.458H331.22V401.208Z" fill="#EBEBEB"/>
<path d="M415.778 389.208H396.586V389.458H415.778V389.208Z" fill="#EBEBEB"/>
<path d="M95.652 390.888H52.459V391.138H95.652V390.888Z" fill="#EBEBEB"/>
<path d="M110.889 390.888H104.556V391.138H110.889V390.888Z" fill="#EBEBEB"/>
<path d="M225.147 395.111H131.471V395.361H225.147V395.111Z" fill="#EBEBEB"/>
<path d="M237.014 337.8H43.915C40.768 337.8 38.207 335.239 38.207 332.092V60.66C38.207 57.513 40.768 54.952 43.915 54.952H237.014C240.16 54.952 242.721 57.513 242.721 60.66V332.092C242.721 335.239 240.16 337.8 237.014 337.8ZM43.915 55.203C40.905 55.203 38.457 57.651 38.457 60.661V332.093C38.457 335.103 40.905 337.551 43.915 337.551H237.014C240.023 337.551 242.471 335.103 242.471 332.093V60.66C242.471 57.651 240.023 55.202 237.014 55.202L43.915 55.203Z" fill="#EBEBEB"/>
<path d="M453.31 337.8H260.212C257.065 337.8 254.505 335.239 254.505 332.092V60.66C254.505 57.513 257.066 54.952 260.212 54.952H453.31C456.458 54.952 459.018 57.513 459.018 60.66V332.092C459.019 335.239 456.458 337.8 453.31 337.8ZM260.212 55.203C257.203 55.203 254.755 57.651 254.755 60.661V332.093C254.755 335.103 257.203 337.551 260.212 337.551H453.31C456.32 337.551 458.768 335.103 458.768 332.093V60.66C458.768 57.651 456.32 55.202 453.31 55.202L260.212 55.203Z" fill="#EBEBEB"/>
<path d="M130.997 379.143H61.9321C69.4221 372.261 87.0501 372.685 87.0501 372.685C87.0501 372.685 74.8231 359.546 79.3331 351.125C83.8431 342.704 95.9161 361.168 95.9161 361.168C95.9161 361.168 80.7311 333.678 86.3801 326.825C92.0291 319.971 107.215 356.93 107.215 356.93C107.215 356.93 97.9911 317.819 103.539 316.71C109.088 315.601 114.885 353.796 114.885 353.796C114.885 353.796 112.889 318.882 117.561 319.878C122.233 320.874 119.968 366.44 119.968 366.44C119.968 366.44 124.665 343.195 126.673 350.606C128.681 358.018 124.658 373.919 124.658 373.919C129.286 373.984 130.617 377.148 130.997 379.143Z" fill="#E0E0E0"/>
<path d="M167.244 379.143H256.931C247.205 370.205 224.313 370.757 224.313 370.757C224.313 370.757 240.191 353.694 234.334 342.759C228.477 331.824 212.799 355.801 212.799 355.801C212.799 355.801 232.518 320.103 225.183 311.203C217.848 302.303 198.126 350.297 198.126 350.297C198.126 350.297 210.105 299.508 202.899 298.067C195.694 296.626 188.165 346.227 188.165 346.227C188.165 346.227 190.756 300.887 184.69 302.181C178.624 303.474 181.565 362.646 181.565 362.646C181.565 362.646 175.466 332.46 172.858 342.085C170.25 351.71 175.474 372.359 175.474 372.359C169.466 372.443 167.737 376.553 167.244 379.143Z" fill="#E0E0E0"/>
<path d="M249.482 379.143H318.547C311.057 372.261 293.429 372.685 293.429 372.685C293.429 372.685 305.656 359.546 301.146 351.125C296.636 342.704 284.563 361.168 284.563 361.168C284.563 361.168 299.748 333.678 294.099 326.825C288.45 319.971 273.264 356.93 273.264 356.93C273.264 356.93 282.488 317.819 276.94 316.71C271.391 315.601 265.594 353.796 265.594 353.796C265.594 353.796 267.59 318.882 262.918 319.878C258.247 320.874 260.511 366.44 260.511 366.44C260.511 366.44 255.814 343.195 253.806 350.606C251.798 358.018 255.821 373.919 255.821 373.919C251.193 373.984 249.862 377.148 249.482 379.143Z" fill="#E0E0E0"/>
<path d="M114.587 379.143C111.528 332.17 104.163 211.869 105.199 160.991L100.294 160.659C100.294 160.659 95.3862 313.94 98.0682 379.143H114.587Z" fill="#E0E0E0"/>
<path d="M103.895 182.01L116.501 171.762L117.76 165.402L125.333 153.853L126.956 153.26L119.491 166.316L119.194 170.702L130.54 168.618L135.292 159.855L140.304 155.916L141.049 157.215L136.781 161.029L133.285 170.394L117.743 174.303L101.526 193.946L103.895 182.01Z" fill="#E0E0E0"/>
<path d="M101.418 172.484L100.808 176.775L87.1759 163.73L78.7769 162.066L72.2969 157.598L72.7439 157.166L78.8979 161.086L85.7179 161.415L79.2559 153.376L72.8959 148.747L73.3319 148.479L79.7099 152.613L90.2109 163.24L89.1709 153.518L86.7369 149.386L86.5009 148.247L89.5629 152.751L97.5439 150.118L98.2089 150.616L90.0239 153.534L91.4999 164.252L101.418 172.484Z" fill="#E0E0E0"/>
<path d="M146.792 155.742C147.1 154 144.343 152.756 141.365 152.554C139.871 152.453 137.185 152.138 134.849 151.524C135.128 150.902 134.929 150.146 135.329 149.066C136.199 146.714 135.735 145.122 133.122 143.07C130.509 141.019 127.875 141.416 122.157 142.087C116.439 142.758 117.243 140.168 112.076 137.703C106.91 135.238 88.952 136.263 85.644 138.559C83.654 139.939 75.893 139.133 73.735 142.513C71.577 145.893 58.84 145.031 60.524 147.965C62.208 150.9 64.226 151.036 63.894 155.95C63.561 160.864 68.017 159.226 72.479 161.078C76.941 162.93 76.343 159.458 79.262 159.236C82.181 159.014 81.375 158.72 84.374 157.333C87.373 155.946 86.948 157.686 91.706 160.078C94.33 161.397 95.305 159.804 96.114 158.126C96.595 159.239 96.053 160.861 97.033 162.74C97.818 164.245 100.97 164.577 103.969 164.297C107.255 170.544 108.67 165.336 112.79 165.782C117.135 166.252 123.675 162.817 126.742 162.449C129.808 162.082 130.006 161.305 133.175 163.761C136.344 166.216 149.984 161.423 151.269 158.949C152.553 156.474 146.484 157.484 146.792 155.742Z" fill="#E0E0E0"/>
<path d="M202.973 379.143C200.068 333.194 194.929 244.489 195.736 204.909L191.541 204.625C191.541 204.625 187.894 318.514 189.256 379.143H202.973Z" fill="#E0E0E0"/>
<path d="M194.62 222.885L205.401 214.122L206.478 208.682L212.954 198.805L214.343 198.298L207.958 209.464L207.704 213.215L217.408 211.433L221.472 203.938L225.759 200.569L226.396 201.68L222.745 204.942L219.755 212.952L206.463 216.294L192.594 233.094L194.62 222.885Z" fill="#E0E0E0"/>
<path d="M192.501 214.739L191.98 218.408L180.321 207.252L173.137 205.829L167.596 202.008L167.978 201.638L173.241 204.99L179.074 205.272L173.548 198.396L168.108 194.438L168.48 194.209L173.935 197.744L182.916 206.833L182.027 198.518L179.945 194.984L179.743 194.01L182.362 197.862L189.188 195.61L189.757 196.036L182.756 198.532L184.019 207.699L192.501 214.739Z" fill="#E0E0E0"/>
<path d="M231.307 200.42C231.57 198.93 229.212 197.866 226.666 197.694C225.388 197.608 223.091 197.338 221.093 196.813C221.332 196.281 221.161 195.635 221.503 194.71C222.247 192.698 221.85 191.337 219.615 189.582C217.38 187.827 215.128 188.168 210.237 188.742C205.346 189.316 206.034 187.101 201.615 184.992C197.196 182.884 181.838 183.761 179.009 185.724C177.307 186.905 170.67 186.215 168.824 189.106C166.978 191.997 156.084 191.259 157.525 193.769C158.965 196.279 160.691 196.396 160.407 200.598C160.123 204.8 163.933 203.4 167.75 204.984C171.566 206.568 171.054 203.599 173.551 203.409C176.047 203.219 175.358 202.967 177.923 201.781C180.488 200.595 180.125 202.083 184.194 204.129C186.438 205.257 187.272 203.895 187.964 202.459C188.375 203.411 187.912 204.798 188.75 206.405C189.421 207.692 192.117 207.976 194.682 207.737C197.492 213.08 198.703 208.626 202.226 209.007C205.942 209.409 211.536 206.471 214.158 206.157C216.78 205.843 216.949 205.179 219.659 207.279C222.37 209.379 234.035 205.28 235.134 203.164C236.235 201.047 231.044 201.91 231.307 200.42Z" fill="#E0E0E0"/>
<path d="M169.822 333.31C168.892 326.725 151.376 191.443 147.412 107.498H140.853C140.853 107.498 144.539 277.092 155.535 338.905L169.822 333.31Z" fill="#E6E6E6"/>
<path d="M86.918 379.143H261.048C242.165 368.842 197.72 369.478 197.72 369.478C197.72 369.478 228.547 349.813 217.176 337.21C205.805 324.607 175.366 352.242 175.366 352.242C175.366 352.242 213.651 311.1 199.409 300.842C185.167 290.585 146.878 345.898 146.878 345.898C146.878 345.898 170.135 287.363 156.145 285.703C142.156 284.043 127.538 341.208 127.538 341.208C127.538 341.208 132.569 288.953 120.791 290.444C109.013 291.935 114.723 360.132 114.723 360.132C114.723 360.132 102.882 325.342 97.818 336.435C92.754 347.528 102.898 371.326 102.898 371.326C91.232 371.421 87.875 376.158 86.918 379.143Z" fill="#F0F0F0"/>
<path d="M147.569 135.593L163.425 120.818L164.529 112.238L173.568 96.183L175.676 95.248L166.915 113.299V119.164L181.829 115.368L187.365 103.276L193.682 97.581L194.791 99.243L189.452 104.704L185.642 117.485L165.307 124.087L145.49 151.694L147.569 135.593Z" fill="#E6E6E6"/>
<path d="M143.413 123.137L142.988 128.903L123.668 112.767L112.338 111.309L103.31 105.945L103.866 105.329L112.41 109.993L121.519 109.817L112.193 99.698L103.31 94.11L103.866 93.714L112.728 98.642L127.663 111.841L125.403 98.994L121.791 93.714L121.374 92.218L125.856 97.938L136.242 93.714L137.173 94.317L126.54 98.939L129.47 113.073L143.413 123.137Z" fill="#E6E6E6"/>
<path d="M202.301 96.765C202.554 94.418 198.771 93.01 194.79 93.01C192.792 93.01 189.189 92.832 186.024 92.226C186.339 91.373 186.006 90.385 186.441 88.91C187.388 85.7 186.626 83.623 182.963 81.128C179.3 78.633 175.83 79.4 168.28 80.807C160.729 82.215 161.566 78.695 154.467 75.879C147.368 73.063 123.558 76.045 119.361 79.399C116.837 81.416 106.434 81.042 103.865 85.735C101.297 90.428 84.2641 90.428 86.7711 94.183C89.2771 97.937 91.9761 97.937 91.9761 104.508C91.9761 111.078 97.7591 108.497 103.866 110.561C109.972 112.624 108.863 108.057 112.728 107.498C116.593 106.939 115.494 106.62 119.361 104.504C123.228 102.388 122.819 104.743 129.368 107.498C132.98 109.018 134.133 106.809 135.06 104.502C135.801 105.94 135.225 108.148 136.699 110.56C137.879 112.492 142.105 112.651 146.072 112.008C151.009 120.028 152.424 112.967 157.947 113.19C163.773 113.425 172.169 108.262 176.218 107.498C180.266 106.733 180.459 105.681 184.898 108.664C189.338 111.647 207.061 104.039 208.549 100.63C210.037 97.221 202.049 99.111 202.301 96.765Z" fill="#F0F0F0"/>
<path d="M426.03 106.08C426.03 102.343 423 99.313 419.263 99.313C418.587 99.313 417.936 99.415 417.32 99.6C417.419 98.921 417.472 98.228 417.472 97.522C417.472 89.608 411.056 83.192 403.142 83.192C402.24 83.192 401.358 83.279 400.502 83.439C398.3 79.834 394.34 77.42 389.807 77.42C382.945 77.42 377.379 82.933 377.277 89.771C377.207 89.77 377.139 89.76 377.068 89.76C370.693 89.76 365.524 94.928 365.524 101.304C365.524 107.68 370.692 112.848 377.068 112.848H419.462L419.453 112.838C423.102 112.736 426.03 109.753 426.03 106.08Z" fill="#F5F5F5"/>
<path d="M279.918 169.282C279.918 165.545 276.888 162.515 273.151 162.515C272.475 162.515 271.824 162.617 271.208 162.801C271.307 162.122 271.36 161.429 271.36 160.723C271.36 152.808 264.944 146.392 257.03 146.392C256.128 146.392 255.246 146.479 254.39 146.639C252.187 143.034 248.228 140.62 243.695 140.62C236.833 140.62 231.267 146.133 231.165 152.971C231.095 152.97 231.027 152.96 230.956 152.96C224.58 152.96 219.412 158.128 219.412 164.504C219.412 170.88 224.58 176.048 230.956 176.048H273.35L273.341 176.038C276.99 175.938 279.918 172.955 279.918 169.282Z" fill="#F5F5F5"/>
<path d="M437.151 252.688C437.151 248.951 434.121 245.921 430.384 245.921C429.708 245.921 429.057 246.023 428.441 246.207C428.54 245.528 428.593 244.835 428.593 244.129C428.593 236.215 422.177 229.799 414.263 229.799C413.361 229.799 412.479 229.886 411.623 230.046C409.421 226.441 405.461 224.027 400.928 224.027C394.066 224.027 388.5 229.54 388.398 236.378C388.328 236.377 388.26 236.367 388.189 236.367C381.813 236.367 376.645 241.535 376.645 247.911C376.645 254.287 381.813 259.455 388.189 259.455H430.583L430.574 259.445C434.223 259.344 437.151 256.361 437.151 252.688Z" fill="#F5F5F5"/>
<path d="M98.8058 222.154C98.8058 219.895 96.9748 218.064 94.7158 218.064C94.3068 218.064 93.9138 218.126 93.5418 218.237C93.6018 217.827 93.6338 217.408 93.6338 216.981C93.6338 212.197 89.7558 208.32 84.9728 208.32C84.4278 208.32 83.8948 208.373 83.3778 208.469C82.0468 206.29 79.6538 204.831 76.9128 204.831C72.7658 204.831 69.4018 208.163 69.3398 212.296C69.2978 212.295 69.2558 212.29 69.2138 212.29C65.3598 212.29 62.2368 215.414 62.2368 219.267C62.2368 223.121 65.3608 226.244 69.2138 226.244H94.8368L94.8318 226.238C97.0358 226.177 98.8058 224.375 98.8058 222.154Z" fill="#F5F5F5"/>
<path d="M315.73 93.728C315.73 91.469 313.899 89.638 311.64 89.638C311.232 89.638 310.838 89.7 310.466 89.811C310.526 89.401 310.558 88.982 310.558 88.555C310.558 83.771 306.68 79.894 301.897 79.894C301.352 79.894 300.819 79.947 300.302 80.043C298.971 77.864 296.578 76.405 293.838 76.405C289.691 76.405 286.327 79.737 286.265 83.87C286.223 83.869 286.181 83.864 286.139 83.864C282.286 83.864 279.162 86.988 279.162 90.841C279.162 94.695 282.286 97.818 286.139 97.818H311.763L311.758 97.812C313.961 97.75 315.73 95.948 315.73 93.728Z" fill="#F5F5F5"/>
<path d="M250 427.561C357.082 427.561 443.889 422.492 443.889 416.238C443.889 409.985 357.082 404.915 250 404.915C142.918 404.915 56.1108 409.985 56.1108 416.238C56.1108 422.492 142.918 427.561 250 427.561Z" fill="#F5F5F5"/>
<path d="M372.251 400.021C372.251 400.021 369.004 399.85 368.68 390.966C368.356 382.082 374.079 379.71 378.483 380.8C378.483 380.8 377.84 374.475 380.694 374.707C383.547 374.939 383.353 379.163 383.353 379.163C383.353 379.163 384.327 370.194 388.222 370.19C392.117 370.186 388.222 380.8 388.222 380.8C388.222 380.8 393.611 378.213 395.591 380.8C397.571 383.387 393.116 386.422 393.116 386.422C393.116 386.422 400.103 388.699 397.182 395.945C397.182 395.945 402.051 396.705 403.415 399.948C403.415 399.948 403.025 393.404 404.778 393.843C406.531 394.282 406.141 400.023 406.141 400.023C406.141 400.023 409.063 393.717 411.595 395.946C414.127 398.175 410.426 403.515 410.426 403.515C410.426 403.515 415.295 401.15 416.074 404.283C416.853 407.416 413.347 408.583 413.347 408.583C413.347 408.583 418.411 407.412 418.411 413.223C418.411 413.223 428.149 412.293 430.487 417.511H372.446L372.251 400.021Z" fill="#5431D6"/>
<path opacity="0.4" d="M372.251 400.021C372.251 400.021 369.004 399.85 368.68 390.966C368.356 382.082 374.079 379.71 378.483 380.8C378.483 380.8 377.84 374.475 380.694 374.707C383.547 374.939 383.353 379.163 383.353 379.163C383.353 379.163 384.327 370.194 388.222 370.19C392.117 370.186 388.222 380.8 388.222 380.8C388.222 380.8 393.611 378.213 395.591 380.8C397.571 383.387 393.116 386.422 393.116 386.422C393.116 386.422 400.103 388.699 397.182 395.945C397.182 395.945 402.051 396.705 403.415 399.948C403.415 399.948 403.025 393.404 404.778 393.843C406.531 394.282 406.141 400.023 406.141 400.023C406.141 400.023 409.063 393.717 411.595 395.946C414.127 398.175 410.426 403.515 410.426 403.515C410.426 403.515 415.295 401.15 416.074 404.283C416.853 407.416 413.347 408.583 413.347 408.583C413.347 408.583 418.411 407.412 418.411 413.223C418.411 413.223 428.149 412.293 430.487 417.511H372.446L372.251 400.021Z" fill="white"/>
<path d="M342.608 309.022C341.207 331.979 333.642 417.004 333.642 417.004L388.552 417.51L373.077 263.916L397.719 256.404L402.892 241.473L423.698 229.698L433.87 214.085L429.94 213.131L418.709 227.555L405.605 230.399L411.216 217.114H404.975L389.376 247.891L373.366 251.173L371.904 195.189C355.829 202.702 350.686 190.192 350.686 190.192C350.686 190.192 346.528 277.846 344.191 284.469C342.156 283.444 339.851 281.682 337.62 279.718C332.171 274.92 327.516 269.29 323.63 263.157L322.588 261.512H317.599L342.608 309.022Z" fill="#5431D6"/>
<g opacity="0.2">
<path d="M342.608 309.022C341.207 331.979 333.642 417.004 333.642 417.004L388.552 417.51L373.077 263.916L397.719 256.404L402.892 241.473L423.698 229.698L433.87 214.085L429.94 213.131L418.709 227.555L405.605 230.399L411.216 217.114H404.975L389.376 247.891L373.366 251.173L371.904 195.189C355.829 202.702 350.686 190.192 350.686 190.192C350.686 190.192 346.528 277.846 344.191 284.469C342.156 283.444 339.851 281.682 337.62 279.718C332.171 274.92 327.516 269.29 323.63 263.157L322.588 261.512H317.599L342.608 309.022Z" fill="black"/>
</g>
<path opacity="0.1" d="M400.493 237.32L393.796 250.223L372.869 255.519C372.869 255.519 372.937 252.227 373.283 248.005L373.366 251.172L389.375 247.89L404.974 217.112H411.215L405.604 230.397L418.708 227.553L429.939 213.129L430.486 213.262L421.838 226.352L400.493 237.32Z" fill="black"/>
<path d="M370.359 341.557L375.301 417.388L366.592 417.307V357.457L370.359 341.557Z" fill="#5431D6"/>
<path d="M342.608 309.022L317.599 261.513H322.588L323.63 263.158C327.516 269.29 332.171 274.921 337.62 279.719C339.851 281.684 342.157 283.446 344.192 284.47C346.529 277.847 350.687 190.193 350.687 190.193C350.687 190.193 352.943 195.669 359.127 197.197C359.365 225.513 359.602 253.828 359.84 282.144C361.614 278.1 363.153 274.251 363.301 270.058C363.832 281.66 364.536 294.134 364.492 305.581L354.872 341.067L352.952 417.182L333.641 417.004C333.641 417.004 341.207 331.978 342.608 309.022Z" fill="#5431D6"/>
<path d="M280.807 160.661C272.796 163.518 267.281 171.995 267.532 180.496C267.783 188.998 273.552 196.981 281.401 200.258C289.25 203.535 298.757 202.142 305.588 197.074C305.938 205.237 311.521 214.123 319.31 216.591C327.099 219.059 336.287 216.18 341.274 209.708C362.266 222.896 435.767 227.786 448.686 171.621C451.354 160.021 444.893 147.735 435.421 140.526C425.949 133.317 413.914 130.365 402.098 128.919C390.889 111.072 366.033 101.317 345.145 104.12C324.257 106.923 305.684 122.73 299.577 142.901C278.281 142.957 280.497 162.087 280.807 160.661Z" fill="#9747FF"/>
<g opacity="0.2">
<path d="M280.807 160.661C272.796 163.518 267.281 171.995 267.532 180.496C267.783 188.998 273.552 196.981 281.401 200.258C289.25 203.535 298.757 202.142 305.588 197.074C305.938 205.237 311.521 214.123 319.31 216.591C327.099 219.059 336.287 216.18 341.274 209.708C362.266 222.896 435.767 227.786 448.686 171.621C451.354 160.021 444.893 147.735 435.421 140.526C425.949 133.317 413.914 130.365 402.098 128.919C390.889 111.072 366.033 101.317 345.145 104.12C324.257 106.923 305.684 122.73 299.577 142.901C278.281 142.957 280.497 162.087 280.807 160.661Z" fill="#718BFC"/>
</g>
<path d="M306.743 271.151C309.12 274.664 313.609 276.616 317.799 275.958C321.989 275.3 325.664 272.065 326.849 267.993C331.824 271.493 339.511 270.627 344.548 267.217C349.585 263.807 352.18 257.148 350.778 251.229C349.376 245.31 344.071 240.522 338.04 239.733C337.411 233.945 334.513 229.083 329.572 226.002C324.632 222.921 318.263 222.249 312.788 224.23C306.304 223.041 299.665 225.369 294.934 229.96C291.564 233.23 289.318 237.871 289.711 242.55C290.103 247.229 293.518 251.724 298.129 252.612C296.593 256.111 296.157 260.039 297.647 263.558C299.138 267.077 303.161 269.819 306.743 271.151Z" fill="#9747FF"/>
<path opacity="0.2" d="M306.743 271.151C309.12 274.664 313.609 276.616 317.799 275.958C321.989 275.3 325.664 272.065 326.849 267.993C331.824 271.493 339.511 270.627 344.548 267.217C349.585 263.807 352.18 257.148 350.778 251.229C349.376 245.31 344.071 240.522 338.04 239.733C337.411 233.945 334.513 229.083 329.572 226.002C324.632 222.921 318.263 222.249 312.788 224.23C306.304 223.041 299.665 225.369 294.934 229.96C291.564 233.23 289.318 237.871 289.711 242.55C290.103 247.229 293.518 251.724 298.129 252.612C296.593 256.111 296.157 260.039 297.647 263.558C299.138 267.077 303.161 269.819 306.743 271.151Z" fill="#718BFC"/>
<path d="M412.56 186.234C408.55 184.852 403.788 185.987 400.832 189.029C397.877 192.071 396.88 196.864 398.378 200.832C392.298 201.02 386.671 206.328 384.69 212.079C382.709 217.831 384.632 224.713 389.307 228.605C393.982 232.497 401.099 233.14 406.396 230.149C410.375 234.4 415.611 236.548 421.412 236.045C427.213 235.542 432.709 232.256 435.897 227.384C441.796 224.441 445.707 218.593 446.734 212.082C447.466 207.444 446.475 202.384 443.351 198.877C440.228 195.371 434.798 193.827 430.578 195.886C429.705 192.165 427.696 188.763 424.391 186.843C421.089 184.926 416.225 185.149 412.56 186.234Z" fill="#5431D6"/>
<path opacity="0.1" d="M412.56 186.234C408.55 184.852 403.788 185.987 400.832 189.029C397.877 192.071 396.88 196.864 398.378 200.832C392.298 201.02 386.671 206.328 384.69 212.079C382.709 217.831 384.632 224.713 389.307 228.605C393.982 232.497 401.099 233.14 406.396 230.149C410.375 234.4 415.611 236.548 421.412 236.045C427.213 235.542 432.709 232.256 435.897 227.384C441.796 224.441 445.707 218.593 446.734 212.082C447.466 207.444 446.475 202.384 443.351 198.877C440.228 195.371 434.798 193.827 430.578 195.886C429.705 192.165 427.696 188.763 424.391 186.843C421.089 184.926 416.225 185.149 412.56 186.234Z" fill="#5431D6"/>
<path d="M375.446 415.289C375.446 415.289 355.283 402.22 359.107 400.014C362.931 397.808 376.382 410.86 376.382 410.86C376.382 410.86 361.523 389.117 365.194 384.759C368.865 380.401 378.755 402.478 378.755 402.478C378.755 402.478 372.03 377.237 376.777 374.468C381.524 371.699 383.246 399.765 383.246 399.765C383.246 399.765 385.101 369.364 393.796 369.74C402.491 370.116 389.832 399.765 389.832 399.765C389.832 399.765 402.096 382.172 406.447 387.166C410.799 392.159 392.601 406.186 392.601 406.186C392.601 406.186 406.209 399.788 407.119 404.535C408.029 409.282 392.106 414.326 392.106 414.326C392.106 414.326 397.223 415.794 398.407 417.509L371.175 417.511C371.175 417.511 370.744 416.204 375.446 415.289Z" fill="#5431D6"/>
<path opacity="0.6" d="M375.446 415.289C375.446 415.289 355.283 402.22 359.107 400.014C362.931 397.808 376.382 410.86 376.382 410.86C376.382 410.86 361.523 389.117 365.194 384.759C368.865 380.401 378.755 402.478 378.755 402.478C378.755 402.478 372.03 377.237 376.777 374.468C381.524 371.699 383.246 399.765 383.246 399.765C383.246 399.765 385.101 369.364 393.796 369.74C402.491 370.116 389.832 399.765 389.832 399.765C389.832 399.765 402.096 382.172 406.447 387.166C410.799 392.159 392.601 406.186 392.601 406.186C392.601 406.186 406.209 399.788 407.119 404.535C408.029 409.282 392.106 414.326 392.106 414.326C392.106 414.326 397.223 415.794 398.407 417.509L371.175 417.511C371.175 417.511 370.744 416.204 375.446 415.289Z" fill="white"/>
<path d="M88.6685 326.154C88.6685 326.154 94.6795 319.29 101.526 324.125C108.373 328.96 115.159 364.533 115.159 364.533" stroke="#5431D6" stroke-miterlimit="10"/>
<path d="M112.66 367.472C112.66 367.472 110.233 343.02 102.232 335.406C94.2312 327.792 89.1992 341.265 89.1992 341.265" stroke="#5431D6" stroke-miterlimit="10"/>
<path d="M107.499 328.369C107.499 328.369 112.016 327.461 112.892 331.339C113.769 335.217 105.371 347.652 105.371 347.652C105.371 347.652 97.7464 346.182 97.7534 336.16C97.7594 326.138 105.989 326.138 107.499 328.369Z" fill="#5431D6"/>
<path opacity="0.2" d="M107.499 328.369C107.499 328.369 112.016 327.461 112.892 331.339C113.769 335.217 105.371 347.652 105.371 347.652C105.371 347.652 97.7464 346.182 97.7534 336.16C97.7594 326.138 105.989 326.138 107.499 328.369Z" fill="white"/>
<path d="M95.8273 335.93C95.8273 335.93 97.6533 333.911 95.2653 333.442C92.8773 332.974 81.8363 334.956 83.4523 345.948C83.4523 345.948 96.6933 346.056 97.6303 341.625C98.5673 337.193 95.8273 335.93 95.8273 335.93Z" fill="#5431D6"/>
<path opacity="0.2" d="M95.8273 335.93C95.8273 335.93 97.6533 333.911 95.2653 333.442C92.8773 332.974 81.8363 334.956 83.4523 345.948C83.4523 345.948 96.6933 346.056 97.6303 341.625C98.5673 337.193 95.8273 335.93 95.8273 335.93Z" fill="white"/>
<path d="M112.827 317.083C112.827 317.083 112.319 315.059 114.104 315.602C115.889 316.145 122.647 321.464 117.593 328.321C117.593 328.321 108.593 323.624 109.555 320.287C110.518 316.95 112.827 317.083 112.827 317.083Z" fill="#5431D6"/>
<path opacity="0.2" d="M112.827 317.083C112.827 317.083 112.319 315.059 114.104 315.602C115.889 316.145 122.647 321.464 117.593 328.321C117.593 328.321 108.593 323.624 109.555 320.287C110.518 316.95 112.827 317.083 112.827 317.083Z" fill="white"/>
<path d="M278.694 371.682C278.694 371.682 290.056 330.543 310.974 319.449" stroke="#5431D6" stroke-miterlimit="10"/>
<path d="M278.917 366.973C278.917 366.973 299.213 322.965 292.166 308.768" stroke="#5431D6" stroke-miterlimit="10"/>
<path d="M278.11 370.182C278.11 370.182 294.61 315.062 304.803 308.562" stroke="#5431D6" stroke-miterlimit="10"/>
<path d="M295.324 310.697C295.324 310.697 298.307 311.489 298.746 309.655C299.185 307.821 290.002 299.145 280.78 303.938C280.78 303.938 282.184 312.597 288.105 314.975C294.025 317.354 295.324 310.697 295.324 310.697Z" fill="#5431D6"/>
<path opacity="0.2" d="M295.324 310.697C295.324 310.697 298.307 311.489 298.746 309.655C299.185 307.821 290.002 299.145 280.78 303.938C280.78 303.938 282.184 312.597 288.105 314.975C294.025 317.354 295.324 310.697 295.324 310.697Z" fill="white"/>
<path d="M302.289 308.508C302.289 308.508 299.213 308.767 299.101 306.885C298.989 305.003 309.546 298.063 317.79 304.393C317.79 304.393 314.895 312.674 308.65 313.981C302.405 315.289 302.289 308.508 302.289 308.508Z" fill="#5431D6"/>
<path opacity="0.2" d="M302.289 308.508C302.289 308.508 299.213 308.767 299.101 306.885C298.989 305.003 309.546 298.063 317.79 304.393C317.79 304.393 314.895 312.674 308.65 313.981C302.405 315.289 302.289 308.508 302.289 308.508Z" fill="white"/>
<path d="M312.065 316.823C312.065 316.823 310.7 314.468 313.133 314.507C315.566 314.547 325.952 318.786 322.08 329.2C322.08 329.2 309.107 326.547 309.114 322.017C309.121 317.487 312.065 316.823 312.065 316.823Z" fill="#5431D6"/>
<path opacity="0.2" d="M312.065 316.823C312.065 316.823 310.7 314.468 313.133 314.507C315.566 314.547 325.952 318.786 322.08 329.2C322.08 329.2 309.107 326.547 309.114 322.017C309.121 317.487 312.065 316.823 312.065 316.823Z" fill="white"/>
<path d="M302.412 322.704C302.412 322.704 302.983 320.696 304.258 322.058C305.533 323.42 308.732 331.403 300.929 334.82C300.929 334.82 295.477 326.256 297.977 323.846C300.477 321.436 302.412 322.704 302.412 322.704Z" fill="#5431D6"/>
<path opacity="0.2" d="M302.412 322.704C302.412 322.704 302.983 320.696 304.258 322.058C305.533 323.42 308.732 331.403 300.929 334.82C300.929 334.82 295.477 326.256 297.977 323.846C300.477 321.436 302.412 322.704 302.412 322.704Z" fill="white"/>
<path d="M91.9295 323.379C91.9295 323.379 92.9215 321.543 91.0585 321.629C89.1955 321.715 81.3325 325.201 84.5375 333.093C84.5375 333.093 94.4185 330.764 94.3095 327.292C94.2015 323.821 91.9295 323.379 91.9295 323.379Z" fill="#5431D6"/>
<path opacity="0.2" d="M91.9295 323.379C91.9295 323.379 92.9215 321.543 91.0585 321.629C89.1955 321.715 81.3325 325.201 84.5375 333.093C84.5375 333.093 94.4185 330.764 94.3095 327.292C94.2015 323.821 91.9295 323.379 91.9295 323.379Z" fill="white"/>
<path d="M267.68 391.53C267.68 391.53 261.085 391.273 260.427 377.962C259.769 364.651 271.393 361.098 280.339 362.73C280.339 362.73 279.034 353.252 284.829 353.6C290.624 353.948 290.229 360.277 290.229 360.277C290.229 360.277 292.207 346.838 300.119 346.832C308.031 346.826 300.119 362.73 300.119 362.73C300.119 362.73 311.065 358.853 315.087 362.73C319.108 366.607 310.059 371.153 310.059 371.153C310.059 371.153 324.251 374.565 318.317 385.421C318.317 385.421 328.207 386.56 330.976 391.419C330.976 391.419 330.185 381.614 333.745 382.271C337.305 382.929 336.514 391.53 336.514 391.53C336.514 391.53 342.448 382.081 347.591 385.421C352.734 388.761 345.217 396.762 345.217 396.762C345.217 396.762 355.107 393.219 356.69 397.913C358.272 402.607 351.151 404.356 351.151 404.356C351.151 404.356 361.437 402.602 361.437 411.308C361.437 411.308 381.217 409.915 385.964 417.734H268.074L267.68 391.53Z" fill="#5431D6"/>
<path opacity="0.4" d="M267.68 391.53C267.68 391.53 261.085 391.273 260.427 377.962C259.769 364.651 271.393 361.098 280.339 362.73C280.339 362.73 279.034 353.252 284.829 353.6C290.624 353.948 290.229 360.277 290.229 360.277C290.229 360.277 292.207 346.838 300.119 346.832C308.031 346.826 300.119 362.73 300.119 362.73C300.119 362.73 311.065 358.853 315.087 362.73C319.108 366.607 310.059 371.153 310.059 371.153C310.059 371.153 324.251 374.565 318.317 385.421C318.317 385.421 328.207 386.56 330.976 391.419C330.976 391.419 330.185 381.614 333.745 382.271C337.305 382.929 336.514 391.53 336.514 391.53C336.514 391.53 342.448 382.081 347.591 385.421C352.734 388.761 345.217 396.762 345.217 396.762C345.217 396.762 355.107 393.219 356.69 397.913C358.272 402.607 351.151 404.356 351.151 404.356C351.151 404.356 361.437 402.602 361.437 411.308C361.437 411.308 381.217 409.915 385.964 417.734H268.074L267.68 391.53Z" fill="white"/>
<path d="M130.061 391.53C130.061 391.53 134.926 391.273 135.411 377.962C135.896 364.651 127.322 361.098 120.722 362.73C120.722 362.73 121.685 353.252 117.409 353.6C113.134 353.948 113.426 360.277 113.426 360.277C113.426 360.277 111.967 346.838 106.13 346.832C100.293 346.826 106.13 362.73 106.13 362.73C106.13 362.73 98.0552 358.853 95.0892 362.73C92.1232 366.607 98.7982 371.153 98.7982 371.153C98.7982 371.153 88.3292 374.565 92.7062 385.421C92.7062 385.421 85.4102 386.56 83.3682 391.419C83.3682 391.419 83.9522 381.614 81.3252 382.271C78.6982 382.929 79.2822 391.53 79.2822 391.53C79.2822 391.53 74.9052 382.081 71.1112 385.421C67.3172 388.761 72.8622 396.762 72.8622 396.762C72.8622 396.762 65.5662 393.219 64.3992 397.913C63.2322 402.607 68.4852 404.356 68.4852 404.356C68.4852 404.356 60.8982 402.602 60.8982 411.308C60.8982 411.308 46.3072 409.915 42.8052 417.734H129.769L130.061 391.53Z" fill="#5431D6"/>
<path opacity="0.4" d="M130.061 391.53C130.061 391.53 134.926 391.273 135.411 377.962C135.896 364.651 127.322 361.098 120.722 362.73C120.722 362.73 121.685 353.252 117.409 353.6C113.134 353.948 113.426 360.277 113.426 360.277C113.426 360.277 111.967 346.838 106.13 346.832C100.293 346.826 106.13 362.73 106.13 362.73C106.13 362.73 98.0552 358.853 95.0892 362.73C92.1232 366.607 98.7982 371.153 98.7982 371.153C98.7982 371.153 88.3292 374.565 92.7062 385.421C92.7062 385.421 85.4102 386.56 83.3682 391.419C83.3682 391.419 83.9522 381.614 81.3252 382.271C78.6982 382.929 79.2822 391.53 79.2822 391.53C79.2822 391.53 74.9052 382.081 71.1112 385.421C67.3172 388.761 72.8622 396.762 72.8622 396.762C72.8622 396.762 65.5662 393.219 64.3992 397.913C63.2322 402.607 68.4852 404.356 68.4852 404.356C68.4852 404.356 60.8982 402.602 60.8982 411.308C60.8982 411.308 46.3072 409.915 42.8052 417.734H129.769L130.061 391.53Z" fill="white"/>
<path d="M86.6373 415.512C86.6373 415.512 106.8 402.443 102.976 400.237C99.1523 398.031 85.7013 411.083 85.7013 411.083C85.7013 411.083 100.56 389.34 96.8893 384.982C93.2183 380.625 83.3283 402.701 83.3283 402.701C83.3283 402.701 90.0533 377.46 85.3063 374.691C80.5593 371.922 78.8383 399.988 78.8383 399.988C78.8383 399.988 76.9833 369.587 68.2883 369.963C59.5933 370.34 72.2523 399.988 72.2523 399.988C72.2523 399.988 59.9883 382.395 55.6373 387.389C51.2853 392.382 69.4833 406.409 69.4833 406.409C69.4833 406.409 55.8753 400.011 54.9653 404.758C54.0553 409.505 69.9783 414.549 69.9783 414.549C69.9783 414.549 64.8613 416.017 63.6773 417.732L90.9093 417.734C90.9073 417.733 91.3393 416.427 86.6373 415.512Z" fill="#5431D6"/>
<path opacity="0.6" d="M86.6373 415.512C86.6373 415.512 106.8 402.443 102.976 400.237C99.1523 398.031 85.7013 411.083 85.7013 411.083C85.7013 411.083 100.56 389.34 96.8893 384.982C93.2183 380.625 83.3283 402.701 83.3283 402.701C83.3283 402.701 90.0533 377.46 85.3063 374.691C80.5593 371.922 78.8383 399.988 78.8383 399.988C78.8383 399.988 76.9833 369.587 68.2883 369.963C59.5933 370.34 72.2523 399.988 72.2523 399.988C72.2523 399.988 59.9883 382.395 55.6373 387.389C51.2853 392.382 69.4833 406.409 69.4833 406.409C69.4833 406.409 55.8753 400.011 54.9653 404.758C54.0553 409.505 69.9783 414.549 69.9783 414.549C69.9783 414.549 64.8613 416.017 63.6773 417.732L90.9093 417.734C90.9073 417.733 91.3393 416.427 86.6373 415.512Z" fill="white"/>
<path d="M96.7251 417.733C96.7251 417.733 119.934 332.361 124.153 329.196C128.373 326.031 152.444 317.134 152.444 317.134C152.444 317.134 210.993 326.909 219.793 325.943C228.593 324.977 256.874 319.525 260.931 325.943C264.988 332.361 281 370.867 281 370.867L303.494 380.361L317.736 417.733H96.7251Z" fill="#5431D6"/>
<path opacity="0.6" d="M317.74 417.733H96.73C96.73 417.733 119.82 332.763 124.12 329.213C124.14 329.203 124.15 329.193 124.15 329.193C125.02 328.543 126.72 327.653 128.88 326.643C137.24 322.753 152.44 317.133 152.44 317.133C152.44 317.133 210.99 326.913 219.79 325.943C228.59 324.973 256.87 319.523 260.93 325.943C261.79 327.313 263.2 330.133 264.88 333.733C271.08 347.023 281 370.863 281 370.863L303.49 380.363L317.74 417.733Z" fill="white"/>
<path opacity="0.1" d="M264.88 333.733L256.15 342.373L233.4 337.023L207.66 342.373L209.31 352.323L199.94 363.483L203.27 352.323L195.97 340.053C195.97 340.053 166.35 341.853 158.62 340.053C153.77 338.923 139.1 331.783 128.88 326.643C137.24 322.753 152.44 317.133 152.44 317.133C152.44 317.133 210.99 326.913 219.79 325.943C228.59 324.973 256.87 319.523 260.93 325.943C261.79 327.313 263.2 330.133 264.88 333.733Z" fill="black"/>
<path opacity="0.1" d="M317.74 417.733H96.73C96.73 417.733 119.82 332.763 124.12 329.213C124.14 329.203 124.15 329.193 124.15 329.193L109.91 395.433L117.03 406.403L134.53 393.123L147.95 400.613L166.57 396.853L168.42 387.843L194.8 370.493L178.24 385.833L184.07 403.333L209.42 407.703H237.43L249.01 399.983L245.15 384.283L239.32 375.183L268.87 375.113L256.29 382.903L260.93 396.733L275.16 403.333L291.7 393.123L298.44 412.603L317.74 417.733Z" fill="black"/>
<path d="M288.197 417.733H324.831C324.831 417.733 317.536 406.571 314.427 407.987C310.38 409.831 307.381 399.719 302.901 402.114C301.323 402.958 302.095 405.663 301.1 406.752C299.458 408.55 297.37 408.202 295.385 409.19C291.499 411.126 290.115 413.692 288.197 417.733Z" fill="#5431D6"/>
<path opacity="0.2" d="M288.197 417.733H324.831C324.831 417.733 317.536 406.571 314.427 407.987C310.38 409.831 307.381 399.719 302.901 402.114C301.323 402.958 302.095 405.663 301.1 406.752C299.458 408.55 297.37 408.202 295.385 409.19C291.499 411.126 290.115 413.692 288.197 417.733Z" fill="black"/>
<path d="M320.828 414.62C320.828 414.62 318.423 400.667 320.083 398.622C321.743 396.577 322.034 406.235 322.034 406.235C322.034 406.235 327.614 386.074 331.185 385.968C334.756 385.862 326.945 403.458 326.945 403.458C326.945 403.458 342.207 378.516 346.644 380.839C351.081 383.162 330.669 405.271 330.669 405.271C330.669 405.271 341.833 395.666 344.292 398.378C346.752 401.09 331.899 409.385 331.899 409.385C331.899 409.385 338.448 407.913 338.441 410.093C338.434 412.271 327.384 415.858 320.828 414.62Z" fill="#5431D6"/>
<path opacity="0.2" d="M320.828 414.62C320.828 414.62 318.423 400.667 320.083 398.622C321.743 396.577 322.034 406.235 322.034 406.235C322.034 406.235 327.614 386.074 331.185 385.968C334.756 385.862 326.945 403.458 326.945 403.458C326.945 403.458 342.207 378.516 346.644 380.839C351.081 383.162 330.669 405.271 330.669 405.271C330.669 405.271 341.833 395.666 344.292 398.378C346.752 401.09 331.899 409.385 331.899 409.385C331.899 409.385 338.448 407.913 338.441 410.093C338.434 412.271 327.384 415.858 320.828 414.62Z" fill="white"/>
<path d="M318.629 412.627C318.629 412.627 307.159 410.546 306.046 408.685C304.933 406.824 312.484 409.326 312.484 409.326C312.484 409.326 298.468 399.317 299.395 396.526C300.322 393.734 311.724 404.744 311.724 404.744C311.724 404.744 296.745 385.898 299.794 383.123C302.843 380.348 314.177 402.377 314.177 402.377C314.177 402.377 309.902 391.031 312.693 389.895C315.485 388.759 317.705 402.587 317.705 402.587C317.705 402.587 318.416 397.107 320.1 397.728C321.784 398.348 321.438 407.906 318.629 412.627Z" fill="#5431D6"/>
<path opacity="0.2" d="M318.629 412.627C318.629 412.627 307.159 410.546 306.046 408.685C304.933 406.824 312.484 409.326 312.484 409.326C312.484 409.326 298.468 399.317 299.395 396.526C300.322 393.734 311.724 404.744 311.724 404.744C311.724 404.744 296.745 385.898 299.794 383.123C302.843 380.348 314.177 402.377 314.177 402.377C314.177 402.377 309.902 391.031 312.693 389.895C315.485 388.759 317.705 402.587 317.705 402.587C317.705 402.587 318.416 397.107 320.1 397.728C321.784 398.348 321.438 407.906 318.629 412.627Z" fill="white"/>
<path d="M317.768 411.102C317.768 411.102 306.691 400.005 306.889 397.095C307.087 394.185 313.511 402.742 313.511 402.742C313.511 402.742 305.702 380.932 308.867 378.559C312.032 376.185 316.186 397.095 316.186 397.095C316.186 397.095 314.092 364.782 319.59 364.055C325.088 363.328 320.713 396.361 320.713 396.361C320.713 396.361 324.692 380.546 328.648 381.431C332.604 382.317 324.45 399.299 324.45 399.299C324.45 399.299 329.439 393.789 330.823 395.767C332.207 397.746 324.493 408.041 317.768 411.102Z" fill="#5431D6"/>
<path opacity="0.1" d="M317.768 411.102C317.768 411.102 306.691 400.005 306.889 397.095C307.087 394.185 313.511 402.742 313.511 402.742C313.511 402.742 305.702 380.932 308.867 378.559C312.032 376.185 316.186 397.095 316.186 397.095C316.186 397.095 314.092 364.782 319.59 364.055C325.088 363.328 320.713 396.361 320.713 396.361C320.713 396.361 324.692 380.546 328.648 381.431C332.604 382.317 324.45 399.299 324.45 399.299C324.45 399.299 329.439 393.789 330.823 395.767C332.207 397.746 324.493 408.041 317.768 411.102Z" fill="white"/>
<path d="M304.339 417.733H333.532C333.532 417.733 327.719 408.838 325.241 409.967C322.016 411.436 319.626 403.378 316.056 405.287C314.798 405.959 315.414 408.115 314.621 408.983C313.313 410.416 311.648 410.138 310.067 410.926C306.97 412.468 305.867 414.513 304.339 417.733Z" fill="#5431D6"/>
<path d="M122.039 417.733H85.4053C85.4053 417.733 92.7003 406.571 95.8093 407.987C99.8563 409.831 102.855 399.719 107.335 402.114C108.913 402.958 108.141 405.663 109.136 406.752C110.778 408.55 112.866 408.202 114.851 409.19C118.737 411.126 120.121 413.692 122.039 417.733Z" fill="#5431D6"/>
<path opacity="0.2" d="M122.039 417.733H85.4053C85.4053 417.733 92.7003 406.571 95.8093 407.987C99.8563 409.831 102.855 399.719 107.335 402.114C108.913 402.958 108.141 405.663 109.136 406.752C110.778 408.55 112.866 408.202 114.851 409.19C118.737 411.126 120.121 413.692 122.039 417.733Z" fill="black"/>
<path d="M89.4093 414.62C89.4093 414.62 91.8143 400.667 90.1543 398.622C88.4943 396.577 88.2033 406.235 88.2033 406.235C88.2033 406.235 82.6233 386.074 79.0523 385.968C75.4813 385.862 83.2923 403.458 83.2923 403.458C83.2923 403.458 68.0303 378.516 63.5933 380.839C59.1573 383.162 79.5683 405.271 79.5683 405.271C79.5683 405.271 68.4043 395.666 65.9453 398.378C63.4863 401.09 78.3383 409.385 78.3383 409.385C78.3383 409.385 71.7893 407.913 71.7963 410.093C71.8023 412.271 82.8523 415.858 89.4093 414.62Z" fill="#5431D6"/>
<path opacity="0.2" d="M89.4093 414.62C89.4093 414.62 91.8143 400.667 90.1543 398.622C88.4943 396.577 88.2033 406.235 88.2033 406.235C88.2033 406.235 82.6233 386.074 79.0523 385.968C75.4813 385.862 83.2923 403.458 83.2923 403.458C83.2923 403.458 68.0303 378.516 63.5933 380.839C59.1573 383.162 79.5683 405.271 79.5683 405.271C79.5683 405.271 68.4043 395.666 65.9453 398.378C63.4863 401.09 78.3383 409.385 78.3383 409.385C78.3383 409.385 71.7893 407.913 71.7963 410.093C71.8023 412.271 82.8523 415.858 89.4093 414.62Z" fill="white"/>
<path d="M100.655 415.276C100.655 415.276 109.385 407.551 109.372 405.383C109.359 403.215 104.198 409.269 104.198 409.269C104.198 409.269 110.996 393.444 108.756 391.538C106.517 389.631 102.473 404.956 102.473 404.956C102.473 404.956 105.513 381.075 101.467 380.282C97.4214 379.49 99.1484 404.203 99.1484 404.203C99.1484 404.203 96.9234 392.284 93.9474 392.76C90.9714 393.235 96.2404 406.212 96.2404 406.212C96.2404 406.212 92.7914 401.894 91.6734 403.298C90.5544 404.701 95.8054 412.695 100.655 415.276Z" fill="#5431D6"/>
<path opacity="0.2" d="M100.655 415.276C100.655 415.276 109.385 407.551 109.372 405.383C109.359 403.215 104.198 409.269 104.198 409.269C104.198 409.269 110.996 393.444 108.756 391.538C106.517 389.631 102.473 404.956 102.473 404.956C102.473 404.956 105.513 381.075 101.467 380.282C97.4214 379.49 99.1484 404.203 99.1484 404.203C99.1484 404.203 96.9234 392.284 93.9474 392.76C90.9714 393.235 96.2404 406.212 96.2404 406.212C96.2404 406.212 92.7914 401.894 91.6734 403.298C90.5544 404.701 95.8054 412.695 100.655 415.276Z" fill="white"/>
<path d="M105.897 417.733H76.7041C76.7041 417.733 82.5171 408.838 84.9951 409.967C88.2201 411.436 90.6101 403.378 94.1801 405.287C95.4381 405.959 94.8221 408.115 95.6151 408.983C96.9231 410.416 98.5881 410.138 100.169 410.926C103.266 412.468 104.369 414.513 105.897 417.733Z" fill="#5431D6"/>
<path d="M174.867 226.041C174.867 226.041 141.251 220.796 134.83 223.547C128.408 226.298 126.298 236.191 126.298 236.191C126.298 236.191 125.155 238.198 128.628 238.446C128.628 238.446 114.399 273.897 118.898 280.691C123.397 287.485 168.718 290.197 174.867 286.875C181.016 283.552 195.787 228.535 174.867 226.041Z" fill="#263238"/>
<path d="M194.667 259.82C194.667 259.82 199.116 270.153 200.12 271.588C201.125 273.023 223.269 283.212 223.269 283.212C223.269 283.212 225.952 282.782 228.679 283.212C231.406 283.643 235.173 284.791 235.514 285.221C235.855 285.652 231.396 292.11 231.396 292.11C231.396 292.11 222.547 292.66 221.451 289.156C221.451 289.156 199.259 280.916 196.676 278.763C194.093 276.61 186.917 263.838 186.917 263.838L194.667 259.82Z" fill="#E4897B"/>
<path d="M188.302 237.204C192.461 239.682 198.975 266.385 200.373 269.55C201.772 272.715 218.769 280.429 218.769 280.429L211.225 287.647C211.225 287.647 194.032 280.033 191.862 277.857C189.692 275.681 181.119 253.527 181.119 253.527L188.302 237.204Z" fill="#5431D6"/>
<path d="M186.915 298.217C186.915 298.217 257.036 288.148 260.738 303.534C264.652 319.803 208.349 330.775 174.698 331.923C141.047 333.07 131.366 325.678 136.772 284.097L182.168 283.987L186.915 298.217Z" fill="#263238"/>
<path opacity="0.2" d="M186.915 298.217C186.915 298.217 257.036 288.148 260.738 303.534C264.652 319.803 208.349 330.775 174.698 331.923C141.047 333.07 131.366 325.678 136.772 284.097L182.168 283.987L186.915 298.217Z" fill="black"/>
<path d="M250.246 322.064C250.169 322.112 250.07 322.107 249.999 322.051C249.933 322.004 249.908 321.917 249.94 321.843C250.05 321.469 251.164 318.233 252.291 317.893C252.534 317.834 252.79 317.909 252.963 318.09C253.282 318.353 253.435 318.768 253.363 319.175C253.181 319.78 252.812 320.313 252.308 320.695C251.668 321.22 250.977 321.679 250.246 322.064ZM250.535 321.443C251.583 320.982 252.433 320.163 252.933 319.133C252.991 318.852 252.88 318.562 252.648 318.392C252.585 318.314 252.479 318.283 252.384 318.315C252.288 318.348 252.2 318.399 252.125 318.466C251.418 319.354 250.88 320.363 250.535 321.443Z" fill="#5431D6"/>
<path d="M250.185 322.106C250.109 322.134 250.025 322.109 249.976 322.045C249.871 321.954 248.317 319.994 248.573 318.67C248.635 318.338 248.828 318.046 249.109 317.859C249.352 317.625 249.724 317.59 250.006 317.775C250.819 318.348 250.72 320.972 250.321 321.967L250.292 322.066C250.262 322.089 250.224 322.103 250.185 322.106ZM249.302 318.262C249.162 318.384 249.067 318.55 249.033 318.733C248.872 319.57 249.651 320.826 250.073 321.428C250.329 320.308 250.246 318.467 249.77 318.136C249.718 318.109 249.621 318.033 249.38 318.201L249.302 318.262Z" fill="#5431D6"/>
<path d="M225.959 330.301L240.655 330.311L247.712 330.317L248.553 322.89L242.028 322.018L226.089 319.887L225.959 330.301Z" fill="#E4897B"/>
<path d="M246.961 321.957L245.172 330.433C245.072 330.906 245.383 331.367 245.859 331.453L250.084 332.212C250.084 332.212 255.695 333.639 257.27 332.633C261.874 329.691 266.31 311.043 264.435 309.662C263.749 309.156 262.559 309.922 261.965 310.53C260.078 312.462 256.048 317.843 254.454 319.435C252.591 321.297 249.284 321.354 247.833 321.278C247.414 321.257 247.048 321.547 246.961 321.957Z" fill="#263238"/>
<path opacity="0.2" d="M225.959 330.301L240.655 330.311L242.028 322.018L226.089 319.887L225.959 330.301Z" fill="black"/>
<path d="M170.453 297.712V299.566C170.453 300.817 171.494 301.965 172.753 301.965H241.14C242.399 301.965 243.613 300.817 243.613 299.566V297.712H170.453Z" fill="#263238"/>
<path opacity="0.2" d="M170.453 297.712V299.566C170.453 300.817 171.494 301.965 172.753 301.965H241.14C242.399 301.965 243.613 300.817 243.613 299.566V297.712H170.453Z" fill="white"/>
<path opacity="0.2" d="M195.974 297.712V299.566C195.974 300.817 197.031 301.965 198.282 301.965H241.14C242.399 301.965 243.613 300.817 243.613 299.566V297.712H195.974Z" fill="white"/>
<path d="M198.282 300.264H243.462C244.849 300.264 246.32 299.175 246.746 297.84L257.107 265.339C257.532 264.003 256.758 262.834 255.372 262.834H210.192C208.805 262.834 207.334 264.004 206.908 265.339L196.546 297.799C196.121 299.134 196.896 300.264 198.282 300.264Z" fill="#263238"/>
<path opacity="0.2" d="M198.282 300.264H243.462C244.849 300.264 246.32 299.175 246.746 297.84L257.107 265.339C257.532 264.003 256.758 262.834 255.372 262.834H210.192C208.805 262.834 207.334 264.004 206.908 265.339L196.546 297.799C196.121 299.134 196.896 300.264 198.282 300.264Z" fill="white"/>
<path opacity="0.2" d="M199.984 300.264H243.463C244.85 300.264 246.321 299.175 246.747 297.84L257.108 265.339C257.533 264.003 256.759 262.834 255.373 262.834H211.894C210.507 262.834 209.036 264.004 208.61 265.339L198.248 297.799C197.823 299.134 198.597 300.264 199.984 300.264Z" fill="white"/>
<path opacity="0.2" d="M226.42 283.037C225.862 285.202 226.94 286.958 228.826 286.958C230.713 286.958 232.694 285.203 233.251 283.037C233.809 280.872 232.731 279.116 230.845 279.116C228.959 279.117 226.978 280.872 226.42 283.037Z" fill="white"/>
<path opacity="0.2" d="M246.961 321.957L245.172 330.433C245.072 330.906 245.383 331.367 245.859 331.453L250.084 332.212C250.084 332.212 255.695 333.639 257.27 332.633C261.874 329.691 266.31 311.043 264.435 309.662C263.749 309.156 262.559 309.922 261.965 310.53C260.078 312.462 256.048 317.843 254.454 319.435C252.591 321.297 249.284 321.354 247.833 321.278C247.414 321.257 247.048 321.547 246.961 321.957Z" fill="white"/>
<path d="M150.264 289.985L136.078 290.17L136.349 285.563L150.264 285.262V289.985Z" fill="black"/>
<path d="M178.244 284.654L182.478 284.563L183.996 289.544L178.244 289.619V284.654Z" fill="black"/>
<path d="M176.434 284.694V289.643L152.445 289.956V285.214L176.434 284.694Z" fill="black"/>
<path d="M162.607 288.778L162.536 286.851C162.497 285.778 163.284 284.87 164.291 284.828L168.63 284.646C169.113 284.633 169.584 284.809 169.943 285.162C170.301 285.515 170.509 285.995 170.529 286.516L170.6 288.442C170.639 289.514 169.852 290.422 168.845 290.465L164.506 290.647C164.482 290.648 164.458 290.649 164.434 290.649C163.458 290.65 162.646 289.825 162.607 288.778ZM168.814 289.654C169.401 289.629 169.86 289.1 169.837 288.475L169.766 286.549C169.755 286.246 169.633 285.965 169.424 285.759C169.215 285.554 168.942 285.44 168.659 285.459L164.32 285.641C163.733 285.665 163.274 286.195 163.297 286.82L163.368 288.747C163.391 289.373 163.877 289.866 164.475 289.837L168.814 289.654Z" fill="white"/>
<path d="M163.352 288.148H165.528C165.804 288.148 166.028 287.924 166.028 287.648C166.028 287.372 165.804 287.148 165.528 287.148H163.352C163.076 287.148 162.852 287.372 162.852 287.648C162.852 287.924 163.075 288.148 163.352 288.148Z" fill="white"/>
<path d="M188.302 237.204C188.302 237.204 182.831 271.788 185.116 284.156L134.531 285.627C134.531 285.627 140.512 249.899 148.477 236.421C148.477 236.421 161.691 214.356 188.302 237.204Z" fill="#5431D6"/>
<path opacity="0.6" d="M188.302 237.204C188.302 237.204 182.831 271.788 185.116 284.156L134.531 285.627C134.531 285.627 140.512 249.899 148.477 236.421C148.477 236.421 161.691 214.356 188.302 237.204Z" fill="white"/>
<path d="M158.624 229.5C158.624 229.5 167.014 237.698 171.86 236.359C176.715 235.03 178.526 232.554 178.526 232.554C178.526 232.554 174.634 230.839 175.058 229.915C175.106 229.809 175.232 229.616 175.405 229.337C176.85 227.141 181.994 220.118 181.994 220.118L170.955 213.934C170.955 213.934 170.049 216.063 168.942 218.606C167.449 221.978 165.59 226.072 164.954 226.833C163.854 228.171 158.624 229.5 158.624 229.5Z" fill="#E4897B"/>
<path opacity="0.2" d="M168.941 218.605C169.634 222.497 171.33 227.092 175.405 229.336C176.85 227.14 181.994 220.117 181.994 220.117L170.955 213.933C170.955 213.933 170.048 216.062 168.941 218.605Z" fill="black"/>
<path d="M166.729 210.963C166.729 210.963 165.624 214.462 165.839 216.934C166.055 219.407 163.285 220.243 162.939 218.737C162.939 218.737 162.989 222.392 165.362 221.844C165.362 221.844 165.349 224.369 167.482 224.41C167.482 224.41 170.461 220.581 170.137 215.84C169.813 211.099 166.729 210.963 166.729 210.963Z" fill="#263238"/>
<path d="M185.736 198.835C182.137 200.325 182.76 208.685 188.729 215.839C192.404 212.675 194.071 205.379 193.202 202.497C191.812 197.885 188.871 197.549 185.736 198.835Z" fill="#263238"/>
<path d="M190.982 219.19C190.982 219.19 190.982 219.199 190.973 219.216C190.629 220.223 190.24 221.167 189.825 222.024C186.276 229.255 176.07 230.658 171.55 223.507C171.532 223.48 171.515 223.463 171.497 223.436C168.513 218.625 169.634 214.131 170.879 206.344C171.126 204.693 171.753 203.13 172.716 201.762C176.124 196.897 182.824 195.714 187.689 199.122C193.613 203.237 193.259 212.542 190.982 219.19Z" fill="#E4897B"/>
<path d="M181.876 211.024C181.736 211.649 181.956 212.231 182.365 212.32C182.773 212.409 183.211 211.982 183.351 211.358C183.491 210.733 183.279 210.155 182.874 210.058C182.469 209.96 182.057 210.418 181.876 211.024Z" fill="#263238"/>
<path d="M188.979 212.627C188.839 213.252 189.059 213.834 189.468 213.923C189.876 214.012 190.322 213.589 190.466 212.956C190.609 212.323 190.386 211.749 189.977 211.66C189.569 211.571 189.119 212.002 188.979 212.627Z" fill="#263238"/>
<path d="M186.595 212.402C186.912 214.48 187.514 216.505 188.384 218.418C187.024 219.197 185.269 218.303 185.269 218.303L186.595 212.402Z" fill="#DE5753"/>
<path d="M180.438 208.348C180.354 208.34 180.276 208.304 180.216 208.245C180.081 208.087 180.097 207.85 180.253 207.712C181.159 206.904 182.402 206.588 183.583 206.867C183.777 206.917 183.894 207.115 183.844 207.309C183.842 207.318 183.839 207.326 183.837 207.334C183.772 207.528 183.568 207.639 183.37 207.587C182.436 207.382 181.46 207.641 180.749 208.281C180.659 208.348 180.546 208.372 180.438 208.348Z" fill="#263238"/>
<path d="M192.751 210.957C192.61 210.924 192.498 210.814 192.463 210.673C192.271 209.735 191.641 208.945 190.769 208.549C190.574 208.476 190.474 208.261 190.544 208.065C190.615 207.873 190.826 207.772 191.02 207.836C192.133 208.321 192.942 209.315 193.193 210.502C193.241 210.702 193.119 210.903 192.92 210.951C192.918 210.951 192.916 210.952 192.914 210.952C192.86 210.964 192.805 210.966 192.751 210.957Z" fill="#263238"/>
<path d="M179.219 218.387C179.219 218.387 180.035 221.193 183.794 221.843" stroke="#263238" stroke-width="0.5572" stroke-miterlimit="10" stroke-linecap="round" stroke-linejoin="round"/>
<path d="M192.513 205.066C192.513 205.066 194.834 203.286 194.739 201.209C194.601 198.178 192.776 196.16 190.658 194.901C189.076 193.882 186.766 193.117 183.394 192.919C174.529 192.397 169.707 195.057 168.189 199.794C167.249 201.471 167.271 204.585 168.115 207.508C168.119 207.527 168.121 207.544 168.125 207.563L168.129 207.558C168.63 209.272 169.407 210.913 170.444 212.142C175.836 207.457 177.85 204.15 177.004 201.944C177.176 201.889 179.864 199.493 181.054 199.429C182.765 199.337 185.94 200.967 188.514 202.498C189.922 203.335 191.373 202.001 191.373 202.001L192.513 205.066Z" fill="#263238"/>
<path d="M165.846 211.669C165.964 213.65 166.862 215.505 168.344 216.825C170.322 218.551 172.436 217.053 172.834 214.598C173.19 212.384 172.586 208.816 170.148 208.036C167.711 207.257 165.713 209.239 165.846 211.669Z" fill="#E4897B"/>
<path d="M165.839 216.934C165.839 216.934 169.121 204.176 177.231 199.429C185.341 194.682 193.748 197.991 193.748 197.991C193.748 197.991 193.45 194.582 193.203 194.187C192.956 193.792 188.937 192.407 188.937 192.407C188.937 192.407 186.651 189.044 183.474 187.956C180.297 186.868 170.789 186.571 167.483 189.341C164.176 192.11 161.967 197.748 163.368 197.847C164.769 197.946 165.839 197.946 165.839 197.946C165.839 197.946 163.223 207.001 164.342 208.358C164.342 208.358 162.396 214.659 165.839 216.934Z" fill="#5431D6"/>
<path d="M182.111 333.745C182.157 333.667 182.246 333.626 182.336 333.641C182.417 333.652 182.479 333.717 182.485 333.798C182.562 334.18 183.082 337.563 182.242 338.388C182.055 338.553 181.793 338.606 181.556 338.527C181.151 338.442 180.823 338.147 180.697 337.752C180.577 337.132 180.656 336.489 180.923 335.916C181.244 335.154 181.642 334.426 182.111 333.745ZM182.143 334.429C181.43 335.325 181.059 336.445 181.097 337.59C181.176 337.866 181.41 338.071 181.694 338.113C181.786 338.153 181.894 338.131 181.964 338.058C182.033 337.985 182.088 337.898 182.123 337.804C182.334 336.689 182.341 335.546 182.143 334.429Z" fill="#5431D6"/>
<path d="M204.491 317.186L190.546 321.823L183.849 324.049L185.4 331.361L191.866 330.125L207.66 327.107L204.491 317.186Z" fill="#E4897B"/>
<path d="M187.205 331.742L186.222 323.135C186.167 322.655 185.726 322.315 185.248 322.384L181 323C181 323 175.226 323.42 174.049 324.873C170.612 329.12 172.3 348.214 174.515 348.931C175.326 349.194 176.212 348.091 176.584 347.327C177.763 344.897 179.885 338.518 180.894 336.504C182.073 334.149 185.192 333.049 186.593 332.662C186.997 332.55 187.253 332.159 187.205 331.742Z" fill="#263238"/>
<path d="M182.144 333.679C182.198 333.619 182.285 333.602 182.358 333.636C182.493 333.667 184.781 334.68 185.171 335.97C185.271 336.292 185.236 336.641 185.074 336.938C184.968 337.258 184.655 337.462 184.319 337.43C183.333 337.301 182.199 334.932 182.089 333.866L182.069 333.765C182.085 333.73 182.111 333.7 182.144 333.679ZM184.715 336.671C184.782 336.498 184.789 336.307 184.734 336.129C184.487 335.313 183.212 334.564 182.559 334.228C182.854 335.339 183.784 336.93 184.36 337.001C184.419 337.001 184.54 337.023 184.674 336.762L184.715 336.671Z" fill="#5431D6"/>
<path opacity="0.2" d="M204.491 317.186L190.546 321.823L191.866 330.125L207.66 327.107L204.491 317.186Z" fill="black"/>
<path d="M194.292 331.421L198.268 331.792L195.893 318.04L191.324 320.442L194.292 331.421Z" fill="#5431D6"/>
<path opacity="0.6" d="M194.292 331.421L198.268 331.792L195.893 318.04L191.324 320.442L194.292 331.421Z" fill="white"/>
<path opacity="0.2" d="M187.205 331.742L186.222 323.135C186.167 322.655 185.726 322.315 185.248 322.384L181 323C181 323 175.226 323.42 174.049 324.873C170.612 329.12 172.3 348.214 174.515 348.931C175.326 349.194 176.212 348.091 176.584 347.327C177.763 344.897 179.885 338.518 180.894 336.504C182.073 334.149 185.192 333.049 186.593 332.662C186.997 332.55 187.253 332.159 187.205 331.742Z" fill="white"/>
<path d="M239.32 320.939C239.32 320.939 174.084 295.602 154.106 299.835C134.128 304.068 134.034 314.525 144.161 324.271C154.287 334.018 169.421 330.263 169.421 330.263C169.421 330.263 157.531 323.137 158.36 318.739C159.189 314.341 166.747 324.399 166.747 324.399C166.747 324.399 206.174 334.04 238.726 331.499L239.32 320.939Z" fill="#263238"/>
<path d="M240.113 319.883L236.448 318.205L234.341 331.933L239.436 331.099L240.113 319.883Z" fill="#5431D6"/>
<path opacity="0.6" d="M240.113 319.883L236.448 318.205L234.341 331.933L239.436 331.099L240.113 319.883Z" fill="white"/>
<path d="M154.484 226.842C154.484 226.842 163.308 250.831 162.852 256.234C162.396 261.637 144.198 301.965 144.198 301.965L129.165 308.008C129.165 308.008 132.288 248.693 154.484 226.842Z" fill="#5431D6"/>
<path opacity="0.2" d="M154.484 226.842C154.484 226.842 163.308 250.831 162.852 256.234C162.396 261.637 144.198 301.965 144.198 301.965L129.165 308.008C129.165 308.008 132.288 248.693 154.484 226.842Z" fill="black"/>
<path d="M186.346 296.511C186.346 296.511 181.633 285.321 180.124 279.117C178.615 272.913 183.889 241.066 181.054 230.385L188.301 237.204L185.225 276.987L186.346 296.511Z" fill="#5431D6"/>
<path opacity="0.2" d="M186.346 296.511C186.346 296.511 181.633 285.321 180.124 279.117C178.615 272.913 183.889 241.066 181.054 230.385L188.301 237.204L185.225 276.987L186.346 296.511Z" fill="black"/>
<path d="M132.822 279.117C132.822 279.117 164.107 285.13 159.162 227.965L154.066 227.517C154.066 227.517 157.17 249.237 151.464 263.448C145.758 277.659 132.288 276.987 132.288 276.987L132.822 279.117Z" fill="#263238"/>
<path d="M162.669 253.724L152.168 229.337L148.982 233.528C148.982 233.528 148.417 227.617 150.264 225.902C152.11 224.188 157.21 226.333 159.231 226.843C161.252 227.352 162.669 253.724 162.669 253.724Z" fill="#5431D6"/>
<path d="M179.219 230.759C179.219 230.759 183.272 242.747 182.614 261.538C181.956 280.329 185.328 278.763 185.328 278.763L185.813 276.986C185.813 276.986 183.918 276.768 184.074 270.439C184.23 264.109 185.052 238.56 182.613 231.851L179.219 230.759Z" fill="#263238"/>
<path d="M181.338 253.031C181.338 253.031 182.3 235.018 177.281 229.757C177.281 229.757 181.074 228.338 182.614 229.757C184.154 231.176 184.529 244.887 181.507 253.724" fill="#5431D6"/>
<path d="M155.929 260.356C155.929 260.356 160.507 270.989 161.541 272.466C162.575 273.943 185.363 284.428 185.363 284.428C185.363 284.428 188.125 283.985 190.93 284.428C193.736 284.871 197.613 286.053 197.963 286.496C198.314 286.939 193.726 293.585 193.726 293.585C193.726 293.585 184.62 294.151 183.492 290.545C183.492 290.545 160.655 282.065 157.997 279.85C155.339 277.635 147.955 264.491 147.955 264.491L155.929 260.356Z" fill="#E4897B"/>
<path d="M150.264 236.507C155.144 236.522 161.99 266.304 163.297 270.341C164.604 274.378 184.772 283.038 184.772 283.038L178.345 290.65C178.345 290.65 156.463 282.75 153.892 279.117C151.321 275.484 143.53 254.781 143.173 250C142.813 245.22 147.033 236.497 150.264 236.507Z" fill="#5431D6"/>
</svg>
