<svg width="500" height="500" viewBox="0 0 500 500" fill="none" xmlns="http://www.w3.org/2000/svg">
<path d="M250 442.587C357.083 442.587 443.89 437.519 443.89 431.267C443.89 425.015 357.083 419.947 250 419.947C142.918 419.947 56.1104 425.015 56.1104 431.267C56.1104 437.519 142.918 442.587 250 442.587Z" fill="#F5F5F5"/>
<path d="M238.395 341.53H45.3055C42.1555 341.525 39.6055 338.97 39.6055 335.82V64.39C39.6325 61.26 42.1755 58.735 45.3055 58.73H238.395C241.548 58.73 244.105 61.286 244.105 64.44V335.82C244.105 338.974 241.548 341.53 238.395 341.53ZM45.3055 58.93C42.2935 58.936 39.8555 61.378 39.8555 64.39V335.82C39.8555 338.832 42.2935 341.274 45.3055 341.28H238.395C241.408 341.275 243.849 338.833 243.855 335.82V64.39C243.849 61.377 241.408 58.935 238.395 58.93H45.3055Z" fill="#E6E6E6"/>
<path d="M454.705 341.53H261.606C258.455 341.525 255.901 338.971 255.896 335.82V64.39C255.929 61.258 258.474 58.735 261.606 58.73H454.705C457.831 58.741 460.368 61.264 460.395 64.39V335.82C460.395 338.966 457.851 341.519 454.705 341.53ZM261.606 58.93C258.593 58.936 256.15 61.377 256.145 64.39V335.82C256.15 338.833 258.593 341.274 261.606 341.28H454.705C457.718 341.275 460.16 338.833 460.166 335.82V64.39C460.16 61.377 457.718 58.935 454.705 58.93H261.606Z" fill="#E6E6E6"/>
<path d="M207.75 197.459L206.382 315.033C201.545 354.142 132.21 385.193 132.21 385.193C132.21 385.193 62.8759 354.142 58.0389 315.033L56.5879 197.459L130.692 173.067L207.75 197.459Z" fill="#F5F5F5"/>
<path d="M198.086 204.901L196.893 310.442C192.674 344.551 132.205 371.632 132.205 371.632C132.205 371.632 71.736 344.551 67.517 310.442L66.251 204.901L130.88 183.628L198.086 204.901Z" fill="#E0E0E0"/>
<path d="M193.838 211.563L192.719 308.447C188.764 340.423 132.075 365.811 132.075 365.811C132.075 365.811 75.3861 340.423 71.4311 308.447L70.2441 211.563L130.833 191.62L193.838 211.563Z" stroke="white" stroke-width="3" stroke-miterlimit="10" stroke-linecap="round" stroke-linejoin="round"/>
<path d="M440.328 157.788H306.943V391.828H440.328V157.788Z" fill="#F5F5F5"/>
<path d="M430.641 166.986H316.796V391.828H430.641V166.986Z" fill="#E0E0E0"/>
<path d="M319.979 392.83C319.78 392.83 319.58 392.79 319.399 392.71C319.219 392.64 319.059 392.53 318.919 392.39C318.769 392.25 318.659 392.081 318.589 391.9C318.519 391.72 318.479 391.531 318.479 391.331C318.479 390.94 318.639 390.551 318.919 390.27C319.259 389.92 319.78 389.77 320.27 389.86C320.36 389.881 320.46 389.911 320.549 389.94C320.639 389.98 320.729 390.031 320.809 390.081C320.889 390.14 320.969 390.201 321.039 390.27C321.108 390.34 321.169 390.411 321.219 390.5C321.28 390.58 321.319 390.66 321.359 390.76C321.399 390.85 321.43 390.94 321.451 391.04C321.471 391.13 321.479 391.229 321.479 391.33C321.479 391.53 321.439 391.72 321.359 391.899C321.29 392.08 321.179 392.25 321.04 392.389C320.75 392.67 320.38 392.83 319.979 392.83Z" fill="white"/>
<path d="M318.479 354.49C318.479 353.66 319.149 352.99 319.979 352.99C320.809 352.99 321.479 353.66 321.479 354.49C321.479 355.319 320.809 355.99 319.979 355.99C319.149 355.99 318.479 355.319 318.479 354.49ZM318.479 317.66C318.479 316.83 319.149 316.16 319.979 316.16C320.809 316.16 321.479 316.83 321.479 317.66C321.479 318.479 320.809 319.16 319.979 319.16C319.149 319.16 318.479 318.479 318.479 317.66ZM318.479 280.819C318.479 279.99 319.149 279.319 319.979 279.319C320.809 279.319 321.479 279.99 321.479 280.819C321.479 281.649 320.809 282.319 319.979 282.319C319.149 282.319 318.479 281.649 318.479 280.819ZM318.479 243.98C318.479 243.16 319.149 242.48 319.979 242.48C320.809 242.48 321.479 243.16 321.479 243.98C321.479 244.81 320.809 245.48 319.979 245.48C319.149 245.48 318.479 244.81 318.479 243.98ZM318.479 207.15C318.479 206.32 319.149 205.65 319.979 205.65C320.809 205.65 321.479 206.32 321.479 207.15C321.479 207.98 320.809 208.65 319.979 208.65C319.149 208.65 318.479 207.98 318.479 207.15Z" fill="white"/>
<path d="M319.979 171.81C319.58 171.81 319.189 171.65 318.919 171.369C318.849 171.299 318.779 171.229 318.729 171.139C318.679 171.06 318.629 170.979 318.589 170.889C318.549 170.789 318.519 170.699 318.509 170.599C318.489 170.509 318.479 170.409 318.479 170.31C318.479 169.92 318.639 169.53 318.919 169.25C318.979 169.18 319.059 169.12 319.139 169.06C319.219 169.01 319.309 168.96 319.399 168.93C319.49 168.89 319.589 168.86 319.679 168.84C319.879 168.8 320.07 168.8 320.27 168.84C320.36 168.86 320.46 168.89 320.549 168.93C320.639 168.96 320.729 169.01 320.809 169.06C320.889 169.119 320.969 169.18 321.039 169.25C321.318 169.53 321.478 169.92 321.478 170.31C321.478 170.41 321.468 170.51 321.449 170.599C321.429 170.699 321.398 170.789 321.358 170.889C321.318 170.979 321.279 171.06 321.218 171.139C321.168 171.229 321.108 171.299 321.038 171.369C320.76 171.65 320.37 171.81 319.979 171.81Z" fill="white"/>
<path d="M389.881 170.31C389.881 169.48 390.551 168.81 391.381 168.81C392.211 168.81 392.881 169.48 392.881 170.31C392.881 171.139 392.211 171.81 391.381 171.81C390.551 171.81 389.881 171.14 389.881 170.31ZM354.181 170.31C354.181 169.48 354.851 168.81 355.681 168.81C356.511 168.81 357.181 169.48 357.181 170.31C357.181 171.139 356.511 171.81 355.681 171.81C354.851 171.81 354.181 171.14 354.181 170.31Z" fill="white"/>
<path d="M427.08 171.81C426.979 171.81 426.889 171.8 426.79 171.78C426.69 171.76 426.6 171.73 426.51 171.7C426.42 171.66 426.33 171.61 426.25 171.56C426.17 171.5 426.09 171.44 426.02 171.369C425.741 171.089 425.581 170.709 425.581 170.31C425.581 169.92 425.741 169.53 426.02 169.25C426.09 169.18 426.17 169.12 426.25 169.07C426.33 169.01 426.42 168.96 426.51 168.93C426.6 168.89 426.69 168.86 426.79 168.84C426.979 168.8 427.18 168.8 427.38 168.84C427.47 168.86 427.56 168.89 427.66 168.93C427.75 168.96 427.83 169.01 427.91 169.07C428 169.12 428.069 169.18 428.139 169.25C428.419 169.53 428.58 169.92 428.58 170.31C428.58 170.71 428.42 171.09 428.139 171.369C428.069 171.439 427.999 171.499 427.91 171.56C427.83 171.61 427.75 171.66 427.66 171.7C427.559 171.73 427.47 171.76 427.38 171.78C427.28 171.8 427.18 171.81 427.08 171.81Z" fill="white"/>
<path d="M425.58 354.49C425.58 353.66 426.25 352.99 427.08 352.99C427.91 352.99 428.58 353.66 428.58 354.49C428.58 355.319 427.91 355.99 427.08 355.99C426.25 355.99 425.58 355.319 425.58 354.49ZM425.58 317.66C425.58 316.83 426.25 316.16 427.08 316.16C427.91 316.16 428.58 316.83 428.58 317.66C428.58 318.479 427.91 319.16 427.08 319.16C426.25 319.16 425.58 318.479 425.58 317.66ZM425.58 280.819C425.58 279.99 426.25 279.319 427.08 279.319C427.91 279.319 428.58 279.99 428.58 280.819C428.58 281.649 427.91 282.319 427.08 282.319C426.25 282.319 425.58 281.649 425.58 280.819ZM425.58 243.98C425.58 243.15 426.25 242.48 427.08 242.48C427.91 242.48 428.58 243.15 428.58 243.98C428.58 244.81 427.91 245.48 427.08 245.48C426.25 245.48 425.58 244.81 425.58 243.98ZM425.58 207.15C425.58 206.32 426.25 205.65 427.08 205.65C427.91 205.65 428.58 206.32 428.58 207.15C428.58 207.98 427.91 208.65 427.08 208.65C426.25 208.65 425.58 207.98 425.58 207.15Z" fill="white"/>
<path d="M427.08 392.83C426.68 392.83 426.3 392.67 426.019 392.389C425.74 392.109 425.58 391.729 425.58 391.33C425.58 390.93 425.74 390.55 426.019 390.269C426.089 390.2 426.169 390.139 426.249 390.08C426.329 390.03 426.419 389.979 426.509 389.939C426.599 389.91 426.689 389.879 426.789 389.859C426.978 389.819 427.179 389.819 427.379 389.859C427.469 389.88 427.568 389.91 427.659 389.939C427.749 389.979 427.829 390.03 427.909 390.08C427.999 390.139 428.068 390.2 428.138 390.269C428.418 390.549 428.579 390.929 428.579 391.33C428.579 391.729 428.429 392.109 428.138 392.389C427.859 392.67 427.479 392.83 427.08 392.83Z" fill="white"/>
<path d="M95 392.21H53.79V392.46H95V392.21Z" fill="#E0E0E0"/>
<path d="M179 390.21H137.67V390.46H179V390.21Z" fill="#E0E0E0"/>
<path d="M232.78 390.21H222.78V390.46H232.78V390.21Z" fill="#E0E0E0"/>
<path d="M132.83 398.75H86.5801V399H132.83V398.75Z" fill="#E0E0E0"/>
<path d="M292.8 392.08H271.2V392.33H292.8V392.08Z" fill="#E0E0E0"/>
<path d="M329.63 392.08H301.7V392.33H329.63V392.08Z" fill="#E0E0E0"/>
<path d="M464.33 396.31H401.89V396.56H464.33V396.31Z" fill="#E0E0E0"/>
<path d="M233.411 87.6521H187.346L189.858 58.9401H235.923L233.411 87.6521Z" fill="#EBEBEB"/>
<path d="M234.345 55.04L233.085 70.034L231.825 88.049H187.518L190.037 55.04H234.345Z" fill="#FAFAFA"/>
<path d="M230.107 58.9442L232.619 87.6542H186.556L184.045 58.9442H187.961L189.325 56.7852H201.735L203.512 58.9442H230.107Z" fill="#E0E0E0"/>
<path d="M304.807 94.063H255.791V143.079H304.807V94.063Z" fill="#EBEBEB"/>
<path d="M306.056 94.063H304.807V143.079H306.056V94.063Z" fill="#E0E0E0"/>
<path d="M300.275 98.5959H260.315V138.556H300.275V98.5959Z" fill="#F5F5F5"/>
<path d="M260.69 98.5959H260.324V138.556H260.69V98.5959Z" fill="#E0E0E0"/>
<path d="M280.671 124.353C284.974 124.353 288.462 119.909 288.462 114.428C288.462 108.947 284.974 104.503 280.671 104.503C276.368 104.503 272.88 108.947 272.88 114.428C272.88 119.909 276.368 124.353 280.671 124.353Z" fill="#E0E0E0"/>
<path d="M276.599 129.366H284.81V121.155H276.599V129.366Z" fill="#E0E0E0"/>
<path d="M265.395 138.556H295.477V135.76C295.477 130.436 291.161 126.12 285.837 126.12H275.034C269.71 126.12 265.394 130.436 265.394 135.76L265.395 138.556Z" fill="#E0E0E0"/>
<path d="M264.64 121.878C264.64 123.514 267.602 124.84 267.602 124.84C267.602 124.84 270.564 123.514 270.564 121.878C270.564 121.102 269.475 120.664 268.774 120.863C267.997 121.084 267.602 121.992 267.602 121.992C267.602 121.992 266.87 121.022 266.134 120.788C265.389 120.551 264.64 121.055 264.64 121.878Z" fill="#E0E0E0"/>
<path d="M291.256 114.591C291.256 116.739 295.146 118.481 295.146 118.481C295.146 118.481 299.036 116.739 299.036 114.591C299.036 113.573 297.605 112.997 296.686 113.259C295.666 113.549 295.146 114.741 295.146 114.741C295.146 114.741 294.185 113.468 293.218 113.16C292.24 112.849 291.256 113.511 291.256 114.591Z" fill="#E0E0E0"/>
<path d="M205.711 359.323C206.168 362.212 208.26 364.704 208.423 367.624C208.55 369.907 207.477 372.063 206.952 374.288C206.427 376.514 206.676 379.288 208.635 380.467C209.992 381.285 211.797 381.033 213.146 380.202C214.495 379.371 215.467 378.052 216.302 376.705C219.358 371.783 221.052 366.025 221.15 360.233C221.191 357.775 220.902 355.178 219.457 353.19C214.961 347.006 204.572 352.122 205.711 359.323Z" fill="#F5F5F5"/>
<path d="M202.042 351.675C202.456 352.152 203.041 352.459 203.652 352.617C204.413 352.813 205.314 352.753 205.86 352.188C206.379 351.651 206.436 350.822 206.361 350.079C206.269 349.168 206.012 348.249 205.454 347.523C204.896 346.797 203.999 346.292 203.086 346.367C202.173 346.442 201.313 347.191 201.267 348.105C201.217 349.087 201.382 350.915 202.042 351.675Z" fill="#F5F5F5"/>
<path d="M210.312 345.662C209.811 344.982 209.087 344.663 208.367 344.809C207.66 344.953 207.009 345.61 206.926 346.352C206.901 346.572 206.889 346.824 206.893 347.081C206.899 347.458 206.93 347.867 207.02 348.248C207.12 348.668 207.294 349.046 207.533 349.282C207.872 349.618 208.314 349.829 208.779 349.917C209.358 350.026 210.028 349.938 210.445 349.505C210.882 349.05 210.994 348.38 210.972 347.757C210.946 347.016 210.754 346.261 210.312 345.662Z" fill="#F5F5F5"/>
<path d="M214.944 345.408C214.448 344.702 213.809 344.518 213.193 344.746C212.603 344.964 212.074 345.603 211.954 346.26C211.915 346.474 211.889 346.702 211.88 346.919C211.866 347.265 211.872 347.636 211.954 347.984C212.042 348.358 212.223 348.693 212.467 348.894C212.766 349.139 213.127 349.28 213.505 349.313C213.976 349.353 214.502 349.231 214.842 348.875C215.246 348.45 215.419 347.861 215.443 347.284C215.472 346.632 215.325 345.95 214.944 345.408Z" fill="#F5F5F5"/>
<path d="M219.071 346.371C218.582 345.638 218.025 345.588 217.514 345.901C217.041 346.19 216.629 346.814 216.478 347.388C216.423 347.596 216.383 347.801 216.364 347.977C216.329 348.292 216.312 348.626 216.385 348.941C216.461 349.269 216.644 349.566 216.898 349.726C217.152 349.886 217.437 349.952 217.729 349.929C218.091 349.9 218.473 349.745 218.737 349.466C219.109 349.071 219.338 348.562 219.412 348.031C219.491 347.463 219.393 346.853 219.071 346.371Z" fill="#F5F5F5"/>
<path d="M219.883 350.417C219.832 350.656 219.802 350.906 219.856 351.145C219.911 351.384 220.063 351.611 220.29 351.703C220.678 351.861 221.104 351.586 221.389 351.28C221.676 350.972 221.914 350.609 222.021 350.202C222.128 349.795 222.092 349.34 221.868 348.984C220.958 347.533 220.037 349.703 219.883 350.417Z" fill="#F5F5F5"/>
<path d="M220.693 426.11C221.364 423.745 221.751 421.161 220.865 418.868C218.108 411.737 206.753 414.014 206.006 421.266L220.693 426.11Z" fill="#F5F5F5"/>
<path d="M204.422 412.933C204.7 413.5 205.186 413.947 205.736 414.256C206.421 414.641 207.307 414.815 207.98 414.409C208.619 414.024 208.888 413.236 209.006 412.499C209.151 411.595 209.138 410.641 208.785 409.796C208.432 408.951 207.695 408.233 206.793 408.071C205.892 407.909 204.868 408.412 204.588 409.284C204.289 410.22 203.979 412.029 204.422 412.933Z" fill="#F5F5F5"/>
<path d="M213.959 409.245C213.649 408.459 213.032 407.964 212.298 407.921C211.578 407.879 210.78 408.346 210.509 409.042C210.429 409.248 210.352 409.489 210.29 409.738C210.199 410.104 210.124 410.507 210.113 410.898C210.102 411.329 210.174 411.739 210.343 412.029C210.585 412.441 210.957 412.758 211.385 412.962C211.917 413.216 212.587 413.303 213.101 412.991C213.64 412.663 213.921 412.045 214.059 411.436C214.223 410.716 214.232 409.938 213.959 409.245Z" fill="#F5F5F5"/>
<path d="M218.5 410.189C218.201 409.38 217.632 409.038 216.978 409.1C216.352 409.16 215.677 409.641 215.392 410.246C215.299 410.443 215.215 410.657 215.152 410.864C215.05 411.195 214.96 411.555 214.95 411.913C214.939 412.297 215.028 412.668 215.212 412.924C215.438 413.238 215.751 413.467 216.108 413.595C216.553 413.755 217.092 413.772 217.512 413.515C218.012 413.208 218.33 412.682 218.501 412.131C218.696 411.507 218.73 410.81 218.5 410.189Z" fill="#F5F5F5"/>
<path d="M222.242 412.178C221.957 411.344 221.433 411.153 220.858 411.324C220.327 411.482 219.768 411.979 219.475 412.495C219.368 412.682 219.278 412.869 219.213 413.035C219.098 413.331 218.996 413.648 218.986 413.972C218.976 414.309 219.076 414.643 219.281 414.863C219.485 415.083 219.744 415.219 220.032 415.272C220.389 415.337 220.799 415.285 221.125 415.084C221.586 414.798 221.938 414.364 222.145 413.871C222.367 413.342 222.43 412.727 222.242 412.178Z" fill="#F5F5F5"/>
<path d="M221.99 416.297C221.879 416.515 221.786 416.749 221.777 416.994C221.769 417.239 221.857 417.497 222.053 417.645C222.387 417.897 222.87 417.741 223.224 417.518C223.58 417.294 223.904 417.004 224.112 416.638C224.32 416.272 224.402 415.823 224.277 415.421C223.768 413.786 222.321 415.646 221.99 416.297Z" fill="#F5F5F5"/>
<path d="M181.275 383.664C181.636 386.567 180.316 389.54 180.968 392.391C181.478 394.62 183.106 396.394 184.227 398.387C185.348 400.38 185.876 403.115 184.321 404.791C183.243 405.952 181.439 406.21 179.913 405.785C178.386 405.36 177.088 404.362 175.912 403.299C171.613 399.416 168.39 394.352 166.693 388.814C165.973 386.464 165.531 383.888 166.37 381.577C168.976 374.39 180.375 376.429 181.275 383.664Z" fill="#F5F5F5"/>
<path d="M182.683 375.299C182.417 375.872 181.94 376.329 181.397 376.65C180.72 377.05 179.838 377.241 179.157 376.85C178.51 376.478 178.225 375.696 178.091 374.962C177.927 374.061 177.92 373.107 178.255 372.255C178.591 371.403 179.312 370.67 180.21 370.489C181.108 370.308 182.142 370.79 182.44 371.656C182.759 372.584 183.106 374.386 182.683 375.299Z" fill="#F5F5F5"/>
<path d="M173.07 371.811C173.363 371.019 173.97 370.512 174.703 370.453C175.422 370.396 176.229 370.846 176.515 371.536C176.6 371.741 176.681 371.979 176.749 372.227C176.847 372.591 176.931 372.993 176.95 373.383C176.97 373.814 176.907 374.225 176.743 374.518C176.51 374.935 176.144 375.26 175.721 375.473C175.195 375.738 174.527 375.839 174.006 375.538C173.46 375.222 173.167 374.609 173.016 374.004C172.837 373.288 172.812 372.51 173.07 371.811Z" fill="#F5F5F5"/>
<path d="M168.55 372.85C168.832 372.035 169.394 371.681 170.049 371.729C170.676 371.775 171.361 372.243 171.659 372.841C171.756 373.036 171.844 373.248 171.912 373.454C172.021 373.783 172.118 374.141 172.136 374.498C172.155 374.882 172.074 375.254 171.895 375.514C171.675 375.833 171.368 376.068 171.013 376.204C170.572 376.373 170.033 376.401 169.607 376.154C169.101 375.858 168.772 375.339 168.589 374.791C168.381 374.172 168.334 373.476 168.55 372.85Z" fill="#F5F5F5"/>
<path d="M164.851 374.918C165.118 374.078 165.639 373.876 166.217 374.035C166.751 374.182 167.32 374.667 167.624 375.177C167.734 375.362 167.829 375.547 167.897 375.711C168.018 376.004 168.127 376.32 168.144 376.643C168.161 376.98 168.068 377.315 167.868 377.54C167.669 377.764 167.412 377.906 167.126 377.965C166.77 378.038 166.36 377.994 166.029 377.8C165.562 377.524 165.201 377.097 164.983 376.609C164.75 376.084 164.674 375.471 164.851 374.918Z" fill="#F5F5F5"/>
<path d="M165.19 379.03C165.306 379.246 165.404 379.478 165.417 379.722C165.431 379.967 165.347 380.227 165.155 380.378C164.826 380.637 164.34 380.491 163.982 380.276C163.621 380.059 163.291 379.777 163.076 379.415C162.861 379.053 162.769 378.607 162.886 378.202C163.359 376.557 164.845 378.387 165.19 379.03Z" fill="#F5F5F5"/>
<path d="M156.732 143.587C150.315 144.483 144.365 139.99 143.469 133.573C142.573 127.155 147.066 121.205 153.483 120.309C159.901 119.413 165.851 123.906 166.747 130.324C167.643 136.742 163.15 142.692 156.732 143.587ZM154.347 126.495C151.34 126.915 149.235 129.703 149.655 132.71C150.075 135.717 152.862 137.822 155.87 137.402C158.877 136.982 160.983 134.194 160.563 131.187C160.143 128.18 157.354 126.075 154.347 126.495Z" fill="#E0E0E0"/>
<path d="M152.315 96.9252L147.896 97.5417L151.861 125.956L156.28 125.34L152.315 96.9252Z" fill="#E0E0E0"/>
<path d="M155.959 93.2653L147.665 94.4226L148.282 98.8408L156.575 97.6835L155.959 93.2653Z" fill="#E0E0E0"/>
<path d="M156.758 98.9401L148.96 100.028L149.576 104.446L157.375 103.358L156.758 98.9401Z" fill="#E0E0E0"/>
<path d="M157.89 106.946L151.083 107.895L151.7 112.314L158.507 111.364L157.89 106.946Z" fill="#E0E0E0"/>
<path d="M147.472 243.271C156.69 233.642 155.642 217.681 145.133 207.621C134.624 197.561 118.632 197.212 109.415 206.841C100.198 216.47 101.245 232.431 111.754 242.491C122.264 252.551 138.255 252.9 147.472 243.271Z" fill="#5431D6"/>
<g opacity="0.8">
<path d="M147.472 243.271C156.69 233.642 155.642 217.681 145.133 207.621C134.624 197.561 118.632 197.212 109.415 206.841C100.198 216.47 101.245 232.431 111.754 242.491C122.264 252.551 138.255 252.9 147.472 243.271Z" fill="white"/>
</g>
<path d="M116.691 209.24C116.385 209.24 116.084 209.1 115.887 208.836C115.558 208.392 115.651 207.766 116.094 207.437C119.268 205.081 123.266 203.835 127.656 203.835C127.661 203.835 127.666 203.835 127.671 203.835C128.223 203.836 128.67 204.283 128.67 204.836C128.67 205.388 128.222 205.835 127.67 205.835C127.67 205.835 127.661 205.835 127.656 205.835C123.698 205.835 120.113 206.944 117.286 209.042C117.108 209.176 116.899 209.24 116.691 209.24Z" fill="#5431D6"/>
<path d="M121.421 243.643C121.262 243.643 121.101 243.605 120.95 243.524C114.751 240.205 110.413 234.306 109.05 227.341C107.822 221.071 109.285 214.864 113.063 210.31C113.415 209.887 114.046 209.827 114.471 210.179C114.896 210.531 114.954 211.162 114.602 211.587C111.209 215.676 109.901 221.278 111.013 226.956C112.26 233.33 116.227 238.725 121.894 241.76C122.381 242.02 122.565 242.627 122.304 243.114C122.123 243.452 121.778 243.643 121.421 243.643Z" fill="#5431D6"/>
<path d="M131.43 246.251C129.273 246.251 127.058 245.9 124.842 245.186C124.317 245.017 124.028 244.454 124.196 243.928C124.366 243.403 124.931 243.112 125.455 243.283C131.605 245.263 137.749 244.162 142.302 240.256C146.944 236.275 149.102 230.07 148.075 223.658C147.987 223.113 148.359 222.6 148.904 222.512C149.446 222.421 149.962 222.795 150.05 223.341C151.188 230.445 148.778 237.335 143.604 241.773C140.163 244.726 135.924 246.251 131.43 246.251Z" fill="#5431D6"/>
<path d="M148.25 221.118C147.827 221.118 147.435 220.848 147.298 220.424C145.455 214.697 141.127 209.876 135.722 207.528C135.215 207.308 134.983 206.719 135.203 206.212C135.422 205.706 136.009 205.472 136.518 205.694C142.443 208.268 147.185 213.546 149.202 219.812C149.371 220.337 149.082 220.901 148.556 221.07C148.454 221.102 148.352 221.118 148.25 221.118Z" fill="#5431D6"/>
<path d="M132.488 206.401C132.412 206.401 132.334 206.392 132.257 206.374C130.753 206.018 129.209 205.837 127.669 205.835C127.117 205.835 126.669 205.386 126.67 204.834C126.671 204.282 127.118 203.835 127.67 203.835C129.364 203.836 131.064 204.036 132.718 204.427C133.255 204.555 133.588 205.093 133.46 205.631C133.352 206.091 132.941 206.401 132.488 206.401Z" fill="#5431D6"/>
<path d="M114.851 230.294C114.444 230.294 114.061 230.043 113.913 229.639C112.035 224.533 112.674 219.146 115.666 214.859C118.532 210.752 123.097 208.396 128.188 208.396H128.191C128.744 208.396 129.191 208.844 129.191 209.396C129.191 209.948 128.743 210.396 128.191 210.396H128.188C123.759 210.396 119.793 212.44 117.305 216.004C114.693 219.747 114.141 224.465 115.789 228.949C115.979 229.468 115.714 230.042 115.195 230.233C115.082 230.274 114.965 230.294 114.851 230.294Z" fill="#5431D6"/>
<path d="M130.713 241.71C130.71 241.71 130.706 241.71 130.703 241.71C124.897 241.651 119.015 238.326 115.716 233.239C115.415 232.776 115.547 232.156 116.011 231.856C116.474 231.555 117.093 231.688 117.394 232.151C120.338 236.691 125.57 239.657 130.723 239.71C131.276 239.716 131.719 240.168 131.713 240.72C131.707 241.27 131.261 241.71 130.713 241.71Z" fill="#5431D6"/>
<path d="M134.445 241.277C133.997 241.277 133.589 240.973 133.475 240.519C133.342 239.983 133.668 239.44 134.204 239.307C142.315 237.287 144.415 230.197 143.749 224.74C142.88 217.619 137.255 210.406 128.187 210.396C127.634 210.396 127.187 209.947 127.188 209.395C127.189 208.843 127.636 208.396 128.188 208.396H128.189C138.419 208.407 144.758 216.505 145.734 224.498C146.742 232.751 142.405 239.327 134.686 241.249C134.607 241.268 134.525 241.277 134.445 241.277Z" fill="#5431D6"/>
<path d="M124.105 215.919C123.727 215.919 123.366 215.704 123.197 215.339C122.965 214.838 123.183 214.244 123.684 214.011C125.176 213.321 126.859 212.955 128.549 212.955C129.102 212.955 129.549 213.403 129.549 213.955C129.549 214.507 129.102 214.955 128.549 214.955C127.147 214.955 125.755 215.256 124.524 215.826C124.388 215.889 124.245 215.919 124.105 215.919Z" fill="#5431D6"/>
<path d="M130.526 237.052C125.492 237.052 120.849 233.983 118.621 229.146C116.548 224.645 117.155 219.93 120.245 216.535C120.617 216.127 121.25 216.097 121.657 216.468C122.065 216.84 122.095 217.472 121.723 217.881C119.192 220.664 118.711 224.562 120.438 228.31C122.385 232.538 126.499 235.184 130.845 235.048C134.378 234.939 137.316 233.008 138.703 229.883C140.276 226.34 139.567 222.154 136.854 218.961C136.496 218.54 136.547 217.909 136.968 217.551C137.39 217.195 138.022 217.244 138.378 217.666C141.594 221.451 142.418 226.443 140.53 230.695C138.823 234.539 135.224 236.914 130.906 237.047C130.78 237.05 130.653 237.052 130.526 237.052Z" fill="#5431D6"/>
<path d="M134.744 216.798C134.559 216.798 134.374 216.747 134.207 216.641C132.48 215.539 130.523 214.956 128.549 214.955C127.996 214.955 127.549 214.507 127.549 213.955C127.549 213.403 127.997 212.955 128.549 212.955C130.905 212.956 133.234 213.647 135.283 214.955C135.749 215.252 135.885 215.87 135.588 216.336C135.398 216.635 135.074 216.798 134.744 216.798Z" fill="#5431D6"/>
<path d="M130.028 232.54C127.72 232.54 125.489 231.507 123.915 229.636C121.937 227.284 121.479 224.162 122.724 221.489C123.881 219.003 126.223 217.518 128.989 217.516C129.541 217.516 129.989 217.963 129.989 218.516C129.989 219.068 129.542 219.516 128.989 219.516C127.022 219.517 125.358 220.57 124.538 222.332C123.626 224.292 123.975 226.598 125.447 228.349C126.952 230.138 129.24 230.913 131.424 230.369C133.279 229.908 134.621 228.549 135.012 226.735C135.128 226.195 135.654 225.854 136.201 225.968C136.741 226.084 137.084 226.616 136.968 227.156C136.412 229.734 134.521 231.66 131.907 232.31C131.281 232.464 130.652 232.54 130.028 232.54Z" fill="#5431D6"/>
<path d="M135.817 224.623C135.391 224.623 134.997 224.348 134.863 223.921C134.065 221.372 131.595 219.519 128.987 219.516C128.434 219.516 127.987 219.067 127.988 218.515C127.989 217.963 128.436 217.516 128.988 217.516C132.446 217.52 135.72 219.963 136.771 223.324C136.936 223.851 136.642 224.412 136.116 224.578C136.017 224.607 135.916 224.623 135.817 224.623Z" fill="#5431D6"/>
<path d="M130.267 228.381C129.728 228.381 129.283 227.951 129.268 227.408C129.253 226.856 129.689 226.396 130.241 226.382C131.151 226.358 131.287 225.707 131.287 225.32C131.287 224.73 130.902 223.841 129.843 223.813C129.554 223.822 129.266 223.944 129.064 224.165C128.86 224.388 128.762 224.69 128.784 225.038C128.817 225.589 128.398 226.063 127.846 226.097C127.296 226.135 126.822 225.711 126.787 225.159C126.733 224.27 127.017 223.438 127.589 222.815C128.157 222.194 128.958 221.839 129.842 221.815C132.099 221.874 133.287 223.666 133.287 225.321C133.287 227.076 132.057 228.334 130.296 228.382C130.285 228.381 130.276 228.381 130.267 228.381Z" fill="#5431D6"/>
<path d="M156.038 225.053C157.257 238.983 146.954 250.273 133.024 250.273C132.664 250.273 132.303 250.263 131.942 250.243C145.202 249.563 154.828 238.543 153.648 225.053C152.469 211.573 140.914 200.553 127.535 199.873C127.893 199.853 128.252 199.843 128.612 199.843C142.543 199.843 154.82 211.133 156.038 225.053Z" fill="#5431D6"/>
<g opacity="0.4">
<path d="M156.038 225.053C157.257 238.983 146.954 250.273 133.024 250.273C132.664 250.273 132.303 250.263 131.942 250.243C145.202 249.563 154.828 238.543 153.648 225.053C152.469 211.573 140.914 200.553 127.535 199.873C127.893 199.853 128.252 199.843 128.612 199.843C142.543 199.843 154.82 211.133 156.038 225.053Z" fill="white"/>
</g>
<path d="M176.415 102.142C176.441 102.442 176.487 102.742 176.543 103.032C176.912 104.962 177.944 106.702 179.358 108.002C180.989 109.502 183.141 110.432 185.431 110.432H269.921C274.201 110.432 277.438 107.192 277.513 103.032C277.518 102.742 277.512 102.442 277.485 102.142C277.285 99.8621 276.173 97.7821 274.543 96.2921C272.912 94.7921 270.76 93.8621 268.47 93.8621H183.98C179.401 93.8621 176.015 97.5721 176.415 102.142Z" fill="#5431D6"/>
<path opacity="0.8" d="M176.415 102.142C176.441 102.442 176.487 102.742 176.543 103.032C176.912 104.962 177.944 106.702 179.358 108.002C180.989 109.502 183.141 110.432 185.431 110.432H269.921C274.201 110.432 277.438 107.192 277.513 103.032C277.518 102.742 277.512 102.442 277.485 102.142C277.285 99.8621 276.173 97.7821 274.543 96.2921C272.912 94.7921 270.76 93.8621 268.47 93.8621H183.98C179.401 93.8621 176.015 97.5721 176.415 102.142Z" fill="white"/>
<path d="M277.51 103.03C277.51 103.3 277.49 103.57 277.45 103.83C277.19 101.67 276.1 99.71 274.54 98.29C272.91 96.79 270.76 95.86 268.47 95.86L178.62 96C179.97 94.67 181.85 93.86 183.98 93.86H268.47C270.76 93.86 272.91 94.79 274.54 96.29C276.17 97.78 277.29 99.86 277.49 102.14C277.51 102.44 277.52 102.74 277.51 103.03Z" fill="#5431D6"/>
<path opacity="0.5" d="M277.51 103.03C277.51 103.3 277.49 103.57 277.45 103.83C277.19 101.67 276.1 99.71 274.54 98.29C272.91 96.79 270.76 95.86 268.47 95.86L178.62 96C179.97 94.67 181.85 93.86 183.98 93.86H268.47C270.76 93.86 272.91 94.79 274.54 96.29C276.17 97.78 277.29 99.86 277.49 102.14C277.51 102.44 277.52 102.74 277.51 103.03Z" fill="white"/>
<path d="M262.962 97.8571L263.316 101.899L267.079 100.496L267.973 102.491L264.127 103.767L266.888 107.158L265.165 108.435L262.473 104.911L260.434 108.435L258.541 107.158L260.673 103.767L256.64 102.491L257.183 100.508L261.226 101.86L260.876 97.8571H262.962Z" fill="#5431D6"/>
<path d="M239.854 97.8571L240.208 101.899L243.971 100.496L244.865 102.491L241.019 103.767L243.78 107.158L242.057 108.435L239.365 104.911L237.326 108.435L235.433 107.158L237.565 103.767L233.532 102.491L234.075 100.508L238.118 101.86L237.768 97.8571H239.854Z" fill="#5431D6"/>
<path d="M216.748 97.8571L217.102 101.899L220.865 100.496L221.759 102.491L217.913 103.767L220.674 107.158L218.951 108.435L216.259 104.911L214.22 108.435L212.327 107.158L214.459 103.767L210.426 102.491L210.969 100.508L215.012 101.86L214.662 97.8571H216.748Z" fill="#5431D6"/>
<path d="M193.64 97.8571L193.994 101.899L197.757 100.496L198.651 102.491L194.805 103.767L197.566 107.158L195.843 108.435L193.151 104.911L191.112 108.435L189.219 107.158L191.351 103.767L187.318 102.491L187.861 100.508L191.904 101.86L191.554 97.8571H193.64Z" fill="#5431D6"/>
<path d="M249.644 89.942H245.707V90.942H249.644V89.942Z" fill="#5431D6"/>
<path d="M266.583 89.942H253.729V90.942H266.583V89.942Z" fill="#5431D6"/>
<path opacity="0.8" d="M397.791 127.244L393.699 174.014C393.576 175.424 392.944 176.704 391.99 177.664C390.889 178.814 389.346 179.534 387.696 179.534H355.226C354.026 179.534 352.949 179.154 352.107 178.494C350.794 177.504 350.027 175.864 350.189 174.014L354.281 127.244C354.548 124.194 357.234 121.724 360.284 121.724H392.754C395.804 121.724 398.058 124.194 397.791 127.244Z" fill="#5431D6"/>
<path opacity="0.8" d="M397.791 127.244L393.699 174.014C393.576 175.424 392.944 176.704 391.99 177.664C390.889 178.814 389.346 179.534 387.696 179.534H355.226C354.026 179.534 352.949 179.154 352.107 178.494C350.794 177.504 350.027 175.864 350.189 174.014L354.281 127.244C354.548 124.194 357.234 121.724 360.284 121.724H392.754C395.804 121.724 398.058 124.194 397.791 127.244Z" fill="white"/>
<path d="M357.28 134.776C357.251 134.776 357.221 134.775 357.192 134.772C356.641 134.724 356.235 134.239 356.283 133.689L356.657 129.412C356.702 128.895 357.134 128.499 357.653 128.499H362.168C362.721 128.499 363.168 128.947 363.168 129.499C363.168 130.051 362.721 130.499 362.168 130.499H358.569L358.275 133.863C358.229 134.384 357.793 134.776 357.28 134.776Z" fill="#5431D6"/>
<path d="M393.64 134.776C393.611 134.776 393.581 134.775 393.552 134.772C393.001 134.724 392.595 134.239 392.643 133.689L392.922 130.499H389.498C388.945 130.499 388.498 130.051 388.498 129.499C388.498 128.947 388.945 128.499 389.498 128.499H394.013C394.293 128.499 394.561 128.617 394.75 128.823C394.94 129.03 395.033 129.306 395.009 129.586L394.635 133.863C394.589 134.384 394.152 134.776 393.64 134.776Z" fill="#5431D6"/>
<path d="M358.971 167.053H354.455C354.175 167.053 353.907 166.935 353.718 166.728C353.529 166.522 353.435 166.245 353.459 165.965L353.834 161.688C353.883 161.138 354.376 160.725 354.917 160.779C355.468 160.827 355.874 161.312 355.826 161.862L355.547 165.052H358.971C359.524 165.052 359.971 165.5 359.971 166.052C359.971 166.605 359.523 167.053 358.971 167.053Z" fill="#5431D6"/>
<path d="M390.815 167.053H386.3C385.747 167.053 385.3 166.605 385.3 166.053C385.3 165.501 385.747 165.053 386.3 165.053H389.899L390.193 161.689C390.242 161.139 390.745 160.726 391.276 160.78C391.827 160.828 392.233 161.313 392.185 161.863L391.811 166.14C391.766 166.656 391.333 167.053 390.815 167.053Z" fill="#5431D6"/>
<path d="M387.361 150.932C389.619 142.178 385.745 133.61 378.708 131.795C371.671 129.981 364.137 135.607 361.88 144.361C359.622 153.115 363.496 161.683 370.533 163.498C377.569 165.312 385.104 159.686 387.361 150.932Z" fill="white"/>
<path d="M378.55 172.528H365.6L366.733 159.577H379.683L378.55 172.528Z" fill="white"/>
<path d="M393.699 174.014C393.576 175.424 392.944 176.704 391.99 177.664C390.889 178.814 389.346 179.534 387.696 179.534H355.226C354.026 179.534 352.949 179.154 352.107 178.494C350.794 177.504 350.027 175.864 350.189 174.014C350.189 174.014 365.112 169.294 366.952 169.294C368.782 169.294 378.482 169.294 378.482 169.294L393.699 174.014Z" fill="white"/>
<path d="M399.622 140.895L398.11 159.266L399.106 159.348L400.618 140.977L399.622 140.895Z" fill="#5431D6"/>
<path d="M400.679 132.497L400.382 136.106L401.377 136.188L401.674 132.579L400.679 132.497Z" fill="#5431D6"/>
<path d="M365.877 244.07H361.939V245.07H365.877V244.07Z" fill="#5431D6"/>
<path d="M382.817 244.07H369.963V245.07H382.817V244.07Z" fill="#5431D6"/>
<path d="M406.331 226.997L403.837 255.502C403.612 258.071 401.347 260.154 398.778 260.154C396.209 260.154 394.309 258.071 394.533 255.502L397.027 226.997C397.832 217.792 390.999 210.297 381.793 210.297H371.595C362.39 210.297 354.245 217.792 353.439 226.997L352.421 238.637H343.117L344.135 226.997C345.389 212.659 358.076 200.994 372.408 200.994H382.606C396.941 200.994 407.586 212.659 406.331 226.997Z" fill="#5431D6"/>
<g opacity="0.5">
<path d="M406.331 226.997L403.837 255.502C403.612 258.071 401.347 260.154 398.778 260.154C396.209 260.154 394.309 258.071 394.533 255.502L397.027 226.997C397.832 217.792 390.999 210.297 381.793 210.297H371.595C362.39 210.297 354.245 217.792 353.439 226.997L352.421 238.637H343.117L344.135 226.997C345.389 212.659 358.076 200.994 372.408 200.994H382.606C396.941 200.994 407.586 212.659 406.331 226.997Z" fill="white"/>
</g>
<path d="M407.004 254.458L402.145 309.995C401.838 313.51 398.746 316.353 395.231 316.353H339.694C336.185 316.353 333.585 313.51 333.893 309.995L338.752 254.458C338.95 252.189 340.319 250.194 342.205 249.072C343.236 248.457 344.425 248.1 345.665 248.1H401.202C402.406 248.1 403.498 248.436 404.404 249.01C406.153 250.127 407.206 252.148 407.004 254.458Z" fill="#5431D6"/>
<path d="M349.248 278.717L363.676 300.931L411.268 253.339C411.686 252.921 411.11 252.27 410.644 252.635L365.289 288.185L356.724 274.375L349.248 278.717Z" fill="white"/>
<path d="M121.957 171.305H85.8151C82.4221 171.305 79.4301 168.554 79.1331 165.16L75.9711 129.018C75.6741 125.625 78.1841 122.874 81.5781 122.874H117.72C121.114 122.874 124.105 125.625 124.402 129.018L127.564 165.16C127.861 168.554 125.351 171.305 121.957 171.305Z" fill="#5431D6"/>
<path opacity="0.8" d="M121.957 171.305H85.8151C82.4221 171.305 79.4301 168.554 79.1331 165.16L75.9711 129.018C75.6741 125.625 78.1841 122.874 81.5781 122.874H117.72C121.114 122.874 124.105 125.625 124.402 129.018L127.564 165.16C127.861 168.554 125.351 171.305 121.957 171.305Z" fill="white"/>
<path d="M79.1504 150.73C79.1504 150.73 91.9894 132.841 101.461 133.3C110.933 133.758 126.638 150.308 126.638 150.308C126.638 150.308 103.465 162.474 79.1504 150.73Z" fill="white"/>
<path d="M79.5581 151.021L78.7451 150.438C79.2681 149.708 91.5221 132.79 101.101 132.79C101.23 132.79 101.358 132.793 101.486 132.799C111.048 133.262 126.354 149.281 127.001 149.963L126.276 150.651C126.12 150.487 110.6 134.241 101.437 133.797C101.325 133.792 101.21 133.789 101.096 133.789C92.0301 133.791 79.6831 150.847 79.5581 151.021Z" fill="#263238"/>
<path d="M77.8157 151.359C75.8787 151.359 73.3637 150.639 72.4727 147.898C72.3877 147.635 72.5317 147.353 72.7937 147.268C73.0557 147.185 73.3387 147.327 73.4237 147.589C74.5717 151.127 78.8667 150.278 79.0487 150.24C79.3137 150.187 79.5837 150.357 79.6397 150.628C79.6967 150.898 79.5227 151.163 79.2517 151.219C78.8507 151.303 78.3557 151.359 77.8157 151.359Z" fill="#263238"/>
<path d="M85.4451 143.679C85.3391 143.679 85.2311 143.645 85.1401 143.576C84.9901 143.46 81.4421 140.716 80.5361 137.93C80.4511 137.668 80.5951 137.386 80.8571 137.3C81.1191 137.215 81.4021 137.36 81.4871 137.621C82.2961 140.109 85.7141 142.755 85.7491 142.782C85.9681 142.95 86.0091 143.264 85.8411 143.483C85.7431 143.612 85.5951 143.679 85.4451 143.679Z" fill="#263238"/>
<path d="M92.7945 136.869C92.7915 136.869 92.7875 136.869 92.7835 136.869C92.5075 136.863 92.2885 136.635 92.2945 136.358C92.3085 135.717 90.7185 131.531 90.1195 129.955C89.8685 129.295 89.6895 128.822 89.6515 128.695C89.5715 128.431 89.7205 128.152 89.9845 128.071C90.2545 127.991 90.5285 128.141 90.6085 128.405C90.6445 128.525 90.8165 128.974 91.0535 129.6C92.4475 133.269 93.3085 135.684 93.2935 136.38C93.2885 136.652 93.0655 136.869 92.7945 136.869Z" fill="#263238"/>
<path d="M101.461 133.8C101.205 133.8 100.986 133.604 100.964 133.344L100.26 125.29C100.236 125.015 100.44 124.772 100.714 124.748C100.996 124.713 101.232 124.927 101.256 125.203L101.96 133.257C101.984 133.532 101.78 133.775 101.506 133.799C101.49 133.799 101.476 133.8 101.461 133.8Z" fill="#263238"/>
<path d="M128.138 150.814C127.328 150.814 126.731 150.699 126.678 150.688C126.407 150.634 126.233 150.371 126.286 150.1C126.341 149.829 126.599 149.65 126.874 149.707C126.898 149.711 129.315 150.175 130.816 149.119C131.453 148.67 131.828 148.021 131.961 147.136C132.002 146.862 132.26 146.678 132.529 146.716C132.801 146.757 132.99 147.011 132.949 147.285C132.776 148.441 132.251 149.334 131.388 149.94C130.379 150.649 129.106 150.814 128.138 150.814Z" fill="#263238"/>
<path d="M119.16 143.147C119.022 143.147 118.885 143.09 118.786 142.978C118.602 142.772 118.622 142.456 118.828 142.272C118.858 142.246 121.785 139.626 122.154 137.169C122.195 136.895 122.452 136.711 122.722 136.749C122.995 136.79 123.183 137.045 123.142 137.318C122.72 140.135 119.622 142.904 119.491 143.021C119.396 143.105 119.278 143.147 119.16 143.147Z" fill="#263238"/>
<path d="M110.708 137.337C110.68 137.337 110.652 137.335 110.624 137.33C110.352 137.284 110.168 137.026 110.214 136.753C110.225 136.689 111.312 130.259 111.509 128.943C111.55 128.669 111.808 128.484 112.077 128.523C112.35 128.564 112.538 128.819 112.497 129.092C112.299 130.416 111.211 136.855 111.2 136.92C111.159 137.164 110.947 137.337 110.708 137.337Z" fill="#263238"/>
<path d="M111.005 152.815C115.146 148.488 114.676 141.317 109.954 136.797C105.232 132.277 98.0472 132.12 93.9059 136.447C89.7645 140.773 90.235 147.945 94.9568 152.465C99.6786 156.984 106.864 157.141 111.005 152.815Z" fill="#5431D6"/>
<path opacity="0.3" d="M107.136 144.628C107.154 144.378 107.152 144.128 107.129 143.868C106.896 141.208 104.548 139.058 101.888 139.058C99.2381 139.058 97.2661 141.208 97.4991 143.868C97.5221 144.128 97.5641 144.378 97.6351 144.628H91.1251C90.5771 138.368 95.2041 133.298 101.464 133.298C107.714 133.298 113.238 138.368 113.785 144.628H107.136Z" fill="black"/>
<path opacity="0.7" d="M107.129 143.868C107.152 144.128 107.154 144.378 107.136 144.628C106.967 146.928 105.13 148.678 102.73 148.678C100.34 148.678 98.1971 146.928 97.6361 144.628C97.5641 144.378 97.5221 144.128 97.5001 143.868C97.2671 141.208 99.2391 139.058 101.889 139.058C104.548 139.058 106.896 141.208 107.129 143.868Z" fill="black"/>
<path opacity="0.7" d="M109.743 139.148C109.932 141.314 108.33 143.069 106.165 143.069C103.999 143.069 102.09 141.313 101.901 139.148C101.711 136.982 103.313 135.227 105.479 135.227C107.644 135.226 109.553 136.982 109.743 139.148Z" fill="white"/>
<path d="M94.2564 118.384H90.3184V119.384H94.2564V118.384Z" fill="#5431D6"/>
<path d="M111.195 118.384H98.3418V119.384H111.195V118.384Z" fill="#5431D6"/>
<path d="M275.977 191.65L276.323 192.061L276.783 192.589C277.113 192.939 277.432 193.309 277.792 193.651C278.48 194.373 279.231 195.068 279.99 195.785C281.511 197.185 283.105 198.503 284.765 199.734C286.454 200.986 288.229 202.143 290.014 203.281C290.984 203.819 291.832 204.39 292.773 204.907L294.946 206.108C295.261 206.248 295.615 206.269 295.944 206.167C296.641 205.959 300.664 201.978 301.944 200.504C304.78 197.25 309.085 192.976 311.399 189.333L314.039 192.904C312.403 197.364 310.231 201.608 307.57 205.544C306.136 207.668 304.422 209.588 302.474 211.253C301.3 212.242 299.974 213.036 298.548 213.605C296.745 214.327 294.763 214.476 292.873 214.03C292.382 213.912 291.903 213.753 291.439 213.554L290.541 213.16L288.922 212.423C287.829 211.937 286.781 211.365 285.72 210.831C283.6 209.701 281.543 208.456 279.56 207.1C277.56 205.726 275.641 204.238 273.814 202.642C272.861 201.814 272.01 200.972 271.142 200.059C270.708 199.613 270.275 199.136 269.853 198.65L269.227 197.892C269.003 197.608 268.835 197.398 268.52 196.969L275.977 191.65Z" fill="#FFB573"/>
<path d="M311.037 189.882L315.68 179.962L320.109 187.898C320.109 187.898 317.201 192.909 314.04 192.902L311.037 189.882Z" fill="#FFB573"/>
<path d="M320.903 175.844L325.586 181.861L320.11 187.888L315.681 179.962L320.903 175.844Z" fill="#FFB573"/>
<path d="M319.274 190.63H326.64C327.072 190.63 327.432 190.3 327.47 189.87L329.016 172.201C329.059 171.714 328.675 171.295 328.186 171.295H320.82C320.388 171.295 320.028 171.625 319.99 172.055L318.444 189.724C318.402 190.211 318.785 190.63 319.274 190.63Z" fill="#5431D6"/>
<path opacity="0.3" d="M319.348 188.858H326.73L328.112 173.066H320.73L319.348 188.858Z" fill="white"/>
<path d="M318.873 186.623L320.185 185.949C320.849 185.608 321.463 185.178 322.009 184.67L322.251 183.795C321.964 183.317 321.394 183.087 320.856 183.234L319.767 183.53L314.363 183.941L314.228 186.217L315.806 188.664L316.354 188.685C317.595 188.734 318.676 187.848 318.873 186.623Z" fill="#FFB573"/>
<path d="M266.565 181.955C270.312 181.275 296.763 204.211 296.763 204.211L288.921 215.71C288.921 215.71 259.997 195.571 260.886 190.705C261.807 185.641 261.096 182.954 266.565 181.955Z" fill="#263238"/>
<path opacity="0.2" d="M269.898 189.331L269.61 201.37C272.617 203.702 283.454 212.012 283.454 212.012L269.898 189.331Z" fill="black"/>
<path d="M248.931 420.306L257.805 421.183L260.616 400.613L251.742 399.737L248.931 420.306Z" fill="#FFB573"/>
<path d="M161.602 299.606L159.327 308.246L178.522 316.519L182.497 307.753L161.602 299.606Z" fill="#FFB573"/>
<path d="M264.149 422.964C264.912 423.056 265.684 422.885 266.337 422.481C266.631 422.229 266.783 421.848 266.743 421.463C266.738 421.225 266.61 421.007 266.404 420.888C265.328 420.249 261.705 421.966 261.3 422.16C261.221 422.202 261.173 422.286 261.178 422.376C261.191 422.464 261.258 422.534 261.345 422.551C262.266 422.773 263.204 422.912 264.149 422.964ZM265.763 421.17C265.9 421.163 266.035 421.194 266.156 421.258C266.241 421.305 266.295 421.394 266.296 421.491C266.32 421.745 266.222 421.995 266.031 422.165C265.478 422.633 264.003 422.67 262.032 422.286C263.212 421.7 264.484 421.321 265.792 421.164L265.763 421.17Z" fill="#407BFF"/>
<path d="M261.392 422.569L261.47 422.55C262.554 422.105 264.717 420.236 264.577 419.22C264.519 418.987 264.391 418.679 263.804 418.599C263.382 418.524 262.948 418.632 262.61 418.896C261.462 419.79 261.186 422.198 261.169 422.295C261.152 422.367 261.171 422.443 261.22 422.499C261.263 422.547 261.327 422.573 261.392 422.569ZM263.597 419.01L263.723 418.978C264.109 419.037 264.125 419.187 264.128 419.238C264.22 419.854 262.741 421.325 261.633 421.921C261.739 420.906 262.165 419.952 262.85 419.196C263.073 419.039 263.346 418.971 263.617 419.005L263.597 419.01Z" fill="#407BFF"/>
<path d="M257.364 417.604L249.327 417.937C248.967 417.941 248.669 418.217 248.637 418.575L246.719 429.735C246.674 430.535 247.286 431.219 248.085 431.264C248.14 431.267 248.196 431.267 248.251 431.264C251.739 431.083 253.419 430.824 257.84 430.674C260.549 430.583 268.883 431.564 272.539 430.722C276.195 429.88 275.549 426.214 273.952 426.237C268.81 426.336 262.881 422.988 259.906 419.07C259.465 418.735 257.918 417.57 257.364 417.604Z" fill="#263238"/>
<path d="M163.406 309.384L167.485 302.451C167.677 302.147 167.607 301.747 167.323 301.526L158.987 293.861C158.34 293.39 157.433 293.532 156.961 294.179C156.928 294.224 156.898 294.27 156.871 294.319C155.131 297.347 154.437 298.899 152.165 302.694C150.773 305.019 145.427 311.488 144.151 315.017C142.875 318.546 146.305 319.991 147.153 318.637C149.859 314.263 155.888 311.098 160.793 310.724C161.316 310.535 163.134 309.867 163.406 309.384Z" fill="#263238"/>
<path opacity="0.2" d="M260.615 400.613L259.165 411.216L250.291 410.349L251.73 399.746L260.615 400.613Z" fill="black"/>
<path opacity="0.2" d="M188.395 309.887L184.296 319.14L171.943 313.684L175.094 304.866L188.395 309.887Z" fill="black"/>
<path d="M272.227 192.553C277.299 201.168 271.1 208.445 265.926 234.204L232.5 234.293C233.042 220.411 232.985 209.188 227.059 181.88C226.51 179.394 228.08 176.933 230.566 176.384C230.889 176.313 231.218 176.276 231.548 176.275C234.313 176.278 237.783 176.374 241.308 176.733C246.876 177.185 252.406 178.021 257.859 179.236C262.501 180.352 263.628 180.969 266.565 181.955C268.279 182.541 270.351 187.218 272.227 192.553Z" fill="#263238"/>
<path d="M267.161 235.943C267.161 235.943 285.929 290.213 285.475 316.308C285.218 331.258 284.092 359.115 279.581 378.709C275.9 394.697 260.904 404.908 260.904 404.908L248.875 404.196C248.875 404.196 242.384 379.797 243.513 370.087C245.759 350.761 252.427 336.237 251.624 318.49C250.34 289.425 241.744 235.477 241.744 235.477L267.161 235.943Z" fill="#5431D6"/>
<path d="M246.488 407.328L263.435 408.331L264.983 403.237L246.043 401.486L246.488 407.328Z" fill="#263238"/>
<path opacity="0.2" d="M248.634 345.58C248.655 345.555 248.671 345.48 248.727 345.486C259.378 346.528 266.75 331.159 264.984 310.169L259.33 256.674L248.634 345.58Z" fill="black"/>
<path d="M258.744 235.487C258.744 235.487 273.659 330.918 242.637 341.661C226.271 347.862 212.497 341.138 196.19 333.921C186.762 329.748 174.982 318.461 174.982 318.461L179.51 306.13C179.51 306.13 190.216 302.654 204.477 304.867C220.38 307.334 221.047 311.832 226.7 308.446C238.577 279.077 218.138 255.868 232.03 235.441L258.744 235.487Z" fill="#5431D6"/>
<path d="M180.396 303.793L174.344 319.779L178.805 323.188L185.996 304.163L180.396 303.793Z" fill="#263238"/>
<path d="M177.899 217.557C176.386 219.791 168.729 218.28 168.729 218.28L167.104 208.79L176.506 212.559L177.899 217.557Z" fill="#FFB573"/>
<path d="M168.986 208.295L170.455 218.156L164.799 219.003C164.172 219.056 163.603 218.638 163.466 218.023L161.306 210.96C161.23 210.62 161.437 210.281 161.774 210.192L168.986 208.295Z" fill="#FFB573"/>
<path d="M166.467 212.772L169.694 213.343L172.736 211.048L171.559 210.208C170.761 209.639 170.201 208.797 169.985 207.841C169.753 206.812 169.598 205.702 169.573 204.791L169.563 204.449C169.483 203.83 169.001 203.34 168.384 203.248L167.585 203.841C167.079 204.933 167.44 206.196 167.377 207.047L167.25 208.702L165.958 209.262L166.467 212.772Z" fill="#FFB573"/>
<path d="M228.673 180.001L209.754 206.03L174.982 212.858V218.561C174.982 218.561 207.643 220.983 214.97 216.706C222.297 212.429 234.624 186.542 234.624 186.542L228.673 180.001Z" fill="#FFB573"/>
<path d="M228.451 129.99C220.515 127.325 211.303 132.256 207.668 139.797C204.033 147.338 205.31 156.588 209.398 163.894C210.631 166.097 212.105 168.175 213.108 170.492C214.111 172.809 214.613 175.472 213.798 177.862C212.983 180.252 212.141 181.784 209.18 181.397C209.18 181.397 209.144 179.758 210.309 179.957C210.309 179.957 207.915 181.289 206.974 180.417C208.057 182.102 210.965 181.485 211.898 179.713C213.295 177.059 210.727 173.471 207.728 173.504C204.729 173.537 202.292 176.565 202.388 179.563C202.485 182.561 204.689 185.227 207.426 186.454C205.805 186.774 204.023 185.822 203.389 184.296C204.748 187.858 209.192 189.432 212.94 188.734C216.688 188.036 219.863 185.627 222.799 183.196C226.758 179.918 230.89 175.774 230.766 170.636C230.674 166.809 228.214 163.517 226.146 160.294C224.079 157.071 222.265 153.124 223.578 149.528C224.692 146.478 227.707 144.638 230.373 142.785C232.292 141.451 236.19 138.479 235.731 135.674C235.3 133.045 230.698 130.745 228.451 129.99Z" fill="#263238"/>
<path d="M210.56 219.008L205.322 205.14L206.523 205.239C208.506 205.403 210.399 204.4 211.37 202.663C215.352 195.543 225.701 177.468 228.612 176.57C232.762 175.34 237.032 178.66 238.642 183.56C239.826 187.173 227.663 202.647 222.018 211.45C217.02 219.245 210.56 219.008 210.56 219.008Z" fill="#263238"/>
<path d="M159.447 313.94C159.447 313.94 159.443 314.01 159.44 314.05C159.586 314.443 159.925 314.732 160.336 314.814C160.584 314.894 160.856 314.833 161.047 314.656C161.893 313.895 161.353 310.667 161.302 310.344C161.291 310.259 161.226 310.191 161.142 310.174C161.062 310.158 160.979 310.188 160.927 310.251C160.26 311.213 159.177 312.922 159.447 313.94ZM160.988 310.925C161.173 312.208 161.25 313.946 160.785 314.349C160.695 314.424 160.571 314.444 160.461 314.4C160.189 314.348 159.962 314.161 159.859 313.904C159.681 313.363 160.056 312.263 160.985 310.956L160.988 310.925Z" fill="#407BFF"/>
<path d="M160.968 310.764C161.235 311.842 162.248 313.685 163.146 313.898C163.486 313.965 163.827 313.791 163.972 313.476C164.13 313.187 164.15 312.843 164.028 312.538C163.62 311.302 161.257 310.28 161.159 310.234C161.097 310.191 161.016 310.186 160.949 310.222C160.893 310.271 160.863 310.343 160.867 310.417C160.894 310.535 160.928 310.651 160.968 310.764ZM163.687 312.718C163.735 312.897 163.705 313.088 163.606 313.244C163.472 313.477 163.342 313.479 163.242 313.463C162.628 313.337 161.696 311.829 161.397 310.779C162.166 311.165 163.414 311.9 163.66 312.656C163.664 312.679 163.673 312.7 163.687 312.718Z" fill="#407BFF"/>
<path d="M232.376 232.597L231.452 235.848C231.327 236.101 231.622 236.359 232.043 236.354L266.539 236.308C266.868 236.328 267.14 236.143 267.162 235.944L267.485 232.687C267.498 232.467 267.219 232.271 266.858 232.279L232.963 232.321C232.733 232.302 232.509 232.407 232.376 232.597Z" fill="#5431D6"/>
<path opacity="0.5" d="M232.376 232.597L231.452 235.848C231.327 236.101 231.622 236.359 232.043 236.354L266.539 236.308C266.868 236.328 267.14 236.143 267.162 235.944L267.485 232.687C267.498 232.467 267.219 232.271 266.858 232.279L232.963 232.321C232.733 232.302 232.509 232.407 232.376 232.597Z" fill="white"/>
<path d="M238.961 236.655L237.959 236.656C237.769 236.645 237.614 236.555 237.631 236.436L238.082 232.205C238.089 232.085 238.265 231.985 238.466 231.987L239.468 231.976C239.658 231.987 239.813 232.077 239.795 232.206L239.345 236.427C239.328 236.546 239.151 236.656 238.961 236.655Z" fill="#5431D6"/>
<path d="M263.867 236.65L262.865 236.651C262.675 236.64 262.52 236.551 262.537 236.431L262.987 232.21C262.995 232.08 263.171 231.98 263.361 231.982L264.363 231.981C264.553 231.992 264.708 232.082 264.691 232.201L264.241 236.422C264.233 236.552 264.067 236.652 263.867 236.65Z" fill="#5431D6"/>
<path d="M252.461 236.628L251.459 236.629C251.269 236.618 251.114 236.528 251.131 236.409L251.581 232.188C251.589 232.058 251.765 231.959 251.955 231.96L252.957 231.959C253.147 231.97 253.302 232.06 253.285 232.179L252.835 236.4C252.827 236.529 252.661 236.63 252.461 236.628Z" fill="#5431D6"/>
<path d="M242.866 158.534C243.926 163.976 244.966 173.815 241.274 176.782C241.274 176.782 242.746 182.369 252.636 183.856C263.558 185.505 257.825 179.285 257.825 179.285C251.884 176.93 252.028 172.631 253.054 168.674L242.866 158.534Z" fill="#FFB573"/>
<path d="M241.309 176.734C246.875 177.173 251.532 177.693 256.98 178.914L264.462 181.136C265.796 183.82 263.616 189.331 257.351 190.376C257.351 190.376 241.58 192.553 236.928 176.314L241.309 176.734Z" fill="#FFB573"/>
<path opacity="0.2" d="M247.019 162.677L253.045 168.674C252.791 169.602 252.624 170.551 252.547 171.509C250.272 170.843 246.614 168.333 246.366 165.934C246.358 164.815 246.58 163.706 247.019 162.677Z" fill="black"/>
<path d="M236.192 151.648C238.866 160.111 239.813 163.753 245.295 167.083C253.484 172.086 263.334 166.959 263.201 157.875C263.124 149.696 258.773 137.237 249.476 135.905C242.867 134.918 236.708 139.475 235.721 146.084C235.442 147.95 235.603 149.855 236.192 151.648Z" fill="#FFB573"/>
<path d="M256.375 150.328C257.323 151.82 258.473 153.173 259.792 154.349C259.163 155.013 258.276 155.369 257.363 155.323L256.375 150.328Z" fill="#ED893E"/>
<path d="M255.425 159.845C255.767 159.81 256.106 159.746 256.438 159.655C256.545 159.629 256.612 159.522 256.586 159.414C256.585 159.41 256.584 159.407 256.583 159.403C256.552 159.294 256.443 159.227 256.332 159.248C254.577 159.735 252.695 159.348 251.275 158.207C251.189 158.127 251.054 158.133 250.974 158.219C250.894 158.306 250.9 158.44 250.986 158.52C252.229 159.538 253.828 160.016 255.425 159.845Z" fill="#263238"/>
<path d="M233.283 134.755C231.072 136.16 229.624 138.696 229.536 141.314C229.52 141.812 229.553 142.327 229.768 142.776C229.983 143.226 230.413 143.599 230.911 143.626C231.674 143.668 232.235 142.951 232.653 142.312C233.298 141.326 233.942 140.34 234.587 139.353C235.219 138.386 236.269 137.263 236.612 136.159C237.237 134.149 234.466 134.004 233.283 134.755Z" fill="#5431D6"/>
<path d="M234.233 136.75C228.917 142.887 226.545 159.879 242.098 164.616C244.698 162.56 240.499 158.813 238.717 154.07C237.551 150.967 243.476 145.175 245.791 142.803C248.106 140.431 250.227 136.994 253.495 137.544C254.35 137.688 255.261 137.972 256.051 137.614C258.64 136.441 257.383 134.892 256.081 133.808C254.167 132.214 251.474 131.492 249.033 131.227C243.619 130.64 237.839 132.588 234.233 136.75Z" fill="#263238"/>
<path d="M251.505 134.693C257.748 139.901 249.476 140.032 245.133 143.331C240.938 146.499 243.88 151.692 236.792 154.097C231 155.792 229.664 154.774 228.06 153.653C228.06 153.653 234.624 152.827 235.588 145.455C236.084 141.665 244.36 128.65 251.505 134.693Z" fill="#263238"/>
<path d="M235.249 158.757C236.226 160.169 237.72 161.139 239.407 161.458C241.648 161.851 242.511 159.799 241.737 157.799C241.012 156.003 238.979 153.629 236.815 154.142C235.258 154.541 234.32 156.127 234.72 157.684C234.819 158.074 235 158.439 235.249 158.757Z" fill="#FFB573"/>
<path d="M250.429 135.221C251.639 138.298 255.129 137.894 257.714 141.112C259.3 143.079 262.419 136.943 258.175 134.508C253.931 132.072 248.53 130.4 250.429 135.221Z" fill="#263238"/>
<path d="M246.755 148.219C246.935 148.24 247.108 148.14 247.18 147.974C248.001 146.147 250.463 145.69 250.486 145.688C250.715 145.645 250.866 145.424 250.823 145.195C250.78 144.966 250.559 144.815 250.33 144.858C250.206 144.875 247.401 145.447 246.406 147.648C246.308 147.858 246.399 148.108 246.609 148.206L246.611 148.207L246.755 148.219Z" fill="#263238"/>
<path d="M259.752 144.542C259.901 144.552 260.043 144.479 260.124 144.354C260.255 144.163 260.206 143.901 260.015 143.77C260.013 143.769 260.011 143.767 260.009 143.766C258.884 142.992 257.454 142.81 256.171 143.278C255.955 143.37 255.855 143.62 255.948 143.836C256.04 144.052 256.29 144.152 256.506 144.059C257.524 143.698 258.655 143.854 259.536 144.479C259.603 144.514 259.677 144.535 259.752 144.542Z" fill="#263238"/>
<path d="M300.862 199.283L295.012 202.613L288.922 215.71C288.922 215.71 294.803 219.453 299.437 216.423C304.07 213.393 300.862 199.283 300.862 199.283Z" fill="#5431D6"/>
<path opacity="0.5" d="M300.862 199.283L295.012 202.613L288.922 215.71C288.922 215.71 294.803 219.453 299.437 216.423C304.07 213.393 300.862 199.283 300.862 199.283Z" fill="white"/>
<path d="M198.39 203.331L205.322 205.291L211.892 218.885C211.892 218.885 206.607 223.767 200.897 219.101C196.61 215.597 198.39 203.331 198.39 203.331Z" fill="#5431D6"/>
<g opacity="0.5">
<path d="M198.39 203.331L205.322 205.291L211.892 218.885C211.892 218.885 206.607 223.767 200.897 219.101C196.61 215.597 198.39 203.331 198.39 203.331Z" fill="white"/>
</g>
<path d="M259.348 147.931C259.828 147.841 260.328 148.381 260.458 149.121C260.588 149.861 260.298 150.541 259.818 150.621C259.338 150.701 258.838 150.171 258.708 149.431C258.568 148.711 258.868 148.021 259.348 147.931Z" fill="#263238"/>
<path d="M260.829 147.201L259.139 148.031C260.159 148.751 260.829 147.201 260.829 147.201Z" fill="#263238"/>
<path d="M250.976 149.645C251.456 149.555 251.956 150.095 252.086 150.835C252.216 151.575 251.926 152.255 251.446 152.335C250.966 152.415 250.466 151.885 250.336 151.145C250.196 150.425 250.496 149.735 250.976 149.645Z" fill="#263238"/>
<path d="M252.457 148.915L250.767 149.745C251.787 150.465 252.457 148.915 252.457 148.915Z" fill="#263238"/>
<path d="M208.662 187.91C207.709 187.91 206.772 187.743 205.909 187.39C202.811 186.124 201.368 182.897 201.951 178.536C201.987 178.262 202.243 178.069 202.513 178.107C202.786 178.144 202.979 178.395 202.942 178.669C202.425 182.543 203.644 185.384 206.289 186.464C209.148 187.633 212.95 186.464 214.941 183.805C217.446 180.461 216.635 175.722 212.716 170.804C202.477 157.954 203.162 151.12 204.608 145.724C206.71 137.884 212.863 128.899 230.26 130.627C230.534 130.654 230.735 130.899 230.707 131.174C230.68 131.449 230.447 131.645 230.16 131.622C213.473 129.96 207.574 138.517 205.574 145.983C204.127 151.38 203.548 157.694 213.497 170.181C219.498 177.712 217.065 182.637 215.741 184.405C214.085 186.615 211.31 187.909 208.662 187.91Z" fill="#263238"/>
</svg>
