<svg width="188" height="38" viewBox="0 0 188 38" fill="none" xmlns="http://www.w3.org/2000/svg">
    <path d="M0 3.31519C6.2192 3.31519 11.2609 8.35685 11.2609 14.5761V34.6848C5.04167 34.6848 0 29.6431 0 23.4239V3.31519Z" fill="#FFFFFF"/>
    <path d="M36.9999 3.31519C30.7807 3.31519 25.7391 8.35685 25.7391 14.5761V34.6848C31.9583 34.6848 36.9999 29.6431 36.9999 23.4239V3.31519Z" fill="#FFFFFF"/>
    <path d="M12.8685 10.5543C19.0877 10.5543 24.1294 15.5959 24.1294 21.8151V34.6847C17.9102 34.6847 12.8685 29.643 12.8685 23.4238V10.5543Z" fill="#FFFFFF"/>
    <path d="M56.016 22.304C55.856 22.432 55.648 22.544 55.392 22.64C55.136 22.72 54.848 22.76 54.528 22.76C54.112 22.76 53.76 22.704 53.472 22.592C53.2 22.48 53.016 22.288 52.92 22.016C52.264 20.416 51.696 19.024 51.216 17.84C50.752 16.64 50.384 15.632 50.112 14.816H50.016C49.968 15.888 49.92 16.88 49.872 17.792C49.824 18.704 49.784 19.592 49.752 20.456C49.72 21.304 49.68 22.176 49.632 23.072C49.6 23.952 49.552 24.912 49.488 25.952C49.328 26 49.128 26.048 48.888 26.096C48.648 26.144 48.4 26.168 48.144 26.168C47.632 26.168 47.24 26.08 46.968 25.904C46.712 25.712 46.584 25.408 46.584 24.992C46.584 24.688 46.6 24.192 46.632 23.504C46.68 22.8 46.728 21.976 46.776 21.032C46.84 20.088 46.904 19.096 46.968 18.056C47.032 17 47.104 15.96 47.184 14.936C47.264 13.896 47.336 12.944 47.4 12.08C47.528 11.92 47.752 11.76 48.072 11.6C48.408 11.424 48.848 11.336 49.392 11.336C49.984 11.336 50.464 11.44 50.832 11.648C51.2 11.856 51.472 12.176 51.648 12.608C51.952 13.28 52.264 14.032 52.584 14.864C52.92 15.696 53.24 16.536 53.544 17.384C53.864 18.216 54.16 18.992 54.432 19.712H54.552C55.096 18.192 55.64 16.72 56.184 15.296C56.744 13.872 57.224 12.672 57.624 11.696C57.816 11.584 58.056 11.496 58.344 11.432C58.648 11.368 58.96 11.336 59.28 11.336C59.84 11.336 60.296 11.424 60.648 11.6C61 11.776 61.216 12.04 61.296 12.392C61.36 12.68 61.424 13.152 61.488 13.808C61.568 14.464 61.648 15.232 61.728 16.112C61.808 16.976 61.888 17.888 61.968 18.848C62.048 19.792 62.12 20.72 62.184 21.632C62.248 22.528 62.304 23.344 62.352 24.08C62.416 24.8 62.456 25.376 62.472 25.808C62.264 25.936 62.048 26.024 61.824 26.072C61.6 26.136 61.32 26.168 60.984 26.168C60.568 26.168 60.208 26.088 59.904 25.928C59.616 25.768 59.456 25.456 59.424 24.992C59.344 23.632 59.272 22.32 59.208 21.056C59.144 19.776 59.088 18.608 59.04 17.552C59.008 16.496 58.976 15.608 58.944 14.888H58.824C58.568 15.64 58.208 16.608 57.744 17.792C57.28 18.96 56.704 20.464 56.016 22.304ZM67.1385 23.288C66.8825 22.76 66.5865 22.104 66.2505 21.32C65.9305 20.52 65.5945 19.6 65.2425 18.56C64.8905 17.504 64.5305 16.344 64.1625 15.08C64.3385 14.888 64.5625 14.728 64.8345 14.6C65.1065 14.472 65.4025 14.408 65.7225 14.408C66.1385 14.408 66.4745 14.504 66.7305 14.696C67.0025 14.872 67.2105 15.2 67.3545 15.68C67.7705 16.928 68.1865 18.16 68.6025 19.376C69.0345 20.592 69.4905 21.832 69.9705 23.096H70.0665C70.3705 22.392 70.6745 21.568 70.9785 20.624C71.2825 19.664 71.5705 18.672 71.8425 17.648C72.1305 16.624 72.3705 15.648 72.5625 14.72C72.7545 14.624 72.9545 14.552 73.1625 14.504C73.3705 14.44 73.5945 14.408 73.8345 14.408C74.2345 14.408 74.5785 14.504 74.8665 14.696C75.1705 14.872 75.3225 15.176 75.3225 15.608C75.3225 15.992 75.2505 16.504 75.1065 17.144C74.9785 17.768 74.7945 18.464 74.5545 19.232C74.3145 20 74.0345 20.8 73.7145 21.632C73.4105 22.464 73.0825 23.272 72.7305 24.056C72.3945 24.824 72.0505 25.52 71.6985 26.144C70.8825 27.6 70.1305 28.696 69.4425 29.432C68.7545 30.184 68.0905 30.56 67.4505 30.56C66.9545 30.56 66.5465 30.408 66.2265 30.104C65.9225 29.816 65.7385 29.456 65.6745 29.024C66.0265 28.72 66.3945 28.352 66.7785 27.92C67.1785 27.504 67.5625 27.056 67.9305 26.576C68.2985 26.096 68.6105 25.624 68.8665 25.16C68.5945 25.08 68.3225 24.92 68.0505 24.68C67.7785 24.424 67.4745 23.96 67.1385 23.288ZM88.8958 13.28C88.8958 13.584 88.8078 13.856 88.6318 14.096C88.4718 14.32 88.2798 14.496 88.0558 14.624C87.6558 14.352 87.1918 14.104 86.6638 13.88C86.1358 13.656 85.4878 13.544 84.7198 13.544C83.8238 13.544 83.0318 13.744 82.3438 14.144C81.6718 14.528 81.1438 15.112 80.7598 15.896C80.3918 16.664 80.2078 17.608 80.2078 18.728C80.2078 20.424 80.6318 21.712 81.4798 22.592C82.3278 23.456 83.4558 23.888 84.8638 23.888C85.6158 23.888 86.2638 23.784 86.8078 23.576C87.3518 23.368 87.8238 23.128 88.2238 22.856C88.4318 22.984 88.6078 23.176 88.7518 23.432C88.9118 23.672 88.9918 23.944 88.9918 24.248C88.9918 24.52 88.9198 24.768 88.7758 24.992C88.6478 25.216 88.4158 25.416 88.0798 25.592C87.7438 25.784 87.2798 25.96 86.6878 26.12C86.1118 26.28 85.3838 26.36 84.5038 26.36C83.1278 26.36 81.8718 26.088 80.7358 25.544C79.6158 24.984 78.7278 24.144 78.0718 23.024C77.4158 21.888 77.0878 20.456 77.0878 18.728C77.0878 17.048 77.4158 15.64 78.0718 14.504C78.7278 13.368 79.6078 12.512 80.7118 11.936C81.8158 11.344 83.0238 11.048 84.3358 11.048C85.2638 11.048 86.0638 11.152 86.7358 11.36C87.4238 11.568 87.9518 11.84 88.3198 12.176C88.7038 12.512 88.8958 12.88 88.8958 13.28ZM91.6337 19.664L94.5857 19.808V25.952C94.4577 26 94.2737 26.04 94.0337 26.072C93.7937 26.12 93.5297 26.144 93.2417 26.144C92.6977 26.144 92.2897 26.048 92.0177 25.856C91.7617 25.648 91.6337 25.288 91.6337 24.776V19.664ZM94.5857 21.32L91.6337 21.176V10.4C91.7457 10.368 91.9217 10.328 92.1617 10.28C92.4177 10.232 92.6817 10.208 92.9537 10.208C93.5297 10.208 93.9457 10.312 94.2017 10.52C94.4577 10.712 94.5857 11.064 94.5857 11.576V21.32ZM102.258 24.104C102.738 24.104 103.17 24.056 103.554 23.96C103.938 23.864 104.218 23.76 104.394 23.648V20.912L102.018 21.152C101.362 21.2 100.858 21.344 100.506 21.584C100.17 21.808 100.002 22.144 100.002 22.592C100.002 23.056 100.186 23.424 100.554 23.696C100.922 23.968 101.49 24.104 102.258 24.104ZM102.138 14.312C103.706 14.312 104.954 14.648 105.882 15.32C106.81 15.976 107.274 17.016 107.274 18.44V23.96C107.274 24.344 107.178 24.648 106.986 24.872C106.81 25.096 106.578 25.296 106.29 25.472C105.842 25.728 105.274 25.936 104.586 26.096C103.898 26.272 103.122 26.36 102.258 26.36C100.658 26.36 99.4018 26.056 98.4898 25.448C97.5778 24.824 97.1218 23.904 97.1218 22.688C97.1218 21.616 97.4578 20.8 98.1298 20.24C98.8178 19.664 99.8098 19.312 101.106 19.184L104.37 18.848V18.416C104.37 17.776 104.146 17.312 103.698 17.024C103.266 16.736 102.65 16.592 101.85 16.592C101.226 16.592 100.618 16.672 100.026 16.832C99.4338 16.992 98.9058 17.184 98.4418 17.408C98.2818 17.28 98.1378 17.104 98.0098 16.88C97.8818 16.656 97.8178 16.424 97.8178 16.184C97.8178 15.608 98.1378 15.184 98.7778 14.912C99.2258 14.704 99.7458 14.552 100.338 14.456C100.946 14.36 101.546 14.312 102.138 14.312ZM119.093 22.784C119.093 23.904 118.677 24.784 117.845 25.424C117.013 26.048 115.805 26.36 114.221 26.36C112.941 26.36 111.893 26.168 111.077 25.784C110.261 25.4 109.853 24.888 109.853 24.248C109.853 23.976 109.917 23.728 110.045 23.504C110.173 23.264 110.341 23.08 110.549 22.952C110.997 23.24 111.517 23.496 112.109 23.72C112.701 23.944 113.373 24.056 114.125 24.056C115.485 24.056 116.165 23.64 116.165 22.808C116.165 22.456 116.045 22.176 115.805 21.968C115.565 21.744 115.197 21.584 114.701 21.488L113.333 21.128C112.165 20.872 111.293 20.472 110.717 19.928C110.157 19.384 109.877 18.656 109.877 17.744C109.877 16.736 110.293 15.912 111.125 15.272C111.957 14.616 113.109 14.288 114.581 14.288C115.349 14.288 116.037 14.368 116.645 14.528C117.253 14.672 117.725 14.888 118.061 15.176C118.413 15.464 118.589 15.808 118.589 16.208C118.589 16.48 118.525 16.728 118.397 16.952C118.285 17.16 118.133 17.32 117.941 17.432C117.749 17.32 117.485 17.2 117.149 17.072C116.829 16.928 116.461 16.816 116.045 16.736C115.629 16.64 115.213 16.592 114.797 16.592C114.173 16.592 113.677 16.696 113.309 16.904C112.957 17.096 112.781 17.376 112.781 17.744C112.781 18.016 112.885 18.248 113.093 18.44C113.301 18.632 113.653 18.784 114.149 18.896L115.373 19.184C116.669 19.488 117.613 19.936 118.205 20.528C118.797 21.104 119.093 21.856 119.093 22.784ZM130.343 22.784C130.343 23.904 129.927 24.784 129.095 25.424C128.263 26.048 127.055 26.36 125.471 26.36C124.191 26.36 123.143 26.168 122.327 25.784C121.511 25.4 121.103 24.888 121.103 24.248C121.103 23.976 121.167 23.728 121.295 23.504C121.423 23.264 121.591 23.08 121.799 22.952C122.247 23.24 122.767 23.496 123.359 23.72C123.951 23.944 124.623 24.056 125.375 24.056C126.735 24.056 127.415 23.64 127.415 22.808C127.415 22.456 127.295 22.176 127.055 21.968C126.815 21.744 126.447 21.584 125.951 21.488L124.583 21.128C123.415 20.872 122.543 20.472 121.967 19.928C121.407 19.384 121.127 18.656 121.127 17.744C121.127 16.736 121.543 15.912 122.375 15.272C123.207 14.616 124.359 14.288 125.831 14.288C126.599 14.288 127.287 14.368 127.895 14.528C128.503 14.672 128.975 14.888 129.311 15.176C129.663 15.464 129.839 15.808 129.839 16.208C129.839 16.48 129.775 16.728 129.647 16.952C129.535 17.16 129.383 17.32 129.191 17.432C128.999 17.32 128.735 17.2 128.399 17.072C128.079 16.928 127.711 16.816 127.295 16.736C126.879 16.64 126.463 16.592 126.047 16.592C125.423 16.592 124.927 16.696 124.559 16.904C124.207 17.096 124.031 17.376 124.031 17.744C124.031 18.016 124.135 18.248 124.343 18.44C124.551 18.632 124.903 18.784 125.399 18.896L126.623 19.184C127.919 19.488 128.863 19.936 129.455 20.528C130.047 21.104 130.343 21.856 130.343 22.784ZM135.761 17.36V20.648H132.809V17.12C132.809 16.72 132.905 16.384 133.097 16.112C133.289 15.824 133.561 15.56 133.913 15.32C134.393 15.032 135.001 14.792 135.737 14.6C136.473 14.408 137.265 14.312 138.113 14.312C139.617 14.312 140.369 14.776 140.369 15.704C140.369 15.928 140.337 16.136 140.273 16.328C140.209 16.504 140.129 16.664 140.033 16.808C139.873 16.776 139.673 16.752 139.433 16.736C139.193 16.704 138.937 16.688 138.665 16.688C138.089 16.688 137.545 16.752 137.033 16.88C136.537 16.992 136.113 17.152 135.761 17.36ZM132.809 19.664L135.761 19.808V25.952C135.633 26 135.449 26.04 135.209 26.072C134.969 26.12 134.705 26.144 134.417 26.144C133.873 26.144 133.465 26.048 133.193 25.856C132.937 25.648 132.809 25.288 132.809 24.776V19.664ZM153.133 20.312C153.133 21.544 152.893 22.616 152.413 23.528C151.933 24.424 151.253 25.12 150.373 25.616C149.509 26.096 148.485 26.336 147.301 26.336C146.117 26.336 145.085 26.096 144.205 25.616C143.325 25.12 142.637 24.424 142.141 23.528C141.661 22.632 141.421 21.56 141.421 20.312C141.421 19.08 141.669 18.016 142.165 17.12C142.661 16.224 143.349 15.536 144.229 15.056C145.109 14.56 146.133 14.312 147.301 14.312C148.469 14.312 149.485 14.56 150.349 15.056C151.229 15.536 151.909 16.232 152.389 17.144C152.885 18.04 153.133 19.096 153.133 20.312ZM147.301 16.664C146.421 16.664 145.725 16.984 145.213 17.624C144.717 18.264 144.469 19.16 144.469 20.312C144.469 21.496 144.717 22.408 145.213 23.048C145.709 23.672 146.405 23.984 147.301 23.984C148.181 23.984 148.869 23.664 149.365 23.024C149.861 22.384 150.109 21.48 150.109 20.312C150.109 19.176 149.861 18.288 149.365 17.648C148.869 16.992 148.181 16.664 147.301 16.664ZM166.797 20.312C166.797 21.544 166.557 22.616 166.077 23.528C165.597 24.424 164.917 25.12 164.037 25.616C163.173 26.096 162.149 26.336 160.965 26.336C159.781 26.336 158.749 26.096 157.869 25.616C156.989 25.12 156.301 24.424 155.805 23.528C155.325 22.632 155.085 21.56 155.085 20.312C155.085 19.08 155.333 18.016 155.829 17.12C156.325 16.224 157.013 15.536 157.893 15.056C158.773 14.56 159.797 14.312 160.965 14.312C162.133 14.312 163.149 14.56 164.013 15.056C164.893 15.536 165.573 16.232 166.053 17.144C166.549 18.04 166.797 19.096 166.797 20.312ZM160.965 16.664C160.085 16.664 159.389 16.984 158.877 17.624C158.381 18.264 158.133 19.16 158.133 20.312C158.133 21.496 158.381 22.408 158.877 23.048C159.373 23.672 160.069 23.984 160.965 23.984C161.845 23.984 162.533 23.664 163.029 23.024C163.525 22.384 163.773 21.48 163.773 20.312C163.773 19.176 163.525 18.288 163.029 17.648C162.533 16.992 161.845 16.664 160.965 16.664ZM179.237 18.152V20.888H176.285V18.488C176.285 17.864 176.093 17.408 175.709 17.12C175.341 16.816 174.869 16.664 174.293 16.664C173.877 16.664 173.493 16.728 173.141 16.856C172.805 16.968 172.517 17.104 172.277 17.264V20.888H169.325V17.072C169.325 16.688 169.405 16.376 169.565 16.136C169.725 15.88 169.965 15.648 170.285 15.44C170.781 15.104 171.389 14.832 172.109 14.624C172.845 14.416 173.605 14.312 174.389 14.312C175.173 14.312 175.893 14.432 176.549 14.672C177.205 14.912 177.741 15.264 178.157 15.728C178.269 15.824 178.373 15.92 178.469 16.016C178.565 16.112 178.645 16.224 178.709 16.352C178.853 16.592 178.973 16.872 179.069 17.192C179.181 17.496 179.237 17.816 179.237 18.152ZM186.173 18.392V20.888H183.221V18.488C183.221 17.864 183.045 17.408 182.693 17.12C182.341 16.816 181.869 16.664 181.277 16.664C180.845 16.664 180.421 16.752 180.005 16.928C179.605 17.104 179.261 17.336 178.973 17.624L177.485 15.824C177.981 15.408 178.565 15.056 179.237 14.768C179.909 14.464 180.709 14.312 181.637 14.312C182.485 14.312 183.253 14.448 183.941 14.72C184.629 14.992 185.173 15.432 185.573 16.04C185.973 16.648 186.173 17.432 186.173 18.392ZM169.325 19.736H172.277V25.952C172.149 26 171.965 26.04 171.725 26.072C171.485 26.12 171.221 26.144 170.933 26.144C170.389 26.144 169.981 26.048 169.709 25.856C169.453 25.648 169.325 25.288 169.325 24.776V19.736ZM176.285 19.736H179.237V25.952C179.109 26 178.917 26.04 178.661 26.072C178.421 26.12 178.165 26.144 177.893 26.144C177.333 26.144 176.925 26.048 176.669 25.856C176.413 25.648 176.285 25.288 176.285 24.776V19.736ZM183.221 19.736H186.173V25.952C186.061 26 185.877 26.04 185.621 26.072C185.381 26.12 185.125 26.144 184.853 26.144C184.293 26.144 183.877 26.048 183.605 25.856C183.349 25.648 183.221 25.288 183.221 24.776V19.736Z" fill="#FFFFFF"/>
</svg>
