<svg width="500" height="500" viewBox="0 0 500 500" fill="none" xmlns="http://www.w3.org/2000/svg">
<path d="M240.468 127.098C288.568 132.476 309.684 90.777 357.35 96.238C399.894 101.112 429.226 131.423 419.298 172.244C410.485 208.48 368.493 219.854 353.562 253.801C337.735 289.786 325.458 328.594 277.66 341.121C183.805 365.718 138.219 250.237 131.832 183.911C129.381 158.45 125.103 97.584 158.337 89.696C191.787 81.756 210.963 123.799 240.468 127.098Z" fill="#5431D6"/>
<path opacity="0.9" d="M240.468 127.098C288.568 132.476 309.684 90.777 357.35 96.238C399.894 101.112 429.226 131.423 419.298 172.244C410.485 208.48 368.493 219.854 353.562 253.801C337.735 289.786 325.458 328.594 277.66 341.121C183.805 365.718 138.219 250.237 131.832 183.911C129.381 158.45 125.103 97.584 158.337 89.696C191.787 81.756 210.963 123.799 240.468 127.098Z" fill="white"/>
<path d="M250 427.561C357.082 427.561 443.889 422.492 443.889 416.238C443.889 409.985 357.082 404.915 250 404.915C142.918 404.915 56.1108 409.985 56.1108 416.238C56.1108 422.492 142.918 427.561 250 427.561Z" fill="#F5F5F5"/>
<path d="M104.108 202.36L103.11 202.432L104.438 220.873L105.435 220.801L104.108 202.36Z" fill="#5431D6"/>
<path d="M106.139 230.316L105.142 230.388L105.642 237.325L106.639 237.253L106.139 230.316Z" fill="#5431D6"/>
<path d="M337.711 315.161H123.553C118.709 315.161 114.461 311.198 114.112 306.354L103.589 160.224C103.24 155.38 106.918 151.417 111.762 151.417H325.92C330.764 151.417 335.012 155.38 335.361 160.224L345.884 306.354C346.232 311.198 342.555 315.161 337.711 315.161Z" fill="#5431D6"/>
<path d="M338.532 315.161H124.374C119.53 315.161 115.282 311.198 114.933 306.354L104.41 160.224C104.061 155.38 107.739 151.417 112.583 151.417H326.741C331.585 151.417 335.833 155.38 336.182 160.224L346.705 306.354C347.053 311.198 343.376 315.161 338.532 315.161Z" fill="#5431D6"/>
<path opacity="0.5" d="M338.532 315.161H124.374C119.53 315.161 115.282 311.198 114.933 306.354L104.41 160.224C104.061 155.38 107.739 151.417 112.583 151.417H326.741C331.585 151.417 335.833 155.38 336.182 160.224L346.705 306.354C347.053 311.198 343.376 315.161 338.532 315.161Z" fill="white"/>
<path d="M327.058 155.821H112.9C112.658 155.821 112.419 155.831 112.183 155.85C106.709 156.301 107.827 164.628 113.352 164.628H327.875C333.4 164.628 333.319 156.301 327.78 155.85C327.541 155.831 327.3 155.821 327.058 155.821Z" fill="#5431D6"/>
<path d="M118.478 160.225C118.558 161.34 117.72 162.244 116.604 162.244C115.489 162.244 114.52 161.34 114.44 160.225C114.36 159.11 115.198 158.206 116.314 158.206C117.43 158.206 118.398 159.109 118.478 160.225Z" fill="#FAFAFA"/>
<path d="M125.346 160.225C125.426 161.34 124.588 162.244 123.472 162.244C122.357 162.244 121.388 161.34 121.308 160.225C121.228 159.11 122.066 158.206 123.182 158.206C124.297 158.206 125.266 159.109 125.346 160.225Z" fill="#FAFAFA"/>
<path d="M132.214 160.225C132.294 161.34 131.455 162.244 130.34 162.244C129.225 162.244 128.256 161.34 128.175 160.225C128.095 159.11 128.934 158.206 130.049 158.206C131.164 158.206 132.133 159.109 132.214 160.225Z" fill="#FAFAFA"/>
<path d="M332.854 300.577H127.951C126.188 300.577 124.655 299.147 124.528 297.384L115.874 177.211C115.747 175.448 117.074 174.018 118.837 174.018H323.74C325.503 174.018 327.036 175.447 327.163 177.211L335.817 297.384C335.944 299.147 334.617 300.577 332.854 300.577Z" fill="white"/>
<path d="M246.53 254.798L243.195 208.479L233.087 202.395H205.283L209.057 254.798H246.53Z" fill="white"/>
<path d="M246.53 255.283H209.057C208.803 255.283 208.592 255.087 208.574 254.833L204.8 202.43C204.79 202.296 204.837 202.163 204.929 202.065C205.021 201.966 205.149 201.911 205.284 201.911H233.088C233.176 201.911 233.263 201.935 233.338 201.981L243.445 208.064C243.58 208.145 243.667 208.287 243.678 208.444L247.013 254.763C247.023 254.897 246.976 255.03 246.884 255.128C246.793 255.227 246.664 255.283 246.53 255.283ZM209.508 254.314H246.009L242.729 208.765L232.953 202.88H205.804L209.508 254.314Z" fill="#5431D6"/>
<path d="M243.194 208.479L233.086 202.395L236.797 210.455L243.194 208.479Z" fill="#EBEBEB"/>
<path d="M236.798 210.939C236.613 210.939 236.439 210.832 236.358 210.657L232.647 202.598C232.558 202.405 232.605 202.176 232.764 202.034C232.922 201.892 233.155 201.871 233.337 201.98L243.444 208.064C243.608 208.162 243.698 208.348 243.675 208.538C243.652 208.728 243.52 208.886 243.337 208.942L236.941 210.918C236.894 210.932 236.846 210.939 236.798 210.939ZM234.186 203.622L237.061 209.866L242.017 208.335L234.186 203.622Z" fill="#5431D6"/>
<path d="M220.969 226.005C221.053 227.174 220.174 228.122 219.004 228.122C217.834 228.122 216.819 227.174 216.735 226.005C216.651 224.836 217.53 223.888 218.699 223.888C219.868 223.888 220.885 224.836 220.969 226.005Z" fill="#5431D6"/>
<path d="M234.705 226.005C234.789 227.174 233.91 228.122 232.74 228.122C231.571 228.122 230.555 227.174 230.47 226.005C230.386 224.836 231.265 223.888 232.435 223.888C233.605 223.889 234.621 224.836 234.705 226.005Z" fill="#5431D6"/>
<path d="M238.58 239.735C238.328 239.735 238.116 239.54 238.097 239.285C237.852 235.881 232.514 233.112 226.197 233.112C222.012 233.112 218.255 234.356 216.391 236.359C215.562 237.25 215.179 238.21 215.251 239.215C215.27 239.482 215.069 239.714 214.802 239.733C214.534 239.75 214.303 239.551 214.284 239.284C214.193 238.018 214.676 236.778 215.681 235.698C217.722 233.504 221.751 232.142 226.197 232.142C233.126 232.142 238.778 235.249 239.064 239.214C239.083 239.481 238.882 239.713 238.615 239.732C238.603 239.735 238.591 239.735 238.58 239.735Z" fill="#5431D6"/>
<path d="M213.167 221.717C213.049 221.717 212.931 221.674 212.837 221.588C212.641 221.406 212.629 221.099 212.811 220.903L214.935 218.615C215.117 218.418 215.424 218.408 215.62 218.589C215.816 218.771 215.827 219.078 215.646 219.274L213.523 221.562C213.427 221.665 213.297 221.717 213.167 221.717Z" fill="#5431D6"/>
<path d="M237.584 221.717C237.466 221.717 237.347 221.674 237.253 221.587L234.8 219.299C234.604 219.117 234.594 218.81 234.776 218.614C234.958 218.418 235.265 218.408 235.461 218.59L237.914 220.878C238.11 221.06 238.12 221.367 237.938 221.563C237.843 221.665 237.714 221.717 237.584 221.717Z" fill="#5431D6"/>
<path d="M202.257 265.153H204.517L207.778 269.487L207.466 265.153H209.747L210.311 272.986H208.029L204.786 268.685L205.096 272.986H202.82L202.257 265.153Z" fill="#5431D6"/>
<path d="M211.334 269.074C211.242 267.795 211.526 266.8 212.188 266.087C212.849 265.375 213.816 265.018 215.087 265.018C216.391 265.018 217.42 265.368 218.176 266.068C218.932 266.768 219.355 267.748 219.446 269.009C219.512 269.924 219.412 270.675 219.146 271.261C218.88 271.847 218.468 272.303 217.909 272.629C217.35 272.955 216.636 273.118 215.767 273.118C214.884 273.118 214.142 272.977 213.543 272.696C212.944 272.415 212.443 271.969 212.039 271.36C211.635 270.752 211.4 269.99 211.334 269.074ZM213.755 269.085C213.812 269.876 214 270.444 214.318 270.789C214.637 271.135 215.049 271.307 215.555 271.307C216.075 271.307 216.465 271.138 216.726 270.799C216.987 270.461 217.085 269.853 217.022 268.977C216.969 268.24 216.781 267.701 216.459 267.361C216.137 267.021 215.721 266.851 215.212 266.851C214.724 266.851 214.345 267.024 214.074 267.369C213.804 267.716 213.698 268.287 213.755 269.085Z" fill="#5431D6"/>
<path d="M224.152 265.153H227.748C228.457 265.153 229.036 265.249 229.487 265.441C229.937 265.633 230.318 265.909 230.629 266.269C230.94 266.629 231.177 267.047 231.339 267.525C231.502 268.002 231.602 268.508 231.641 269.042C231.701 269.879 231.653 270.528 231.495 270.99C231.338 271.451 231.101 271.838 230.785 272.149C230.469 272.461 230.121 272.668 229.74 272.771C229.22 272.914 228.744 272.985 228.313 272.985H224.717L224.152 265.153ZM226.7 266.927L227.008 271.207H227.601C228.107 271.207 228.462 271.151 228.668 271.039C228.874 270.927 229.027 270.731 229.128 270.451C229.229 270.171 229.257 269.718 229.212 269.091C229.152 268.261 228.976 267.693 228.683 267.387C228.39 267.081 227.93 266.928 227.303 266.928H226.7V266.927Z" fill="#5431D6"/>
<path d="M237.448 271.692H234.7L234.411 272.985H231.94L234.32 265.152H236.96L240.467 272.985H237.932L237.448 271.692ZM236.824 269.999L235.756 267.183L235.103 269.999H236.824Z" fill="#5431D6"/>
<path d="M239.369 265.153H246.726L246.865 267.087H244.397L244.822 272.986H242.402L241.977 267.087H239.509L239.369 265.153Z" fill="#5431D6"/>
<path d="M252.365 271.692H249.617L249.328 272.985H246.857L249.237 265.152H251.877L255.384 272.985H252.849L252.365 271.692ZM251.741 269.999L250.674 267.183L250.021 269.999H251.741Z" fill="#5431D6"/>
<path d="M353.688 173.08C354.582 172.632 355.647 172.053 356.632 171.512C357.635 170.961 358.633 170.386 359.615 169.788C361.574 168.582 363.549 167.39 365.423 166.066C369.205 163.461 372.748 160.57 375.936 157.413C376.354 157.031 376.709 156.607 377.095 156.203L377.665 155.591L377.951 155.285L378.094 155.132C378.132 155.092 378.123 155.1 378.105 155.124L378.073 155.173C377.931 155.44 378.049 155.359 378.104 155.101C378.171 154.853 378.227 154.448 378.245 154.01C378.309 152.194 377.951 149.905 377.516 147.692C376.626 143.207 375.279 138.594 373.947 134.074L377.831 132.37C380.265 136.716 382.293 141.155 383.944 145.968C384.73 148.406 385.452 150.854 385.663 153.861C385.702 154.627 385.719 155.432 385.58 156.371C385.433 157.295 385.2 158.401 384.357 159.655L384.19 159.886L384.061 160.054L383.908 160.242L383.599 160.616L382.982 161.366C382.565 161.86 382.17 162.381 381.727 162.844C378.279 166.673 374.442 170.055 370.347 172.996C368.309 174.485 366.227 175.899 364.064 177.186C362.987 177.838 361.896 178.464 360.787 179.071C359.664 179.695 358.596 180.238 357.32 180.837L353.688 173.08Z" fill="#FFB573"/>
<path d="M344.794 408.178C345.568 408.178 346.414 408.018 347.005 407.878C347.082 407.86 347.141 407.798 347.155 407.719C347.169 407.641 347.135 407.562 347.069 407.519C346.782 407.33 344.239 405.689 343.264 406.13C343.11 406.2 342.917 406.353 342.869 406.688C342.806 407.132 342.917 407.486 343.198 407.742C343.555 408.068 344.15 408.178 344.794 408.178ZM346.444 407.595C344.986 407.886 343.889 407.836 343.465 407.449C343.285 407.285 343.218 407.054 343.262 406.743C343.285 406.576 343.363 406.521 343.427 406.492C343.94 406.26 345.407 406.968 346.444 407.595Z" fill="#5431D6"/>
<path d="M346.96 407.884C346.994 407.884 347.029 407.875 347.06 407.857C347.121 407.821 347.159 407.756 347.159 407.685C347.159 407.583 347.148 405.171 346.237 404.365C345.995 404.151 345.713 404.062 345.397 404.1C344.9 404.16 344.766 404.473 344.729 404.653C344.54 405.597 346.063 407.404 346.862 407.857C346.892 407.875 346.926 407.884 346.96 407.884ZM345.535 404.488C345.698 404.488 345.842 404.545 345.974 404.662C346.518 405.143 346.704 406.497 346.75 407.3C345.953 406.664 345.004 405.306 345.119 404.731C345.138 404.637 345.192 404.525 345.445 404.494C345.475 404.49 345.505 404.488 345.535 404.488Z" fill="#5431D6"/>
<path d="M346.223 148.067C345.249 153.037 343.195 163.104 346.673 166.421C346.673 166.421 345.314 171.463 336.079 171.463C325.924 171.463 331.226 166.422 331.226 166.422C336.769 165.098 336.626 160.986 335.66 157.124L346.223 148.067Z" fill="#FFB573"/>
<path d="M329.284 168.424C327.69 168.64 329.046 164.511 329.694 164.083C331.19 163.094 350.545 161.694 350.419 164.043C350.339 165.054 349.864 167.027 349.018 167.697C348.171 168.367 343.199 166.342 329.284 168.424Z" fill="#263238"/>
<path d="M332.437 167.034C331.171 167.462 331.291 163.301 331.722 162.8C332.72 161.642 348.386 157.617 348.851 159.894C349.03 160.877 349.116 162.841 348.579 163.604C348.042 164.366 343.439 163.105 332.437 167.034Z" fill="#263238"/>
<path d="M326.61 139.108C326.487 139.115 326.363 139.066 326.279 138.963C325.159 137.593 323.703 137.733 323.689 137.735C323.468 137.758 323.275 137.601 323.252 137.383C323.228 137.165 323.386 136.969 323.604 136.946C323.681 136.938 325.504 136.761 326.894 138.46C327.033 138.63 327.008 138.88 326.838 139.018C326.771 139.074 326.691 139.103 326.61 139.108Z" fill="#263238"/>
<path d="M324.672 144.001C324.672 144.001 323.816 147.008 322.697 148.528C323.666 149.269 325.138 148.742 325.138 148.742L324.672 144.001Z" fill="#FF5652"/>
<path d="M325.16 142.786C325.226 143.458 324.923 144.038 324.484 144.082C324.044 144.125 323.635 143.615 323.568 142.943C323.502 142.271 323.805 141.691 324.244 141.647C324.684 141.604 325.094 142.114 325.16 142.786Z" fill="#263238"/>
<path d="M324.443 141.665L322.782 141.358C322.782 141.358 323.735 142.539 324.443 141.665Z" fill="#263238"/>
<path d="M356.7 407.685H348.324L348.981 388.288H357.357L356.7 407.685Z" fill="#FFB573"/>
<path d="M347.661 406.716H357.071C357.413 406.716 357.691 406.954 357.739 407.288L358.811 414.733C358.922 415.505 358.258 416.236 357.468 416.223C354.187 416.167 352.606 415.974 348.468 415.974C345.922 415.974 342.202 416.238 338.687 416.238C335.248 416.238 334.984 412.761 336.448 412.447C343.012 411.035 344.049 409.088 346.261 407.231C346.659 406.896 347.16 406.716 347.661 406.716Z" fill="#263238"/>
<g opacity="0.2">
<path d="M357.359 388.293H348.979L348.645 398.292H357.025L357.359 388.293Z" fill="black"/>
</g>
<path d="M323.374 178.044C318.191 176.015 313.247 173.808 308.324 171.29C303.409 168.775 298.57 166.096 293.92 162.517C292.762 161.606 291.617 160.61 290.498 159.447C290.219 159.147 289.94 158.869 289.666 158.525C289.378 158.163 289.161 157.95 288.787 157.394C288.111 156.422 287.588 155.117 287.449 153.785C287.318 152.452 287.557 151.179 287.94 150.164C288.322 149.131 288.823 148.288 289.347 147.557C290.398 146.093 291.563 145.011 292.736 144.037C295.079 142.098 297.557 140.688 300.039 139.37C301.279 138.712 302.543 138.119 303.823 137.573C305.109 137.018 306.364 136.502 307.729 136.032L309.504 139.885C305.142 142.634 300.624 145.656 297.302 149.044C296.495 149.883 295.789 150.761 295.345 151.534C294.869 152.321 294.875 152.91 294.956 152.865C294.997 152.865 294.981 152.847 295.097 152.963L295.495 153.39C295.645 153.569 295.856 153.752 296.045 153.936C296.83 154.669 297.751 155.405 298.744 156.105C300.729 157.518 302.916 158.84 305.178 160.075C307.432 161.327 309.751 162.525 312.113 163.662C316.825 165.919 321.711 168.091 326.505 170.075L323.374 178.044Z" fill="#FFB573"/>
<path d="M311.969 137.154L313.354 134.15L307.058 131.964C307.058 131.964 305.097 137.867 307.434 140.591C309.424 140.272 311.125 138.984 311.969 137.154Z" fill="#FFB573"/>
<path d="M313.354 127.656L308.321 126.205L307.058 131.963L313.354 134.15V127.656Z" fill="#FFB573"/>
<path d="M378.35 134.441L379.084 127.421L372.596 128.946C372.596 128.946 372.501 135.526 375.933 136.575L378.35 134.441Z" fill="#FFB573"/>
<path d="M375.958 122.507L371.731 124.481L372.595 128.946L379.083 127.421L375.958 122.507Z" fill="#FFB573"/>
<path d="M347.54 138.255C347.845 146.562 348.152 150.072 344.398 154.721C338.752 161.713 328.481 160.271 325.7 152.222C323.197 144.977 323.118 132.609 330.878 128.527C338.523 124.507 347.235 129.947 347.54 138.255Z" fill="#FFB573"/>
<path d="M343.921 154.705C352.076 151.181 357.44 143.75 355.176 132.131C353.01 121.015 345.505 119.917 342.405 122.223C339.305 124.529 331.578 121.092 326.941 124.994C318.906 131.755 326.502 139.044 330.459 143.363C332.823 148.221 335.919 158.163 343.921 154.705Z" fill="#263238"/>
<path d="M340.535 130.137C343.287 134.122 348.565 135.247 352.325 132.65C356.085 130.054 356.902 124.719 354.15 120.734C351.398 116.749 346.12 115.624 342.36 118.221C338.6 120.817 337.783 126.152 340.535 130.137Z" fill="#5431D6"/>
<path d="M342.652 123.002C341.475 116.304 347.813 111.139 356.288 113.635C364.763 116.131 360.28 123.644 358.542 129.644C356.804 135.644 361.365 141.359 363.271 136.789C365.177 132.22 361.973 130.809 361.973 130.809C361.973 130.809 370.972 133.142 362.612 143.286C354.252 153.431 346.684 142.229 348.731 135.618C350.385 130.276 343.765 129.333 342.652 123.002Z" fill="#263238"/>
<path d="M334.182 125.533C330.313 123.515 323.761 121.883 320.032 128.156C318.269 131.122 318.952 135.145 318.952 135.145L330.341 135.903L334.182 125.533Z" fill="#263238"/>
<path d="M317.612 133.178C317.607 133.178 317.602 133.178 317.596 133.177C317.458 133.169 317.354 133.05 317.362 132.912C317.372 132.742 317.648 128.719 320.076 126.195C325.945 120.097 332.826 125.155 334.795 126.851C334.9 126.941 334.912 127.099 334.821 127.204C334.73 127.309 334.573 127.32 334.468 127.23C332.583 125.607 326.001 120.76 320.436 126.542C318.137 128.931 317.863 132.903 317.86 132.943C317.853 133.075 317.743 133.178 317.612 133.178Z" fill="#263238"/>
<path d="M331.853 143.033C331.841 144.651 331.116 146.235 330.198 147.31C328.816 148.926 327.232 148.13 326.869 146.338C326.542 144.725 326.866 141.941 328.613 140.965C330.333 140.004 331.867 141.183 331.853 143.033Z" fill="#FFB573"/>
<path d="M330.053 219.122C330.053 219.122 330.587 277.266 335.631 309.667C339.705 335.837 347.244 396.356 347.244 396.356H358.666C358.666 396.356 359.782 337.932 357.714 312.048C352.481 246.55 365.985 234.305 355.088 219.122H330.053Z" fill="#263238"/>
<path opacity="0.1" d="M330.053 219.122C330.053 219.122 330.587 277.266 335.631 309.667C339.705 335.837 347.244 396.356 347.244 396.356H358.666C358.666 396.356 359.782 337.932 357.714 312.048C352.481 246.55 365.985 234.305 355.088 219.122H330.053Z" fill="white"/>
<path opacity="0.3" d="M336.057 245.5C340.067 263.05 336.867 290.69 334.677 302.86C332.357 284.38 331.187 260.43 330.607 242.88C332.677 239.52 334.637 239.3 336.057 245.5Z" fill="black"/>
<path d="M345.681 396.582H360.23L360.994 391.478L345.598 390.957L345.681 396.582Z" fill="#5431D6"/>
<path d="M349.833 170.042C351.201 167.321 358.558 165.609 362.579 165.615L365.589 178.98C365.589 178.98 357.577 190.87 354.246 189.609C350.31 188.122 346.901 175.872 349.833 170.042Z" fill="#5431D6"/>
<path opacity="0.4" d="M349.833 170.042C351.201 167.321 358.558 165.609 362.579 165.615L365.589 178.98C365.589 178.98 357.577 190.87 354.246 189.609C350.31 188.122 346.901 175.872 349.833 170.042Z" fill="black"/>
<path d="M341.353 393.313C341.389 393.254 341.392 393.179 341.359 393.117C341.32 393.043 341.238 393.001 341.154 393.014C340.734 393.077 337.032 393.665 336.532 394.722C336.435 394.927 336.449 395.143 336.571 395.347C336.775 395.688 337.064 395.88 337.429 395.917C338.642 396.042 340.394 394.359 341.33 393.345C341.338 393.334 341.346 393.324 341.353 393.313ZM336.912 394.85C337.254 394.289 339.168 393.772 340.629 393.503C339.31 394.844 338.148 395.591 337.468 395.521C337.23 395.496 337.048 395.372 336.91 395.142C336.856 395.052 336.85 394.975 336.89 394.891C336.897 394.877 336.904 394.863 336.912 394.85Z" fill="#5431D6"/>
<path d="M341.353 393.313C341.361 393.301 341.367 393.287 341.371 393.273C341.394 393.207 341.379 393.133 341.334 393.08C341.271 393.007 339.788 391.298 338.421 391.209C338.002 391.182 337.636 391.306 337.331 391.579C336.92 391.947 336.955 392.267 337.058 392.47C337.491 393.328 340.151 393.627 341.224 393.404C341.278 393.392 341.324 393.359 341.353 393.313ZM337.438 392.054C337.469 392.003 337.519 391.943 337.596 391.874C337.821 391.672 338.083 391.584 338.395 391.605C339.293 391.664 340.314 392.593 340.778 393.066C339.593 393.166 337.672 392.806 337.412 392.291C337.397 392.26 337.358 392.184 337.438 392.054Z" fill="#5431D6"/>
<path d="M350.083 389.765L342.422 393.168L339.008 386.063L334.547 376.759L334.024 375.677L341.676 372.269L342.268 373.487L346.593 382.497L350.083 389.765Z" fill="#FFB573"/>
<path opacity="0.2" d="M346.593 382.497L339.008 386.063L334.547 376.759L342.268 373.487L346.593 382.497Z" fill="black"/>
<path d="M321.069 219.122C321.069 219.122 296.595 279.957 303.229 308.604C309.224 334.494 335.733 383.525 335.733 383.525L345.983 378.38C345.983 378.38 329.595 319.192 327.817 306.334C324.358 281.316 346.593 246.001 346.593 219.122H321.069Z" fill="#263238"/>
<path opacity="0.1" d="M321.069 219.122C321.069 219.122 296.595 279.957 303.229 308.604C309.224 334.494 335.733 383.525 335.733 383.525L345.983 378.38C345.983 378.38 329.595 319.192 327.817 306.334C324.358 281.316 346.593 246.001 346.593 219.122H321.069Z" fill="white"/>
<path d="M341.055 392.103L348.663 386.565C348.94 386.363 349.305 386.392 349.54 386.634L354.788 392.023C355.332 392.582 355.225 393.564 354.579 394.018C351.893 395.903 350.501 396.678 347.156 399.113C345.097 400.611 340.995 403.924 338.153 405.993C335.373 408.016 333.113 405.361 334.112 404.245C338.589 399.241 339.532 396.146 340.227 393.343C340.352 392.838 340.65 392.398 341.055 392.103Z" fill="#263238"/>
<path d="M335.073 385.694L348.304 379.642L346.606 374.251L332.438 380.713L335.073 385.694Z" fill="#5431D6"/>
<path d="M327.564 169.36C326.466 166.519 316.907 163.403 312.112 162.315L310.005 178.083C310.005 178.083 317.836 189.338 321.275 188.407C325.335 187.308 329.916 175.447 327.564 169.36Z" fill="#5431D6"/>
<path opacity="0.4" d="M327.564 169.36C326.466 166.519 316.907 163.403 312.112 162.315L310.005 178.083C310.005 178.083 317.836 189.338 321.275 188.407C325.335 187.308 329.916 175.447 327.564 169.36Z" fill="black"/>
<path d="M317.066 168.567C317.066 168.567 313.076 169.972 321.069 219.122C334.568 219.122 348.52 219.122 355.088 219.122C354.517 205.276 354.501 196.739 361.118 168.324C361.118 168.324 353.99 166.773 346.672 166.421C340.947 166.145 336.257 165.962 331.224 166.422C324.591 167.027 317.066 168.567 317.066 168.567Z" fill="#5431D6"/>
<path opacity="0.4" d="M317.066 168.567C317.066 168.567 313.076 169.972 321.069 219.122C334.568 219.122 348.52 219.122 355.088 219.122C354.517 205.276 354.501 196.739 361.118 168.324C361.118 168.324 353.99 166.773 346.672 166.421C340.947 166.145 336.257 165.962 331.224 166.422C324.591 167.027 317.066 168.567 317.066 168.567Z" fill="black"/>
<path d="M355.598 217.125L357.132 220.17C357.251 220.406 356.971 220.647 356.578 220.647H320.901C320.594 220.647 320.34 220.497 320.321 220.304L320.014 217.259C319.993 217.048 320.259 216.869 320.594 216.869H355.044C355.297 216.87 355.521 216.973 355.598 217.125Z" fill="#5431D6"/>
<path opacity="0.3" d="M355.598 217.125L357.132 220.17C357.251 220.406 356.971 220.647 356.578 220.647H320.901C320.594 220.647 320.34 220.497 320.321 220.304L320.014 217.259C319.993 217.048 320.259 216.869 320.594 216.869H355.044C355.297 216.87 355.521 216.973 355.598 217.125Z" fill="white"/>
<path d="M350.972 220.977H351.895C352.079 220.977 352.218 220.882 352.205 220.767L351.773 216.811C351.76 216.695 351.6 216.601 351.416 216.601H350.493C350.309 216.601 350.169 216.696 350.182 216.811L350.615 220.767C350.628 220.883 350.789 220.977 350.972 220.977Z" fill="#263238"/>
<path d="M328.608 220.977H329.531C329.715 220.977 329.855 220.882 329.842 220.767L329.409 216.811C329.396 216.695 329.236 216.601 329.052 216.601H328.129C327.945 216.601 327.805 216.696 327.818 216.811L328.251 220.767C328.263 220.883 328.424 220.977 328.608 220.977Z" fill="#263238"/>
</svg>
