<svg width="500" height="500" viewBox="0 0 500 500" fill="none" xmlns="http://www.w3.org/2000/svg">
<path d="M500 382.398H0V382.648H500V382.398Z" fill="#EBEBEB"/>
<path d="M449.901 398.494H416.779V398.744H449.901V398.494Z" fill="#EBEBEB"/>
<path d="M331.22 401.208H322.527V401.458H331.22V401.208Z" fill="#EBEBEB"/>
<path d="M415.778 389.208H396.586V389.458H415.778V389.208Z" fill="#EBEBEB"/>
<path d="M95.652 390.888H52.459V391.138H95.652V390.888Z" fill="#EBEBEB"/>
<path d="M110.889 390.888H104.556V391.138H110.889V390.888Z" fill="#EBEBEB"/>
<path d="M225.147 395.111H131.471V395.361H225.147V395.111Z" fill="#EBEBEB"/>
<path d="M237.014 337.8H43.915C40.768 337.8 38.207 335.239 38.207 332.092V60.66C38.207 57.513 40.768 54.952 43.915 54.952H237.014C240.16 54.952 242.721 57.513 242.721 60.66V332.092C242.721 335.239 240.16 337.8 237.014 337.8ZM43.915 55.203C40.905 55.203 38.457 57.651 38.457 60.661V332.093C38.457 335.103 40.905 337.551 43.915 337.551H237.014C240.023 337.551 242.471 335.103 242.471 332.093V60.66C242.471 57.651 240.023 55.202 237.014 55.202L43.915 55.203Z" fill="#EBEBEB"/>
<path d="M453.31 337.8H260.212C257.065 337.8 254.505 335.239 254.505 332.092V60.66C254.505 57.513 257.066 54.952 260.212 54.952H453.31C456.458 54.952 459.018 57.513 459.018 60.66V332.092C459.019 335.239 456.458 337.8 453.31 337.8ZM260.212 55.203C257.203 55.203 254.755 57.651 254.755 60.661V332.093C254.755 335.103 257.203 337.551 260.212 337.551H453.31C456.32 337.551 458.768 335.103 458.768 332.093V60.66C458.768 57.651 456.32 55.202 453.31 55.202L260.212 55.203Z" fill="#EBEBEB"/>
<path d="M301.093 275.409H409.9V78.7914H301.093V275.409Z" fill="#E6E6E6"/>
<path d="M296.072 275.409H407.553V78.7914H296.072V275.409Z" fill="#F0F0F0"/>
<path d="M301.093 280.074H409.9V275.409H301.093V280.074Z" fill="#E6E6E6"/>
<path d="M294.265 280.074H405.746V275.409H294.265V280.074Z" fill="#F0F0F0"/>
<path d="M400.525 268.381L400.525 85.8197L303.101 85.8197V268.381H400.525Z" fill="#FAFAFA"/>
<path d="M330.658 268.38L358.085 85.8199H377.559L350.132 268.38H330.658Z" fill="white"/>
<path d="M333.75 268.38L361.176 85.8199H380.65L353.224 268.38H333.75Z" fill="white"/>
<path d="M354.314 268.38L381.741 85.8199H389.333L361.907 268.38H354.314Z" fill="white"/>
<path d="M303.994 268.381L303.994 85.8204H303.102L303.102 268.381H303.994Z" fill="#E6E6E6"/>
<path opacity="0.6" d="M294.411 91.117H403.217L403.864 88.552H295.058L294.411 91.117Z" fill="#EBEBEB"/>
<path opacity="0.6" d="M294.411 95.325H403.217L403.864 92.759H295.058L294.411 95.325Z" fill="#EBEBEB"/>
<path opacity="0.6" d="M294.411 99.5319H403.217L403.864 96.9659H295.058L294.411 99.5319Z" fill="#EBEBEB"/>
<path opacity="0.6" d="M294.411 103.739H403.217L403.864 101.174H295.058L294.411 103.739Z" fill="#EBEBEB"/>
<path opacity="0.6" d="M294.411 107.946H403.217L403.864 105.381H295.058L294.411 107.946Z" fill="#EBEBEB"/>
<path opacity="0.6" d="M294.411 112.153H403.217L403.864 109.588H295.058L294.411 112.153Z" fill="#EBEBEB"/>
<path d="M431.444 67H274.528V70.791H431.444V67Z" fill="#F0F0F0"/>
<path opacity="0.8" d="M428.611 63.808H420.362V306.644H428.611V63.808Z" fill="#FAFAFA"/>
<path opacity="0.8" d="M422.498 63.808H420.362V306.644H422.498V63.808Z" fill="#F0F0F0"/>
<path opacity="0.8" d="M420.362 63.808H412.113V306.644H420.362V63.808Z" fill="#FAFAFA"/>
<path opacity="0.8" d="M414.249 63.808H412.113V306.644H414.249V63.808Z" fill="#F0F0F0"/>
<path opacity="0.8" d="M412.113 63.808H403.864V306.644H412.113V63.808Z" fill="#FAFAFA"/>
<path opacity="0.8" d="M301.093 63.808H292.844V306.644H301.093V63.808Z" fill="#FAFAFA"/>
<path opacity="0.8" d="M294.979 63.808H292.844V306.644H294.979V63.808Z" fill="#F0F0F0"/>
<path opacity="0.8" d="M292.844 63.808H284.595V306.644H292.844V63.808Z" fill="#FAFAFA"/>
<path opacity="0.8" d="M286.73 63.808H284.595V306.644H286.73V63.808Z" fill="#F0F0F0"/>
<path opacity="0.8" d="M284.595 63.808H276.346V306.644H284.595V63.808Z" fill="#FAFAFA"/>
<path d="M85.34 275.409H194.147L194.147 78.7914H85.34L85.34 275.409Z" fill="#E6E6E6"/>
<path d="M80.3208 275.409H191.802L191.802 78.7914H80.3208L80.3208 275.409Z" fill="#F0F0F0"/>
<path d="M85.34 280.074H194.147V275.409H85.34V280.074Z" fill="#E6E6E6"/>
<path d="M78.5117 280.074H189.993V275.409H78.5117V280.074Z" fill="#F0F0F0"/>
<path d="M184.773 268.381L184.773 85.8203L87.3489 85.8203L87.3489 268.381H184.773Z" fill="#FAFAFA"/>
<path d="M114.905 268.38L142.332 85.8199H161.806L134.379 268.38H114.905Z" fill="white"/>
<path d="M117.997 268.38L145.424 85.8199H164.898L137.471 268.38H117.997Z" fill="white"/>
<path d="M138.563 268.38L165.99 85.8199H173.582L146.155 268.38H138.563Z" fill="white"/>
<path d="M88.2412 268.381L88.2412 85.8198H87.3492L87.3492 268.381H88.2412Z" fill="#E6E6E6"/>
<path opacity="0.6" d="M78.6577 91.117H187.465L188.111 88.552H79.3047L78.6577 91.117Z" fill="#EBEBEB"/>
<path opacity="0.6" d="M78.6577 95.325H187.465L188.111 92.759H79.3047L78.6577 95.325Z" fill="#EBEBEB"/>
<path opacity="0.6" d="M78.6577 99.5319H187.465L188.111 96.9659H79.3047L78.6577 99.5319Z" fill="#EBEBEB"/>
<path opacity="0.6" d="M78.6577 103.739H187.465L188.111 101.174H79.3047L78.6577 103.739Z" fill="#EBEBEB"/>
<path opacity="0.6" d="M78.6577 107.946H187.465L188.111 105.381H79.3047L78.6577 107.946Z" fill="#EBEBEB"/>
<path opacity="0.6" d="M78.6577 112.153H187.465L188.111 109.588H79.3047L78.6577 112.153Z" fill="#EBEBEB"/>
<path d="M215.692 67H58.7759V70.791H215.692V67Z" fill="#F0F0F0"/>
<path opacity="0.8" d="M212.858 63.808H204.609V306.644H212.858V63.808Z" fill="#FAFAFA"/>
<path opacity="0.8" d="M206.744 63.808H204.609V306.644H206.744V63.808Z" fill="#F0F0F0"/>
<path opacity="0.8" d="M204.61 63.808H196.361V306.644H204.61V63.808Z" fill="#FAFAFA"/>
<path opacity="0.8" d="M198.496 63.808H196.361V306.644H198.496V63.808Z" fill="#F0F0F0"/>
<path opacity="0.8" d="M196.36 63.808H188.111V306.644H196.36V63.808Z" fill="#FAFAFA"/>
<path opacity="0.8" d="M85.3408 63.808H77.0918V306.644H85.3408V63.808Z" fill="#FAFAFA"/>
<path opacity="0.8" d="M79.2268 63.808H77.0918V306.644H79.2268V63.808Z" fill="#F0F0F0"/>
<path opacity="0.8" d="M77.0918 63.808H68.8428V306.644H77.0918V63.808Z" fill="#FAFAFA"/>
<path opacity="0.8" d="M70.9778 63.808H68.8428V306.644H70.9778V63.808Z" fill="#F0F0F0"/>
<path opacity="0.8" d="M68.8428 63.808H60.5938V306.644H68.8428V63.808Z" fill="#FAFAFA"/>
<path d="M375.764 375.609H392.578V291.612H375.764V375.609Z" fill="#F0F0F0"/>
<path d="M243.983 382.398H386.442V375.609H243.983V382.398Z" fill="#F0F0F0"/>
<path d="M375.764 291.612H237.847V375.609H375.764V291.612Z" fill="#F5F5F5"/>
<path d="M363.199 300.509H250.411V328.445H363.199V300.509Z" fill="#F0F0F0"/>
<path d="M363.199 334.854H250.411V362.79H363.199V334.854Z" fill="#F0F0F0"/>
<path d="M293.436 304.36H320.174C321.499 304.36 322.584 303.276 322.584 301.95C322.584 300.625 321.5 299.54 320.174 299.54H293.436C292.111 299.54 291.026 300.624 291.026 301.95C291.027 303.276 292.111 304.36 293.436 304.36Z" fill="#F5F5F5"/>
<path d="M293.436 338.706H320.174C321.499 338.706 322.584 337.622 322.584 336.296C322.584 334.971 321.5 333.886 320.174 333.886H293.436C292.111 333.886 291.026 334.97 291.026 336.296C291.027 337.621 292.111 338.706 293.436 338.706Z" fill="#F5F5F5"/>
<path d="M233.588 291.612H375.763V288.333H233.588V291.612Z" fill="#F0F0F0"/>
<path d="M397.044 288.333H375.764V291.612H397.044V288.333Z" fill="#E6E6E6"/>
<path d="M108.335 376.828C104.36 376.828 101.108 373.576 101.108 369.601V298.839C101.108 294.864 104.36 291.612 108.335 291.612C112.31 291.612 115.562 294.864 115.562 298.839V369.601C115.562 373.576 112.31 376.828 108.335 376.828Z" fill="#F5F5F5"/>
<path d="M112.472 373.982C109.786 373.982 107.588 371.784 107.588 369.098V299.343C107.588 296.657 109.786 294.459 112.472 294.459C115.158 294.459 117.356 296.657 117.356 299.343V369.098C117.356 371.784 115.159 373.982 112.472 373.982Z" fill="#EBEBEB"/>
<path d="M118.833 376.828C114.858 376.828 111.606 373.576 111.606 369.601V298.839C111.606 294.864 114.858 291.612 118.833 291.612C122.808 291.612 126.06 294.864 126.06 298.839V369.601C126.06 373.576 122.808 376.828 118.833 376.828Z" fill="#F5F5F5"/>
<path d="M122.971 373.982C120.285 373.982 118.087 371.784 118.087 369.098V299.343C118.087 296.657 120.285 294.459 122.971 294.459C125.657 294.459 127.855 296.657 127.855 299.343V369.098C127.855 371.784 125.657 373.982 122.971 373.982Z" fill="#EBEBEB"/>
<path d="M129.332 376.828C125.357 376.828 122.105 373.576 122.105 369.601V298.839C122.105 294.864 125.357 291.612 129.332 291.612C133.307 291.612 136.559 294.864 136.559 298.839V369.601C136.559 373.576 133.307 376.828 129.332 376.828Z" fill="#F5F5F5"/>
<path d="M133.469 373.982C130.783 373.982 128.585 371.784 128.585 369.098V299.343C128.585 296.657 130.783 294.459 133.469 294.459C136.155 294.459 138.353 296.657 138.353 299.343V369.098C138.353 371.784 136.155 373.982 133.469 373.982Z" fill="#EBEBEB"/>
<path d="M139.83 376.828C135.855 376.828 132.603 373.576 132.603 369.601V298.839C132.603 294.864 135.855 291.612 139.83 291.612C143.805 291.612 147.057 294.864 147.057 298.839V369.601C147.057 373.576 143.805 376.828 139.83 376.828Z" fill="#F5F5F5"/>
<path d="M143.967 373.982C141.281 373.982 139.083 371.784 139.083 369.098V299.343C139.083 296.657 141.281 294.459 143.967 294.459C146.653 294.459 148.851 296.657 148.851 299.343V369.098C148.852 371.784 146.654 373.982 143.967 373.982Z" fill="#EBEBEB"/>
<path d="M150.329 376.828C146.354 376.828 143.102 373.576 143.102 369.601V298.839C143.102 294.864 146.354 291.612 150.329 291.612C154.304 291.612 157.556 294.864 157.556 298.839V369.601C157.556 373.576 154.303 376.828 150.329 376.828Z" fill="#F5F5F5"/>
<path d="M154.466 373.982C151.78 373.982 149.582 371.784 149.582 369.098V299.343C149.582 296.657 151.78 294.459 154.466 294.459C157.152 294.459 159.35 296.657 159.35 299.343V369.098C159.35 371.784 157.152 373.982 154.466 373.982Z" fill="#EBEBEB"/>
<path d="M160.827 376.828C156.852 376.828 153.6 373.576 153.6 369.601V298.839C153.6 294.864 156.852 291.612 160.827 291.612C164.802 291.612 168.054 294.864 168.054 298.839V369.601C168.054 373.576 164.802 376.828 160.827 376.828Z" fill="#F5F5F5"/>
<path d="M164.964 373.982C162.278 373.982 160.08 371.784 160.08 369.098V299.343C160.08 296.657 162.278 294.459 164.964 294.459C167.65 294.459 169.848 296.657 169.848 299.343V369.098C169.848 371.784 167.65 373.982 164.964 373.982Z" fill="#EBEBEB"/>
<path d="M171.325 376.828C167.35 376.828 164.098 373.576 164.098 369.601V298.839C164.098 294.864 167.35 291.612 171.325 291.612C175.3 291.612 178.552 294.864 178.552 298.839V369.601C178.552 373.576 175.3 376.828 171.325 376.828Z" fill="#F5F5F5"/>
<path d="M180.186 367.355H158.988C158.107 367.355 157.387 366.634 157.387 365.754C157.387 364.873 158.107 364.153 158.988 364.153H180.186C181.067 364.153 181.787 364.873 181.787 365.754C181.787 366.634 181.066 367.355 180.186 367.355Z" fill="#F5F5F5"/>
<path d="M180.186 306.378H158.988C158.107 306.378 157.387 305.657 157.387 304.777C157.387 303.896 158.107 303.176 158.988 303.176H180.186C181.067 303.176 181.787 303.896 181.787 304.777C181.787 305.658 181.066 306.378 180.186 306.378Z" fill="#F5F5F5"/>
<path d="M250 427.561C357.082 427.561 443.889 422.492 443.889 416.238C443.889 409.985 357.082 404.915 250 404.915C142.918 404.915 56.1108 409.985 56.1108 416.238C56.1108 422.492 142.918 427.561 250 427.561Z" fill="#F5F5F5"/>
<path d="M409.834 248.663H170.808C165.343 248.663 161.149 244.192 161.488 238.727L170.247 97.648C170.586 92.183 175.335 87.712 180.8 87.712H419.825C425.29 87.712 429.484 92.183 429.144 97.648L420.385 238.727C420.048 244.192 415.299 248.663 409.834 248.663Z" fill="#5431D6"/>
<path opacity="0.8" d="M409.834 248.663H170.808C165.343 248.663 161.149 244.192 161.488 238.727L170.247 97.648C170.586 92.183 175.335 87.712 180.8 87.712H419.825C425.29 87.712 429.484 92.183 429.144 97.648L420.385 238.727C420.048 244.192 415.299 248.663 409.834 248.663Z" fill="white"/>
<path opacity="0.4" d="M201.462 128.364H173C171.443 128.364 170.26 127.102 170.356 125.545L171.165 112.513C171.262 110.956 172.602 109.694 174.159 109.694H202.622L201.462 128.364Z" fill="white"/>
<path d="M419.672 90.196H211.284C207.168 90.196 203.624 93.533 203.369 97.648L201.359 130.02H172.897C171.34 130.02 170 131.282 169.903 132.839L169.145 145.043C169.048 146.6 170.232 147.862 171.789 147.862H200.252L194.611 238.727C194.355 242.843 197.485 246.179 201.601 246.179H409.989C414.105 246.179 417.648 242.842 417.904 238.727L426.663 97.648C426.917 93.532 423.788 90.196 419.672 90.196Z" fill="white"/>
<path opacity="0.4" d="M199.041 167.36H170.579C169.022 167.36 167.839 166.098 167.935 164.541L168.693 152.337C168.79 150.78 170.13 149.518 171.687 149.518H200.15L199.041 167.36Z" fill="white"/>
<path opacity="0.4" d="M197.831 186.857H169.368C167.811 186.857 166.628 185.595 166.724 184.038L167.482 171.834C167.579 170.277 168.919 169.015 170.476 169.015H198.939L197.831 186.857Z" fill="white"/>
<path opacity="0.4" d="M196.62 206.355H168.157C166.6 206.355 165.417 205.093 165.513 203.536L166.271 191.332C166.368 189.775 167.708 188.513 169.265 188.513H197.728L196.62 206.355Z" fill="white"/>
<path opacity="0.4" d="M195.409 225.853H166.947C165.39 225.853 164.207 224.591 164.303 223.034L165.061 210.83C165.158 209.273 166.498 208.011 168.055 208.011H196.518L195.409 225.853Z" fill="white"/>
<path opacity="0.2" d="M172.626 145.587C172.294 145.587 171.994 145.461 171.779 145.233C171.564 145.003 171.456 144.693 171.477 144.359L172.143 133.644C172.188 132.912 172.845 132.293 173.576 132.293H197.703C198.035 132.293 198.335 132.419 198.55 132.647C198.765 132.876 198.872 133.186 198.852 133.52L198.186 144.235C198.141 144.967 197.485 145.586 196.753 145.586H172.626V145.587Z" fill="#5431D6"/>
<path opacity="0.3" d="M252.976 107.005H218.567C215.936 107.005 213.916 104.852 214.08 102.221C214.243 99.59 216.53 97.437 219.161 97.437H253.57C256.201 97.437 258.22 99.59 258.057 102.221C257.894 104.852 255.607 107.005 252.976 107.005Z" fill="#5431D6"/>
<path d="M416.959 102.221C416.795 104.863 414.52 107.005 411.878 107.005C409.236 107.005 407.227 104.863 407.391 102.221C407.555 99.579 409.83 97.437 412.472 97.437C415.114 97.437 417.123 99.579 416.959 102.221Z" fill="#5431D6"/>
<path opacity="0.4" d="M319.535 188.839H217.979C212.749 188.839 208.759 184.584 209.084 179.355L212.148 130.011C212.473 124.781 216.991 120.527 222.221 120.527H323.777C329.007 120.527 332.998 124.782 332.673 130.011L329.609 179.355C329.284 184.584 324.765 188.839 319.535 188.839ZM222.195 120.941C217.194 120.941 212.872 125.01 212.562 130.011L209.498 179.355C209.187 184.356 213.004 188.425 218.005 188.425H319.561C324.563 188.425 328.884 184.356 329.195 179.355L332.259 130.011C332.569 125.01 328.753 120.941 323.751 120.941H222.195Z" fill="#5431D6"/>
<path d="M230.335 153.345L244.903 162.766C247.814 158.517 251.714 154.981 256.231 152.505L248.402 136.98C241.198 140.93 234.978 146.568 230.335 153.345Z" fill="#5431D6"/>
<path opacity="0.8" d="M230.335 153.345L244.903 162.766C247.814 158.517 251.714 154.981 256.231 152.505L248.402 136.98C241.198 140.93 234.978 146.568 230.335 153.345Z" fill="white"/>
<path d="M221.551 178.604H239.395C239.756 172.789 241.753 167.363 244.903 162.766L230.335 153.345C225.311 160.677 222.127 169.329 221.551 178.604Z" fill="#263238"/>
<path d="M272.363 130.762C263.788 130.762 255.607 133.029 248.401 136.98L256.23 152.505C260.748 150.028 265.878 148.606 271.255 148.606C287.823 148.606 300.419 162.037 299.391 178.604H317.235C318.875 152.182 298.785 130.762 272.363 130.762Z" fill="#5431D6"/>
<path d="M260.781 206.986H208.484C207.982 206.986 207.601 206.579 207.632 206.077L207.86 202.397C207.891 201.895 208.323 201.488 208.825 201.488H261.122L260.781 206.986Z" fill="#5431D6"/>
<path opacity="0.2" d="M260.781 206.986H326.777C327.279 206.986 327.711 206.579 327.742 206.077L327.97 202.397C328.001 201.895 327.62 201.488 327.118 201.488H261.122L260.781 206.986Z" fill="#5431D6"/>
<path d="M296.302 221.513H207.582C207.08 221.513 206.699 221.106 206.73 220.604L206.958 216.924C206.989 216.422 207.421 216.015 207.923 216.015H296.643L296.302 221.513Z" fill="#5431D6"/>
<path opacity="0.2" d="M296.302 221.513H325.876C326.378 221.513 326.81 221.106 326.841 220.604L327.069 216.924C327.1 216.422 326.719 216.015 326.217 216.015H296.643L296.302 221.513Z" fill="#5431D6"/>
<path d="M217.101 236.04H206.68C206.178 236.04 205.797 235.633 205.828 235.132L206.057 231.452C206.088 230.95 206.52 230.543 207.022 230.543H217.443L217.101 236.04Z" fill="#5431D6"/>
<path opacity="0.2" d="M217.101 236.04H324.974C325.476 236.04 325.908 235.633 325.939 235.132L326.168 231.452C326.199 230.95 325.818 230.543 325.316 230.543H217.442L217.101 236.04Z" fill="#5431D6"/>
<path d="M348.765 236.454C348.536 236.454 348.362 236.269 348.377 236.04L355.536 120.734C355.55 120.505 355.747 120.32 355.976 120.32C356.205 120.32 356.378 120.505 356.364 120.734L349.205 236.04C349.191 236.269 348.994 236.454 348.765 236.454Z" fill="#5431D6"/>
<path d="M356.835 150.937C356.74 152.461 355.428 153.697 353.903 153.697C352.379 153.697 351.22 152.461 351.314 150.937C351.409 149.413 352.721 148.177 354.245 148.177C355.77 148.177 356.93 149.412 356.835 150.937Z" fill="white"/>
<path d="M353.878 154.111C352.128 154.111 350.792 152.687 350.901 150.937C351.01 149.187 352.522 147.763 354.272 147.763C356.022 147.763 357.358 149.187 357.249 150.937C357.14 152.687 355.628 154.111 353.878 154.111ZM354.22 148.591C352.926 148.591 351.808 149.643 351.728 150.937C351.648 152.231 352.635 153.283 353.929 153.283C355.223 153.283 356.341 152.231 356.421 150.937C356.501 149.643 355.514 148.591 354.22 148.591Z" fill="#5431D6"/>
<path d="M355.293 175.778C355.198 177.302 353.886 178.538 352.362 178.538C350.838 178.538 349.679 177.302 349.773 175.778C349.868 174.254 351.18 173.018 352.704 173.018C354.228 173.018 355.387 174.253 355.293 175.778Z" fill="white"/>
<path d="M352.335 178.952C350.585 178.952 349.249 177.528 349.358 175.778C349.467 174.027 350.979 172.603 352.729 172.603C354.479 172.603 355.815 174.027 355.706 175.778C355.598 177.528 354.086 178.952 352.335 178.952ZM352.678 173.431C351.384 173.431 350.266 174.484 350.186 175.778C350.106 177.072 351.093 178.124 352.387 178.124C353.681 178.124 354.798 177.072 354.879 175.778C354.959 174.484 353.972 173.431 352.678 173.431Z" fill="#5431D6"/>
<path d="M351.783 187.857L348.129 193.57H354.727L351.783 187.857Z" fill="white"/>
<path d="M354.701 193.984H348.103C347.955 193.984 347.823 193.905 347.757 193.777C347.691 193.649 347.701 193.491 347.783 193.363L351.437 187.649C351.601 187.393 352.022 187.393 352.154 187.649L355.098 193.363C355.164 193.491 355.154 193.649 355.072 193.777C354.99 193.905 354.849 193.984 354.701 193.984ZM348.872 193.156H354.035L351.731 188.684L348.872 193.156Z" fill="#5431D6"/>
<path d="M398.447 236.454C398.218 236.454 398.045 236.269 398.059 236.04L405.218 120.734C405.232 120.505 405.429 120.32 405.658 120.32C405.887 120.32 406.06 120.505 406.046 120.734L398.887 236.04C398.873 236.269 398.676 236.454 398.447 236.454Z" fill="#5431D6"/>
<path d="M403.675 196.71C403.77 195.186 402.611 193.95 401.086 193.95C399.562 193.95 398.249 195.186 398.155 196.71C398.06 198.234 399.219 199.47 400.744 199.47C402.268 199.47 403.58 198.234 403.675 196.71Z" fill="white"/>
<path d="M400.718 199.884C398.968 199.884 397.632 198.46 397.741 196.71C397.85 194.959 399.362 193.535 401.112 193.535C402.862 193.535 404.198 194.959 404.089 196.71C403.98 198.46 402.468 199.884 400.718 199.884ZM401.06 194.363C399.766 194.363 398.648 195.416 398.568 196.71C398.488 198.004 399.475 199.056 400.769 199.056C402.063 199.056 403.181 198.004 403.261 196.71C403.341 195.416 402.354 194.363 401.06 194.363Z" fill="#5431D6"/>
<path d="M407.531 134.597C407.626 133.073 406.467 131.837 404.942 131.837C403.418 131.837 402.105 133.073 402.01 134.597C401.915 136.121 403.074 137.357 404.599 137.357C406.124 137.357 407.437 136.122 407.531 134.597Z" fill="white"/>
<path d="M404.574 137.771C402.824 137.771 401.488 136.347 401.597 134.597C401.706 132.847 403.218 131.423 404.968 131.423C406.718 131.423 408.054 132.847 407.945 134.597C407.837 136.347 406.324 137.771 404.574 137.771ZM404.917 132.251C403.623 132.251 402.506 133.303 402.425 134.597C402.345 135.891 403.332 136.943 404.626 136.943C405.92 136.943 407.038 135.891 407.118 134.597C407.198 133.304 406.211 132.251 404.917 132.251Z" fill="#5431D6"/>
<path d="M402.64 168.917L399.696 163.203H406.294L402.64 168.917Z" fill="white"/>
<path d="M402.615 169.331C402.467 169.331 402.335 169.252 402.269 169.124L399.325 163.41C399.259 163.282 399.269 163.124 399.351 162.996C399.433 162.868 399.575 162.789 399.722 162.789H406.32C406.468 162.789 406.6 162.868 406.666 162.996C406.732 163.124 406.722 163.282 406.64 163.41L402.986 169.124C402.904 169.252 402.763 169.331 402.615 169.331ZM400.388 163.617L402.692 168.089L405.551 163.617H400.388Z" fill="#5431D6"/>
<path d="M373.606 236.454C373.377 236.454 373.204 236.269 373.218 236.04L380.377 120.734C380.391 120.505 380.588 120.32 380.817 120.32C381.046 120.32 381.22 120.505 381.205 120.734L374.046 236.04C374.032 236.269 373.835 236.454 373.606 236.454Z" fill="#5431D6"/>
<path d="M381.236 158.021C381.141 159.545 379.829 160.781 378.305 160.781C376.781 160.781 375.622 159.545 375.716 158.021C375.811 156.497 377.123 155.261 378.647 155.261C380.172 155.261 381.331 156.497 381.236 158.021Z" fill="white"/>
<path d="M378.279 161.195C376.529 161.195 375.193 159.771 375.302 158.021C375.411 156.271 376.923 154.847 378.673 154.847C380.423 154.847 381.759 156.271 381.65 158.021C381.542 159.771 380.029 161.195 378.279 161.195ZM378.622 155.675C377.328 155.675 376.21 156.727 376.13 158.021C376.05 159.315 377.037 160.367 378.331 160.367C379.625 160.367 380.743 159.315 380.823 158.021C380.902 156.727 379.915 155.675 378.622 155.675Z" fill="#5431D6"/>
<path d="M377.808 213.256C377.713 214.78 376.401 216.016 374.876 216.016C373.352 216.016 372.193 214.78 372.287 213.256C372.382 211.732 373.694 210.496 375.218 210.496C376.743 210.496 377.902 211.732 377.808 213.256Z" fill="white"/>
<path d="M374.849 216.431C373.099 216.431 371.763 215.007 371.872 213.256C371.981 211.506 373.493 210.082 375.243 210.082C376.993 210.082 378.329 211.506 378.22 213.256C378.112 215.007 376.6 216.431 374.849 216.431ZM375.192 210.91C373.898 210.91 372.78 211.962 372.7 213.256C372.62 214.55 373.607 215.603 374.901 215.603C376.195 215.603 377.313 214.55 377.393 213.256C377.473 211.962 376.486 210.91 375.192 210.91Z" fill="#5431D6"/>
<path d="M380.456 126.123L376.803 131.837H383.4L380.456 126.123Z" fill="white"/>
<path d="M383.375 132.251H376.777C376.629 132.251 376.497 132.172 376.431 132.044C376.365 131.916 376.375 131.758 376.457 131.63L380.111 125.916C380.275 125.66 380.696 125.66 380.828 125.916L383.772 131.63C383.838 131.758 383.828 131.916 383.746 132.044C383.664 132.173 383.523 132.251 383.375 132.251ZM377.546 131.423H382.709L380.405 126.951L377.546 131.423Z" fill="#5431D6"/>
<path d="M111.539 155.807L110.525 160.681L109.528 165.675C108.872 169 108.308 172.322 107.796 175.58C107.544 177.212 107.342 178.823 107.169 180.411C106.975 181.998 106.846 183.543 106.767 185.028C106.679 186.512 106.704 187.925 106.753 189.112C106.79 190.282 107.006 191.281 106.959 191.393L106.291 190.242C105.986 189.939 105.441 189.665 105.349 189.794C105.244 189.892 105.608 190.154 106.246 190.321C106.879 190.49 107.776 190.613 108.759 190.666C109.753 190.714 110.841 190.665 111.981 190.585C114.268 190.43 116.721 190.046 119.214 189.585C120.461 189.347 121.729 189.105 122.991 188.82L126.732 188.009L127.23 187.901C130.061 187.287 132.854 189.085 133.468 191.916C133.918 193.993 133.067 196.05 131.466 197.241L129.603 198.623L127.755 199.878C126.504 200.677 125.231 201.457 123.914 202.177C121.278 203.624 118.502 204.905 115.448 205.96C113.917 206.482 112.307 206.914 110.58 207.265C108.842 207.605 106.992 207.859 104.895 207.811C102.81 207.764 100.447 207.491 97.8383 206.466C95.2453 205.487 92.4793 203.44 90.6433 200.859C90.4473 200.583 90.2733 200.297 90.1233 200.004L89.9753 199.708C88.3993 196.577 87.8623 194.033 87.4193 191.669C86.9983 189.311 86.8623 187.142 86.7803 185.051C86.7093 182.96 86.7143 180.93 86.7853 178.95C86.8803 176.972 87.0153 175.022 87.1973 173.104C87.5413 169.262 88.1083 165.518 88.7563 161.811C89.0993 159.961 89.4413 158.116 89.8573 156.284C90.0643 155.367 90.2643 154.45 90.4913 153.532L91.2243 150.699C92.6723 145.101 98.3843 141.736 103.982 143.184C109.409 144.588 112.737 149.998 111.616 155.428L111.539 155.807Z" fill="#5431D6"/>
<path opacity="0.2" d="M111.539 155.807L110.525 160.681L109.528 165.675C108.872 169 108.308 172.322 107.796 175.58C107.544 177.212 107.342 178.823 107.169 180.411C106.975 181.998 106.846 183.543 106.767 185.028C106.679 186.512 106.704 187.925 106.753 189.112C106.79 190.282 107.006 191.281 106.959 191.393L106.291 190.242C105.986 189.939 105.441 189.665 105.349 189.794C105.244 189.892 105.608 190.154 106.246 190.321C106.879 190.49 107.776 190.613 108.759 190.666C109.753 190.714 110.841 190.665 111.981 190.585C114.268 190.43 116.721 190.046 119.214 189.585C120.461 189.347 121.729 189.105 122.991 188.82L126.732 188.009L127.23 187.901C130.061 187.287 132.854 189.085 133.468 191.916C133.918 193.993 133.067 196.05 131.466 197.241L129.603 198.623L127.755 199.878C126.504 200.677 125.231 201.457 123.914 202.177C121.278 203.624 118.502 204.905 115.448 205.96C113.917 206.482 112.307 206.914 110.58 207.265C108.842 207.605 106.992 207.859 104.895 207.811C102.81 207.764 100.447 207.491 97.8383 206.466C95.2453 205.487 92.4793 203.44 90.6433 200.859C90.4473 200.583 90.2733 200.297 90.1233 200.004L89.9753 199.708C88.3993 196.577 87.8623 194.033 87.4193 191.669C86.9983 189.311 86.8623 187.142 86.7803 185.051C86.7093 182.96 86.7143 180.93 86.7853 178.95C86.8803 176.972 87.0153 175.022 87.1973 173.104C87.5413 169.262 88.1083 165.518 88.7563 161.811C89.0993 159.961 89.4413 158.116 89.8573 156.284C90.0643 155.367 90.2643 154.45 90.4913 153.532L91.2243 150.699C92.6723 145.101 98.3843 141.736 103.982 143.184C109.409 144.588 112.737 149.998 111.616 155.428L111.539 155.807Z" fill="black"/>
<path d="M86.2352 411.576C86.2352 411.576 76.7692 402.99 76.9752 400.278L69.1082 396.25L64.4302 404.331L68.7762 406.762L69.9572 406.401L70.7492 407.772C74.6722 409.781 83.2292 413.682 86.2232 413.572C86.8002 412.274 86.2352 411.576 86.2352 411.576Z" fill="#263238"/>
<path d="M86.9084 310.623C92.6304 269.657 90.7624 244.753 96.7694 224.562L133.97 221.569C133.97 221.569 117.483 286.563 109.923 313.626C102.334 340.794 78.6934 402.047 78.6934 402.047L68.3384 396.745C68.3384 396.745 76.8354 342.315 86.9084 310.623Z" fill="#263238"/>
<path opacity="0.2" d="M117.251 251.866C114.718 257.721 109.78 295.293 109.8 314.055C109.84 313.915 109.88 313.766 109.92 313.626C112.575 304.117 116.338 289.915 120.099 275.496L117.251 251.866Z" fill="black"/>
<path d="M146.001 412.923C146.001 412.923 130.571 409.421 129.864 406.913H120.074L119.261 416.238H124.702L125.707 415.379L126.918 416.238C131.326 416.238 144.044 416.275 146.781 414.642C146.803 413.231 146.001 412.923 146.001 412.923Z" fill="#263238"/>
<path d="M119.873 311.772C111.701 256.256 111.701 221.89 111.701 221.89L148.105 221.303C148.105 221.303 143.734 287.504 142.214 315.232C140.637 344.063 131.636 407.514 131.636 407.514H118.947C118.947 407.514 116.042 347.416 119.873 311.772Z" fill="#263238"/>
<path d="M115.922 117.674C114.195 128.556 111.051 134.404 108.946 139.813C112.619 143.227 120.48 147.464 128.414 147.349C136.348 147.234 134.897 141.868 132.769 139.104C127.084 136.236 126.863 133.336 128.253 130.787L115.922 117.674Z" fill="#7F3E3B"/>
<path d="M102.319 141.354C102.319 141.354 107.382 135.401 109.377 134.404C111.372 133.407 126.506 135.453 130.08 136.118C133.654 136.783 137.999 142.102 137.999 142.102L102.319 141.354Z" fill="#263238"/>
<path d="M140.98 116.758C140.819 117.475 141.07 118.138 141.54 118.239C142.01 118.34 142.522 117.841 142.683 117.124C142.844 116.407 142.593 115.744 142.123 115.643C141.652 115.543 141.141 116.042 140.98 116.758Z" fill="#263238"/>
<path d="M140.712 117.751C140.712 117.751 141.418 122.238 142.77 124.621C141.232 125.531 139.19 124.524 139.19 124.524L140.712 117.751Z" fill="#630F0F"/>
<path d="M143.462 112.631C143.345 112.707 143.193 112.725 143.056 112.665C141.317 111.905 140.004 112.737 139.949 112.772C139.75 112.902 139.484 112.846 139.355 112.646C139.226 112.446 139.281 112.18 139.479 112.048C139.552 112.002 141.223 110.916 143.401 111.869C143.618 111.964 143.717 112.219 143.622 112.439C143.588 112.521 143.531 112.586 143.462 112.631Z" fill="#263238"/>
<path d="M117.184 109.459C115.749 118.379 114.454 123.531 117.899 129.01C123.082 137.251 134.89 135.567 138.972 127.232C142.646 119.731 144.376 106.403 136.517 101.038C128.776 95.7539 118.62 100.538 117.184 109.459Z" fill="#7F3E3B"/>
<path d="M133.389 118C140.611 119.556 138.507 110.635 136.785 109.747C141.118 112.351 144 109.334 143.739 106.612C147.055 106.057 146.889 100.557 144.611 100.445C143.167 96.667 136.437 93.501 135.191 95.834C131.556 91.612 121.842 92.334 123.254 95.39C119.556 94.668 111.701 95.001 114.333 100.557C108.722 101.279 108.986 110.883 112.652 111.883C108.819 114.003 112.528 121.242 114.177 125.782C115.794 130.232 132.307 126.278 133.389 118Z" fill="#263238"/>
<path d="M129.278 117.089C128.948 119.223 129.529 121.232 130.465 122.545C131.873 124.52 134.053 123.291 134.897 120.885C135.657 118.719 135.84 115.082 133.832 113.992C131.853 112.918 129.655 114.648 129.278 117.089Z" fill="#7F3E3B"/>
<path d="M102.831 140.351C115.13 138.835 132.575 138.974 144.156 140.994C150.053 142.022 154.471 146.946 154.957 152.913C156.395 170.578 152.487 201.463 149.113 232.548C121.862 241.691 94.2001 232.425 94.2001 232.425C93.5921 226.152 96.9711 205.606 99.0761 194.634C97.5281 183.307 93.6021 170.337 91.3841 155.295C90.3091 147.99 95.5041 141.254 102.831 140.351Z" fill="#5431D6"/>
<path opacity="0.2" d="M139.843 165.091C141.698 175.733 147.593 188.41 152.979 196.799C153.717 189.448 154.336 182.446 154.734 175.993L139.843 165.091Z" fill="black"/>
<path d="M229.935 140.437C221.492 135.417 210.577 138.191 205.556 146.634C200.718 154.769 203.135 165.185 210.871 170.426C209.09 172.827 203.89 179.885 202.276 182.599C200.319 185.891 199.275 188.849 200.656 189.67C202.036 190.491 204.138 188.161 206.095 184.87C207.708 182.157 211.426 174.218 212.685 171.506C220.984 175.804 231.288 172.951 236.127 164.814C241.146 156.369 238.378 145.457 229.935 140.437ZM234.204 163.669C229.815 171.051 220.276 173.47 212.9 169.085C205.518 164.696 203.089 155.159 207.478 147.777C211.867 140.395 221.406 137.975 228.788 142.365C236.164 146.751 238.593 156.288 234.204 163.669Z" fill="#5431D6"/>
<path opacity="0.2" d="M234.931 164.102C230.303 171.885 220.245 174.437 212.468 169.812C204.685 165.184 202.123 155.128 206.751 147.345C211.379 139.562 221.438 137.01 229.221 141.638C236.998 146.262 239.559 156.318 234.931 164.102Z" fill="#5431D6"/>
<path d="M209.428 179.663L207.263 177.742C206.449 177.02 205.336 176.735 204.275 176.979L199.317 178.117C197.335 178.572 195.696 179.959 194.919 181.838L194.438 183.001C197.811 186.432 203.984 187.655 203.984 187.655L205.705 188.199C207.238 188.682 208.795 187.919 209.282 186.444L210.404 183.048C210.792 181.875 210.404 180.528 209.428 179.663Z" fill="#7F3E3B"/>
<path d="M154.472 149.29L156.491 153.677L158.601 158.155C160.012 161.131 161.499 164.047 162.99 166.877C163.742 168.288 164.515 169.665 165.306 170.986C166.077 172.321 166.871 173.601 167.672 174.78C168.464 175.961 169.3 177.028 170.019 177.898C170.72 178.763 171.445 179.377 171.457 179.475L170.225 178.972C171.028 179.416 172.665 179.908 174.585 180.069C176.503 180.243 178.698 180.29 180.956 180.151C183.227 180.051 185.583 179.813 187.977 179.529C189.173 179.382 190.386 179.238 191.593 179.059L195.166 178.577L195.663 178.51C198.541 178.122 201.189 180.141 201.577 183.019C201.855 185.083 200.89 187.031 199.263 188.11L197.442 189.312L195.65 190.395C194.441 191.081 193.218 191.751 191.962 192.364C190.704 192.968 189.428 193.567 188.116 194.105C186.801 194.634 185.457 195.132 184.078 195.598C181.304 196.467 178.4 197.249 175.184 197.599C171.985 197.945 168.422 198.046 164.32 196.937C164.058 196.866 163.808 196.774 163.57 196.663L163.088 196.433C159.973 194.954 157.998 193.279 156.229 191.689C154.477 190.09 153.075 188.464 151.754 186.867C149.132 183.671 146.983 180.467 145.009 177.226C143.018 174.001 141.271 170.723 139.616 167.425C138.806 165.767 137.998 164.115 137.259 162.428C136.887 161.586 136.511 160.744 136.156 159.888L135.084 157.217C132.93 151.851 135.534 145.755 140.9 143.601C146.096 141.515 151.977 143.891 154.3 148.916L154.472 149.29Z" fill="#5431D6"/>
<path d="M362.853 378.84C361.307 366.754 368.049 356.998 374.569 347.565C382.24 336.465 390.172 324.989 385.482 309.245C384.131 304.712 381.934 300.78 379.171 297.473C376.403 304.542 371.734 310.747 365.424 315.443C356.725 321.917 346.452 323.961 339.251 320.651C335.195 318.787 330.21 314.406 329.495 304.121C328.764 293.598 334.872 286.128 345.833 284.139C356.754 282.16 370.099 286.126 378.809 295.554C380.972 289.291 381.644 282.393 380.649 275.305L381.639 275.166C382.685 282.613 381.929 289.858 379.57 296.406C382.59 299.899 384.988 304.092 386.438 308.961C391.265 325.165 383.195 336.842 375.39 348.135C368.682 357.841 362.346 367.009 363.844 378.715L362.853 378.84ZM351.517 284.638C349.637 284.638 347.792 284.798 346.012 285.121C335.602 287.01 329.8 294.085 330.493 304.05C331.032 311.804 334.204 317.23 339.669 319.741C346.539 322.899 356.416 320.896 364.827 314.638C371.128 309.949 375.752 303.715 378.427 296.612C371.37 288.725 361.01 284.638 351.517 284.638Z" fill="#263238"/>
<path d="M381.569 278.671C373.648 271.597 372.739 262.268 377.377 260.301C383.806 257.573 386.206 268.926 381.569 278.671Z" fill="#5431D6"/>
<path d="M375.562 347.006C369.904 338.019 369.593 326.788 376.467 325.989C382.757 325.258 384.143 335.923 375.562 347.006Z" fill="#5431D6"/>
<path d="M381.751 281.635C380.66 274.933 383.96 269.931 387.056 270.818C391.349 272.049 387.975 278.657 381.751 281.635Z" fill="#5431D6"/>
<path d="M366.175 314.074C362.706 306.59 364.932 299.657 368.845 299.683C374.27 299.718 372.483 308.553 366.175 314.074Z" fill="#5431D6"/>
<path d="M352.864 284.245C345.719 285.45 340.36 281.958 341.289 278.648C342.576 274.06 349.648 277.621 352.864 284.245Z" fill="#5431D6"/>
<path d="M352.864 284.245C348.475 281.902 347.831 278.421 350.102 277.493C353.25 276.205 354.755 280.388 352.864 284.245Z" fill="#5431D6"/>
<path d="M387.279 313.997C385.549 309.333 387.376 306.3 389.692 307.112C392.902 308.237 391.253 312.365 387.279 313.997Z" fill="#5431D6"/>
<path d="M331.11 310.732C326.165 311.27 323.67 308.758 325.023 306.711C326.898 303.873 330.498 306.48 331.11 310.732Z" fill="#5431D6"/>
<path d="M394.578 378.721L392.218 396.078L393.209 396.213L395.569 378.855L394.578 378.721Z" fill="#5431D6"/>
<path d="M391.604 400.534L390.462 408.929L391.453 409.064L392.595 400.669L391.604 400.534Z" fill="#5431D6"/>
<path d="M343.962 371.232L349.751 413.569C349.96 415.099 351.267 416.239 352.811 416.239H384.067C385.611 416.239 386.918 415.099 387.127 413.569L392.916 371.232C393.17 369.377 391.728 367.725 389.856 367.725H347.023C345.15 367.725 343.708 369.377 343.962 371.232Z" fill="#5431D6"/>
</svg>
