<svg width="500" height="337" viewBox="0 0 500 337" fill="none" xmlns="http://www.w3.org/2000/svg">
<path d="M373.091 299.091C414.148 301.964 465.505 285.709 488.206 249.976C497.594 235.193 503.83 216.206 497.314 199.811C492.339 187.409 471.46 173.397 466.906 160.855C462.352 148.104 462.983 133.741 465.295 120.358C472.021 81.8233 434.467 21.7787 355.155 15.3328C294.97 10.4984 267.785 57.2309 216.569 63.6067C164.932 70.0526 104.326 31.3774 67.4028 63.6067C21.5111 103.613 43.0207 143.62 48.6258 162.327C55.7723 186.358 20.7404 213.823 27.957 249.276C44.1417 328.448 161.639 275.059 196.11 271.696C231.072 268.333 265.823 278.282 300.085 286.269C334.346 294.257 370.709 300.282 404.199 289.282L373.091 299.091Z" fill="white"/>
<path d="M247.045 336.925C383.484 336.925 494.09 331.656 494.09 325.155C494.09 318.654 383.484 313.384 247.045 313.384C110.606 313.384 0 318.654 0 325.155C0 331.656 110.606 336.925 247.045 336.925Z" fill="white"/>
<path d="M32.0177 123.511L31.247 123.581C29.5654 108.938 34.0495 94.6449 45.3999 78.6704L46.0304 79.0908C34.8202 94.9252 30.3362 109.078 32.0177 123.511Z" fill="#5431D6"/>
<path d="M27.2565 133.39L26.5559 133.6C17.938 106.276 32.7215 84.0653 48.2756 65.9889L48.8361 66.4793C33.4221 84.4157 18.7788 106.346 27.2565 133.39Z" fill="#5431D6"/>
<path d="M389.697 16.8042C372.461 7.97617 357.888 5.594 343.805 9.30738L343.595 8.60674C357.888 4.8233 372.671 7.20547 390.047 16.1036L389.697 16.8042Z" fill="#5431D6"/>
<path d="M402.654 17.7851C382.685 5.10354 358.864 -6.17672 333.361 6.08443L333.01 5.3838C358.864 -7.08755 382.896 4.33284 403.004 17.0844L402.654 17.7851Z" fill="#5431D6"/>
<path d="M183.707 92.8234H182.586C182.586 92.2629 182.656 91.7024 182.656 91.1418L183.777 91.2119C183.707 91.7724 183.707 92.2629 183.707 92.8234Z" fill="#5431D6"/>
<path d="M258.182 83.715C257.902 82.6641 257.552 81.6131 257.131 80.5622L258.182 80.2118C258.602 81.2628 258.953 82.3838 259.233 83.4348L258.182 83.715ZM184.125 87.9188L183.074 87.7787C183.284 86.6577 183.494 85.5367 183.774 84.4157L184.825 84.6959C184.545 85.7469 184.335 86.8679 184.125 87.9188ZM255.87 77.4793C255.38 76.4985 254.889 75.5176 254.329 74.5367L255.239 73.9762C255.8 74.9571 256.36 75.9379 256.851 76.9889L255.87 77.4793ZM185.736 81.473L184.685 81.1227C185.036 80.0717 185.456 78.9507 185.946 77.9698L186.927 78.3902C186.507 79.4411 186.086 80.422 185.736 81.473ZM252.437 71.8042C251.806 70.8934 251.106 70.0526 250.405 69.2118L251.246 68.5112C252.016 69.3519 252.717 70.2628 253.348 71.1736L252.437 71.8042ZM188.469 75.4475L187.488 74.887C188.048 73.9061 188.609 72.9252 189.309 72.0144L190.22 72.6449C189.59 73.5558 189.029 74.4666 188.469 75.4475ZM248.163 66.7596C247.392 65.9889 246.552 65.2182 245.711 64.5176L246.411 63.6768C247.322 64.3774 248.163 65.1481 248.934 65.9188L248.163 66.7596ZM192.182 69.9825L191.341 69.2819C192.042 68.3711 192.813 67.5303 193.583 66.7596L194.354 67.5303C193.653 68.301 192.883 69.0717 192.182 69.9825ZM242.978 62.5558C242.067 61.9252 241.087 61.3647 240.176 60.8042L240.736 59.8233C241.717 60.3838 242.698 61.0144 243.609 61.6449L242.978 62.5558ZM196.806 65.2182L196.106 64.3774C196.946 63.6067 197.857 62.9061 198.768 62.2755L199.399 63.1863C198.488 63.8169 197.647 64.4475 196.806 65.2182ZM237.233 59.3328C236.252 58.9125 235.201 58.4921 234.15 58.0717L234.501 57.0207C235.551 57.3711 236.602 57.7914 237.653 58.2819L237.233 59.3328ZM202.201 61.2946L201.641 60.3838C202.622 59.8233 203.602 59.2628 204.653 58.7723L205.144 59.7532C204.093 60.2437 203.112 60.7341 202.201 61.2946ZM230.997 57.0908C229.946 56.8105 228.825 56.6004 227.774 56.3902L227.985 55.3392C229.106 55.5494 230.227 55.7596 231.348 56.0398L230.997 57.0908ZM208.157 58.422L207.736 57.3711C208.787 56.9507 209.908 56.6004 210.959 56.3201L211.239 57.3711C210.258 57.7214 209.137 58.0717 208.157 58.422ZM224.411 56.0398C223.29 55.9698 222.169 55.8997 221.118 55.9698V54.8488C222.239 54.8488 223.43 54.8488 224.551 54.9188L224.411 56.0398ZM214.532 56.6003L214.322 55.5494C215.443 55.3392 216.564 55.1991 217.685 55.0589L217.825 56.18C216.704 56.25 215.583 56.4602 214.532 56.6003Z" fill="#5431D6"/>
<path d="M260.289 88.4093L259.238 88.5494C259.168 87.9889 259.098 87.4985 258.958 86.938L260.008 86.7278C260.079 87.2883 260.219 87.8488 260.289 88.4093Z" fill="#5431D6"/>
<path d="M186.996 93.1736L183.073 95.0653L178.939 93.5239L183.423 102.912L186.996 93.1736Z" fill="#5431D6"/>
<path d="M149.794 147.263C149.654 144.741 150.635 141.868 151.336 142.148C151.966 142.428 151.406 144.741 151.826 145.441C152.457 146.352 152.947 147.193 152.527 149.365L149.794 147.263Z" fill="#FCB47E"/>
<path d="M127.371 320.881L125.339 304.836H137.11L137.67 320.881H127.371Z" fill="#FCB47E"/>
<path d="M137.387 313.944C132.973 315.135 126.387 312.963 126.387 312.963L125.897 309.18L137.247 310.161L137.387 313.944Z" fill="#FCA377"/>
<path d="M71.3306 320.881L72.3815 304.836H84.1522L81.6299 320.881H71.3306Z" fill="#FCB47E"/>
<path d="M83.5864 308.269L82.8157 313.314C77.4208 313.664 73.5673 311.632 72.0259 310.651L72.3762 305.747L83.5864 308.269Z" fill="#FCA377"/>
<path d="M152.39 310.792C152.39 310.792 144.542 212.212 123.383 164.288L103.695 165.269C103.695 165.269 105.377 234.632 120.16 310.722C120.09 310.792 138.587 315.206 152.39 310.792Z" fill="#5431D6"/>
<path d="M96.5466 310.792C96.5466 310.792 77.1389 313.945 66.0688 306.378C66.0688 306.378 71.9542 199.53 89.9606 164.499H111.19C111.19 164.499 110.489 222.091 96.5466 310.792Z" fill="#5431D6"/>
<path d="M90.4576 113.772C90.9481 111.881 91.929 109.498 91.929 109.498C91.5786 111.25 91.5787 113.282 91.6487 114.333C96.2729 116.435 105.872 119.167 120.795 115.524C120.585 113.983 120.515 112.511 120.515 112.511C120.795 113.492 121.146 114.473 121.496 115.314C122.056 115.174 122.547 115.034 123.107 114.893C122.687 113.002 122.477 109.709 122.477 109.709C122.967 111.67 124.018 113.702 124.439 114.543C125.349 114.263 126.26 113.983 127.241 113.632C127.241 113.632 124.298 109.078 122.337 97.2373C120.725 87.4985 115.751 82.9443 108.184 83.1545C92.6296 83.5749 88.4258 112.511 88.4258 112.511C88.4258 112.511 89.1264 113.072 90.4576 113.772Z" fill="#213263"/>
<path d="M144.333 148.034C144.333 148.034 138.097 119.938 113.294 118.467C75.1096 116.225 63.3389 141.097 63.3389 141.097L144.333 148.034Z" fill="white"/>
<path d="M104.814 90.3712C109.018 87.989 116.445 87.8489 118.127 93.5941C119.668 98.8489 119.458 114.753 112.381 114.473C105.025 114.193 102.713 108.588 102.012 105.155C101.802 103.823 100.541 92.7533 104.814 90.3712Z" fill="#FCB47E"/>
<path d="M102.228 104.734C102.228 104.734 98.9346 105.715 98.304 102.772C97.7435 100.11 100.896 99.059 101.947 100.25L102.228 104.734Z" fill="#FCB47E"/>
<path d="M147.765 181.944C152.459 172.696 156.173 151.116 156.173 151.116C156.733 150.276 159.045 146.562 159.185 143.76C159.255 142.499 158.625 141.798 157.784 142.148C157.504 141.167 156.873 140.957 156.103 141.518C155.682 140.607 155.122 140.677 154.561 141.097C153.37 139.065 150.918 145.511 150.988 146.282C150.988 146.843 151.128 148.804 151.268 149.365C151.408 150.136 137.115 174.448 137.115 174.448L147.765 181.944Z" fill="#FCB47E"/>
<path d="M69.924 308.129L69.2935 308.059C69.3635 307.008 76.51 200.792 94.7967 166.32L95.3572 166.6C77.2107 201.002 69.9941 307.078 69.924 308.129Z" fill="white"/>
<path d="M85.4124 147.403L78.7563 185.658C96.2022 190.913 115.89 186.218 132.005 175.499L125.349 137.804L112.947 118.887C112.947 118.887 106.922 125.824 100.196 118.747L82.82 126.034L85.4124 147.403Z" fill="white"/>
<path d="M148.884 155.671L145.381 146.913C145.381 146.913 136.553 128.976 129.337 124.352L124.712 155.741L148.884 155.671Z" fill="white"/>
<path d="M107.686 224.893L107.056 224.823C108.037 214.104 108.877 203.664 109.508 193.715L110.138 193.785C109.578 203.734 108.737 214.174 107.686 224.893Z" fill="#47393D"/>
<path d="M124.78 311.002C124.64 310.371 111.538 247.664 107.824 215.995L108.455 215.925C112.168 247.524 125.27 310.231 125.34 310.862L124.78 311.002Z" fill="white"/>
<path d="M125.579 137.702L124.958 137.811L131.618 175.554L132.239 175.444L125.579 137.702Z" fill="#5431D6"/>
<path d="M99.4844 99.6895C99.4844 99.6895 100.675 98.9889 101.867 100.25C101.867 100.25 102.147 97.7277 102.988 96.1863L103.548 98.9889C104.389 99.129 107.121 99.5494 110.064 99.6195C110.905 99.6195 113.287 99.6195 113.287 99.6195L113.847 94.9953L114.828 99.5494C115.529 99.4793 116.089 99.4093 116.58 99.3392L117 96.6067L117.771 99.1991C118.542 99.059 119.032 98.9889 119.312 98.9188C119.453 96.9571 119.523 91.7023 116.019 88.6195C112.026 85.1163 103.548 87.008 101.586 91.2118C99.6245 95.4156 99.4844 99.6895 99.4844 99.6895Z" fill="#213263"/>
<path d="M107.405 121.97C110.908 121.97 113.01 118.887 113.01 118.887L112.099 108.798L102.501 103.053L100.048 118.747C100.048 118.747 103.061 121.97 107.405 121.97Z" fill="#FCB47E"/>
<path d="M112.025 114.964V114.333C107.611 114.123 104.808 110.83 103.267 108.027L102.707 108.307C104.388 111.25 107.401 114.753 112.025 114.964Z" fill="#213263"/>
<path d="M124.644 328.378L154.351 328.518C155.402 328.518 156.243 327.677 156.173 326.626C156.173 326.626 156.173 326.626 156.173 326.556C156.173 326.346 156.103 326.066 156.103 325.855C156.033 325.085 155.822 324.244 155.402 323.753C154.001 321.862 151.268 321.021 146.434 319.059C143.351 317.798 140.759 316.187 139.638 315.416C139.287 315.136 138.797 315.206 138.447 315.556C132.561 321.301 128.918 320.04 127.867 317.658C127.026 315.836 125.905 316.187 125.555 316.747C124.574 318.429 124.014 323.263 123.803 325.645C123.803 325.925 123.733 326.136 123.733 326.346C123.663 326.766 123.663 327.046 123.663 327.046C123.523 327.817 124.014 328.378 124.644 328.378Z" fill="#213263"/>
<path d="M144.687 322.212C146.789 321.231 146.508 318.989 146.508 318.989L146.018 319.059C146.018 319.129 146.228 320.881 144.477 321.722L144.687 322.212Z" fill="white"/>
<path d="M147.348 323.123C149.31 322.002 149.099 320.11 149.099 320.04L148.609 320.11C148.609 320.18 148.749 321.722 147.138 322.632L147.348 323.123Z" fill="white"/>
<path d="M130.526 321.722C132.487 321.722 134.309 320.811 134.379 320.811L134.169 320.32C134.099 320.32 129.615 322.562 127.303 319.69L126.882 320.04C127.863 321.371 129.264 321.722 130.526 321.722Z" fill="white"/>
<path d="M127.348 326.137L127.347 326.628L144.652 326.691L144.654 326.201L127.348 326.137Z" fill="white"/>
<path d="M146.886 326.169L146.884 326.66L150.948 326.675L150.95 326.184L146.886 326.169Z" fill="white"/>
<path d="M69.0831 328.378L98.7901 328.518C99.8411 328.518 100.682 327.677 100.612 326.626C100.612 326.626 100.612 326.626 100.612 326.556C100.612 326.346 100.542 326.066 100.542 325.855C100.472 325.085 100.261 324.244 99.8411 323.753C98.4398 321.862 95.7073 321.021 90.8729 319.059C87.7901 317.798 85.1978 316.187 84.0767 315.416C83.7264 315.136 83.236 315.206 82.8857 315.556C77.0003 321.301 73.357 320.04 72.306 317.658C71.4653 315.836 70.3442 316.187 69.9939 316.747C69.013 318.429 68.4525 323.263 68.2423 325.645C68.2423 325.925 68.1723 326.136 68.1723 326.346C68.1022 326.766 68.1022 327.046 68.1022 327.046C67.9621 327.817 68.4525 328.378 69.0831 328.378Z" fill="#213263"/>
<path d="M89.1277 322.212C91.2296 321.231 90.9493 318.989 90.9493 318.989L90.4589 319.059C90.4589 319.129 90.6691 320.881 88.9175 321.722L89.1277 322.212Z" fill="white"/>
<path d="M91.7151 323.123C93.6769 322.002 93.4667 320.11 93.4667 320.04L92.9762 320.11C92.9762 320.18 93.1163 321.722 91.5049 322.633L91.7151 323.123Z" fill="white"/>
<path d="M74.97 321.722C76.9318 321.722 78.7534 320.811 78.8235 320.811L78.6133 320.32C78.5432 320.32 74.0591 322.562 71.747 319.69L71.3267 320.04C72.2375 321.371 73.6388 321.722 74.97 321.722Z" fill="white"/>
<path d="M71.7235 326.079L71.7217 326.569L89.0274 326.633L89.0292 326.142L71.7235 326.079Z" fill="white"/>
<path d="M91.2611 326.181L91.2593 326.671L95.323 326.686L95.3248 326.196L91.2611 326.181Z" fill="white"/>
<path d="M86.6668 228.537L185.877 212.842C187.909 212.492 189.31 210.6 189.03 208.569L178.941 144.741C178.59 142.709 176.699 141.307 174.667 141.588L75.4566 157.282C73.4248 157.632 72.0235 159.524 72.3037 161.556L82.3929 225.384C82.7432 227.486 84.635 228.887 86.6668 228.537Z" fill="#718BFC"/>
<path d="M106.273 202.613L88.407 205.416C87.8465 205.486 87.356 205.135 87.2159 204.575L86.6554 201.142C86.5853 200.581 86.9356 200.091 87.4961 199.951L105.362 197.148C105.923 197.078 106.413 197.428 106.553 197.989L107.114 201.422C107.254 201.983 106.834 202.543 106.273 202.613Z" fill="white"/>
<path d="M129.886 198.9L112.019 201.702C111.459 201.772 110.968 201.422 110.828 200.862L110.268 197.429C110.198 196.868 110.548 196.378 111.108 196.237L128.975 193.435C129.535 193.365 130.026 193.715 130.166 194.276L130.726 197.709C130.866 198.269 130.446 198.83 129.886 198.9Z" fill="white"/>
<path d="M153.51 195.186L135.644 197.989C135.083 198.059 134.593 197.709 134.453 197.148L133.892 193.715C133.822 193.155 134.172 192.664 134.733 192.524L152.599 189.721C153.16 189.651 153.65 190.002 153.79 190.562L154.351 193.995C154.491 194.556 154.071 195.116 153.51 195.186Z" fill="white"/>
<path d="M177.118 191.473L159.252 194.276C158.692 194.346 158.201 193.995 158.061 193.435L157.501 190.002C157.431 189.441 157.781 188.951 158.341 188.811L176.208 186.008C176.768 185.938 177.259 186.288 177.399 186.849L177.959 190.282C178.029 190.842 177.679 191.333 177.118 191.473Z" fill="white"/>
<path d="M178.584 202.123L155.113 205.836C154.412 205.976 153.782 205.486 153.712 204.785L153.221 201.772C153.081 201.072 153.572 200.441 154.272 200.371L177.744 196.658C178.444 196.518 179.075 197.008 179.145 197.709L179.635 200.721C179.705 201.352 179.285 202.053 178.584 202.123Z" fill="white"/>
<path d="M87.5772 176.9L86.4562 169.753C86.1759 168.212 87.2969 166.741 88.8383 166.46L102.711 164.288C104.252 164.008 105.724 165.129 106.004 166.67L107.125 173.817C107.405 175.358 106.284 176.83 104.743 177.11L90.8702 179.282C89.2587 179.562 87.7874 178.511 87.5772 176.9ZM88.9084 167.231C87.7874 167.441 87.0167 168.492 87.1568 169.613L88.2778 176.76C88.488 177.881 89.539 178.651 90.66 178.511L104.533 176.339C105.654 176.129 106.424 175.078 106.284 173.957L105.163 166.811C104.953 165.69 103.902 164.919 102.781 165.059L88.9084 167.231Z" fill="white"/>
<path d="M180.061 149.403L179.369 149.512L181.784 164.807L182.476 164.698L180.061 149.403Z" fill="#5431D6"/>
<path d="M129.688 222.091L129.548 221.39L185.809 212.492C186.72 212.352 187.491 211.862 188.051 211.161C188.612 210.39 188.822 209.55 188.682 208.639L183.777 177.671L184.478 177.53L189.382 208.499C189.522 209.55 189.312 210.671 188.612 211.581C187.981 212.492 187 213.053 185.949 213.193L129.688 222.091Z" fill="#5431D6"/>
<path d="M119.904 222.968L99.0742 226.26L99.1836 226.952L120.013 223.66L119.904 222.968Z" fill="#5431D6"/>
<path d="M158.416 142.078C158.837 142.218 159.047 142.709 158.907 143.129C158.556 143.9 157.996 144.67 157.576 144.67C156.875 144.741 157.225 143.479 157.505 142.569C157.576 142.218 157.996 142.008 158.416 142.078Z" fill="#FCB47E"/>
<path d="M157.223 142.078C157.503 142.288 157.643 142.639 157.503 142.989C157.223 143.83 156.522 145.021 155.822 144.881C155.401 144.811 155.682 143.55 155.962 142.499C156.102 142.008 156.733 141.798 157.223 142.078Z" fill="#FCB47E"/>
<path d="M155.409 141.658C155.829 141.728 156.109 142.148 155.969 142.569C155.829 143.409 155.339 144.6 154.428 144.881C153.657 145.161 154.077 143.339 154.358 142.218C154.428 141.798 154.848 141.588 155.268 141.658H155.409Z" fill="#FCB47E"/>
<path d="M154.007 140.677C154.778 140.817 154.848 141.518 154.638 142.008C154.287 142.919 153.657 143.9 153.096 144.04C152.466 144.18 152.816 142.709 153.026 141.588C153.166 141.097 153.517 140.607 154.007 140.677Z" fill="#FCB47E"/>
<path d="M78.4026 180.683C78.4026 180.683 66.772 163.658 84.7784 151.537L95.0778 122.6V122.39C83.0268 122.32 70.065 129.677 63.0586 140.046C51.358 157.352 52.479 178.021 72.1669 188.671L78.4026 180.683Z" fill="white"/>
<path d="M84.2834 155.18L83.6528 155.11L85.4044 146.212L86.035 146.282L84.2834 155.18Z" fill="#5431D6"/>
<path d="M76.436 188.951C67.9583 184.327 62.4232 177.601 60.4615 169.473C58.2194 160.155 60.6016 149.645 67.2576 139.906L67.7481 140.257C61.2322 149.855 58.85 160.225 61.092 169.333C63.0538 177.32 68.4487 183.906 76.7162 188.39L76.436 188.951Z" fill="#5431D6"/>
<path d="M77.3501 182.085C77.9106 182.575 79.8023 184.116 80.5029 184.257C81.2036 184.397 84.987 184.537 84.9169 185.308C84.7768 186.148 82.1845 185.518 82.2545 186.148C82.2545 186.569 87.3692 187.97 86.8087 188.811C86.4583 189.371 83.5157 188.18 83.4456 188.53C83.3755 188.881 87.3692 189.651 86.8787 190.562C86.3883 191.473 82.6048 189.161 82.3946 189.581C82.3246 189.792 86.9488 191.473 86.5284 192.174C86.038 193.155 82.4647 190.772 82.1845 191.193C82.0443 191.403 83.4456 192.034 84.2163 192.454C84.6367 192.734 84.4966 193.085 84.1462 193.085C80.573 192.944 76.0889 188.601 75.5284 188.39C74.6876 188.11 73.8469 187.76 73.0762 187.409L77.3501 182.085Z" fill="#FCB47E"/>
<path d="M77.4218 159.524L76.8613 159.174C78.5429 156.231 81.1352 153.569 84.5683 151.327L84.9187 151.887C81.6257 154.129 79.1034 156.651 77.4218 159.524Z" fill="#5431D6"/>
<path d="M455.77 124.072C455.77 124.282 455.77 124.562 455.77 124.772C456.61 154.55 453.598 177.811 448.413 195.887L433.069 205.416L445.68 203.454L446.031 203.384C439.164 223.282 429.706 236.104 420.738 244.371C415.203 249.556 409.808 252.919 405.394 255.091C405.114 255.231 404.833 255.371 404.553 255.511C403.852 255.862 403.152 256.142 402.521 256.422L394.043 256.843C393.903 256.422 393.833 256.072 393.693 255.651C393.623 255.371 393.553 255.161 393.483 254.881C393.413 254.53 393.273 254.25 393.203 253.9C383.254 215.435 395.795 184.747 412.26 162.887C412.33 162.817 412.33 162.747 412.4 162.677C418.145 155.11 424.311 148.594 430.126 143.129L433.84 152.658L434.4 139.346C444.559 130.518 453.037 125.403 455.139 124.212C455.629 124.142 455.77 124.072 455.77 124.072Z" fill="#E1E2FF"/>
<path d="M456.043 124.212L455.763 124.773L438.457 161.066L438.107 161.766L433.413 171.645L433.272 171.995L418.139 203.524V203.594L393.546 255.021L393.196 255.792L392.635 257.053H391.865L392.495 255.862L393.336 254.04L417.578 203.314L417.999 202.333L455.272 124.352L455.483 123.932L456.043 124.212Z" fill="white"/>
<path d="M454.701 157.006L433.169 171.816L433.487 172.278L455.018 157.468L454.701 157.006Z" fill="white"/>
<path d="M454.774 149.847L437.918 161.441L438.236 161.903L455.091 150.309L454.774 149.847Z" fill="white"/>
<path d="M412.91 162.728L412.354 162.8L417.643 203.586L418.199 203.514L412.91 162.728Z" fill="white"/>
<path d="M390.75 263.569C390.75 263.569 410.788 273.027 439.234 256.072L429.985 251.658L445.049 252.288C456.189 244.511 468.38 232.671 481.062 214.804L477.558 213.123L482.113 213.333C484.215 210.25 486.386 207.027 488.558 203.664C488.558 203.664 480.221 202.894 468.24 204.295L462.074 212.632L463.826 204.925C439.374 208.569 403.781 221.39 390.75 263.569Z" fill="#718BFC"/>
<path d="M488.41 203.34L389.08 261.392L389.398 261.936L488.728 203.885L488.41 203.34Z" fill="white"/>
<path d="M462.682 218.684L462.625 219.241L476.842 220.706L476.9 220.149L462.682 218.684Z" fill="white"/>
<path d="M455.882 222.56L455.783 223.112L472.338 226.061L472.436 225.509L455.882 222.56Z" fill="white"/>
<path d="M414.132 226.996L413.642 226.435C421.979 219.008 432.138 213.263 443.839 209.27L444.049 209.97C432.419 213.964 422.329 219.709 414.132 226.996Z" fill="#5431D6"/>
<path d="M215.175 179.632C215.175 179.842 215.245 180.123 215.245 180.333C219.379 209.83 226.245 232.25 234.373 249.206L251.118 256.072L238.366 256.282H238.016C248.105 274.779 259.596 285.849 269.755 292.505C276.131 296.639 281.946 299.091 286.64 300.492C286.921 300.562 287.271 300.702 287.551 300.772C288.322 300.983 289.022 301.193 289.723 301.333L298.131 300.352C298.201 299.932 298.201 299.511 298.271 299.161C298.271 298.881 298.341 298.67 298.341 298.39C298.411 298.04 298.411 297.69 298.411 297.409C301.844 257.823 284.328 229.658 264.43 210.881C264.36 210.811 264.29 210.741 264.22 210.67C257.284 204.155 250.137 198.76 243.481 194.346L241.379 204.365L238.647 191.333C227.156 184.326 217.908 180.683 215.666 179.842C215.385 179.632 215.175 179.632 215.175 179.632Z" fill="#E1E2FF"/>
<path d="M214.954 179.773L215.304 180.333L238.496 213.263L238.846 213.824L245.222 222.792L245.432 223.072L265.54 251.658V251.728L298.4 298.32L298.89 299.021L299.661 300.142L300.432 300.072L299.591 298.951L298.47 297.34L266.101 251.308L265.47 250.467L215.725 179.773L215.445 179.422L214.954 179.773Z" fill="white"/>
<path d="M221.817 211.942L221.581 212.45L245.284 223.455L245.52 222.947L221.817 211.942Z" fill="white"/>
<path d="M220.433 204.892L220.197 205.4L238.753 214.015L238.989 213.507L220.433 204.892Z" fill="white"/>
<path d="M264.527 210.595L263.967 210.617L265.566 251.712L266.126 251.69L264.527 210.595Z" fill="white"/>
<path d="M302.602 306.237C302.602 306.237 284.455 318.919 253.557 306.938L261.965 301.053L247.181 304.136C234.92 298.32 220.907 288.651 205.423 273.237L208.646 270.995L204.162 271.906C201.57 269.244 198.907 266.441 196.175 263.429C196.175 263.429 204.302 261.327 216.283 260.696L223.71 267.843L220.697 260.556C245.5 260.136 282.704 266.862 302.602 306.237Z" fill="#718BFC"/>
<path d="M196.295 263.196L196.072 263.786L303.696 304.431L303.919 303.841L196.295 263.196Z" fill="white"/>
<path d="M224.155 274.06L210.382 277.881L210.532 278.421L224.305 274.6L224.155 274.06Z" fill="white"/>
<path d="M231.477 276.748L215.647 282.422L215.836 282.949L231.666 277.276L231.477 276.748Z" fill="white"/>
<path d="M273.473 274.148L273.894 273.518C264.435 267.633 253.435 263.569 241.314 261.607L241.174 262.378C253.225 264.34 264.085 268.333 273.473 274.148Z" fill="#5431D6"/>
<path d="M306.598 324.594H286.35C279.764 324.594 274.369 319.48 274.089 312.964L262.668 113.632C262.388 106.766 267.993 101.021 274.929 101.021H298.261L306.598 324.594Z" fill="#5431D6"/>
<path d="M406.652 113.632L400.697 312.964C400.417 319.48 395.022 324.594 388.436 324.594H298.824C292.238 324.594 284.461 319.48 284.181 312.964L278.225 113.632C277.945 106.766 283.55 101.021 290.487 101.021H394.391C401.397 101.021 407.003 106.766 406.652 113.632Z" fill="#ECE6FF"/>
<path d="M302.956 114.823H298.191C297.561 114.823 296.93 115.104 296.51 115.524C296.089 115.944 295.809 116.575 295.809 117.206C295.809 118.537 296.86 119.588 298.191 119.588H302.956H381.287H386.051C386.682 119.588 387.312 119.307 387.733 118.887C388.153 118.467 388.433 117.836 388.433 117.206C388.433 115.874 387.382 114.823 386.051 114.823H381.287H302.956Z" fill="#5431D6"/>
<path d="M385.069 193.225H299.802C298.19 193.225 296.859 191.964 296.789 190.282L294.687 134.792C294.617 133.04 296.018 131.639 297.7 131.639H387.241C388.993 131.639 390.324 133.04 390.254 134.792L388.152 190.282C388.082 191.964 386.751 193.225 385.069 193.225Z" fill="white"/>
<path d="M321.102 230.709H307.93C305.618 230.709 303.726 228.817 303.726 226.505V220.479C303.726 218.167 305.618 216.276 307.93 216.276H321.102C323.414 216.276 325.306 218.167 325.306 220.479V226.505C325.236 228.817 323.414 230.709 321.102 230.709Z" fill="#E1E2FF"/>
<path d="M321.102 254.18H307.93C305.618 254.18 303.726 252.288 303.726 249.976V243.951C303.726 241.639 305.618 239.747 307.93 239.747H321.102C323.414 239.747 325.306 241.639 325.306 243.951V249.976C325.236 252.288 323.414 254.18 321.102 254.18Z" fill="#E1E2FF"/>
<path d="M321.102 277.652H307.93C305.618 277.652 303.726 275.76 303.726 273.448V267.422C303.726 265.11 305.618 263.218 307.93 263.218H321.102C323.414 263.218 325.306 265.11 325.306 267.422V273.448C325.236 275.83 323.414 277.652 321.102 277.652Z" fill="#E1E2FF"/>
<path d="M321.102 301.123H307.93C305.618 301.123 303.726 299.231 303.726 296.919V290.894C303.726 288.581 305.618 286.69 307.93 286.69H321.102C323.414 286.69 325.306 288.581 325.306 290.894V296.919C325.236 299.301 323.414 301.123 321.102 301.123Z" fill="#5431D6"/>
<path d="M348.426 230.709H335.254C332.942 230.709 331.05 228.817 331.05 226.505V220.479C331.05 218.167 332.942 216.276 335.254 216.276H348.426C350.738 216.276 352.629 218.167 352.629 220.479V226.505C352.629 228.817 350.808 230.709 348.426 230.709Z" fill="#E1E2FF"/>
<path d="M348.426 254.18H335.254C332.942 254.18 331.05 252.288 331.05 249.976V243.951C331.05 241.639 332.942 239.747 335.254 239.747H348.426C350.738 239.747 352.629 241.639 352.629 243.951V249.976C352.629 252.288 350.808 254.18 348.426 254.18Z" fill="#E1E2FF"/>
<path d="M348.426 277.652H335.254C332.942 277.652 331.05 275.76 331.05 273.448V267.422C331.05 265.11 332.942 263.218 335.254 263.218H348.426C350.738 263.218 352.629 265.11 352.629 267.422V273.448C352.629 275.83 350.808 277.652 348.426 277.652Z" fill="#E1E2FF"/>
<path d="M348.426 301.123H335.254C332.942 301.123 331.05 299.231 331.05 296.919V290.894C331.05 288.581 332.942 286.69 335.254 286.69H348.426C350.738 286.69 352.629 288.581 352.629 290.894V296.919C352.629 299.301 350.808 301.123 348.426 301.123Z" fill="#E1E2FF"/>
<path d="M375.822 230.709H362.65C360.338 230.709 358.446 228.817 358.446 226.505V220.479C358.446 218.167 360.338 216.276 362.65 216.276H375.822C378.134 216.276 380.025 218.167 380.025 220.479V226.505C380.025 228.817 378.204 230.709 375.822 230.709Z" fill="#E1E2FF"/>
<path d="M375.822 254.18H362.65C360.338 254.18 358.446 252.288 358.446 249.976V243.951C358.446 241.639 360.338 239.747 362.65 239.747H375.822C378.134 239.747 380.025 241.639 380.025 243.951V249.976C380.025 252.288 378.204 254.18 375.822 254.18Z" fill="#E1E2FF"/>
<path d="M375.822 277.652H362.65C360.338 277.652 358.446 275.76 358.446 273.448V267.422C358.446 265.11 360.338 263.218 362.65 263.218H375.822C378.134 263.218 380.025 265.11 380.025 267.422V273.448C380.025 275.83 378.204 277.652 375.822 277.652Z" fill="#E1E2FF"/>
<path d="M375.822 301.123H362.65C360.338 301.123 358.446 299.231 358.446 296.919V290.894C358.446 288.581 360.338 286.69 362.65 286.69H375.822C378.134 286.69 380.025 288.581 380.025 290.894V296.919C380.025 299.301 378.204 301.123 375.822 301.123Z" fill="#5431D6"/>
<path d="M324.96 230.709H311.788C309.476 230.709 307.584 228.817 307.584 226.505V220.479C307.584 218.167 309.476 216.276 311.788 216.276H324.96C327.272 216.276 329.164 218.167 329.164 220.479V226.505C329.164 228.817 327.272 230.709 324.96 230.709Z" fill="#718BFC"/>
<path d="M324.96 254.18H311.788C309.476 254.18 307.584 252.288 307.584 249.976V243.951C307.584 241.639 309.476 239.747 311.788 239.747H324.96C327.272 239.747 329.164 241.639 329.164 243.951V249.976C329.164 252.288 327.272 254.18 324.96 254.18Z" fill="#718BFC"/>
<path d="M324.96 277.652H311.788C309.476 277.652 307.584 275.76 307.584 273.448V267.422C307.584 265.11 309.476 263.218 311.788 263.218H324.96C327.272 263.218 329.164 265.11 329.164 267.422V273.448C329.164 275.83 327.272 277.652 324.96 277.652Z" fill="#718BFC"/>
<path d="M324.96 301.123H311.788C309.476 301.123 307.584 299.231 307.584 296.919V290.894C307.584 288.581 309.476 286.69 311.788 286.69H324.96C327.272 286.69 329.164 288.581 329.164 290.894V296.919C329.164 299.301 327.272 301.123 324.96 301.123Z" fill="#5431D6"/>
<path d="M352.356 230.709H339.184C336.872 230.709 334.98 228.817 334.98 226.505V220.479C334.98 218.167 336.872 216.276 339.184 216.276H352.356C354.668 216.276 356.56 218.167 356.56 220.479V226.505C356.56 228.817 354.668 230.709 352.356 230.709Z" fill="#718BFC"/>
<path d="M352.356 254.18H339.184C336.872 254.18 334.98 252.288 334.98 249.976V243.951C334.98 241.639 336.872 239.747 339.184 239.747H352.356C354.668 239.747 356.56 241.639 356.56 243.951V249.976C356.56 252.288 354.668 254.18 352.356 254.18Z" fill="#718BFC"/>
<path d="M352.356 277.652H339.184C336.872 277.652 334.98 275.76 334.98 273.448V267.422C334.98 265.11 336.872 263.218 339.184 263.218H352.356C354.668 263.218 356.56 265.11 356.56 267.422V273.448C356.56 275.83 354.668 277.652 352.356 277.652Z" fill="#718BFC"/>
<path d="M352.356 301.123H339.184C336.872 301.123 334.98 299.231 334.98 296.919V290.894C334.98 288.581 336.872 286.69 339.184 286.69H352.356C354.668 286.69 356.56 288.581 356.56 290.894V296.919C356.56 299.301 354.668 301.123 352.356 301.123Z" fill="#718BFC"/>
<path d="M379.752 230.709H366.58C364.268 230.709 362.376 228.817 362.376 226.505V220.479C362.376 218.167 364.268 216.276 366.58 216.276H379.752C382.064 216.276 383.956 218.167 383.956 220.479V226.505C383.956 228.817 382.064 230.709 379.752 230.709Z" fill="#718BFC"/>
<path d="M379.752 254.18H366.58C364.268 254.18 362.376 252.288 362.376 249.976V243.951C362.376 241.639 364.268 239.747 366.58 239.747H379.752C382.064 239.747 383.956 241.639 383.956 243.951V249.976C383.956 252.288 382.064 254.18 379.752 254.18Z" fill="#718BFC"/>
<path d="M379.752 277.652H366.58C364.268 277.652 362.376 275.76 362.376 273.448V267.422C362.376 265.11 364.268 263.218 366.58 263.218H379.752C382.064 263.218 383.956 265.11 383.956 267.422V273.448C383.956 275.83 382.064 277.652 379.752 277.652Z" fill="#718BFC"/>
<path d="M379.752 301.123H366.58C364.268 301.123 362.376 299.231 362.376 296.919V290.894C362.376 288.581 364.268 286.69 366.58 286.69H379.752C382.064 286.69 383.956 288.581 383.956 290.894V296.919C383.956 299.301 382.064 301.123 379.752 301.123Z" fill="#5431D6"/>
<path d="M324.958 231.129H311.786C309.263 231.129 307.231 229.097 307.231 226.575V220.55C307.231 218.027 309.263 215.995 311.786 215.995H324.958C327.48 215.995 329.512 218.027 329.512 220.55V226.575C329.582 229.027 327.48 231.129 324.958 231.129ZM311.786 216.696C309.684 216.696 308.002 218.378 308.002 220.479V226.505C308.002 228.607 309.684 230.288 311.786 230.288H324.958C327.059 230.288 328.741 228.607 328.741 226.505V220.479C328.741 218.378 327.059 216.696 324.958 216.696H311.786Z" fill="white"/>
<path d="M324.958 254.6H311.786C309.263 254.6 307.231 252.569 307.231 250.046V244.021C307.231 241.499 309.263 239.467 311.786 239.467H324.958C327.48 239.467 329.512 241.499 329.512 244.021V250.046C329.582 252.499 327.48 254.6 324.958 254.6ZM311.786 240.167C309.684 240.167 308.002 241.849 308.002 243.951V249.976C308.002 252.078 309.684 253.76 311.786 253.76H324.958C327.059 253.76 328.741 252.078 328.741 249.976V243.951C328.741 241.849 327.059 240.167 324.958 240.167H311.786Z" fill="white"/>
<path d="M324.958 278.072H311.786C309.263 278.072 307.231 276.04 307.231 273.518V267.492C307.231 264.97 309.263 262.938 311.786 262.938H324.958C327.48 262.938 329.512 264.97 329.512 267.492V273.518C329.582 276.04 327.48 278.072 324.958 278.072ZM311.786 263.709C309.684 263.709 308.002 265.39 308.002 267.492V273.518C308.002 275.62 309.684 277.301 311.786 277.301H324.958C327.059 277.301 328.741 275.62 328.741 273.518V267.492C328.741 265.39 327.059 263.709 324.958 263.709H311.786Z" fill="white"/>
<path d="M324.958 301.543H311.786C309.263 301.543 307.231 299.511 307.231 296.989V290.964C307.231 288.441 309.263 286.409 311.786 286.409H324.958C327.48 286.409 329.512 288.441 329.512 290.964V296.989C329.582 299.511 327.48 301.543 324.958 301.543ZM311.786 287.18C309.684 287.18 308.002 288.862 308.002 290.964V296.989C308.002 299.091 309.684 300.772 311.786 300.772H324.958C327.059 300.772 328.741 299.091 328.741 296.989V290.964C328.741 288.862 327.059 287.18 324.958 287.18H311.786Z" fill="white"/>
<path d="M352.353 231.129H339.181C336.658 231.129 334.626 229.097 334.626 226.575V220.55C334.626 218.027 336.658 215.995 339.181 215.995H352.353C354.875 215.995 356.907 218.027 356.907 220.55V226.575C356.977 229.027 354.875 231.129 352.353 231.129ZM339.181 216.696C337.079 216.696 335.397 218.378 335.397 220.479V226.505C335.397 228.607 337.079 230.288 339.181 230.288H352.353C354.454 230.288 356.136 228.607 356.136 226.505V220.479C356.136 218.378 354.454 216.696 352.353 216.696H339.181Z" fill="white"/>
<path d="M352.353 254.6H339.181C336.659 254.6 334.627 252.569 334.627 250.046V244.021C334.627 241.499 336.659 239.467 339.181 239.467H352.353C354.875 239.467 356.907 241.499 356.907 244.021V250.046C356.977 252.499 354.875 254.6 352.353 254.6ZM339.181 240.167C337.079 240.167 335.398 241.849 335.398 243.951V249.976C335.398 252.078 337.079 253.76 339.181 253.76H352.353C354.455 253.76 356.137 252.078 356.137 249.976V243.951C356.137 241.849 354.455 240.167 352.353 240.167H339.181Z" fill="white"/>
<path d="M352.353 278.072H339.181C336.659 278.072 334.627 276.04 334.627 273.518V267.492C334.627 264.97 336.659 262.938 339.181 262.938H352.353C354.875 262.938 356.907 264.97 356.907 267.492V273.518C356.977 276.04 354.875 278.072 352.353 278.072ZM339.181 263.709C337.079 263.709 335.398 265.39 335.398 267.492V273.518C335.398 275.62 337.079 277.301 339.181 277.301H352.353C354.455 277.301 356.137 275.62 356.137 273.518V267.492C356.137 265.39 354.455 263.709 352.353 263.709H339.181Z" fill="white"/>
<path d="M352.353 301.543H339.181C336.659 301.543 334.627 299.511 334.627 296.989V290.964C334.627 288.441 336.659 286.409 339.181 286.409H352.353C354.875 286.409 356.907 288.441 356.907 290.964V296.989C356.977 299.511 354.875 301.543 352.353 301.543ZM339.181 287.18C337.079 287.18 335.398 288.862 335.398 290.964V296.989C335.398 299.091 337.079 300.772 339.181 300.772H352.353C354.455 300.772 356.137 299.091 356.137 296.989V290.964C356.137 288.862 354.455 287.18 352.353 287.18H339.181Z" fill="white"/>
<path d="M379.753 231.129H366.581C364.059 231.129 362.027 229.097 362.027 226.575V220.55C362.027 218.027 364.059 215.995 366.581 215.995H379.753C382.275 215.995 384.307 218.027 384.307 220.55V226.575C384.377 229.027 382.275 231.129 379.753 231.129ZM366.581 216.696C364.479 216.696 362.798 218.378 362.798 220.479V226.505C362.798 228.607 364.479 230.288 366.581 230.288H379.753C381.855 230.288 383.536 228.607 383.536 226.505V220.479C383.536 218.378 381.855 216.696 379.753 216.696H366.581Z" fill="white"/>
<path d="M379.753 254.6H366.581C364.059 254.6 362.027 252.569 362.027 250.046V244.021C362.027 241.499 364.059 239.467 366.581 239.467H379.753C382.275 239.467 384.307 241.499 384.307 244.021V250.046C384.377 252.499 382.275 254.6 379.753 254.6ZM366.581 240.167C364.479 240.167 362.798 241.849 362.798 243.951V249.976C362.798 252.078 364.479 253.76 366.581 253.76H379.753C381.855 253.76 383.536 252.078 383.536 249.976V243.951C383.536 241.849 381.855 240.167 379.753 240.167H366.581Z" fill="white"/>
<path d="M379.753 278.072H366.581C364.059 278.072 362.027 276.04 362.027 273.518V267.492C362.027 264.97 364.059 262.938 366.581 262.938H379.753C382.275 262.938 384.307 264.97 384.307 267.492V273.518C384.377 276.04 382.275 278.072 379.753 278.072ZM366.581 263.709C364.479 263.709 362.798 265.39 362.798 267.492V273.518C362.798 275.62 364.479 277.301 366.581 277.301H379.753C381.855 277.301 383.536 275.62 383.536 273.518V267.492C383.536 265.39 381.855 263.709 379.753 263.709H366.581Z" fill="white"/>
<path d="M379.753 301.543H366.581C364.059 301.543 362.027 299.511 362.027 296.989V290.964C362.027 288.441 364.059 286.409 366.581 286.409H379.753C382.275 286.409 384.307 288.441 384.307 290.964V296.989C384.377 299.511 382.275 301.543 379.753 301.543ZM366.581 287.18C364.479 287.18 362.798 288.862 362.798 290.964V296.989C362.798 299.091 364.479 300.772 366.581 300.772H379.753C381.855 300.772 383.536 299.091 383.536 296.989V290.964C383.536 288.862 381.855 287.18 379.753 287.18H366.581Z" fill="white"/>
<path d="M377.503 325.155H298.822C292.026 325.155 283.968 319.83 283.688 313.034L277.733 113.702C277.593 110.269 278.854 106.976 281.236 104.454C283.688 101.932 286.981 100.53 290.554 100.53H394.459C398.032 100.53 401.325 101.932 403.777 104.454C406.16 106.976 407.421 110.199 407.281 113.702L406.93 124.562H405.879L406.23 113.702C406.37 110.55 405.249 107.537 403.007 105.225C400.765 102.913 397.752 101.581 394.459 101.581H290.484C287.191 101.581 284.179 102.843 281.937 105.225C279.765 107.537 278.573 110.55 278.714 113.702L284.669 313.034C284.949 319.269 292.446 324.174 298.752 324.174H377.433V325.155H377.503Z" fill="#5431D6"/>
<path d="M404.915 155.117L401.445 271.026L402.496 271.058L405.965 155.149L404.915 155.117Z" fill="#5431D6"/>
<path d="M381.286 76.4285V119.588H303.024V76.4285C302.814 73.4858 301.483 70.8234 299.451 68.8616C297.419 66.9699 294.617 65.7788 291.604 65.7788H369.795C372.808 65.7788 375.61 66.9699 377.642 68.8616C379.744 70.8234 381.075 73.4858 381.286 76.4285Z" fill="white"/>
<path d="M303.026 76.4285H280.115C280.325 73.4858 281.656 70.8234 283.758 68.8616C285.79 66.9699 288.592 65.7788 291.605 65.7788C294.618 65.7788 297.42 66.9699 299.452 68.8616C301.484 70.8234 302.885 73.4858 303.026 76.4285Z" fill="#5431D6"/>
<path d="M381.637 119.938H302.675V76.4285C302.535 73.696 301.274 71.1036 299.172 69.1418C297.07 67.1801 294.408 66.1291 291.535 66.1291V65.4285H369.726C372.739 65.4285 375.612 66.5495 377.854 68.5813C380.096 70.6132 381.357 73.4157 381.567 76.3584V119.938H381.637ZM303.376 119.237H380.866V76.4285C380.656 73.6259 379.465 71.0336 377.363 69.1418C375.261 67.1801 372.599 66.1291 369.726 66.1291H295.599C297.07 66.6896 298.471 67.5304 299.663 68.5813C301.905 70.6132 303.166 73.4157 303.376 76.3584V119.237Z" fill="#5431D6"/>
<path d="M386.049 119.938H298.19C296.648 119.938 295.457 118.677 295.457 117.206C295.457 116.505 295.737 115.804 296.298 115.244C296.788 114.753 297.489 114.403 298.26 114.403H303.024V115.104H298.26C297.699 115.104 297.209 115.314 296.788 115.734C296.368 116.155 296.158 116.645 296.158 117.206C296.158 118.327 297.068 119.237 298.19 119.237H386.049C386.61 119.237 387.1 119.027 387.521 118.607C387.941 118.257 388.151 117.696 388.151 117.136C388.151 116.015 387.241 115.104 386.12 115.104H381.355V114.403H386.12C387.661 114.403 388.852 115.664 388.852 117.136C388.852 117.906 388.572 118.537 388.011 119.097C387.521 119.658 386.82 119.938 386.049 119.938Z" fill="#5431D6"/>
<path d="M389.41 327.677C389.41 329.639 403.633 331.18 421.219 331.18C438.805 331.18 453.028 329.569 453.028 327.677C453.028 327.607 453.028 327.607 453.028 327.537V318.008H389.48V327.467C389.41 327.537 389.41 327.607 389.41 327.677Z" fill="#F49B51"/>
<path d="M421.219 321.652C438.787 321.652 453.028 320.083 453.028 318.148C453.028 316.214 438.787 314.645 421.219 314.645C403.652 314.645 389.41 316.214 389.41 318.148C389.41 320.083 403.652 321.652 421.219 321.652Z" fill="#FCC659"/>
<path d="M381.916 316.187C381.916 318.148 396.138 319.69 413.724 319.69C431.31 319.69 445.533 318.078 445.533 316.187C445.533 316.116 445.533 316.116 445.533 316.046V306.518H381.986V316.046C381.916 316.116 381.916 316.116 381.916 316.187Z" fill="#F49B51"/>
<path d="M413.724 310.161C431.292 310.161 445.533 308.593 445.533 306.658C445.533 304.723 431.292 303.155 413.724 303.155C396.157 303.155 381.916 304.723 381.916 306.658C381.916 308.593 396.157 310.161 413.724 310.161Z" fill="#FCC659"/>
<path d="M389.41 304.696C389.41 306.658 403.633 308.199 421.219 308.199C438.805 308.199 453.028 306.588 453.028 304.696C453.028 304.626 453.028 304.626 453.028 304.556V295.027H389.48V304.486C389.41 304.626 389.41 304.696 389.41 304.696Z" fill="#F49B51"/>
<path d="M421.219 298.671C438.787 298.671 453.028 297.102 453.028 295.167C453.028 293.233 438.787 291.664 421.219 291.664C403.652 291.664 389.41 293.233 389.41 295.167C389.41 297.102 403.652 298.671 421.219 298.671Z" fill="#FCC659"/>
<path d="M421.223 331.531C434.185 331.531 453.382 330.48 453.382 327.607H452.612C452.612 328.728 441.822 330.76 421.223 330.76C420.452 330.76 419.752 330.76 418.981 330.76V331.531C419.682 331.531 420.452 331.531 421.223 331.531Z" fill="#5431D6"/>
<path d="M408.61 331.25L408.68 330.48C405.457 330.339 402.514 330.129 399.922 329.849L399.852 330.62C402.374 330.9 405.387 331.11 408.61 331.25Z" fill="#5431D6"/>
<path d="M433.766 319.199C445.677 318.078 445.677 316.607 445.677 316.116H444.906C444.906 316.467 442.874 317.588 433.626 318.429L433.766 319.199Z" fill="#5431D6"/>
<path d="M413.52 320.04C417.093 320.04 420.597 319.97 423.96 319.83V319.059C418.004 319.269 411.348 319.339 405.183 319.129V319.9C407.915 319.97 410.718 320.04 413.52 320.04Z" fill="#5431D6"/>
<path d="M397.256 319.55L397.326 318.779C393.963 318.569 390.95 318.289 388.568 317.938L388.428 318.709C390.88 318.989 393.823 319.339 397.256 319.55Z" fill="#5431D6"/>
<path d="M442.591 298.18C453.17 297.129 453.17 295.728 453.17 295.238H452.4C452.4 295.238 452.119 296.499 442.451 297.48L442.591 298.18Z" fill="#5431D6"/>
<path d="M421.022 299.161C424.665 299.161 428.238 299.091 431.671 298.951V298.18C428.308 298.32 424.735 298.39 421.092 298.39C414.576 298.39 408.27 298.18 402.945 297.76L402.875 298.53C408.2 298.881 414.506 299.161 421.022 299.161Z" fill="#5431D6"/>
<path d="M378.137 293.276C378.137 295.238 392.36 296.779 409.946 296.779C427.532 296.779 441.755 295.168 441.755 293.276C441.755 293.206 441.755 293.206 441.755 293.136V283.607H378.207V293.066C378.137 293.206 378.137 293.206 378.137 293.276Z" fill="#F49B51"/>
<path d="M409.946 287.25C427.513 287.25 441.755 285.682 441.755 283.747C441.755 281.812 427.513 280.244 409.946 280.244C392.378 280.244 378.137 281.812 378.137 283.747C378.137 285.682 392.378 287.25 409.946 287.25Z" fill="#FCC659"/>
<path d="M384.021 283.747C384.021 285.078 395.582 286.129 409.945 286.129C424.238 286.129 435.868 285.078 435.868 283.747C435.868 282.416 424.308 281.365 409.945 281.365C395.652 281.365 384.021 282.416 384.021 283.747Z" fill="#F49B51"/>
<path d="M372.947 84.766H355.922V86.8679H372.947V84.766Z" fill="#F6E8FC"/>
<path d="M348.072 84.766H313.881V86.8679H348.072V84.766Z" fill="#F6E8FC"/>
<path d="M372.948 93.8743H333.572V95.9762H372.948V93.8743Z" fill="#F6E8FC"/>
<path d="M328.735 93.8743H313.881V95.9762H328.735V93.8743Z" fill="#F6E8FC"/>
<path d="M365.591 103.683H349.476V105.785H365.591V103.683Z" fill="#F6E8FC"/>
<path d="M342.678 103.683H313.881V105.785H342.678V103.683Z" fill="#F6E8FC"/>
<path d="M341.49 192.734H320.19V193.785H341.49V192.734Z" fill="#5431D6"/>
<path d="M385.072 193.785H349.689V192.734H385.072C386.403 192.734 387.524 191.683 387.594 190.352L389.416 141.798L390.467 141.868L388.645 190.422C388.575 192.244 387.033 193.785 385.072 193.785Z" fill="#5431D6"/>
<path d="M188.044 119.658C176.344 117.346 165.063 124.913 162.681 136.613C160.369 148.314 167.936 159.664 179.637 161.976C191.337 164.288 202.688 156.722 205 145.021C207.242 133.32 199.675 121.97 188.044 119.658ZM200.796 144.18C199.885 148.734 197.293 152.658 193.439 155.18C189.586 157.773 184.961 158.683 180.407 157.773C171.019 155.881 164.923 146.773 166.815 137.384C167.726 132.83 170.318 128.906 174.172 126.384C177.885 123.932 182.299 122.951 186.713 123.722C186.853 123.722 186.993 123.792 187.204 123.792C196.452 125.613 202.477 134.511 200.936 143.69C200.866 143.83 200.866 143.97 200.796 144.18Z" fill="#FCC659"/>
<path d="M200.938 143.69C200.938 143.83 200.868 143.97 200.868 144.18C199.957 148.734 197.365 152.658 193.511 155.18C189.658 157.772 185.034 158.683 180.48 157.772C171.091 155.881 164.996 146.772 166.887 137.384C167.798 132.83 170.39 128.906 174.244 126.384C177.957 123.932 182.371 122.951 186.785 123.722C186.925 123.722 187.066 123.792 187.276 123.792C196.454 125.613 202.48 134.441 200.938 143.69Z" fill="#F49B51"/>
<path d="M180.477 153.639L181.037 150.416C179.216 150.066 177.394 149.155 176.413 148.174L177.534 146.142C178.515 147.123 180.126 147.964 181.878 148.314C184.12 148.734 185.872 147.683 186.222 145.862C186.502 144.11 185.451 142.849 183.279 141.448C180.267 139.626 178.515 137.804 178.935 135.072C179.356 132.409 181.598 130.728 184.611 130.798L185.171 127.575L187.133 127.925L186.572 131.008C188.464 131.429 189.725 132.129 190.496 132.83L189.305 134.792C188.674 134.301 187.483 133.39 185.451 133.04C182.999 132.62 181.808 133.951 181.598 135.212C181.318 136.894 182.368 137.874 184.891 139.486C187.974 141.378 189.305 143.339 188.814 146.142C188.394 148.664 186.222 150.696 182.859 150.696L182.298 153.989L180.477 153.639Z" fill="#FCC659"/>
<path d="M200.939 139.276C200.939 139.135 200.939 138.995 200.869 138.855C200.309 133.951 197.646 129.537 193.583 126.664L193.863 126.244C198.067 129.116 200.729 133.671 201.29 138.715C201.29 138.925 201.36 139.065 201.36 139.206L200.939 139.276Z" fill="#5431D6"/>
<path d="M193.662 126.664C190.369 124.422 186.445 123.301 182.451 123.651L182.381 123.161C186.445 122.811 190.509 123.932 193.872 126.244L193.662 126.664Z" fill="#5431D6"/>
<path d="M197.296 152.097L196.945 151.817C198.417 150.065 199.468 148.104 200.168 146.002L200.589 146.142C199.958 148.244 198.837 150.276 197.296 152.097Z" fill="#5431D6"/>
<path d="M200.313 127.365C198.911 125.613 197.3 124.142 195.408 122.951L195.688 122.53C197.58 123.792 199.262 125.263 200.663 127.014L200.313 127.365Z" fill="#5431D6"/>
<path d="M192.74 160.645L192.53 160.155C198.765 157.352 203.32 151.607 204.721 144.881C205.562 140.677 205.141 136.403 203.46 132.479L203.95 132.269C205.632 136.263 206.052 140.677 205.211 144.951C203.81 151.887 199.186 157.772 192.74 160.645Z" fill="#5431D6"/>
<path d="M341.515 182.069C352.534 181.629 361.111 172.34 360.671 161.321C360.232 150.302 350.943 141.725 339.923 142.165C328.904 142.604 320.327 151.893 320.767 162.912C321.206 173.932 330.495 182.508 341.515 182.069Z" fill="#718BFC"/>
<path d="M340.019 172.346L330.841 162.887L331.822 161.906L339.599 169.893L349.618 149.155L350.879 149.785L340.019 172.346Z" fill="white"/>
<path d="M169.827 128.976C171.789 129.957 173.12 131.499 174.101 133.46C175.012 131.569 176.413 130.027 178.375 128.976C176.413 127.995 175.082 126.454 174.101 124.492C173.12 126.454 171.789 127.995 169.827 128.976Z" fill="#FFE6A6"/>
<path d="M187.072 156.441C188.193 157.002 189.034 157.912 189.524 159.033C190.085 157.912 190.855 157.002 191.976 156.441C190.855 155.881 190.014 154.97 189.524 153.849C189.034 154.97 188.263 155.811 187.072 156.441Z" fill="#FFE6A6"/>
</svg>
