<svg width="500" height="500" viewBox="0 0 500 500" fill="none" xmlns="http://www.w3.org/2000/svg">
<path d="M359.367 131.375C322.75 99.4202 273.178 131.366 225.023 198.718C176.87 266.071 153.957 237.743 112.991 267.405C72.0252 297.065 61.1332 418.657 205.373 406.839C349.613 395.021 455.105 214.923 359.367 131.375Z" fill="#F0F0F0"/>
<path d="M403.843 453.132C403.843 453.275 334.404 453.393 248.765 453.393C163.098 453.393 93.6731 453.276 93.6731 453.132C93.6731 452.988 163.097 452.871 248.765 452.871C334.404 452.872 403.843 452.989 403.843 453.132Z" fill="#263238"/>
<path d="M336.18 330.713C320.732 319.92 317.227 299.887 317.838 281.879C317.94 278.873 317.609 275.704 319.039 273.066C320.47 270.429 323.806 268.627 326.497 269.893C328.729 270.944 329.702 273.54 330.951 275.688C332.612 278.545 335.088 280.91 338.001 282.421C339.915 283.414 342.283 284.022 344.173 282.98C346.766 281.549 347.071 277.967 347.053 274.977C347.018 269.405 346.984 263.832 346.949 258.261C346.93 255.272 346.922 252.219 347.851 249.382C348.781 246.545 350.835 243.908 353.679 243.111C356.524 242.315 360.04 243.955 360.641 246.882C360.891 248.1 360.643 249.364 360.726 250.605C360.809 251.846 361.387 253.219 362.566 253.565C363.759 253.916 364.956 253.068 365.849 252.193C368.935 249.175 371.029 245.286 372.986 241.419C374.943 237.551 376.842 233.592 379.642 230.299C382.442 227.006 386.315 224.398 390.596 224.155C394.878 223.913 399.44 226.555 400.522 230.759C401.607 234.974 399.148 239.251 396.472 242.663C392.502 247.725 387.806 252.202 382.577 255.908C381.635 256.577 380.613 257.3 380.253 258.407C379.604 260.4 381.492 262.38 383.46 263.035C385.688 263.777 388.106 263.546 390.437 263.82C392.768 264.094 395.294 265.123 396.175 267.326C397.4 270.382 394.844 273.585 392.329 275.682C387.294 279.883 381.544 283.202 375.41 285.449C373.211 286.254 370.896 286.96 369.123 288.505C367.35 290.051 366.279 292.737 367.351 294.843C368.423 296.951 371.173 297.625 373.477 297.197C375.78 296.77 377.842 295.519 380.038 294.691C384.146 293.14 389.452 293.423 392.084 296.974C393.813 299.308 393.966 302.558 393.091 305.34C392.217 308.122 390.443 310.519 388.559 312.729C381.974 320.455 373.544 326.674 364.013 329.979C354.483 333.283 345.652 334.177 336.18 330.713Z" fill="#718BFC"/>
<path d="M396.203 226.658C396.21 226.665 396.111 226.762 395.913 226.942C395.692 227.139 395.398 227.401 395.025 227.734C394.242 228.426 393.087 229.447 391.636 230.802C388.731 233.504 384.65 237.568 380.217 243.128C377.992 245.899 375.681 249.036 373.26 252.449C370.845 255.868 368.287 259.537 365.743 263.495C363.199 267.451 360.652 271.691 358.367 276.272C357.215 278.557 356.187 280.949 355.138 283.387C354.095 285.825 353.037 288.298 351.966 290.801C347.718 300.826 343.982 310.518 341.312 319.571C338.627 328.616 337.029 336.999 336.33 344.102C335.613 351.208 335.76 357.008 336.05 360.988C336.206 362.978 336.359 364.523 336.499 365.565C336.557 366.065 336.602 366.458 336.637 366.754C336.665 367.022 336.675 367.161 336.666 367.163C336.656 367.164 336.628 367.029 336.581 366.763C336.534 366.47 336.47 366.078 336.389 365.581C336.213 364.542 336.026 362.999 335.836 361.006C335.481 357.023 335.273 351.202 335.943 344.065C336.595 336.931 338.16 328.506 340.828 319.425C343.478 310.337 347.21 300.616 351.462 290.583C352.534 288.079 353.594 285.604 354.638 283.166C355.686 280.734 356.725 278.322 357.887 276.026C360.192 271.422 362.758 267.172 365.321 263.215C367.882 259.254 370.458 255.589 372.89 252.18C375.331 248.774 377.666 245.643 379.916 242.88C384.4 237.334 388.539 233.298 391.493 230.644C392.968 229.31 394.145 228.314 394.953 227.649C395.342 227.334 395.646 227.086 395.876 226.899C396.086 226.732 396.197 226.65 396.203 226.658Z" fill="#263238"/>
<path d="M358.044 276.004C358.007 276.01 357.905 275.556 357.752 274.729C357.595 273.903 357.407 272.701 357.197 271.211C356.774 268.234 356.331 264.104 355.859 259.548C355.387 254.989 354.886 250.877 354.42 247.915C354.191 246.434 353.993 245.236 353.846 244.41C353.703 243.583 353.642 243.121 353.679 243.112C353.716 243.104 353.848 243.55 354.055 244.365C354.267 245.179 354.524 246.369 354.802 247.847C355.369 250.803 355.934 254.925 356.405 259.488C356.859 263.985 357.269 268.053 357.583 271.162C357.733 272.565 357.861 273.748 357.964 274.697C358.051 275.533 358.083 275.999 358.044 276.004Z" fill="#263238"/>
<path d="M396.482 268.821C396.483 268.859 395.936 268.923 394.949 269.005C393.963 269.093 392.535 269.212 390.776 269.416C387.255 269.796 382.411 270.491 377.099 271.492C371.788 272.503 367.02 273.622 363.595 274.531C361.878 274.973 360.499 275.369 359.544 275.637C358.59 275.908 358.057 276.041 358.044 276.005C358.032 275.968 358.544 275.766 359.48 275.43C360.418 275.099 361.784 274.645 363.492 274.152C366.9 273.143 371.671 271.96 376.998 270.945C382.325 269.942 387.197 269.305 390.738 269.025C392.508 268.871 393.944 268.81 394.937 268.79C395.931 268.773 396.48 268.782 396.482 268.821Z" fill="#263238"/>
<path d="M341.301 318.717C341.283 318.725 341.194 318.564 341.037 318.248C340.859 317.872 340.642 317.413 340.38 316.857C339.815 315.647 339.042 313.875 338.116 311.672C336.262 307.269 333.891 301.106 331.368 294.27C328.843 287.431 326.533 281.254 324.773 276.819C323.911 274.663 323.201 272.889 322.673 271.571C322.447 270.999 322.262 270.527 322.109 270.139C321.986 269.81 321.929 269.633 321.947 269.624C321.965 269.617 322.054 269.778 322.211 270.094C322.389 270.47 322.606 270.928 322.868 271.484C323.433 272.694 324.206 274.466 325.132 276.669C326.987 281.072 329.357 287.235 331.881 294.074C334.405 300.911 336.715 307.087 338.475 311.523C339.338 313.678 340.047 315.453 340.575 316.77C340.801 317.342 340.986 317.815 341.139 318.202C341.262 318.533 341.319 318.709 341.301 318.717Z" fill="#263238"/>
<path d="M392.379 302.255C392.384 302.274 392.209 302.345 391.872 302.464C391.473 302.598 390.982 302.762 390.389 302.961C389.019 303.405 387.169 304.005 384.919 304.733C380.301 306.231 373.946 308.373 366.928 310.749C359.907 313.127 353.527 315.212 348.876 316.614C346.551 317.316 344.664 317.865 343.353 318.217C342.747 318.376 342.247 318.507 341.84 318.615C341.492 318.7 341.307 318.735 341.302 318.717C341.297 318.699 341.472 318.627 341.809 318.507C342.207 318.374 342.698 318.21 343.292 318.011C344.662 317.567 346.511 316.968 348.761 316.238C353.379 314.741 359.735 312.598 366.755 310.221C373.774 307.844 380.153 305.759 384.804 304.357C387.129 303.655 389.016 303.106 390.328 302.753C390.934 302.594 391.433 302.462 391.841 302.356C392.188 302.272 392.373 302.237 392.379 302.255Z" fill="#263238"/>
<path d="M371.542 59.6791L366.389 61.5221L364.186 54.7931C360.122 42.3811 347.152 35.7401 335.289 39.9841C323.419 44.2301 317.073 57.7811 321.137 70.1931L323.34 76.9221L318.17 78.7711C314.15 80.2091 311.974 84.8432 313.351 89.0502L327.687 132.841C329.085 137.112 333.524 139.389 337.544 137.951L390.918 118.858C395.003 117.397 397.181 112.752 395.782 108.482L381.446 64.6911C380.067 60.4841 375.626 58.2171 371.542 59.6791ZM330.861 66.7131C328.634 59.9111 332.11 52.4831 338.618 50.1551C345.12 47.8291 352.224 51.4721 354.451 58.2741L356.654 65.0041L333.064 73.4421L330.861 66.7131ZM360.87 105.566L364.531 116.749C364.685 117.222 364.415 117.705 363.958 117.869L358.836 119.701C358.444 119.841 357.942 119.634 357.788 119.161L354.127 107.978C350.16 107.81 346.478 105.181 345.1 100.974C343.33 95.5652 346.099 89.6512 351.29 87.7942C356.478 85.9382 362.132 88.8382 363.903 94.2482C365.28 98.4552 363.911 102.892 360.87 105.566Z" fill="#718BFC"/>
<path d="M366.164 61.4011C366.213 61.5361 356.614 65.1301 344.726 69.4261C332.835 73.7242 323.159 77.0982 323.11 76.9632C323.061 76.8282 332.658 73.2351 344.55 68.9371C356.436 64.6411 366.115 61.2661 366.164 61.4011Z" fill="#263238"/>
<path d="M377.498 63.2441C377.507 63.2411 377.546 63.3301 377.613 63.5061C377.689 63.7101 377.785 63.9681 377.904 64.2901C378.161 65.0191 378.518 66.0331 378.972 67.3211C379.891 69.9981 381.199 73.8071 382.809 78.4991C384.414 83.2361 386.321 88.8581 388.436 95.0992C389.481 98.2322 390.622 101.487 391.717 104.925C392.223 106.653 392.643 108.5 392.467 110.413C392.378 111.362 392.12 112.317 391.658 113.181C391.187 114.039 390.53 114.794 389.768 115.409C388.231 116.638 386.431 117.356 384.693 118C382.948 118.627 381.227 119.245 379.538 119.852C376.158 121.061 372.898 122.228 369.791 123.341C363.583 125.551 357.989 127.543 353.277 129.221C348.597 130.867 344.798 132.203 342.129 133.142C340.838 133.584 339.82 133.933 339.09 134.183C338.764 134.289 338.502 134.374 338.295 134.441C338.114 134.497 338.021 134.521 338.018 134.512C338.015 134.504 338.103 134.463 338.277 134.391C338.48 134.311 338.736 134.21 339.054 134.084C339.778 133.812 340.784 133.432 342.061 132.951C344.717 131.974 348.497 130.585 353.154 128.874C357.854 127.166 363.435 125.139 369.63 122.89C372.733 121.768 375.99 120.592 379.366 119.372C381.054 118.763 382.772 118.143 384.515 117.514C386.24 116.875 387.991 116.166 389.441 115.004C390.16 114.424 390.766 113.724 391.202 112.934C391.628 112.138 391.868 111.257 391.953 110.364C392.122 108.567 391.725 106.772 391.229 105.07C390.152 101.666 389.011 98.3822 387.982 95.2532C385.907 89.0001 384.037 83.3641 382.461 78.6171C380.917 73.9031 379.662 70.0761 378.781 67.3871C378.366 66.0861 378.04 65.0611 377.806 64.3251C377.706 63.9961 377.627 63.7331 377.565 63.5241C377.511 63.3411 377.489 63.2471 377.498 63.2441Z" fill="#263238"/>
<path d="M349.343 49.454C349.317 49.498 348.812 49.185 347.829 48.789C346.844 48.413 345.353 47.974 343.464 47.914C341.587 47.845 339.303 48.135 337.023 49.131C334.751 50.115 332.513 51.862 330.911 54.2391C329.277 56.6071 328.562 59.3471 328.561 61.8321C328.54 64.3281 329.07 66.5511 329.579 68.3751C330.106 70.2011 330.645 71.6501 331 72.6561C331.359 73.6621 331.553 74.2211 331.518 74.2351C331.486 74.2471 331.229 73.7141 330.811 72.7301C330.398 71.7441 329.805 70.3121 329.227 68.4811C328.667 66.6521 328.087 64.4011 328.081 61.8291C328.054 59.2711 328.786 56.3971 330.479 53.9461C332.141 51.482 334.47 49.685 336.833 48.69C339.204 47.685 341.559 47.427 343.482 47.545C345.418 47.654 346.931 48.161 347.909 48.602C348.393 48.839 348.763 49.033 348.996 49.196C349.234 49.351 349.353 49.438 349.343 49.454Z" fill="#263238"/>
<path d="M349.797 88.5841C349.791 88.5711 349.964 88.4851 350.304 88.3321C350.641 88.1751 351.157 87.9741 351.847 87.7771C352.532 87.5621 353.41 87.4061 354.446 87.3451C355.479 87.2941 356.696 87.4011 357.954 87.8681C360.509 88.7661 362.864 91.3781 364.02 94.8391C364.576 96.5871 364.625 98.6171 364.066 100.58C363.47 102.535 362.376 104.41 360.796 105.986L360.862 105.721C362.19 109.366 363.636 113.333 365.142 117.46L365.233 117.711L364.98 117.796C364.255 118.039 363.477 118.3 362.694 118.562C361.009 119.126 359.348 119.682 357.718 120.228L357.472 120.31L357.391 120.063C356.021 115.917 354.52 112.008 353.43 108.272L353.646 108.442C351.599 108.305 349.759 107.446 348.294 106.326C346.823 105.195 345.696 103.791 344.936 102.314C344.189 100.832 343.813 99.2591 343.876 97.8101C343.913 96.3621 344.247 95.0511 344.715 93.9461C345.648 91.7171 347.038 90.3151 348.068 89.5501C349.117 88.7831 349.797 88.5841 349.797 88.5841C349.821 88.6291 349.162 88.8801 348.161 89.6711C347.18 90.4611 345.854 91.8651 344.982 94.0551C344.111 96.1921 343.733 99.2641 345.291 102.131C346.038 103.548 347.139 104.895 348.562 105.974C349.979 107.042 351.747 107.847 353.671 107.965L353.84 107.975L353.887 108.135C354.99 111.845 356.499 115.738 357.881 119.901L357.553 119.737C359.182 119.191 360.843 118.633 362.528 118.068C363.311 117.806 364.088 117.545 364.814 117.302L364.652 117.637C363.157 113.506 361.719 109.535 360.4 105.888L360.346 105.741L360.465 105.623C361.961 104.144 363.051 102.31 363.625 100.45C364.171 98.5731 364.139 96.6441 363.621 94.9601C362.528 91.6011 360.281 89.0471 357.844 88.1501C356.641 87.6801 355.463 87.5521 354.451 87.5791C353.437 87.6151 352.57 87.7441 351.886 87.9321C350.514 88.2861 349.815 88.6281 349.797 88.5841Z" fill="#263238"/>
<path d="M318.892 377.319L219.011 376.857C206.997 376.802 197.302 367.021 197.353 355.008L198.412 104.603C198.463 92.5832 208.25 82.8822 220.27 82.9382L320.151 83.3992C332.164 83.4552 341.858 93.2362 341.807 105.248L340.748 355.653C340.699 367.673 330.912 377.375 318.892 377.319Z" fill="#455A64"/>
<path d="M320.009 92.0412L300.644 91.9522C298.047 91.9402 295.932 94.1322 295.921 96.8463L295.905 100.359C295.894 103.074 293.779 105.265 291.182 105.253L253.435 105.079C250.838 105.067 248.742 102.856 248.753 100.141L248.768 96.6283C248.779 93.9132 246.683 91.7022 244.086 91.6902L237.275 91.6582L220.326 91.5802C211.909 91.5412 205.054 98.3353 205.018 106.753L203.985 351.166C203.949 359.58 210.739 366.43 219.152 366.469L318.834 366.929C327.251 366.968 334.105 360.174 334.142 351.756L335.175 107.342C335.211 98.9303 328.422 92.0812 320.009 92.0412Z" fill="white"/>
<path d="M306.594 334.326L232.47 333.984C231.703 333.98 231.084 333.145 231.089 332.118L231.171 312.726C231.175 311.699 231.801 310.87 232.568 310.873L306.692 311.216C307.46 311.22 308.079 312.055 308.074 313.082L307.992 332.473C307.988 333.5 307.362 334.33 306.594 334.326Z" fill="#718BFC"/>
<path d="M256.551 320.238C256.518 319.946 256.378 319.719 256.133 319.556C255.888 319.394 255.586 319.312 255.229 319.31C254.968 319.309 254.739 319.35 254.542 319.434C254.348 319.517 254.196 319.633 254.085 319.78C253.977 319.928 253.923 320.096 253.922 320.284C253.921 320.441 253.958 320.577 254.033 320.691C254.109 320.803 254.207 320.896 254.325 320.972C254.444 321.045 254.569 321.106 254.699 321.155C254.83 321.202 254.95 321.24 255.059 321.269L255.658 321.433C255.812 321.474 255.982 321.531 256.171 321.603C256.36 321.675 256.542 321.773 256.714 321.897C256.888 322.018 257.032 322.175 257.144 322.365C257.257 322.556 257.313 322.79 257.312 323.067C257.31 323.386 257.225 323.674 257.057 323.93C256.891 324.187 256.648 324.391 256.328 324.541C256.011 324.691 255.625 324.765 255.171 324.763C254.749 324.761 254.383 324.691 254.074 324.554C253.767 324.416 253.526 324.224 253.35 323.98C253.176 323.735 253.078 323.451 253.057 323.128L253.795 323.131C253.813 323.354 253.887 323.539 254.017 323.686C254.149 323.83 254.316 323.939 254.517 324.011C254.721 324.081 254.94 324.117 255.174 324.118C255.447 324.119 255.692 324.076 255.91 323.988C256.127 323.899 256.3 323.775 256.427 323.616C256.555 323.455 256.619 323.267 256.62 323.052C256.621 322.856 256.567 322.696 256.458 322.573C256.349 322.449 256.205 322.349 256.026 322.271C255.848 322.193 255.655 322.125 255.448 322.067L254.722 321.856C254.262 321.721 253.897 321.53 253.629 321.283C253.362 321.036 253.228 320.713 253.23 320.315C253.231 319.985 253.322 319.697 253.502 319.452C253.683 319.205 253.926 319.014 254.231 318.879C254.537 318.742 254.878 318.674 255.255 318.676C255.635 318.678 255.973 318.747 256.268 318.885C256.564 319.021 256.797 319.207 256.969 319.442C257.143 319.677 257.234 319.944 257.243 320.242L256.551 320.238ZM259.22 318.775L259.195 324.678L258.48 324.675L258.505 318.772L259.22 318.775ZM265.334 318.803L265.309 324.706L264.618 324.703L261.42 320.053L261.363 320.053L261.343 324.688L260.628 324.685L260.653 318.781L261.345 318.785L264.554 323.446L264.611 323.446L264.631 318.8L265.334 318.803ZM270.792 320.673C270.73 320.478 270.647 320.304 270.544 320.15C270.442 319.994 270.321 319.861 270.179 319.75C270.039 319.64 269.88 319.556 269.702 319.498C269.523 319.439 269.327 319.409 269.114 319.408C268.764 319.407 268.446 319.496 268.159 319.675C267.872 319.854 267.643 320.119 267.472 320.47C267.302 320.821 267.215 321.252 267.213 321.763C267.211 322.274 267.295 322.706 267.464 323.059C267.634 323.411 267.864 323.678 268.156 323.86C268.447 324.042 268.775 324.134 269.14 324.136C269.479 324.137 269.777 324.067 270.035 323.924C270.295 323.779 270.498 323.574 270.643 323.31C270.79 323.043 270.864 322.729 270.866 322.368L271.085 322.415L269.309 322.407L269.312 321.773L271.56 321.783L271.557 322.417C271.555 322.904 271.45 323.326 271.241 323.684C271.034 324.043 270.748 324.32 270.384 324.516C270.022 324.711 269.606 324.807 269.138 324.804C268.615 324.802 268.156 324.677 267.761 324.429C267.368 324.181 267.062 323.83 266.843 323.376C266.626 322.921 266.519 322.383 266.522 321.76C266.524 321.293 266.588 320.874 266.714 320.501C266.843 320.127 267.023 319.809 267.254 319.547C267.486 319.285 267.76 319.084 268.075 318.945C268.391 318.806 268.738 318.738 269.117 318.74C269.428 318.741 269.718 318.789 269.987 318.885C270.257 318.978 270.498 319.111 270.709 319.283C270.921 319.453 271.098 319.657 271.239 319.894C271.381 320.129 271.477 320.39 271.53 320.676L270.792 320.673ZM278.954 318.866L279.668 318.869L279.652 322.777C279.65 323.181 279.554 323.541 279.362 323.857C279.172 324.171 278.905 324.419 278.561 324.6C278.216 324.779 277.812 324.867 277.349 324.865C276.886 324.863 276.483 324.771 276.139 324.589C275.796 324.405 275.53 324.155 275.341 323.839C275.154 323.521 275.062 323.16 275.063 322.756L275.08 318.848L275.794 318.851L275.778 322.702C275.777 322.99 275.839 323.247 275.965 323.472C276.091 323.696 276.271 323.873 276.505 324.002C276.741 324.13 277.023 324.195 277.352 324.197C277.68 324.198 277.963 324.136 278.2 324.01C278.437 323.883 278.618 323.708 278.744 323.485C278.872 323.261 278.936 323.005 278.937 322.716L278.954 318.866ZM281.071 324.779L281.096 318.875L283.091 318.885C283.554 318.887 283.932 318.972 284.225 319.141C284.52 319.307 284.739 319.532 284.88 319.815C285.021 320.098 285.09 320.414 285.089 320.762C285.087 321.109 285.015 321.425 284.872 321.709C284.73 321.993 284.512 322.218 284.217 322.386C283.923 322.552 283.546 322.634 283.086 322.632L281.657 322.625L281.659 321.991L283.066 321.998C283.383 321.999 283.638 321.945 283.831 321.837C284.023 321.728 284.163 321.581 284.25 321.395C284.34 321.207 284.385 320.995 284.386 320.758C284.387 320.522 284.343 320.31 284.256 320.124C284.17 319.937 284.03 319.79 283.837 319.684C283.643 319.575 283.386 319.52 283.065 319.519L281.808 319.513L281.786 324.782L281.071 324.779Z" fill="#E8E8E3"/>
<path d="M247.241 163.869L221.524 163.75L221.503 168.469L247.22 168.588L247.241 163.869Z" fill="#718BFC"/>
<path opacity="0.1" d="M247.241 163.869L221.524 163.75L221.503 168.469L247.22 168.588L247.241 163.869Z" fill="black"/>
<path d="M322.656 192.827C322.652 192.807 322.871 192.839 323.243 192.689C323.594 192.553 324.148 192.126 324.212 191.343C324.209 189.748 324.204 187.43 324.198 184.454C324.198 182.955 324.197 181.292 324.196 179.472C324.197 179.016 324.197 178.552 324.197 178.077C324.21 177.591 324.209 177.14 323.917 176.767C323.654 176.396 323.204 176.159 322.734 176.157C322.221 176.156 321.699 176.155 321.168 176.154C316.913 176.146 312.072 176.136 306.724 176.126C285.301 176.046 255.737 175.937 223.083 175.816C222.652 175.813 222.231 176.023 221.981 176.372C221.703 176.727 221.715 177.144 221.721 177.68C221.717 178.695 221.712 179.706 221.708 180.715C221.699 182.732 221.69 184.735 221.682 186.723C221.678 187.718 221.673 188.708 221.668 189.695C221.684 190.168 221.622 190.734 221.71 191.101C221.809 191.502 222.113 191.842 222.491 192.002C222.688 192.082 222.872 192.11 223.11 192.108L223.842 192.112L225.301 192.119C226.272 192.124 227.239 192.129 228.202 192.134C235.903 192.175 243.332 192.215 250.41 192.252C264.559 192.338 277.303 192.416 288.012 192.481C298.701 192.565 307.358 192.634 313.362 192.681C316.34 192.716 318.659 192.743 320.254 192.762C321.028 192.777 321.623 192.788 322.046 192.796C322.449 192.808 322.656 192.827 322.656 192.827C322.656 192.827 322.449 192.844 322.045 192.85C321.622 192.854 321.027 192.86 320.253 192.868C318.657 192.872 316.338 192.878 313.36 192.885C307.355 192.877 298.699 192.865 288.009 192.851C277.3 192.817 264.556 192.777 250.406 192.733C243.329 192.705 235.9 192.676 228.199 192.646C227.236 192.642 226.269 192.638 225.298 192.634L223.838 192.628L223.106 192.625C222.856 192.63 222.546 192.591 222.29 192.479C221.767 192.259 221.35 191.791 221.21 191.234C221.131 190.951 221.149 190.665 221.148 190.434L221.151 189.695C221.155 188.708 221.159 187.717 221.163 186.723C221.171 184.734 221.179 182.731 221.187 180.715C221.191 179.707 221.195 178.695 221.199 177.68C221.207 177.42 221.184 177.192 221.225 176.881C221.269 176.589 221.382 176.306 221.559 176.068C221.902 175.585 222.492 175.29 223.084 175.297C255.737 175.477 285.301 175.64 306.723 175.758C312.073 175.797 316.913 175.833 321.168 175.864C321.699 175.868 322.222 175.872 322.734 175.877C323.294 175.882 323.827 176.169 324.133 176.609C324.476 177.041 324.473 177.631 324.453 178.079C324.449 178.554 324.446 179.019 324.442 179.474C324.425 181.294 324.411 182.957 324.398 184.455C324.361 187.435 324.333 189.756 324.313 191.352C324.226 192.186 323.627 192.614 323.258 192.739C322.871 192.877 322.656 192.827 322.656 192.827Z" fill="#E0E0E0"/>
<path d="M275.47 182.117L228.427 181.901L228.406 186.312L275.45 186.528L275.47 182.117Z" fill="#718BFC"/>
<path opacity="0.2" d="M275.47 182.117L228.427 181.901L228.406 186.312L275.45 186.528L275.47 182.117Z" fill="white"/>
<path d="M247.06 206.932L221.343 206.814L221.322 211.533L247.039 211.651L247.06 206.932Z" fill="#718BFC"/>
<path opacity="0.1" d="M247.06 206.932L221.343 206.814L221.322 211.533L247.039 211.651L247.06 206.932Z" fill="black"/>
<path d="M321.996 235.888C321.994 235.87 322.206 235.889 322.589 235.776C322.952 235.657 323.537 235.357 323.856 234.643C324.027 234.291 324.044 233.864 324.029 233.375C324.027 232.889 324.025 232.359 324.023 231.786C324.021 230.635 324.018 229.31 324.015 227.822C324.015 226.329 324.014 224.671 324.014 222.858C324.014 222.404 324.014 221.941 324.014 221.468C324.036 220.99 323.978 220.547 323.722 220.148C323.482 219.756 323.091 219.445 322.635 219.306C322.188 219.164 321.653 219.241 321.124 219.22C316.884 219.212 312.06 219.202 306.728 219.192C285.38 219.113 255.918 219.003 223.378 218.883C222.474 218.861 221.639 219.598 221.552 220.492C221.522 221.443 221.536 222.494 221.526 223.486C221.517 225.495 221.508 227.492 221.5 229.473C221.496 230.464 221.491 231.452 221.487 232.435C221.504 232.926 221.434 233.439 221.55 233.831C221.663 234.245 221.927 234.614 222.28 234.856C222.647 235.103 223.044 235.194 223.524 235.176L224.979 235.183C225.947 235.188 226.91 235.193 227.87 235.198C235.545 235.238 242.948 235.278 250 235.315C264.101 235.401 276.8 235.479 287.472 235.544C298.124 235.628 306.75 235.696 312.734 235.743C315.702 235.778 318.012 235.805 319.602 235.824C320.373 235.839 320.966 235.85 321.388 235.858C321.79 235.869 321.996 235.888 321.996 235.888C321.996 235.888 321.79 235.905 321.387 235.911C320.966 235.915 320.372 235.921 319.601 235.929C318.012 235.933 315.701 235.939 312.733 235.947C306.75 235.939 298.123 235.927 287.47 235.913C276.798 235.88 264.099 235.84 249.998 235.796C242.945 235.768 235.542 235.739 227.868 235.709C226.908 235.705 225.945 235.701 224.977 235.697L223.522 235.691C223.033 235.717 222.432 235.599 221.99 235.283C221.537 234.973 221.199 234.5 221.053 233.968C220.904 233.408 220.993 232.921 220.971 232.433C220.975 231.45 220.978 230.462 220.982 229.471C220.99 227.489 220.999 225.493 221.006 223.483C221.018 222.465 220.998 221.499 221.035 220.43C221.146 219.279 222.22 218.332 223.38 218.361C255.92 218.541 285.381 218.704 306.729 218.822C312.06 218.861 316.883 218.896 321.124 218.928C321.647 218.956 322.176 218.871 322.717 219.037C323.24 219.2 323.681 219.558 323.951 220.006C324.238 220.445 324.3 221.006 324.271 221.468C324.267 221.941 324.264 222.404 324.26 222.859C324.244 224.672 324.229 226.33 324.216 227.823C324.2 229.312 324.187 230.636 324.175 231.787C324.168 232.36 324.162 232.89 324.157 233.375C324.166 233.852 324.137 234.325 323.95 234.686C323.598 235.429 322.98 235.721 322.602 235.827C322.206 235.926 321.996 235.888 321.996 235.888Z" fill="#E0E0E0"/>
<path d="M246.867 251.85L221.15 251.732L221.128 256.451L246.845 256.569L246.867 251.85Z" fill="#718BFC"/>
<path opacity="0.1" d="M246.867 251.85L221.15 251.732L221.128 256.451L246.845 256.569L246.867 251.85Z" fill="black"/>
<path d="M321.805 280.801C321.804 280.783 322.016 280.802 322.398 280.69C322.762 280.571 323.346 280.27 323.665 279.556C323.836 279.204 323.853 278.777 323.838 278.288C323.836 277.802 323.834 277.272 323.832 276.699C323.83 275.548 323.828 274.223 323.825 272.735C323.824 271.242 323.824 269.584 323.823 267.77C323.823 267.317 323.824 266.853 323.824 266.379C323.845 265.901 323.788 265.459 323.532 265.06C323.291 264.668 322.901 264.357 322.445 264.217C321.998 264.076 321.463 264.153 320.933 264.131C316.694 264.122 311.869 264.113 306.538 264.103C285.189 264.024 255.728 263.915 223.187 263.794C222.282 263.772 221.448 264.509 221.361 265.403C221.331 266.354 221.345 267.405 221.336 268.397C221.327 270.406 221.318 272.403 221.31 274.384C221.306 275.375 221.301 276.361 221.297 277.346C221.314 277.836 221.243 278.349 221.359 278.742C221.472 279.156 221.736 279.525 222.089 279.767C222.456 280.014 222.853 280.106 223.333 280.087L224.788 280.094C225.756 280.099 226.719 280.104 227.679 280.109C235.354 280.15 242.757 280.189 249.81 280.226C263.911 280.313 276.61 280.39 287.282 280.455C297.934 280.539 306.56 280.607 312.544 280.654C315.512 280.689 317.823 280.717 319.412 280.735C320.183 280.75 320.777 280.76 321.198 280.769C321.599 280.783 321.805 280.801 321.805 280.801C321.805 280.801 321.599 280.818 321.197 280.824C320.775 280.828 320.182 280.834 319.411 280.842C317.821 280.846 315.51 280.852 312.542 280.86C306.559 280.851 297.933 280.84 287.279 280.826C276.607 280.793 263.908 280.753 249.807 280.709C242.754 280.681 235.35 280.652 227.676 280.622C226.716 280.618 225.753 280.613 224.785 280.609L223.33 280.603C222.841 280.629 222.24 280.51 221.798 280.195C221.345 279.884 221.007 279.412 220.861 278.88C220.713 278.32 220.801 277.832 220.779 277.345C220.783 276.362 220.787 275.374 220.791 274.384C220.799 272.402 220.807 270.405 220.815 268.396C220.827 267.379 220.807 266.413 220.844 265.343C220.955 264.192 222.029 263.245 223.189 263.275C255.73 263.455 285.19 263.618 306.539 263.736C311.869 263.775 316.693 263.81 320.934 263.841C321.457 263.868 321.986 263.784 322.527 263.95C323.049 264.113 323.49 264.471 323.761 264.92C324.048 265.359 324.11 265.92 324.081 266.382C324.077 266.855 324.073 267.318 324.069 267.772C324.053 269.586 324.039 271.244 324.026 272.736C324.01 274.225 323.997 275.55 323.985 276.701C323.978 277.273 323.971 277.804 323.965 278.289C323.974 278.767 323.945 279.239 323.758 279.6C323.406 280.342 322.788 280.635 322.411 280.741C322.016 280.838 321.805 280.801 321.805 280.801Z" fill="#E0E0E0"/>
<path d="M275.29 225.18L228.246 224.964L228.225 229.375L275.269 229.591L275.29 225.18Z" fill="#718BFC"/>
<path opacity="0.2" d="M275.29 225.18L228.246 224.964L228.225 229.375L275.269 229.591L275.29 225.18Z" fill="white"/>
<path d="M232.511 272.638C232.506 273.849 231.581 274.827 230.445 274.822C229.309 274.816 228.393 273.83 228.398 272.619C228.403 271.408 229.328 270.429 230.464 270.435C231.6 270.44 232.516 271.426 232.511 272.638Z" fill="#718BFC"/>
<path d="M238.885 272.668C238.88 273.879 237.955 274.857 236.819 274.852C235.683 274.847 234.767 273.861 234.772 272.649C234.777 271.438 235.702 270.46 236.838 270.465C237.974 270.469 238.89 271.456 238.885 272.668Z" fill="#718BFC"/>
<path d="M245.258 272.697C245.253 273.908 244.328 274.887 243.192 274.881C242.056 274.876 241.14 273.89 241.145 272.678C241.15 271.467 242.075 270.489 243.211 270.494C244.346 270.499 245.263 271.485 245.258 272.697Z" fill="#718BFC"/>
<path d="M251.63 272.726C251.625 273.937 250.7 274.916 249.565 274.91C248.429 274.905 247.512 273.919 247.518 272.707C247.523 271.496 248.448 270.518 249.584 270.523C250.719 270.529 251.636 271.515 251.63 272.726Z" fill="#718BFC"/>
<path d="M258.003 272.755C257.998 273.967 257.073 274.945 255.937 274.939C254.801 274.934 253.884 273.948 253.889 272.737C253.895 271.525 254.82 270.547 255.955 270.552C257.091 270.558 258.007 271.544 258.003 272.755Z" fill="#718BFC"/>
<path d="M264.375 272.785C264.37 273.997 263.445 274.975 262.309 274.969C261.173 274.964 260.257 273.978 260.262 272.767C260.267 271.555 261.192 270.578 262.327 270.582C263.464 270.587 264.38 271.574 264.375 272.785Z" fill="#718BFC"/>
<path d="M270.75 272.814C270.744 274.026 269.819 275.004 268.684 274.999C267.548 274.993 266.631 274.007 266.636 272.796C266.641 271.584 267.566 270.607 268.702 270.612C269.837 270.617 270.754 271.603 270.75 272.814Z" fill="#718BFC"/>
<path d="M277.122 272.843C277.117 274.055 276.192 275.033 275.057 275.028C273.921 275.022 273.004 274.037 273.01 272.825C273.015 271.614 273.94 270.636 275.075 270.641C276.211 270.646 277.127 271.632 277.122 272.843Z" fill="#718BFC"/>
<path d="M283.495 272.874C283.49 274.085 282.565 275.063 281.43 275.058C280.294 275.053 279.377 274.067 279.382 272.855C279.388 271.644 280.313 270.667 281.448 270.671C282.584 270.675 283.5 271.662 283.495 272.874Z" fill="#718BFC"/>
<g opacity="0.2">
<path d="M232.511 272.638C232.506 273.849 231.581 274.827 230.445 274.822C229.309 274.816 228.393 273.83 228.398 272.619C228.403 271.408 229.328 270.429 230.464 270.435C231.6 270.44 232.516 271.426 232.511 272.638Z" fill="white"/>
<path d="M238.885 272.668C238.88 273.879 237.955 274.857 236.819 274.852C235.683 274.847 234.767 273.861 234.772 272.649C234.777 271.438 235.702 270.46 236.838 270.465C237.974 270.469 238.89 271.456 238.885 272.668Z" fill="white"/>
<path d="M245.258 272.697C245.253 273.908 244.328 274.887 243.192 274.881C242.056 274.876 241.14 273.89 241.145 272.678C241.15 271.467 242.075 270.489 243.211 270.494C244.346 270.499 245.263 271.485 245.258 272.697Z" fill="white"/>
<path d="M251.63 272.726C251.625 273.937 250.7 274.916 249.565 274.91C248.429 274.905 247.512 273.919 247.518 272.707C247.523 271.496 248.448 270.518 249.584 270.523C250.719 270.529 251.636 271.515 251.63 272.726Z" fill="white"/>
<path d="M258.003 272.755C257.998 273.967 257.073 274.945 255.937 274.939C254.801 274.934 253.884 273.948 253.889 272.737C253.895 271.525 254.82 270.547 255.955 270.552C257.091 270.558 258.007 271.544 258.003 272.755Z" fill="white"/>
<path d="M264.375 272.785C264.37 273.997 263.445 274.975 262.309 274.969C261.173 274.964 260.257 273.978 260.262 272.767C260.267 271.555 261.192 270.578 262.327 270.582C263.464 270.587 264.38 271.574 264.375 272.785Z" fill="white"/>
<path d="M270.75 272.814C270.744 274.026 269.819 275.004 268.684 274.999C267.548 274.993 266.631 274.007 266.636 272.796C266.641 271.584 267.566 270.607 268.702 270.612C269.837 270.617 270.754 271.603 270.75 272.814Z" fill="white"/>
<path d="M277.122 272.843C277.117 274.055 276.192 275.033 275.057 275.028C273.921 275.022 273.004 274.037 273.01 272.825C273.015 271.614 273.94 270.636 275.075 270.641C276.211 270.646 277.127 271.632 277.122 272.843Z" fill="white"/>
<path d="M283.495 272.874C283.49 274.085 282.565 275.063 281.43 275.058C280.294 275.053 279.377 274.067 279.382 272.855C279.388 271.644 280.313 270.667 281.448 270.671C282.584 270.675 283.5 271.662 283.495 272.874Z" fill="white"/>
</g>
<path d="M274.444 128.506C275.79 127.941 276.747 126.554 276.755 124.919C276.764 122.777 275.143 121.033 273.134 121.023C271.126 121.014 269.49 122.743 269.482 124.885C269.475 126.535 270.439 127.94 271.799 128.506C266.202 129.349 266.456 135.432 266.456 135.432L279.69 135.493C279.69 135.493 279.992 129.344 274.444 128.506Z" fill="#718BFC"/>
<path opacity="0.1" d="M274.444 128.506C275.79 127.941 276.747 126.554 276.755 124.919C276.764 122.777 275.143 121.033 273.134 121.023C271.126 121.014 269.49 122.743 269.482 124.885C269.475 126.535 270.439 127.94 271.799 128.506C266.202 129.349 266.456 135.432 266.456 135.432L279.69 135.493C279.69 135.493 279.992 129.344 274.444 128.506Z" fill="black"/>
<path d="M295.956 139.472L248.762 139.255L248.736 144.898L295.93 145.115L295.956 139.472Z" fill="#718BFC"/>
<path opacity="0.2" d="M295.956 139.472L248.762 139.255L248.736 144.898L295.93 145.115L295.956 139.472Z" fill="white"/>
<path d="M122.465 168.677C122.465 168.687 122.307 168.704 122.001 168.729C121.67 168.753 121.219 168.786 120.64 168.828C120.039 168.838 119.308 168.969 118.446 169.121C118.017 169.208 117.543 169.243 117.059 169.386C116.573 169.521 116.056 169.664 115.509 169.816C113.351 170.497 110.752 171.579 108.135 173.474C105.525 175.354 102.914 178.043 100.879 181.551C99.8091 183.275 99.0331 185.266 98.3361 187.359C97.7691 189.489 97.2671 191.752 97.2291 194.137C97.1231 195.326 97.2431 196.534 97.2931 197.762C97.3251 198.376 97.4571 198.984 97.5361 199.603C97.6201 200.222 97.7111 200.844 97.8871 201.455C98.3931 203.941 99.4061 206.378 100.687 208.713C103.248 213.401 107.552 217.44 112.867 219.781C115.526 220.954 118.466 221.587 121.456 221.71C124.449 221.9 127.515 221.419 130.421 220.42L131.3 220.097L131.416 220.055L131.521 220.108C135.824 222.293 140.044 224.435 144.133 226.511L143.758 226.831C142.411 222.651 141.106 218.599 139.853 214.71L139.805 214.56L139.916 214.449C143.095 211.266 145.31 207.399 146.538 203.44C147.769 199.469 147.979 195.425 147.499 191.719C147.019 188.005 145.805 184.628 144.186 181.786C142.568 178.936 140.556 176.621 138.491 174.813C136.402 173.018 134.236 171.802 132.295 170.871C130.307 170.039 128.535 169.506 127.062 169.222C126.326 169.096 125.671 168.985 125.1 168.888C124.534 168.848 124.052 168.815 123.653 168.787C123.281 168.758 122.988 168.736 122.766 168.719C122.567 168.698 122.465 168.685 122.465 168.677C122.465 168.67 122.567 168.668 122.767 168.671C122.989 168.677 123.283 168.686 123.657 168.696C124.058 168.712 124.544 168.732 125.114 168.755C125.69 168.841 126.351 168.939 127.094 169.05C128.582 169.31 130.377 169.821 132.396 170.639C134.366 171.556 136.57 172.766 138.7 174.566C140.806 176.378 142.861 178.711 144.52 181.592C146.179 184.465 147.431 187.888 147.935 191.659C148.439 195.421 148.241 199.533 147.001 203.578C145.764 207.611 143.518 211.558 140.282 214.81L140.345 214.549C141.603 218.435 142.915 222.486 144.268 226.664L144.466 227.275L143.893 226.985C139.802 224.911 135.582 222.772 131.277 220.589L131.498 220.6L130.6 220.93C127.629 221.952 124.493 222.441 121.434 222.247C118.379 222.12 115.373 221.469 112.658 220.267C107.229 217.87 102.85 213.738 100.253 208.956C98.9531 206.574 97.9321 204.089 97.4231 201.558C97.2471 200.936 97.1571 200.303 97.0731 199.673C96.9951 199.044 96.8641 198.424 96.8331 197.8C96.7861 196.552 96.6691 195.323 96.7821 194.116C96.8311 191.693 97.3501 189.395 97.9381 187.236C98.6561 185.114 99.4561 183.099 100.551 181.356C102.636 177.811 105.302 175.106 107.961 173.227C110.626 171.333 113.265 170.269 115.451 169.613C116.004 169.469 116.528 169.332 117.02 169.204C117.509 169.068 117.988 169.04 118.421 168.962C119.292 168.825 120.028 168.711 120.633 168.719C121.215 168.699 121.669 168.685 122.002 168.673C122.308 168.667 122.465 168.668 122.465 168.677Z" fill="#718BFC"/>
<path d="M128.168 192.026H126.32L122.287 186.405V182.716C122.287 182.716 119.431 182.54 119.766 187.371C120.102 192.202 119.739 190.972 119.739 190.972C119.739 190.972 113.674 190.995 113.17 191.522C112.803 191.905 112.638 197.93 112.574 201.197C112.542 202.842 113.551 204.372 115.081 204.761C115.298 204.817 115.518 204.849 115.734 204.849C117.247 204.849 124.976 203.619 124.976 203.619H128.168V192.026Z" fill="#718BFC"/>
<path d="M133.458 191.013L132.322 203.653H129.157V191.268L133.458 191.013Z" fill="#718BFC"/>
<path d="M171.15 448.342V439.786L155.819 439.683L155.692 452.608L156.642 452.679C160.871 452.952 178.163 453.35 180.996 452.473C184.157 451.496 171.15 448.342 171.15 448.342Z" fill="#718BFC"/>
<path d="M181.359 451.671C181.359 451.816 175.624 451.932 168.552 451.932C161.477 451.932 155.744 451.816 155.744 451.671C155.744 451.527 161.477 451.411 168.552 451.411C175.624 451.412 181.359 451.528 181.359 451.671Z" fill="#263238"/>
<path d="M171.419 450.088C171.293 450.022 171.401 449.57 171.73 449.124C172.058 448.677 172.459 448.439 172.559 448.54C172.662 448.643 172.452 449.019 172.149 449.433C171.846 449.844 171.548 450.157 171.419 450.088Z" fill="#263238"/>
<path d="M172.397 450.652C172.264 450.602 172.333 450.095 172.634 449.562C172.934 449.027 173.333 448.707 173.444 448.794C173.559 448.884 173.366 449.32 173.087 449.817C172.808 450.313 172.534 450.705 172.397 450.652Z" fill="#263238"/>
<path d="M160.363 451.633C160.303 451.675 160.075 451.45 159.743 451.074C159.409 450.701 158.972 450.173 158.398 449.727C157.829 449.283 157.202 449.06 156.739 449.002C156.273 448.939 155.967 449.012 155.941 448.937C155.914 448.881 156.199 448.667 156.752 448.634C157.296 448.597 158.065 448.804 158.716 449.314C159.363 449.819 159.777 450.421 160.04 450.857C160.302 451.297 160.42 451.593 160.363 451.633Z" fill="#263238"/>
<path d="M171.466 448.48C171.541 448.601 171.278 448.898 170.84 449.058C170.403 449.22 170.009 449.163 169.989 449.023C169.966 448.879 170.277 448.712 170.66 448.57C171.044 448.429 171.39 448.356 171.466 448.48Z" fill="#263238"/>
<path d="M171.226 447.653C171.24 447.797 170.831 447.92 170.314 447.926C169.796 447.933 169.384 447.822 169.395 447.678C169.405 447.534 169.813 447.412 170.307 447.405C170.8 447.399 171.212 447.51 171.226 447.653Z" fill="#263238"/>
<path d="M208.901 448.342L208.902 439.786L193.571 439.683L193.444 452.477L194.394 452.547C198.623 452.82 215.915 453.35 218.749 452.473C221.909 451.496 208.901 448.342 208.901 448.342Z" fill="#718BFC"/>
<path d="M219.111 451.691C219.111 451.834 213.377 451.952 206.304 451.952C199.229 451.952 193.496 451.835 193.496 451.691C193.496 451.547 199.229 451.43 206.304 451.43C213.376 451.43 219.111 451.547 219.111 451.691Z" fill="#263238"/>
<path d="M209.171 450.088C209.045 450.022 209.153 449.57 209.483 449.124C209.811 448.677 210.212 448.439 210.312 448.54C210.415 448.643 210.205 449.019 209.902 449.433C209.598 449.844 209.299 450.157 209.171 450.088Z" fill="#263238"/>
<path d="M210.149 450.652C210.016 450.602 210.085 450.095 210.386 449.562C210.686 449.027 211.085 448.707 211.196 448.794C211.311 448.884 211.118 449.32 210.84 449.817C210.56 450.313 210.285 450.705 210.149 450.652Z" fill="#263238"/>
<path d="M198.114 451.633C198.054 451.675 197.826 451.45 197.494 451.074C197.161 450.701 196.723 450.173 196.149 449.727C195.58 449.283 194.954 449.06 194.49 449.002C194.024 448.939 193.718 449.012 193.692 448.937C193.665 448.881 193.95 448.667 194.502 448.634C195.046 448.597 195.816 448.804 196.466 449.314C197.114 449.819 197.526 450.421 197.79 450.857C198.054 451.297 198.172 451.593 198.114 451.633Z" fill="#263238"/>
<path d="M209.218 448.48C209.293 448.601 209.03 448.898 208.593 449.058C208.155 449.22 207.762 449.163 207.741 449.023C207.718 448.879 208.029 448.712 208.412 448.57C208.796 448.429 209.142 448.356 209.218 448.48Z" fill="#263238"/>
<path d="M208.977 447.653C208.991 447.797 208.582 447.92 208.065 447.926C207.547 447.933 207.136 447.822 207.146 447.678C207.156 447.534 207.565 447.412 208.059 447.405C208.552 447.399 208.963 447.51 208.977 447.653Z" fill="#263238"/>
<path d="M265.378 194.445C264.978 194.033 263.994 194.227 263.994 194.227C263.994 194.227 264.166 193.058 263.984 192.493C263.803 191.928 262.543 192.037 262.543 192.037C262.543 192.037 262.465 191.493 262.575 190.615C262.603 190.395 262.481 190.233 262.282 190.112C261.685 189.751 260.398 189.768 260.398 189.768C259.626 189.216 262.75 184.848 263.908 183.45C265.053 182.069 264.86 180.962 263.827 180.964C263.123 180.965 259.476 185.164 258.363 186.574C257.251 187.983 254.267 191.904 254.166 188.775C254.064 185.646 252.807 183.279 252.021 182.876C251.235 182.473 250.387 183.419 250.822 184.288C251.174 184.99 251.396 186.343 251.522 187.366C251.626 188.21 251.591 189.066 251.407 189.895C250.885 192.239 250.324 193.761 250.061 194.412L249.984 194.369C249.984 194.369 228.157 215.298 226.584 216.792C225.168 218.136 196.806 215.202 191.124 214.599C189.571 214.425 187.271 214.113 185.278 214.201C182.813 214.309 182.375 214.659 179.908 214.692C172.354 214.793 166.059 215.528 161.374 216.321C155.71 217.279 151.066 221.311 149.313 226.782C143.578 244.679 130.604 287.051 128.292 310.855C126.471 314.279 124.436 318.278 123.609 320.528C122.002 324.903 122.392 325.052 122.934 325.153C124.388 325.422 126.052 317.565 126.673 319.461C127.295 321.358 123.521 328.834 125.052 329.053C127.048 329.338 128.639 321.081 128.825 320.392C129.006 319.723 130.013 319.949 129.812 320.562C129.522 321.443 126.708 330.773 128.666 331.072C129.751 331.238 129.868 329.261 129.868 329.261C129.868 329.261 131.858 320.338 132.777 320.51C133.711 320.685 132.719 325.963 132.258 327.719C131.803 329.454 132.444 330.376 133.38 329.94C134.018 329.642 135.555 324.296 135.969 322.549C136.384 320.802 137.435 315.989 138.847 318.783C140.259 321.577 142.396 323.193 143.279 323.228C144.161 323.262 144.531 322.047 143.77 321.442C143.155 320.954 142.383 319.821 141.837 318.946C141.387 318.225 141.057 317.434 140.875 316.604C140.172 313.404 140.178 311.543 140.178 311.543L140.015 310.515C142.254 299.422 148.709 266.877 157.981 246.084L161.799 253.941L163.456 259.757L153.281 284.897L196.694 284.325L190.222 259.386L198.085 233.38H198.084C206.594 233.57 228.451 233.887 232.124 232.245C236.703 230.199 260.402 200.325 260.402 200.325H260.401C262.002 199.05 263.63 197.679 264.831 196.482C264.833 196.48 266.246 195.337 265.378 194.445Z" fill="#FFBE9D"/>
<path d="M151.392 266.388C152.649 262.089 159.121 240.83 159.121 240.83C159.121 240.83 162.297 258.162 161.462 260.249C160.5 262.654 158.732 265.406 158.732 265.406C151.392 276.585 152.355 282.172 152.355 282.172L196.695 280.82C196.803 274.619 193.132 260.202 192.365 257.905C191.597 255.608 194.143 248.068 194.143 248.068C194.143 248.068 199.154 242.979 198.96 240.36C198.569 235.084 198.086 233.38 198.086 233.38L225.066 234.373L224.218 216.066L185.435 212.185C184.093 216.004 171.88 214.133 171.88 214.133C158.695 214.566 157.897 216.991 152.398 221.248C146.9 225.505 137.845 262.068 137.845 262.068L151.392 266.388Z" fill="#718BFC"/>
<path d="M177.615 262.063C177.614 262.132 176.722 262.192 175.278 262.182C173.835 262.173 171.84 262.083 169.648 261.864C167.455 261.642 165.483 261.333 164.066 261.054C162.65 260.776 161.787 260.54 161.8 260.472C161.814 260.399 162.699 260.507 164.125 260.691C165.551 260.876 167.519 261.125 169.7 261.344C171.88 261.563 173.858 261.71 175.292 261.813C176.727 261.917 177.616 261.988 177.615 262.063Z" fill="#263238"/>
<path d="M180.65 258.293C180.669 258.357 179.754 258.704 178.229 259.118C176.705 259.531 174.564 259.988 172.168 260.274C169.771 260.557 167.582 260.616 166.003 260.57C164.423 260.525 163.453 260.4 163.457 260.335C163.46 260.258 164.434 260.251 166.002 260.202C167.57 260.153 169.732 260.038 172.106 259.757C174.478 259.474 176.608 259.079 178.144 258.76C179.68 258.44 180.629 258.218 180.65 258.293Z" fill="#263238"/>
<path d="M195.565 241.472C195.634 241.487 195.52 242.351 195.262 243.734C195.004 245.117 194.599 247.017 194.088 249.101C193.576 251.186 193.057 253.059 192.646 254.404C192.235 255.75 191.937 256.569 191.868 256.55C191.798 256.53 191.971 255.677 192.29 254.309C192.668 252.748 193.103 250.956 193.582 248.978C194.072 247.003 194.516 245.214 194.903 243.655C195.252 242.293 195.494 241.457 195.565 241.472Z" fill="#263238"/>
<path d="M151.857 263.84C151.819 263.979 148.761 263.266 145.027 262.247C141.292 261.227 138.296 260.29 138.334 260.15C138.372 260.011 141.429 260.725 145.164 261.744C148.898 262.763 151.895 263.702 151.857 263.84Z" fill="#263238"/>
<path d="M198.575 233.145C198.575 233.169 198.164 233.212 197.427 233.139C196.694 233.064 195.621 232.893 194.378 232.412C193.134 231.946 191.72 231.167 190.399 229.989C189.078 228.816 187.897 227.202 187.144 225.303C186.379 223.405 186.128 221.427 186.248 219.666C186.364 217.908 186.83 216.319 187.617 215.206C188.396 214.078 189.429 213.532 190.148 213.343C190.512 213.246 190.806 213.223 191.002 213.228C191.199 213.233 191.3 213.255 191.3 213.271C191.302 213.32 190.885 213.297 190.209 213.536C189.545 213.774 188.611 214.335 187.923 215.412C186.562 217.552 186.182 221.459 187.629 225.111C188.354 226.937 189.469 228.487 190.723 229.635C191.976 230.788 193.324 231.575 194.516 232.071C196.918 233.067 198.593 233.034 198.575 233.145Z" fill="#263238"/>
<path d="M221.884 234.007C221.741 234.007 221.632 229.881 221.642 224.792C221.652 219.701 221.777 215.577 221.92 215.577C222.064 215.578 222.172 219.703 222.162 224.793C222.153 229.882 222.028 234.008 221.884 234.007Z" fill="#263238"/>
<path d="M185.198 213.3C185.307 211.068 185.541 208.547 185.541 208.547C185.541 208.547 191.059 207.939 191.394 202.238C191.729 196.537 191.394 183.392 191.394 183.392L181.343 178.274L170.287 186.999L171.962 215.5L182.135 216.147C183.739 216.249 185.116 214.971 185.198 213.3Z" fill="#FFBE9D"/>
<path d="M186.192 197.729C186.208 197.733 186.209 197.836 186.105 197.974C186.003 198.108 185.78 198.26 185.47 198.254C184.829 198.223 184.213 197.515 183.986 196.651C183.872 196.212 183.873 195.767 183.959 195.384C184.027 195.007 184.245 194.628 184.559 194.525C184.709 194.469 184.865 194.475 184.984 194.535C185.101 194.594 185.173 194.683 185.21 194.765C185.285 194.935 185.227 195.038 185.212 195.03C185.189 195.029 185.195 194.935 185.111 194.828C185.032 194.719 184.844 194.62 184.636 194.728C184.424 194.824 184.279 195.095 184.225 195.442C184.162 195.786 184.17 196.181 184.271 196.572C184.471 197.346 185.008 197.98 185.485 198.037C185.721 198.067 185.917 197.976 186.023 197.89C186.133 197.8 186.171 197.719 186.192 197.729Z" fill="#EB996E"/>
<path d="M194.821 180.315C194.053 177.691 191.263 176.387 188.721 175.667C184.854 174.571 180.665 174.086 176.887 175.477C173.109 176.868 168.565 179.315 168.566 183.489C166.336 183.305 165.062 185.259 164.177 187.68C163.654 189.11 163.31 190.702 163.229 192.279L163.192 192.267C162.905 197.73 161.383 205.257 157.841 209.298C155.885 211.529 153.069 213.07 151.929 215.849C150.938 218.264 151.451 221.118 150.514 223.556C149.687 225.708 147.856 227.236 146.543 229.108C143.684 233.186 143.489 238.947 145.59 243.498C147.691 248.049 151.854 251.379 156.475 252.906C161.096 254.432 166.13 254.264 170.833 253.04C174.305 252.136 177.683 250.639 180.45 248.274C183.217 245.909 185.34 242.622 185.973 238.952C186.677 234.867 185.534 230.719 184.693 226.662C182.033 213.827 182.793 213.16 186.15 201.254C186.226 201.044 186.273 200.825 186.331 200.609C186.375 200.451 186.418 200.3 186.463 200.138L186.456 200.136C186.55 199.67 186.611 199.196 186.613 198.712C185.641 199.095 184.467 198.84 183.721 198.086C182.976 197.332 182.698 196.116 183.037 195.093C183.427 193.916 184.507 193.13 185.616 192.663C186.725 192.196 187.918 191.965 189.007 191.448C191.316 190.349 192.917 188.069 194.006 185.68C194.771 184.005 195.34 182.087 194.821 180.315Z" fill="#263238"/>
<path d="M186.587 197.972C186.622 197.957 186.816 198.329 187.113 198.96C187.41 199.591 187.808 200.482 188.251 201.506L188.334 201.7L188.122 201.718C187.789 201.747 187.452 201.776 187.104 201.806C186.406 201.851 185.824 201.935 185.148 201.928C185.041 201.909 184.922 201.811 184.89 201.701C184.854 201.593 184.864 201.502 184.875 201.423C184.904 201.266 184.939 201.15 184.969 201.017L185.146 200.309C185.367 199.445 185.525 198.915 185.567 198.925C185.609 198.935 185.527 199.482 185.361 200.357L185.222 201.072C185.171 201.314 185.083 201.675 185.213 201.647C185.711 201.626 186.42 201.543 187.078 201.494C187.426 201.466 187.763 201.44 188.096 201.413L187.968 201.625C187.54 200.596 187.177 199.689 186.929 199.037C186.684 198.386 186.552 197.987 186.587 197.972Z" fill="#718BFC"/>
<path d="M152.355 282.172L196.695 280.82L215.98 356.159L212.428 442.578H188.959L191.867 357.999L174.715 305.553L177.358 445.929L153.664 446.279L151.168 314.331C151.064 310.664 149.857 302.39 150.306 298.752L152.355 282.172Z" fill="#263238"/>
<path d="M180.621 306.618C180.612 306.687 179.78 306.646 178.446 306.489C177.112 306.332 175.277 306.05 173.267 305.647C171.257 305.242 169.456 304.792 168.165 304.42C166.874 304.048 166.091 303.767 166.109 303.698C166.149 303.553 169.368 304.334 173.37 305.136C177.369 305.945 180.64 306.469 180.621 306.618Z" fill="#455A64"/>
<path d="M212.215 437.838C212.215 437.983 206.901 438.099 200.349 438.099C193.794 438.099 188.482 437.983 188.482 437.838C188.482 437.695 193.794 437.578 200.349 437.578C206.901 437.579 212.215 437.695 212.215 437.838Z" fill="#455A64"/>
<path d="M177.146 442.282C177.146 442.427 171.992 442.543 165.634 442.543C159.275 442.543 154.121 442.427 154.121 442.282C154.121 442.138 159.275 442.022 165.634 442.022C171.992 442.022 177.146 442.138 177.146 442.282Z" fill="#455A64"/>
<path d="M174.094 441.922C173.95 441.924 173.327 411.25 172.702 373.419C172.077 335.574 171.687 304.902 171.831 304.9C171.975 304.898 172.598 335.565 173.223 373.41C173.848 411.242 174.238 441.919 174.094 441.922Z" fill="#455A64"/>
<path d="M209.063 437.838C209.054 437.838 209.051 437.699 209.052 437.43C209.057 437.135 209.065 436.739 209.074 436.232C209.105 435.151 209.15 433.605 209.207 431.628C209.347 427.603 209.547 421.825 209.795 414.697C210.342 400.38 211.097 380.645 211.931 358.847C211.939 358.646 211.947 358.445 211.954 358.259L211.962 358.333C206.707 337.29 201.957 318.27 198.513 304.48C196.823 297.611 195.454 292.045 194.5 288.167C194.042 286.261 193.685 284.77 193.435 283.728C193.323 283.239 193.236 282.856 193.171 282.571C193.114 282.309 193.089 282.175 193.098 282.173C193.106 282.171 193.148 282.302 193.222 282.559C193.299 282.84 193.403 283.22 193.536 283.704C193.809 284.741 194.198 286.224 194.696 288.12C195.688 291.987 197.111 297.539 198.868 304.392C202.35 318.172 207.153 337.179 212.466 358.207L212.475 358.243L212.474 358.281C212.467 358.466 212.458 358.667 212.451 358.869C211.558 380.664 210.749 400.395 210.162 414.712C209.845 421.837 209.588 427.611 209.409 431.636C209.309 433.612 209.232 435.156 209.178 436.237C209.147 436.743 209.123 437.139 209.105 437.433C209.086 437.702 209.072 437.839 209.063 437.838Z" fill="#455A64"/>
<path d="M201.414 356.501C201.438 356.643 199.117 357.159 196.229 357.655C194.073 358.026 192.211 358.28 191.398 358.326L191.397 358.123C191.667 358.197 191.812 358.255 191.806 358.291C191.801 358.327 191.644 358.338 191.365 358.326L190.759 358.3L191.364 358.123C192.146 357.894 193.986 357.513 196.142 357.143C199.028 356.646 201.389 356.358 201.414 356.501Z" fill="#455A64"/>
<path d="M200.965 359.376C200.945 359.521 198.862 359.36 196.297 359.163C193.732 358.961 191.649 358.797 191.652 358.65C191.655 358.508 193.756 358.44 196.338 358.643C198.918 358.842 200.984 359.236 200.965 359.376Z" fill="#455A64"/>
<path opacity="0.2" d="M152.158 283.764C153.23 285.273 154.759 285.802 156.536 286.093C158.312 286.384 160.125 286.19 161.913 285.991C173.358 284.721 185.486 283.55 196.695 280.819C182.186 281.632 166.864 281.358 152.355 282.171C152.355 282.171 152.231 283.169 152.202 283.409" fill="black"/>
<g opacity="0.2">
<path d="M167.114 304.215L175.288 335.948L174.716 305.552L167.114 304.215Z" fill="black"/>
</g>
</svg>
