<svg width="500" height="500" viewBox="0 0 500 500" fill="none" xmlns="http://www.w3.org/2000/svg">
<path d="M207.297 134.22C249.273 142.026 317.111 119.94 335.395 168.629C350.728 209.46 319.627 240.138 354.945 275.144C380.682 300.654 422.023 344.62 371.996 371.442C332.869 392.419 277.886 389.347 237.413 374.56C205.625 362.946 141.331 328.319 139.492 289.638C137.426 246.169 203.164 223.876 141.896 195.304C105.023 178.108 62.759 144.604 98.515 100.323C112.628 82.845 127.33 89.348 142.212 100.358C164.176 116.608 178.422 128.85 207.297 134.22Z" fill="#6E52D6"/>
<path opacity="0.9" d="M207.297 134.22C249.273 142.026 317.111 119.94 335.395 168.629C350.728 209.46 319.627 240.138 354.945 275.144C380.682 300.654 422.023 344.62 371.996 371.442C332.869 392.419 277.886 389.347 237.413 374.56C205.625 362.946 141.331 328.319 139.492 289.638C137.426 246.169 203.164 223.876 141.896 195.304C105.023 178.108 62.759 144.604 98.515 100.323C112.628 82.845 127.33 89.348 142.212 100.358C164.176 116.608 178.422 128.85 207.297 134.22Z" fill="white"/>
<path d="M250 427.561C357.082 427.561 443.889 422.492 443.889 416.238C443.889 409.985 357.082 404.915 250 404.915C142.918 404.915 56.1108 409.985 56.1108 416.238C56.1108 422.492 142.918 427.561 250 427.561Z" fill="#F5F5F5"/>
<path d="M163.116 416.778C163.014 416.778 162.91 416.749 162.818 416.687C152.64 409.901 156.396 402.18 160.746 393.24C166.394 381.631 173.425 367.182 154.725 347.533C138.83 330.832 131.111 314.829 132.988 302.472C133.998 295.82 137.762 290.502 143.873 287.094C144.135 286.949 144.462 287.042 144.606 287.302C144.752 287.562 144.659 287.891 144.398 288.036C138.589 291.275 135.012 296.323 134.054 302.633C132.229 314.653 139.847 330.335 155.506 346.789C174.723 366.98 167.511 381.802 161.717 393.712C157.418 402.547 154.023 409.525 163.416 415.789C163.664 415.954 163.731 416.289 163.566 416.537C163.462 416.693 163.291 416.778 163.116 416.778Z" fill="#263238"/>
<path d="M140.497 290.064C147.172 282.663 144.635 271.685 142.313 265.86C137.084 268.005 132.826 281.808 140.497 290.064Z" fill="#263238"/>
<path d="M140.494 328.395C131.837 311.977 115.748 309.94 106.684 309.177C112.048 319.993 126.175 333.446 140.494 328.395Z" fill="#263238"/>
<path d="M158.134 399.527C169.619 380.665 149.772 367.044 139.333 353.276C135.311 367.177 138.276 391.085 158.134 399.527Z" fill="#263238"/>
<path d="M156.331 348.473C142.394 332.15 145.58 320.325 149.364 312.679C156.864 322.351 168.188 339.501 156.331 348.473Z" fill="#263238"/>
<path d="M136.373 294.483C140.431 289.661 147.463 290.373 151.273 291.367C150.364 294.847 142.13 298.661 136.373 294.483Z" fill="#263238"/>
<path d="M166.415 381.025C167.944 368.57 173.361 369.545 177.606 363.966C179.888 372.22 174.467 379.782 166.415 381.025Z" fill="#263238"/>
<path d="M330.07 148.427C323.327 149.983 313.756 153.774 305.27 157.164C305.412 156.53 305.456 155.873 305.489 155.228C305.052 156.015 304.614 156.802 304.177 157.601C304.068 157.645 303.958 157.678 303.86 157.732C303.893 156.868 303.838 156.015 303.685 155.173C303.456 156.299 302.963 157.371 302.253 158.278C302.22 158.322 302.176 158.376 302.144 158.42C301.564 158.649 300.996 158.879 300.438 159.109C300.591 157.381 300.657 155.654 300.405 153.959C300.252 155.589 299.989 157.196 299.617 158.792C299.562 159.033 299.508 159.274 299.442 159.514C298.677 159.831 297.944 160.126 297.233 160.432C297.08 159.82 296.916 159.208 296.763 158.595C296.501 159.382 296.238 160.169 295.976 160.946C295.659 161.077 295.353 161.208 295.057 161.329C294.926 160.411 294.718 159.503 294.434 158.617C294.314 159.689 294.182 160.782 293.887 161.821C293.635 161.93 293.384 162.029 293.143 162.138C293.11 160.498 292.903 158.869 292.564 157.261C292.411 158.508 292.258 159.743 292.116 160.979C292.05 161.537 291.985 162.094 291.908 162.652C288.617 164.051 286.561 164.959 286.561 164.959C286.561 164.959 286.321 153.062 286.561 135.02C286.812 116.988 290.388 102.216 297.747 94.977C305.15 87.695 320.83 86.601 328.244 93.041C335.647 99.482 337.742 114.461 334.925 129.126C333.302 137.575 348.954 144.068 330.07 148.427Z" fill="#263238"/>
<path d="M264.194 230.184L264.895 228.048C265.452 226.352 266.735 224.992 268.396 224.338L277.652 220.694L282.279 222.953C281.037 228 275.345 233.103 275.345 233.103L273.895 234.691C272.603 236.105 270.443 236.516 268.931 235.633L265.451 233.601C264.249 232.9 263.748 231.54 264.194 230.184Z" fill="#B55B52"/>
<path d="M316.418 171.554C316.242 173.237 316.055 174.719 315.817 176.275C315.597 177.815 315.319 179.339 315.049 180.865C314.475 183.911 313.832 186.945 313.063 189.959C312.325 192.978 311.443 195.979 310.472 198.963C309.522 201.953 308.373 204.913 307.144 207.854L306.973 208.262C306.734 208.834 306.385 209.348 305.98 209.77C303.717 212.106 301.491 213.769 299.238 215.444C296.996 217.1 294.703 218.578 292.409 220.016C290.1 221.435 287.776 222.792 285.41 224.07C283.035 225.346 280.675 226.571 278.18 227.695C276.447 228.475 274.409 227.704 273.629 225.971C272.999 224.572 273.38 222.974 274.463 221.999L274.509 221.96C276.436 220.229 278.443 218.515 280.403 216.808C282.374 215.103 284.337 213.407 286.26 211.698C288.204 210.015 290.083 208.281 291.893 206.578C293.676 204.885 295.451 203.1 296.71 201.517L295.546 203.433C296.394 200.761 297.173 198.051 297.878 195.288C298.56 192.52 299.215 189.734 299.79 186.913C300.355 184.092 300.913 181.261 301.399 178.416L302.112 174.151L302.76 169.982L302.791 169.786C303.374 166.036 306.886 163.467 310.637 164.05C314.268 164.612 316.789 167.94 316.418 171.554Z" fill="#B55B52"/>
<path d="M316.714 152.29C297.976 154.586 294.776 190.246 296.476 197.457C299.118 203.628 310.607 200.426 310.607 200.426C310.607 200.426 328.816 173.383 316.714 152.29Z" fill="#263238"/>
<path d="M312.501 199.388C311.837 200.957 311.08 201.945 310.823 202.256C310.764 202.328 310.696 202.379 310.61 202.415C309.591 202.839 302.409 205.588 296.377 201.501C296.277 201.433 296.194 201.337 296.146 201.225C295.444 199.596 295.369 197.509 295.389 196.38C295.396 195.979 295.791 195.708 296.168 195.842C298.447 196.655 305.575 198.967 311.917 198.566C312.36 198.538 312.674 198.98 312.501 199.388Z" fill="white"/>
<path d="M389.796 416.227C398.931 416.227 398.261 416.086 403.381 415.914C407.764 415.757 408.857 416.306 412.383 416.227C415.329 416.164 415.007 413.339 413.851 410.09C413.273 408.458 412.416 406.464 411.59 403.828H397.715C396.102 407.422 392.554 410.122 387.458 410.813C382.594 411.472 386.154 416.227 389.796 416.227Z" fill="#263238"/>
<path d="M314.354 416.227C325.965 416.227 327.073 411.212 331.391 408.58C335.088 406.316 336.562 406.945 340.382 404.792C342.912 403.366 341.788 400.244 339.757 398.573C338.176 397.272 336.277 395.462 334.826 393.392L323.511 398.415C322.894 402.982 320.755 410.654 313.927 411.14C309.045 411.502 310.76 416.227 314.354 416.227Z" fill="#263238"/>
<path d="M316.639 223.165C316.639 223.165 294.607 279.164 291.724 306.932C291.639 329.914 323.511 398.417 323.511 398.417C324.498 400.131 333.654 395.208 334.826 393.394C323.086 364.731 329.257 328.873 318.667 307.835C341.372 275.549 358.979 215.799 358.979 215.799L316.639 223.165Z" fill="#6E52D6"/>
<path opacity="0.2" d="M312.866 237.096C312.752 237.096 312.648 237.017 312.622 236.901C312.592 236.766 312.676 236.632 312.81 236.602C317.494 235.538 319.637 232.183 319.659 232.15C319.734 232.032 319.889 231.998 320.004 232.071C320.121 232.144 320.156 232.298 320.083 232.415C319.992 232.56 317.806 235.98 312.922 237.09C312.903 237.094 312.885 237.096 312.866 237.096Z" fill="white"/>
<path opacity="0.2" d="M337.26 248.998C332.358 258.924 331.588 273.724 331.984 285.057C338.359 272.394 343.946 258.781 348.353 247.004C348.335 246.987 348.316 246.97 348.298 246.953C344.885 243.794 339.318 244.829 337.26 248.998Z" fill="black"/>
<path d="M329.335 220.956C329.335 220.956 335.176 273.272 346.793 308.973C352.586 326.775 385.689 367.2 397.714 403.828C399.948 405.071 407.474 405.146 411.589 403.828C411.589 403.828 393.118 323.318 373.232 306.377C373.169 262.869 374.727 241.875 365.218 214.714L329.335 220.956Z" fill="#6E52D6"/>
<path opacity="0.2" d="M406.5 399.023C406.38 399.023 406.274 398.937 406.254 398.815C398.025 350.206 368.592 307.852 368.295 307.429C368.262 307.381 368.246 307.322 368.251 307.264C368.256 307.206 368.757 301.221 369.275 279.16C369.764 258.361 367.841 235.787 367.601 233.066C366.038 233.328 358.166 234.395 352.212 230.49C352.096 230.414 352.064 230.259 352.14 230.144C352.216 230.028 352.372 229.996 352.486 230.072C358.919 234.29 367.687 232.545 367.775 232.527C367.844 232.513 367.918 232.529 367.974 232.571C368.032 232.613 368.068 232.678 368.075 232.749C368.097 232.99 370.295 257.079 369.775 279.172C369.29 299.81 368.82 306.394 368.755 307.216C370.162 309.251 398.662 350.978 406.745 398.731C406.768 398.867 406.677 398.996 406.541 399.019C406.527 399.022 406.514 399.023 406.5 399.023Z" fill="white"/>
<path d="M395.08 398.626C395.403 399.885 395.921 402.081 396.076 403.756C396.132 404.36 396.701 404.92 397.337 405.018C402.65 405.831 409.66 404.653 411.872 404.234C412.296 404.154 412.533 403.799 412.474 403.351L411.848 398.552C411.762 397.896 411.078 397.306 410.417 397.318L395.83 397.601C395.265 397.611 394.935 398.057 395.08 398.626Z" fill="#6E52D6"/>
<path opacity="0.2" d="M395.08 398.626C395.403 399.885 395.921 402.081 396.076 403.756C396.132 404.36 396.701 404.92 397.337 405.018C402.65 405.831 409.66 404.653 411.872 404.234C412.296 404.154 412.533 403.799 412.474 403.351L411.848 398.552C411.762 397.896 411.078 397.306 410.417 397.318L395.83 397.601C395.265 397.611 394.935 398.057 395.08 398.626Z" fill="black"/>
<path d="M320.246 393.928C320.698 395.191 321.492 397.446 322.018 399.14C322.192 399.7 322.775 400.003 323.339 399.841C327.562 398.626 333.748 395.281 335.768 394.157C336.168 393.934 336.377 393.482 336.294 393.032L335.395 388.184C335.272 387.523 334.576 387.138 333.951 387.386L320.86 392.584C320.325 392.797 320.052 393.387 320.246 393.928Z" fill="#6E52D6"/>
<path opacity="0.2" d="M320.246 393.928C320.698 395.191 321.492 397.446 322.018 399.14C322.192 399.7 322.775 400.003 323.339 399.841C327.562 398.626 333.748 395.281 335.768 394.157C336.168 393.934 336.377 393.482 336.294 393.032L335.395 388.184C335.272 387.523 334.576 387.138 333.951 387.386L320.86 392.584C320.325 392.797 320.052 393.387 320.246 393.928Z" fill="black"/>
<path d="M316.376 221.078C316.506 221.729 315.829 224.515 314.814 226.988C316.612 228.207 322.778 229.559 330.642 229.898C331.376 228.689 331.843 225.503 332.416 224.202C332.729 226.077 334.733 229.201 335.922 229.964C340.106 229.89 344.565 229.508 348.976 228.68C364.234 225.816 367.827 221.077 367.827 221.077C367.827 221.077 364.911 212.276 364.078 209.048C356.213 209.674 316.793 210.82 316.376 221.078Z" fill="white"/>
<path d="M302.121 176.784C303.581 181.41 305.419 187.267 309.873 197.969C315.815 213.267 314.416 216.636 315.959 222.918C319.407 224.356 325.28 225.603 329.334 225.494C329.994 224.015 330.797 222.619 332.05 221.026C333.261 221.841 336.997 224.168 339.149 224.307C348.87 222.814 361.407 219.042 365.811 214.378C362.454 200.863 361.245 186.118 359.284 153.694C358.83 146.176 352.211 141.119 345.066 142.832C343.157 143.29 341.146 143.818 339.105 144.423C331.169 146.775 324.683 148.763 317.97 151.816C315.745 152.828 313.466 153.949 311.3 155.062C303.487 159.074 299.506 168.495 302.121 176.784Z" fill="#263238"/>
<path d="M385.275 230.134L383.769 228.465C382.573 227.14 382.03 225.351 382.287 223.585L383.718 213.741L387.976 210.846C391.741 214.43 393.345 221.904 393.345 221.904L394.004 223.951C394.59 225.774 393.874 227.854 392.358 228.728L388.866 230.741C387.66 231.435 386.231 231.194 385.275 230.134Z" fill="#B55B52"/>
<path d="M364.313 152.321C365.602 153.519 366.683 154.583 367.807 155.743C368.923 156.877 369.988 158.051 371.057 159.221C373.169 161.581 375.215 164.002 377.158 166.515C379.124 169.007 380.984 171.599 382.754 174.265C384.556 176.905 386.177 179.704 387.748 182.53L387.948 182.89C388.095 183.154 388.214 183.448 388.296 183.726C389.201 186.85 389.539 189.607 389.875 192.395C390.2 195.163 390.344 197.888 390.454 200.592C390.539 203.301 390.564 205.992 390.499 208.68C390.428 211.375 390.32 214.033 390.057 216.756C389.875 218.648 388.193 220.033 386.301 219.851C384.774 219.703 383.576 218.579 383.268 217.156L383.256 217.097C382.71 214.564 382.218 211.972 381.709 209.423C381.207 206.866 380.709 204.319 380.18 201.801C379.683 199.279 379.111 196.786 378.532 194.37C377.947 191.981 377.279 189.555 376.529 187.676L377.077 188.871C375.476 186.504 373.827 184.164 372.063 181.869C370.298 179.582 368.48 177.32 366.59 175.102C364.693 172.893 362.777 170.689 360.794 168.547L357.81 165.356C356.824 164.324 355.768 163.22 354.864 162.308L354.751 162.193C352.079 159.497 352.098 155.146 354.794 152.473C357.42 149.871 361.627 149.831 364.313 152.321Z" fill="#B55B52"/>
<path d="M344.216 143.039C361.89 136.405 381.227 166.537 383.056 173.717C383.569 180.41 371.902 182.888 371.902 182.888C371.902 182.888 343.247 167.337 344.216 143.039Z" fill="#263238"/>
<path d="M321.533 166.733C321.318 166.733 321.109 166.622 320.993 166.424C320.818 166.126 320.919 165.743 321.217 165.569C322.673 164.716 328.76 158.768 331.27 153.778C331.425 153.471 331.794 153.344 332.11 153.501C332.418 153.656 332.542 154.032 332.387 154.34C329.73 159.623 323.433 165.721 321.848 166.648C321.749 166.705 321.64 166.733 321.533 166.733Z" fill="#6E52D6"/>
<path d="M319.379 166.421C319.273 166.421 319.163 166.393 319.065 166.336C317.189 165.238 313.864 160.787 314.295 155.002C314.32 154.658 314.596 154.398 314.965 154.425C315.309 154.451 315.567 154.751 315.541 155.095C315.125 160.68 318.489 164.551 319.695 165.257C319.993 165.431 320.093 165.814 319.919 166.112C319.803 166.31 319.594 166.421 319.379 166.421Z" fill="#6E52D6"/>
<path d="M327.672 121.547C328.838 128.919 331.938 141.837 337.944 144.829C337.944 144.829 331.164 146.115 320.447 159.355C314.501 155.061 316.809 152.222 316.809 152.222C323.894 147.712 322.311 142.94 319.126 138.233L327.672 121.547Z" fill="#B55B52"/>
<path d="M322.727 156.647C327.455 155.713 331.245 162.022 331.245 162.022C331.245 162.022 339.387 150.587 340.928 143.991C339.028 143.711 336.1 142.865 336.1 142.865C336.1 142.865 324.447 153.127 322.727 156.647Z" fill="white"/>
<path d="M318.193 157.42C318.193 157.42 314.668 159.83 315.174 165.796C310.674 156.238 314.717 152.931 314.717 152.931C314.717 152.931 315.777 151.429 318.583 150.918C315.67 154.052 318.193 157.42 318.193 157.42Z" fill="white"/>
<path opacity="0.2" d="M324.19 128.354L319.131 138.225C319.889 139.337 320.585 140.498 321.115 141.691C323.765 140.018 326.465 135.118 325.667 131.954C325.269 130.376 324.683 128.951 324.19 128.354Z" fill="black"/>
<path d="M301.333 131.96H299.014C298.931 131.96 298.853 131.923 298.801 131.858C298.749 131.794 298.729 131.709 298.746 131.628L299.906 126.282C299.933 126.156 300.045 126.067 300.174 126.067C300.303 126.067 300.414 126.157 300.442 126.282L301.601 131.628C301.619 131.709 301.598 131.793 301.546 131.858C301.494 131.922 301.416 131.96 301.333 131.96ZM299.353 131.413H300.995L300.175 127.63L299.353 131.413Z" fill="white"/>
<path d="M327.376 105.836C330.136 117.346 331.543 122.147 327.765 129.952C322.083 141.693 307.749 143.248 301.705 132.96C296.265 123.701 292.665 106.434 302.035 98.0291C311.266 89.7491 324.616 94.3261 327.376 105.836Z" fill="#B55B52"/>
<path d="M295.122 110.778C305.714 108.713 312.141 98.446 317.13 98.75C316.369 106.526 322.47 115.319 328.482 115.527C336.61 115.808 329.078 95.834 323.622 92.675C317.851 89.334 293.248 89.091 295.122 110.778Z" fill="#263238"/>
<path d="M323.539 115.968C322.695 115.968 321.857 115.678 321.048 115.099C317.379 112.471 315.161 104.303 316.572 98.607C316.645 98.315 316.931 98.135 317.234 98.208C317.527 98.281 317.706 98.577 317.632 98.87C316.337 104.103 318.381 111.845 321.684 114.21C322.857 115.05 324.058 115.086 325.258 114.317C325.512 114.153 325.85 114.228 326.013 114.482C326.176 114.736 326.103 115.074 325.848 115.237C325.089 115.724 324.311 115.968 323.539 115.968Z" fill="#263238"/>
<path d="M311.351 115.137C311.624 116.093 311.364 117.042 310.77 117.258C310.176 117.473 309.473 116.873 309.199 115.917C308.926 114.961 309.186 114.012 309.78 113.796C310.375 113.581 311.078 114.181 311.351 115.137Z" fill="#263238"/>
<path d="M300.221 119.354C300.494 120.31 300.234 121.259 299.64 121.475C299.046 121.69 298.343 121.09 298.069 120.134C297.796 119.178 298.056 118.229 298.65 118.013C299.245 117.798 299.948 118.398 300.221 119.354Z" fill="#263238"/>
<path d="M298.928 117.971L296.556 118.1C296.556 118.1 298.189 119.488 298.928 117.971Z" fill="#263238"/>
<path d="M303.786 119.794C303.786 119.794 303.421 124.468 302.291 127.069C303.828 127.812 305.714 126.535 305.714 126.535L303.786 119.794Z" fill="#A02724"/>
<path d="M311.59 127.968C311.107 128.148 310.581 128.295 310.01 128.399C309.856 128.427 309.717 128.32 309.699 128.159C309.682 128 309.788 127.849 309.947 127.818C314.119 127.068 315.738 123.683 315.754 123.649C315.823 123.499 315.992 123.43 316.131 123.494C316.27 123.558 316.327 123.731 316.257 123.88C316.195 124.012 314.894 126.738 311.59 127.968Z" fill="#263238"/>
<path d="M333.077 116.765C332.512 119.371 330.981 121.279 329.356 122.186C326.911 123.551 325.005 120.834 325.112 117.608C325.208 114.704 326.597 110.494 329.327 110.494C332.015 110.493 333.722 113.785 333.077 116.765Z" fill="#B55B52"/>
<path d="M305.392 110.971C305.471 110.842 305.599 110.748 305.755 110.722C308.196 110.315 308.98 108.336 308.989 108.313C309.104 108.019 309.428 107.882 309.715 108.016C310.001 108.151 310.14 108.501 310.026 108.801C309.985 108.905 309.004 111.389 305.974 111.894C305.672 111.944 305.378 111.722 305.317 111.399C305.288 111.243 305.318 111.092 305.392 110.971Z" fill="#263238"/>
<path d="M295.327 115.483C295.195 115.54 295.046 115.547 294.909 115.491C294.626 115.374 294.5 115.034 294.626 114.73C295.899 111.685 298.458 111.079 298.567 111.055C298.874 110.987 299.161 111.188 299.209 111.507C299.257 111.825 299.048 112.138 298.742 112.208C298.642 112.23 296.663 112.73 295.651 115.152C295.586 115.307 295.466 115.423 295.327 115.483Z" fill="#263238"/>
<path d="M310.058 113.754L307.686 113.883C307.686 113.883 309.319 115.27 310.058 113.754Z" fill="#263238"/>
<path d="M319.362 162.216C320.581 161.997 321.496 161.954 322.09 161.963C322.568 161.97 322.977 162.281 323.11 162.739C323.404 163.748 323.941 165.559 324.257 166.434C324.708 167.684 321.167 170.253 321.167 170.253C321.167 170.253 318.251 168.864 318.181 167.024C318.134 165.779 318.334 164.09 318.468 163.127C318.534 162.661 318.899 162.3 319.362 162.216Z" fill="#6E52D6"/>
<path d="M326.68 198.825C326.444 193.062 322.641 166.712 322.641 166.712L319.831 167.059C319.623 170.808 317.626 193.339 317.626 199.31C317.626 205.281 322.727 211.947 322.727 211.947C322.727 211.947 326.915 204.588 326.68 198.825Z" fill="#6E52D6"/>
<path d="M369.742 182.843C371.057 183.927 372.185 184.452 372.557 184.609C372.643 184.645 372.726 184.659 372.819 184.651C373.918 184.556 381.558 183.67 385.013 177.255C385.07 177.148 385.099 177.025 385.09 176.904C384.959 175.135 384.06 173.25 383.52 172.259C383.328 171.907 382.853 171.849 382.581 172.143C380.936 173.918 375.687 179.266 369.879 181.845C369.475 182.024 369.4 182.561 369.742 182.843Z" fill="white"/>
<path d="M292.01 248.319L287.097 258.329C286.119 260.322 283.667 261.082 281.733 259.992L218.443 224.319L224.018 212.96L290.145 243.102C292.125 244.006 292.969 246.365 292.01 248.319Z" fill="#6E52D6"/>
<path opacity="0.4" d="M292.01 248.319L287.097 258.329C286.119 260.322 283.667 261.082 281.733 259.992L218.443 224.319L224.018 212.96L290.145 243.102C292.125 244.006 292.969 246.365 292.01 248.319Z" fill="black"/>
<path d="M224.047 172.36C223.974 172.165 223.903 171.969 223.827 171.775C223.556 171.08 223.272 170.389 222.97 169.704C222.929 169.611 222.884 169.52 222.842 169.427C222.576 168.832 222.297 168.241 222.008 167.654C221.905 167.445 221.799 167.238 221.694 167.031C221.44 166.532 221.178 166.037 220.908 165.544C220.805 165.356 220.704 165.166 220.598 164.979C220.227 164.321 219.843 163.667 219.443 163.022C219.396 162.947 219.346 162.873 219.299 162.798C218.94 162.226 218.569 161.66 218.186 161.1C218.054 160.906 217.919 160.714 217.784 160.522C217.458 160.056 217.125 159.596 216.783 159.139C216.651 158.963 216.522 158.785 216.388 158.61C215.921 157.999 215.443 157.395 214.947 156.801C214.899 156.744 214.848 156.688 214.8 156.631C214.348 156.094 213.883 155.565 213.409 155.042C213.249 154.866 213.087 154.694 212.926 154.52C212.532 154.097 212.131 153.679 211.722 153.267C211.562 153.105 211.404 152.943 211.241 152.783C210.682 152.232 210.113 151.688 209.527 151.157C209.487 151.121 209.446 151.087 209.406 151.051C208.857 150.556 208.295 150.072 207.723 149.596C207.539 149.442 207.351 149.291 207.164 149.139C206.705 148.767 206.24 148.401 205.768 148.041C205.581 147.898 205.394 147.754 205.205 147.613C204.559 147.133 203.903 146.661 203.232 146.205C203.206 146.188 203.18 146.172 203.155 146.155C202.508 145.717 201.846 145.293 201.176 144.878C200.966 144.748 200.754 144.622 200.542 144.494C200.024 144.182 199.5 143.878 198.969 143.58C198.753 143.459 198.539 143.337 198.321 143.219C197.592 142.823 196.855 142.435 196.102 142.065C169.368 128.945 137.86 138.331 125.745 163.017L121.797 171.063C133.912 146.377 165.42 136.991 192.154 150.111C192.907 150.481 193.644 150.868 194.373 151.265C194.591 151.383 194.805 151.506 195.02 151.626C195.551 151.924 196.075 152.228 196.593 152.54C196.805 152.668 197.017 152.794 197.227 152.924C197.897 153.339 198.559 153.763 199.206 154.201C199.231 154.218 199.257 154.234 199.283 154.251C199.954 154.707 200.609 155.179 201.256 155.659C201.446 155.8 201.632 155.944 201.82 156.087C202.291 156.446 202.755 156.811 203.213 157.182C203.401 157.335 203.591 157.487 203.777 157.642C204.348 158.117 204.909 158.601 205.458 159.095C205.498 159.131 205.54 159.165 205.58 159.201C206.166 159.732 206.734 160.276 207.294 160.827C207.456 160.987 207.614 161.15 207.775 161.311C208.183 161.723 208.585 162.141 208.979 162.564C209.141 162.738 209.303 162.911 209.462 163.086C209.936 163.609 210.401 164.138 210.853 164.675C210.901 164.732 210.952 164.788 211 164.845C211.495 165.439 211.972 166.042 212.44 166.653C212.575 166.829 212.705 167.008 212.838 167.185C213.178 167.641 213.512 168.101 213.836 168.566C213.971 168.758 214.106 168.951 214.238 169.144C214.62 169.705 214.991 170.27 215.351 170.842C215.398 170.917 215.448 170.991 215.495 171.066C215.896 171.711 216.279 172.364 216.65 173.023C216.756 173.21 216.857 173.399 216.96 173.588C217.231 174.08 217.493 174.576 217.747 175.074C217.853 175.282 217.959 175.489 218.061 175.698C218.35 176.285 218.628 176.876 218.895 177.471C218.937 177.564 218.982 177.655 219.023 177.749C219.325 178.434 219.608 179.125 219.88 179.82C219.956 180.014 220.027 180.21 220.1 180.405C220.296 180.925 220.484 181.448 220.663 181.973C220.738 182.193 220.813 182.413 220.885 182.633C221.08 183.232 221.265 183.834 221.438 184.438C221.47 184.551 221.507 184.664 221.539 184.778C221.737 185.49 221.917 186.206 222.084 186.924C222.13 187.124 222.171 187.324 222.216 187.525C222.334 188.063 222.444 188.602 222.544 189.143C222.586 189.371 222.628 189.599 222.667 189.828C222.77 190.434 222.862 191.042 222.943 191.651C222.96 191.778 222.981 191.904 222.997 192.031C223.088 192.76 223.16 193.491 223.218 194.223C223.234 194.421 223.243 194.619 223.257 194.818C223.294 195.369 223.322 195.921 223.34 196.474C223.347 196.705 223.354 196.937 223.358 197.168C223.369 197.771 223.368 198.374 223.356 198.978C223.353 199.117 223.355 199.257 223.351 199.396C223.344 199.622 223.325 199.847 223.315 200.073C223.286 200.745 223.249 201.418 223.191 202.089C223.163 202.41 223.124 202.731 223.089 203.051C223.028 203.622 222.961 204.193 222.879 204.763C222.829 205.11 222.772 205.456 222.714 205.802C222.622 206.35 222.521 206.897 222.409 207.443C222.338 207.791 222.265 208.138 222.185 208.485C222.058 209.041 221.916 209.595 221.767 210.149C221.673 210.502 221.583 210.855 221.48 211.207C221.404 211.467 221.321 211.725 221.24 211.984C221.088 212.471 220.927 212.957 220.758 213.442C220.665 213.708 220.57 213.975 220.472 214.241C220.286 214.742 220.088 215.241 219.884 215.738C219.789 215.969 219.699 216.201 219.6 216.431C219.291 217.151 218.967 217.868 218.618 218.578L222.566 210.532C222.915 209.821 223.238 209.105 223.548 208.385C223.647 208.155 223.737 207.923 223.832 207.693C224.036 207.196 224.234 206.697 224.42 206.196C224.518 205.93 224.613 205.664 224.706 205.397C224.875 204.913 225.036 204.428 225.188 203.94C225.269 203.681 225.352 203.422 225.428 203.162C225.465 203.036 225.508 202.911 225.544 202.785C225.608 202.559 225.654 202.331 225.714 202.105C225.863 201.551 226.005 200.997 226.132 200.441C226.211 200.094 226.284 199.747 226.355 199.4C226.467 198.854 226.568 198.306 226.66 197.758C226.718 197.412 226.775 197.067 226.825 196.72C226.908 196.15 226.974 195.578 227.035 195.006C227.07 194.686 227.109 194.366 227.136 194.046C227.194 193.374 227.231 192.701 227.26 192.028C227.268 191.841 227.288 191.654 227.295 191.467C227.296 191.429 227.295 191.39 227.296 191.352C227.3 191.213 227.298 191.073 227.301 190.934C227.313 190.33 227.314 189.727 227.303 189.123C227.299 188.892 227.292 188.662 227.284 188.431C227.266 187.878 227.238 187.326 227.201 186.774C227.188 186.576 227.178 186.378 227.162 186.179C227.104 185.447 227.032 184.716 226.94 183.987C226.924 183.86 226.903 183.734 226.886 183.607C226.805 182.998 226.713 182.391 226.61 181.785C226.571 181.556 226.529 181.328 226.486 181.1C226.386 180.558 226.276 180.018 226.158 179.479C226.114 179.28 226.074 179.08 226.027 178.881C225.86 178.162 225.681 177.446 225.482 176.734C225.45 176.62 225.414 176.508 225.382 176.394C225.209 175.79 225.025 175.188 224.829 174.589C224.758 174.368 224.682 174.149 224.607 173.929C224.432 173.402 224.243 172.88 224.047 172.36Z" fill="#6E52D6"/>
<path opacity="0.4" d="M224.047 172.36C223.974 172.165 223.903 171.969 223.827 171.775C223.556 171.08 223.272 170.389 222.97 169.704C222.929 169.611 222.884 169.52 222.842 169.427C222.576 168.832 222.297 168.241 222.008 167.654C221.905 167.445 221.799 167.238 221.694 167.031C221.44 166.532 221.178 166.037 220.908 165.544C220.805 165.356 220.704 165.166 220.598 164.979C220.227 164.321 219.843 163.667 219.443 163.022C219.396 162.947 219.346 162.873 219.299 162.798C218.94 162.226 218.569 161.66 218.186 161.1C218.054 160.906 217.919 160.714 217.784 160.522C217.458 160.056 217.125 159.596 216.783 159.139C216.651 158.963 216.522 158.785 216.388 158.61C215.921 157.999 215.443 157.395 214.947 156.801C214.899 156.744 214.848 156.688 214.8 156.631C214.348 156.094 213.883 155.565 213.409 155.042C213.249 154.866 213.087 154.694 212.926 154.52C212.532 154.097 212.131 153.679 211.722 153.267C211.562 153.105 211.404 152.943 211.241 152.783C210.682 152.232 210.113 151.688 209.527 151.157C209.487 151.121 209.446 151.087 209.406 151.051C208.857 150.556 208.295 150.072 207.723 149.596C207.539 149.442 207.351 149.291 207.164 149.139C206.705 148.767 206.24 148.401 205.768 148.041C205.581 147.898 205.394 147.754 205.205 147.613C204.559 147.133 203.903 146.661 203.232 146.205C203.206 146.188 203.18 146.172 203.155 146.155C202.508 145.717 201.846 145.293 201.176 144.878C200.966 144.748 200.754 144.622 200.542 144.494C200.024 144.182 199.5 143.878 198.969 143.58C198.753 143.459 198.539 143.337 198.321 143.219C197.592 142.823 196.855 142.435 196.102 142.065C169.368 128.945 137.86 138.331 125.745 163.017L121.797 171.063C133.912 146.377 165.42 136.991 192.154 150.111C192.907 150.481 193.644 150.868 194.373 151.265C194.591 151.383 194.805 151.506 195.02 151.626C195.551 151.924 196.075 152.228 196.593 152.54C196.805 152.668 197.017 152.794 197.227 152.924C197.897 153.339 198.559 153.763 199.206 154.201C199.231 154.218 199.257 154.234 199.283 154.251C199.954 154.707 200.609 155.179 201.256 155.659C201.446 155.8 201.632 155.944 201.82 156.087C202.291 156.446 202.755 156.811 203.213 157.182C203.401 157.335 203.591 157.487 203.777 157.642C204.348 158.117 204.909 158.601 205.458 159.095C205.498 159.131 205.54 159.165 205.58 159.201C206.166 159.732 206.734 160.276 207.294 160.827C207.456 160.987 207.614 161.15 207.775 161.311C208.183 161.723 208.585 162.141 208.979 162.564C209.141 162.738 209.303 162.911 209.462 163.086C209.936 163.609 210.401 164.138 210.853 164.675C210.901 164.732 210.952 164.788 211 164.845C211.495 165.439 211.972 166.042 212.44 166.653C212.575 166.829 212.705 167.008 212.838 167.185C213.178 167.641 213.512 168.101 213.836 168.566C213.971 168.758 214.106 168.951 214.238 169.144C214.62 169.705 214.991 170.27 215.351 170.842C215.398 170.917 215.448 170.991 215.495 171.066C215.896 171.711 216.279 172.364 216.65 173.023C216.756 173.21 216.857 173.399 216.96 173.588C217.231 174.08 217.493 174.576 217.747 175.074C217.853 175.282 217.959 175.489 218.061 175.698C218.35 176.285 218.628 176.876 218.895 177.471C218.937 177.564 218.982 177.655 219.023 177.749C219.325 178.434 219.608 179.125 219.88 179.82C219.956 180.014 220.027 180.21 220.1 180.405C220.296 180.925 220.484 181.448 220.663 181.973C220.738 182.193 220.813 182.413 220.885 182.633C221.08 183.232 221.265 183.834 221.438 184.438C221.47 184.551 221.507 184.664 221.539 184.778C221.737 185.49 221.917 186.206 222.084 186.924C222.13 187.124 222.171 187.324 222.216 187.525C222.334 188.063 222.444 188.602 222.544 189.143C222.586 189.371 222.628 189.599 222.667 189.828C222.77 190.434 222.862 191.042 222.943 191.651C222.96 191.778 222.981 191.904 222.997 192.031C223.088 192.76 223.16 193.491 223.218 194.223C223.234 194.421 223.243 194.619 223.257 194.818C223.294 195.369 223.322 195.921 223.34 196.474C223.347 196.705 223.354 196.937 223.358 197.168C223.369 197.771 223.368 198.374 223.356 198.978C223.353 199.117 223.355 199.257 223.351 199.396C223.344 199.622 223.325 199.847 223.315 200.073C223.286 200.745 223.249 201.418 223.191 202.089C223.163 202.41 223.124 202.731 223.089 203.051C223.028 203.622 222.961 204.193 222.879 204.763C222.829 205.11 222.772 205.456 222.714 205.802C222.622 206.35 222.521 206.897 222.409 207.443C222.338 207.791 222.265 208.138 222.185 208.485C222.058 209.041 221.916 209.595 221.767 210.149C221.673 210.502 221.583 210.855 221.48 211.207C221.404 211.467 221.321 211.725 221.24 211.984C221.088 212.471 220.927 212.957 220.758 213.442C220.665 213.708 220.57 213.975 220.472 214.241C220.286 214.742 220.088 215.241 219.884 215.738C219.789 215.969 219.699 216.201 219.6 216.431C219.291 217.151 218.967 217.868 218.618 218.578L222.566 210.532C222.915 209.821 223.238 209.105 223.548 208.385C223.647 208.155 223.737 207.923 223.832 207.693C224.036 207.196 224.234 206.697 224.42 206.196C224.518 205.93 224.613 205.664 224.706 205.397C224.875 204.913 225.036 204.428 225.188 203.94C225.269 203.681 225.352 203.422 225.428 203.162C225.465 203.036 225.508 202.911 225.544 202.785C225.608 202.559 225.654 202.331 225.714 202.105C225.863 201.551 226.005 200.997 226.132 200.441C226.211 200.094 226.284 199.747 226.355 199.4C226.467 198.854 226.568 198.306 226.66 197.758C226.718 197.412 226.775 197.067 226.825 196.72C226.908 196.15 226.974 195.578 227.035 195.006C227.07 194.686 227.109 194.366 227.136 194.046C227.194 193.374 227.231 192.701 227.26 192.028C227.268 191.841 227.288 191.654 227.295 191.467C227.296 191.429 227.295 191.39 227.296 191.352C227.3 191.213 227.298 191.073 227.301 190.934C227.313 190.33 227.314 189.727 227.303 189.123C227.299 188.892 227.292 188.662 227.284 188.431C227.266 187.878 227.238 187.326 227.201 186.774C227.188 186.576 227.178 186.378 227.162 186.179C227.104 185.447 227.032 184.716 226.94 183.987C226.924 183.86 226.903 183.734 226.886 183.607C226.805 182.998 226.713 182.391 226.61 181.785C226.571 181.556 226.529 181.328 226.486 181.1C226.386 180.558 226.276 180.018 226.158 179.479C226.114 179.28 226.074 179.08 226.027 178.881C225.86 178.162 225.681 177.446 225.482 176.734C225.45 176.62 225.414 176.508 225.382 176.394C225.209 175.79 225.025 175.188 224.829 174.589C224.758 174.368 224.682 174.149 224.607 173.929C224.432 173.402 224.243 172.88 224.047 172.36Z" fill="black"/>
<path d="M145.714 244.742C144.738 244.263 143.782 243.76 142.836 243.245C142.555 243.092 142.279 242.935 142.001 242.779C141.311 242.392 140.629 241.996 139.956 241.591C139.682 241.426 139.408 241.263 139.138 241.096C138.268 240.557 137.408 240.007 136.568 239.438C136.537 239.417 136.504 239.397 136.473 239.376C135.603 238.785 134.753 238.173 133.915 237.551C133.668 237.368 133.426 237.18 133.182 236.995C132.57 236.529 131.968 236.056 131.374 235.574C131.132 235.377 130.888 235.181 130.649 234.982C129.908 234.365 129.18 233.739 128.469 233.098C128.417 233.051 128.362 233.005 128.309 232.958C127.55 232.27 126.813 231.566 126.09 230.852C125.877 230.643 125.67 230.43 125.461 230.218C124.933 229.685 124.415 229.146 123.906 228.599C123.696 228.373 123.484 228.148 123.277 227.92C122.661 227.241 122.058 226.554 121.471 225.857C121.41 225.784 121.345 225.714 121.284 225.64C120.643 224.871 120.023 224.088 119.417 223.297C119.242 223.069 119.073 222.837 118.901 222.607C118.459 222.015 118.027 221.419 117.605 220.816C117.431 220.567 117.256 220.318 117.085 220.067C116.591 219.342 116.111 218.611 115.647 217.871C115.585 217.771 115.518 217.674 115.456 217.574C114.937 216.739 114.441 215.893 113.96 215.041C113.822 214.796 113.69 214.549 113.555 214.303C113.206 213.667 112.867 213.026 112.538 212.381C112.401 212.111 112.263 211.841 112.129 211.569C111.755 210.81 111.395 210.046 111.051 209.277C110.997 209.155 110.937 209.034 110.883 208.912C110.492 208.024 110.124 207.129 109.772 206.229C109.673 205.976 109.581 205.721 109.485 205.467C109.231 204.794 108.987 204.117 108.756 203.438C108.659 203.154 108.562 202.869 108.469 202.584C108.215 201.807 107.976 201.026 107.752 200.241C107.71 200.094 107.663 199.949 107.622 199.801C107.365 198.878 107.132 197.95 106.916 197.019C106.856 196.762 106.803 196.502 106.747 196.244C106.593 195.544 106.451 194.843 106.321 194.139C106.267 193.845 106.213 193.551 106.163 193.257C106.028 192.47 105.909 191.681 105.804 190.89C105.782 190.726 105.755 190.563 105.734 190.399C105.616 189.454 105.523 188.507 105.447 187.558C105.427 187.301 105.414 187.044 105.397 186.786C105.349 186.071 105.313 185.356 105.29 184.64C105.28 184.34 105.271 184.04 105.265 183.74C105.251 182.957 105.252 182.173 105.268 181.389C105.272 181.21 105.269 181.031 105.274 180.852C105.282 180.56 105.308 180.269 105.32 179.977C105.357 179.105 105.405 178.232 105.48 177.36C105.516 176.943 105.567 176.527 105.612 176.11C105.691 175.37 105.778 174.631 105.884 173.893C105.949 173.443 106.024 172.994 106.099 172.545C106.218 171.834 106.349 171.125 106.494 170.416C106.586 169.966 106.681 169.516 106.784 169.067C106.949 168.346 107.133 167.627 107.325 166.91C107.448 166.451 107.565 165.992 107.699 165.534C107.798 165.199 107.904 164.865 108.009 164.53C108.207 163.897 108.416 163.265 108.636 162.635C108.756 162.29 108.878 161.946 109.006 161.603C109.247 160.952 109.504 160.304 109.77 159.657C109.893 159.359 110.009 159.059 110.137 158.762C110.538 157.828 110.958 156.898 111.411 155.976L107.463 164.022C107.011 164.944 106.591 165.874 106.189 166.808C106.062 167.105 105.945 167.404 105.823 167.702C105.558 168.348 105.3 168.996 105.059 169.648C104.932 169.991 104.81 170.336 104.689 170.68C104.469 171.31 104.26 171.941 104.062 172.575C103.957 172.91 103.851 173.244 103.752 173.58C103.703 173.744 103.647 173.907 103.6 174.072C103.517 174.365 103.457 174.661 103.379 174.955C103.187 175.673 103.003 176.391 102.838 177.112C102.735 177.561 102.641 178.011 102.548 178.462C102.403 179.17 102.272 179.879 102.153 180.59C102.078 181.04 102.003 181.488 101.938 181.939C101.831 182.677 101.745 183.416 101.666 184.156C101.621 184.573 101.57 184.989 101.534 185.406C101.459 186.277 101.411 187.15 101.374 188.023C101.363 188.265 101.337 188.508 101.329 188.75C101.328 188.799 101.329 188.849 101.327 188.898C101.322 189.077 101.325 189.256 101.321 189.434C101.305 190.218 101.304 191.002 101.318 191.786C101.323 192.085 101.332 192.385 101.342 192.684C101.365 193.4 101.402 194.116 101.449 194.831C101.466 195.088 101.479 195.345 101.499 195.602C101.575 196.551 101.668 197.498 101.786 198.444C101.806 198.608 101.834 198.771 101.855 198.935C101.96 199.726 102.08 200.515 102.214 201.302C102.264 201.596 102.318 201.89 102.372 202.184C102.503 202.888 102.645 203.589 102.799 204.289C102.856 204.547 102.908 204.806 102.968 205.064C103.184 205.995 103.417 206.924 103.675 207.847C103.715 207.992 103.762 208.136 103.804 208.282C104.029 209.068 104.268 209.85 104.522 210.629C104.615 210.914 104.712 211.199 104.809 211.483C105.041 212.162 105.284 212.838 105.538 213.512C105.633 213.766 105.726 214.021 105.825 214.274C106.177 215.174 106.544 216.069 106.936 216.957C106.99 217.079 107.05 217.2 107.104 217.322C107.449 218.092 107.809 218.857 108.183 219.616C108.316 219.886 108.453 220.155 108.59 220.424C108.919 221.071 109.259 221.713 109.61 222.351C109.744 222.596 109.875 222.841 110.012 223.084C110.493 223.937 110.99 224.783 111.509 225.619C111.571 225.719 111.638 225.817 111.7 225.916C112.164 226.655 112.645 227.387 113.138 228.112C113.309 228.363 113.484 228.612 113.658 228.861C114.08 229.464 114.512 230.06 114.954 230.652C115.126 230.882 115.295 231.113 115.47 231.341C116.076 232.132 116.695 232.915 117.337 233.685C117.399 233.759 117.463 233.829 117.524 233.902C118.111 234.6 118.714 235.287 119.33 235.965C119.537 236.193 119.748 236.418 119.959 236.644C120.468 237.191 120.988 237.731 121.516 238.265C121.724 238.475 121.93 238.687 122.141 238.895C122.866 239.609 123.604 240.315 124.363 241.003C124.412 241.048 124.465 241.091 124.514 241.136C125.228 241.779 125.958 242.407 126.701 243.026C126.94 243.226 127.184 243.421 127.426 243.618C128.02 244.1 128.622 244.573 129.234 245.039C129.478 245.225 129.72 245.412 129.967 245.595C130.805 246.217 131.654 246.829 132.525 247.42C132.556 247.441 132.589 247.461 132.62 247.482C133.461 248.051 134.32 248.601 135.19 249.14C135.46 249.308 135.735 249.471 136.009 249.635C136.682 250.04 137.364 250.436 138.054 250.823C138.332 250.979 138.609 251.136 138.889 251.289C139.835 251.804 140.791 252.306 141.767 252.786C176.425 269.795 217.255 257.631 232.967 225.616L236.915 217.571C221.203 249.587 180.373 261.751 145.714 244.742Z" fill="#6E52D6"/>
<path opacity="0.4" d="M145.714 244.742C144.738 244.263 143.782 243.76 142.836 243.245C142.555 243.092 142.279 242.935 142.001 242.779C141.311 242.392 140.629 241.996 139.956 241.591C139.682 241.426 139.408 241.263 139.138 241.096C138.268 240.557 137.408 240.007 136.568 239.438C136.537 239.417 136.504 239.397 136.473 239.376C135.603 238.785 134.753 238.173 133.915 237.551C133.668 237.368 133.426 237.18 133.182 236.995C132.57 236.529 131.968 236.056 131.374 235.574C131.132 235.377 130.888 235.181 130.649 234.982C129.908 234.365 129.18 233.739 128.469 233.098C128.417 233.051 128.362 233.005 128.309 232.958C127.55 232.27 126.813 231.566 126.09 230.852C125.877 230.643 125.67 230.43 125.461 230.218C124.933 229.685 124.415 229.146 123.906 228.599C123.696 228.373 123.484 228.148 123.277 227.92C122.661 227.241 122.058 226.554 121.471 225.857C121.41 225.784 121.345 225.714 121.284 225.64C120.643 224.871 120.023 224.088 119.417 223.297C119.242 223.069 119.073 222.837 118.901 222.607C118.459 222.015 118.027 221.419 117.605 220.816C117.431 220.567 117.256 220.318 117.085 220.067C116.591 219.342 116.111 218.611 115.647 217.871C115.585 217.771 115.518 217.674 115.456 217.574C114.937 216.739 114.441 215.893 113.96 215.041C113.822 214.796 113.69 214.549 113.555 214.303C113.206 213.667 112.867 213.026 112.538 212.381C112.401 212.111 112.263 211.841 112.129 211.569C111.755 210.81 111.395 210.046 111.051 209.277C110.997 209.155 110.937 209.034 110.883 208.912C110.492 208.024 110.124 207.129 109.772 206.229C109.673 205.976 109.581 205.721 109.485 205.467C109.231 204.794 108.987 204.117 108.756 203.438C108.659 203.154 108.562 202.869 108.469 202.584C108.215 201.807 107.976 201.026 107.752 200.241C107.71 200.094 107.663 199.949 107.622 199.801C107.365 198.878 107.132 197.95 106.916 197.019C106.856 196.762 106.803 196.502 106.747 196.244C106.593 195.544 106.451 194.843 106.321 194.139C106.267 193.845 106.213 193.551 106.163 193.257C106.028 192.47 105.909 191.681 105.804 190.89C105.782 190.726 105.755 190.563 105.734 190.399C105.616 189.454 105.523 188.507 105.447 187.558C105.427 187.301 105.414 187.044 105.397 186.786C105.349 186.071 105.313 185.356 105.29 184.64C105.28 184.34 105.271 184.04 105.265 183.74C105.251 182.957 105.252 182.173 105.268 181.389C105.272 181.21 105.269 181.031 105.274 180.852C105.282 180.56 105.308 180.269 105.32 179.977C105.357 179.105 105.405 178.232 105.48 177.36C105.516 176.943 105.567 176.527 105.612 176.11C105.691 175.37 105.778 174.631 105.884 173.893C105.949 173.443 106.024 172.994 106.099 172.545C106.218 171.834 106.349 171.125 106.494 170.416C106.586 169.966 106.681 169.516 106.784 169.067C106.949 168.346 107.133 167.627 107.325 166.91C107.448 166.451 107.565 165.992 107.699 165.534C107.798 165.199 107.904 164.865 108.009 164.53C108.207 163.897 108.416 163.265 108.636 162.635C108.756 162.29 108.878 161.946 109.006 161.603C109.247 160.952 109.504 160.304 109.77 159.657C109.893 159.359 110.009 159.059 110.137 158.762C110.538 157.828 110.958 156.898 111.411 155.976L107.463 164.022C107.011 164.944 106.591 165.874 106.189 166.808C106.062 167.105 105.945 167.404 105.823 167.702C105.558 168.348 105.3 168.996 105.059 169.648C104.932 169.991 104.81 170.336 104.689 170.68C104.469 171.31 104.26 171.941 104.062 172.575C103.957 172.91 103.851 173.244 103.752 173.58C103.703 173.744 103.647 173.907 103.6 174.072C103.517 174.365 103.457 174.661 103.379 174.955C103.187 175.673 103.003 176.391 102.838 177.112C102.735 177.561 102.641 178.011 102.548 178.462C102.403 179.17 102.272 179.879 102.153 180.59C102.078 181.04 102.003 181.488 101.938 181.939C101.831 182.677 101.745 183.416 101.666 184.156C101.621 184.573 101.57 184.989 101.534 185.406C101.459 186.277 101.411 187.15 101.374 188.023C101.363 188.265 101.337 188.508 101.329 188.75C101.328 188.799 101.329 188.849 101.327 188.898C101.322 189.077 101.325 189.256 101.321 189.434C101.305 190.218 101.304 191.002 101.318 191.786C101.323 192.085 101.332 192.385 101.342 192.684C101.365 193.4 101.402 194.116 101.449 194.831C101.466 195.088 101.479 195.345 101.499 195.602C101.575 196.551 101.668 197.498 101.786 198.444C101.806 198.608 101.834 198.771 101.855 198.935C101.96 199.726 102.08 200.515 102.214 201.302C102.264 201.596 102.318 201.89 102.372 202.184C102.503 202.888 102.645 203.589 102.799 204.289C102.856 204.547 102.908 204.806 102.968 205.064C103.184 205.995 103.417 206.924 103.675 207.847C103.715 207.992 103.762 208.136 103.804 208.282C104.029 209.068 104.268 209.85 104.522 210.629C104.615 210.914 104.712 211.199 104.809 211.483C105.041 212.162 105.284 212.838 105.538 213.512C105.633 213.766 105.726 214.021 105.825 214.274C106.177 215.174 106.544 216.069 106.936 216.957C106.99 217.079 107.05 217.2 107.104 217.322C107.449 218.092 107.809 218.857 108.183 219.616C108.316 219.886 108.453 220.155 108.59 220.424C108.919 221.071 109.259 221.713 109.61 222.351C109.744 222.596 109.875 222.841 110.012 223.084C110.493 223.937 110.99 224.783 111.509 225.619C111.571 225.719 111.638 225.817 111.7 225.916C112.164 226.655 112.645 227.387 113.138 228.112C113.309 228.363 113.484 228.612 113.658 228.861C114.08 229.464 114.512 230.06 114.954 230.652C115.126 230.882 115.295 231.113 115.47 231.341C116.076 232.132 116.695 232.915 117.337 233.685C117.399 233.759 117.463 233.829 117.524 233.902C118.111 234.6 118.714 235.287 119.33 235.965C119.537 236.193 119.748 236.418 119.959 236.644C120.468 237.191 120.988 237.731 121.516 238.265C121.724 238.475 121.93 238.687 122.141 238.895C122.866 239.609 123.604 240.315 124.363 241.003C124.412 241.048 124.465 241.091 124.514 241.136C125.228 241.779 125.958 242.407 126.701 243.026C126.94 243.226 127.184 243.421 127.426 243.618C128.02 244.1 128.622 244.573 129.234 245.039C129.478 245.225 129.72 245.412 129.967 245.595C130.805 246.217 131.654 246.829 132.525 247.42C132.556 247.441 132.589 247.461 132.62 247.482C133.461 248.051 134.32 248.601 135.19 249.14C135.46 249.308 135.735 249.471 136.009 249.635C136.682 250.04 137.364 250.436 138.054 250.823C138.332 250.979 138.609 251.136 138.889 251.289C139.835 251.804 140.791 252.306 141.767 252.786C176.425 269.795 217.255 257.631 232.967 225.616L236.915 217.571C221.203 249.587 180.373 261.751 145.714 244.742Z" fill="black"/>
<path d="M131.252 129.926L130.703 129.09C133.158 127.477 135.758 126.005 138.43 124.715L138.866 125.616C136.231 126.887 133.671 128.337 131.252 129.926ZM146.355 122.534L146.029 121.588C157.665 117.579 170.472 116.624 183.069 118.824L182.897 119.809C170.466 117.638 157.831 118.581 146.355 122.534Z" fill="#6E52D6"/>
<path d="M111.409 155.979C127.116 123.972 167.942 111.818 202.601 128.827C237.259 145.836 252.622 185.565 236.915 217.572C221.203 249.587 180.373 261.751 145.715 244.742C111.056 227.734 95.697 187.995 111.409 155.979ZM222.567 210.531C234.682 185.845 222.838 155.184 196.104 142.064C169.37 128.944 137.862 138.33 125.747 163.016C113.624 187.719 125.485 218.368 152.219 231.487C178.953 244.607 210.444 235.234 222.567 210.531Z" fill="#6E52D6"/>
<path d="M295.959 240.274L290.996 250.388C290.037 252.342 287.654 253.118 285.729 252.104L221.429 218.239L227.967 204.917L294.094 235.059C296.074 235.96 296.918 238.32 295.959 240.274Z" fill="#6E52D6"/>
<path opacity="0.1" d="M223.49 210.984C235.836 185.828 223.766 154.582 196.522 141.212C169.279 127.842 137.169 137.407 124.823 162.564C112.469 187.738 124.556 218.971 151.8 232.341C179.044 245.71 211.136 236.159 223.49 210.984Z" fill="white"/>
<path opacity="0.1" d="M196.522 141.212C189.545 137.788 182.249 135.878 175.047 135.339L120.56 176.114C119.469 183.117 119.953 190.251 121.866 197.081L196.522 141.212Z" fill="white"/>
<path d="M277.145 221.567C273.086 220.11 270.296 222.806 267.485 224.212C267.008 224.451 267.15 225.866 268.107 226.009C269.783 226.259 270.608 225.982 271.523 225.423C272.509 226.344 276.1 227.875 278.722 225.113C278.759 223.138 277.145 221.567 277.145 221.567Z" fill="#B55B52"/>
<path d="M330.796 126.785H328.477C328.394 126.785 328.316 126.748 328.264 126.683C328.212 126.619 328.192 126.534 328.209 126.453L329.369 121.107C329.396 120.981 329.508 120.892 329.637 120.892C329.766 120.892 329.877 120.982 329.905 121.107L331.064 126.453C331.082 126.534 331.061 126.618 331.009 126.683C330.957 126.748 330.879 126.785 330.796 126.785ZM328.815 126.238H330.457L329.637 122.455L328.815 126.238Z" fill="white"/>
<path d="M263.741 97.104L258.066 106.108L257.166 105.541C255.634 104.575 254.5 103.618 253.763 102.668C253.026 101.718 252.48 100.651 252.123 99.466C251.766 98.281 251.349 95.861 250.872 92.205C250.636 90.268 250.084 89.026 249.215 88.479C248.346 87.932 247.509 87.763 246.704 87.972C245.899 88.182 245.167 88.808 244.51 89.85C243.803 90.971 243.589 92.134 243.869 93.336C244.149 94.539 245.148 95.825 246.866 97.195L239.934 105.672C236.753 103.226 234.806 100.282 234.094 96.843C233.382 93.403 234.419 89.472 237.207 85.049C239.377 81.605 241.849 79.278 244.62 78.068C248.375 76.418 251.872 76.613 255.11 78.654C256.453 79.5 257.514 80.688 258.294 82.217C259.074 83.746 259.643 86.223 260 89.649C260.258 92.041 260.638 93.688 261.141 94.589C261.642 95.488 262.509 96.327 263.741 97.104ZM260.265 107.924L266.343 98.28L274.849 103.642L268.771 113.286L260.265 107.924Z" fill="#6E52D6"/>
<path d="M344.017 73.588L336.522 69.51L336.93 68.761C337.624 67.486 338.332 66.529 339.054 65.89C339.776 65.252 340.602 64.76 341.532 64.413C342.462 64.067 344.377 63.609 347.277 63.039C348.814 62.751 349.78 62.245 350.173 61.522C350.566 60.799 350.659 60.121 350.449 59.487C350.24 58.853 349.701 58.3 348.833 57.828C347.899 57.32 346.959 57.209 346.011 57.494C345.063 57.779 344.085 58.645 343.077 60.09L335.939 54.979C337.733 52.308 339.988 50.599 342.703 49.853C345.418 49.106 348.617 49.735 352.299 51.738C355.166 53.298 357.154 55.155 358.266 57.31C359.779 60.229 359.802 63.037 358.336 65.733C357.728 66.851 356.832 67.761 355.649 68.463C354.466 69.166 352.513 69.748 349.791 70.209C347.891 70.539 346.593 70.927 345.897 71.375C345.201 71.826 344.574 72.563 344.017 73.588ZM335.181 71.363L343.209 75.731L339.356 82.812L331.328 78.444L335.181 71.363Z" fill="#6E52D6"/>
<path d="M356.15 94.648L354.162 88.273L354.799 88.074C355.884 87.736 356.803 87.584 357.557 87.619C358.31 87.654 359.042 87.828 359.754 88.14C360.465 88.452 361.79 89.238 363.73 90.499C364.751 91.175 365.569 91.417 366.184 91.225C366.799 91.033 367.22 90.702 367.448 90.232C367.676 89.762 367.675 89.158 367.444 88.42C367.196 87.626 366.728 87.051 366.041 86.695C365.353 86.339 364.332 86.292 362.978 86.555L361.753 79.794C364.216 79.271 366.414 79.54 368.346 80.6C370.278 81.66 371.733 83.756 372.71 86.888C373.47 89.326 373.575 91.454 373.025 93.27C372.284 95.735 370.767 97.325 368.474 98.04C367.523 98.336 366.524 98.36 365.477 98.11C364.429 97.86 363.015 97.123 361.234 95.899C359.987 95.048 359.046 94.559 358.411 94.432C357.776 94.303 357.022 94.376 356.15 94.648ZM352.399 88.583L354.529 95.411L348.506 97.289L346.376 90.461L352.399 88.583Z" fill="#6E52D6"/>
</svg>
