<svg width="500" height="334" viewBox="0 0 500 334" fill="none" xmlns="http://www.w3.org/2000/svg">
<path d="M338.023 40.612L336.536 41.7587C324.001 51.4267 317.545 67.0907 320.271 82.5387C320.622 84.5247 321.115 86.4853 321.756 88.4033C326.368 102.21 338.443 113.32 352.715 116.887C361.108 118.985 370.478 118.785 377.511 123.763C386.664 130.241 388.335 142.792 389.229 153.892C390.123 164.991 391.827 177.547 401.008 183.986C406.758 188.018 414.365 188.653 421.331 187.495C439.776 184.431 454.919 169.644 461.323 152.278C467.729 134.912 466.299 115.469 460.656 97.88C452.751 73.2393 436.11 50.828 412.941 38.8313C389.772 26.8353 359.997 26.4767 338.023 40.612Z" fill="#F5F5F5"/>
<path d="M128.941 111.605C133.154 85.397 115.323 60.7366 89.1157 56.5239C62.9082 52.3113 38.2478 70.1417 34.0351 96.3492C29.8225 122.557 47.6529 147.217 73.8604 151.43C100.068 155.642 124.728 137.812 128.941 111.605Z" fill="#F5F5F5"/>
<path d="M482.178 297.569C482.178 297.665 377.623 297.743 248.678 297.743C119.688 297.743 15.1553 297.665 15.1553 297.569C15.1553 297.474 119.688 297.396 248.678 297.396C377.623 297.395 482.178 297.473 482.178 297.569Z" fill="#263238"/>
<path d="M438.299 263.543C438.299 263.543 420.627 243.203 413.959 222.865C407.291 202.525 410.459 204.859 410.459 204.859C410.459 204.859 419.461 224.617 426.297 234.161C433.132 243.704 445.302 257.708 445.302 257.708L438.299 263.543Z" fill="#455A64"/>
<path d="M441.821 208.028C441.251 207.035 439.734 207.551 439.905 208.683C440.982 215.827 443.311 232.593 443.219 243.466C443.101 257.592 443.224 263.052 443.224 263.052H450.579C450.579 263.052 449.273 233.851 447.612 224.948C446.446 218.706 443.973 211.775 441.821 208.028Z" fill="#455A64"/>
<path d="M445.831 260.679C445.831 260.679 450.46 250.945 451.885 238.719C452.491 233.519 451.41 226.492 449.803 217.115C449.024 212.573 448.848 209.116 448.873 206.719C448.891 204.908 451.282 204.317 452.167 205.897C453.055 207.481 455.624 212.892 456.277 216.284C458.057 225.543 460.075 230.173 458.532 238.957C456.989 247.741 451.291 261.273 451.291 261.273L445.831 260.679Z" fill="#455A64"/>
<path d="M452.456 261.272C452.456 261.272 471.859 219.575 473.203 213.389C474.548 207.203 479.121 192.949 479.658 193.755C480.196 194.562 481.003 202.093 477.507 210.699C474.01 219.306 459.081 262.542 459.081 262.542H452.456" fill="#455A64"/>
<path d="M443.707 259.406C443.698 259.417 443.511 259.289 443.163 259.033C442.818 258.771 442.295 258.405 441.659 257.885C440.368 256.871 438.555 255.327 436.445 253.282C432.209 249.215 426.938 242.943 422.368 235.215C417.788 227.489 414.709 219.932 412.759 214.401C411.783 211.632 411.071 209.365 410.609 207.79C410.372 207.005 410.209 206.388 410.094 205.971C409.982 205.554 409.93 205.333 409.943 205.329C409.957 205.325 410.036 205.538 410.174 205.947C410.321 206.393 410.517 206.991 410.763 207.742C411.271 209.301 412.025 211.551 413.034 214.302C415.05 219.797 418.163 227.31 422.723 235.004C427.274 242.7 432.481 248.967 436.649 253.074C438.725 255.138 440.503 256.711 441.76 257.761C442.379 258.299 442.885 258.685 443.212 258.968C443.545 259.244 443.715 259.395 443.707 259.406Z" fill="#263238"/>
<path d="M445.829 239.403C445.801 239.405 445.74 238.969 445.655 238.179C445.563 237.316 445.443 236.191 445.298 234.837C444.991 232.016 444.511 228.125 443.826 223.852C443.137 219.578 442.373 215.733 441.781 212.957C441.494 211.626 441.255 210.52 441.073 209.671C440.906 208.895 440.827 208.462 440.855 208.455C440.883 208.448 441.015 208.868 441.229 209.633C441.447 210.397 441.734 211.511 442.067 212.893C442.733 215.656 443.545 219.501 444.235 223.786C444.923 228.07 445.357 231.976 445.59 234.808C445.707 236.225 445.783 237.372 445.817 238.167C445.851 238.961 445.857 239.401 445.829 239.403Z" fill="#263238"/>
<path d="M450.374 205.569C450.387 205.563 450.466 205.746 450.603 206.099C450.751 206.491 450.944 207.006 451.185 207.647C451.441 208.319 451.737 209.148 452.017 210.13C452.306 211.109 452.68 212.213 452.961 213.469C453.114 214.095 453.275 214.749 453.441 215.429C453.605 216.112 453.72 216.834 453.869 217.575C454.185 219.056 454.381 220.661 454.617 222.346C454.996 225.726 455.203 229.469 455.08 233.396C454.922 237.323 454.447 241.043 453.827 244.387C453.471 246.051 453.161 247.639 452.739 249.093C452.537 249.821 452.371 250.533 452.159 251.203C451.943 251.87 451.737 252.511 451.539 253.124C451.169 254.357 450.717 255.431 450.359 256.387C450.009 257.346 449.655 258.151 449.351 258.803C449.064 259.426 448.835 259.926 448.66 260.307C448.498 260.648 448.407 260.825 448.394 260.819C448.381 260.813 448.447 260.625 448.584 260.272C448.741 259.884 448.946 259.375 449.203 258.74C449.483 258.081 449.814 257.269 450.143 256.304C450.479 255.343 450.91 254.267 451.261 253.033C451.449 252.421 451.647 251.779 451.852 251.113C452.055 250.444 452.213 249.733 452.406 249.006C452.812 247.555 453.108 245.973 453.451 244.316C454.048 240.985 454.508 237.286 454.666 233.381C454.788 229.476 454.594 225.755 454.237 222.389C454.013 220.712 453.831 219.113 453.531 217.637C453.39 216.898 453.283 216.178 453.129 215.497C452.971 214.817 452.821 214.163 452.676 213.538C452.415 212.283 452.062 211.178 451.795 210.196C451.537 209.211 451.265 208.377 451.032 207.699C450.822 207.048 450.653 206.525 450.525 206.127C450.413 205.766 450.361 205.574 450.374 205.569Z" fill="#263238"/>
<path d="M479.436 194.593C479.443 194.595 479.438 194.658 479.421 194.781C479.397 194.927 479.369 195.105 479.335 195.323C479.249 195.797 479.142 196.501 478.952 197.398C478.577 199.192 477.953 201.773 476.983 204.905C476.017 208.037 474.691 211.71 473.119 215.745C471.554 219.781 469.735 224.179 468.012 228.861C466.263 233.535 464.915 238.097 463.649 242.237C462.395 246.381 461.205 250.099 460.054 253.169C458.915 256.243 457.819 258.665 456.991 260.3C456.593 261.126 456.236 261.742 456.005 262.166C455.897 262.357 455.807 262.514 455.734 262.643C455.671 262.749 455.635 262.801 455.629 262.798C455.623 262.795 455.646 262.735 455.697 262.622C455.761 262.488 455.838 262.325 455.932 262.127C456.138 261.691 456.472 261.065 456.846 260.229C457.627 258.577 458.679 256.147 459.779 253.068C460.891 249.993 462.05 246.275 463.284 242.127C464.529 237.983 465.869 233.405 467.623 228.718C469.35 224.025 471.181 219.631 472.764 215.605C474.354 211.583 475.704 207.929 476.703 204.816C477.707 201.705 478.373 199.142 478.795 197.363C479.008 196.473 479.141 195.775 479.253 195.307C479.303 195.093 479.345 194.917 479.379 194.773C479.41 194.653 479.429 194.592 479.436 194.593Z" fill="#263238"/>
<path d="M419.606 185.383C418.383 184.168 416.35 185.438 416.856 187.086C417.369 188.757 418.147 190.917 419.294 193.355C421.961 199.023 429.797 219.363 433.465 230.533C437.133 241.703 442.301 262.542 442.301 262.542L450.133 261.271C450.133 261.271 442.967 227.031 435.965 214.695C430.339 204.783 424.713 190.457 419.606 185.383Z" fill="#455A64"/>
<path d="M435.608 237.519C435.635 237.51 435.777 237.844 436.011 238.458C436.243 239.073 436.559 239.969 436.915 241.087C437.636 243.321 438.519 246.442 439.408 249.909C440.295 253.378 441.034 256.533 441.549 258.82C441.784 259.902 441.981 260.811 442.139 261.534C442.269 262.177 442.329 262.535 442.301 262.543C442.273 262.549 442.161 262.204 441.982 261.573C441.791 260.858 441.551 259.959 441.265 258.889C440.665 256.533 439.878 253.437 439.007 250.013C438.119 246.55 437.282 243.423 436.634 241.173C436.325 240.111 436.065 239.219 435.859 238.51C435.672 237.881 435.581 237.529 435.608 237.519Z" fill="#263238"/>
<path d="M446.235 261.907C446.227 261.907 446.213 261.837 446.191 261.698C446.167 261.535 446.138 261.333 446.102 261.081C446.02 260.54 445.947 259.736 445.781 258.709C445.494 256.652 444.981 253.687 444.139 250.07C443.303 246.452 442.084 242.196 440.473 237.557C438.867 232.917 436.851 227.903 434.569 222.715C429.961 212.349 425.358 203.155 422.333 196.357C420.805 192.966 419.621 190.197 418.841 188.269C418.444 187.307 418.159 186.551 417.961 186.041C417.872 185.803 417.801 185.611 417.743 185.457C417.697 185.324 417.676 185.255 417.683 185.253C417.689 185.25 417.723 185.314 417.783 185.441C417.85 185.591 417.934 185.778 418.038 186.009C418.269 186.541 418.587 187.275 418.99 188.206C419.815 190.114 421.038 192.863 422.6 196.236C425.691 202.998 430.333 212.167 434.948 222.549C437.235 227.745 439.244 232.775 440.835 237.434C442.429 242.092 443.623 246.369 444.425 250.005C445.233 253.641 445.703 256.621 445.941 258.689C446.082 259.72 446.13 260.528 446.185 261.073C446.205 261.325 446.221 261.53 446.233 261.694C446.241 261.834 446.242 261.906 446.235 261.907Z" fill="#263238"/>
<path d="M450.133 261.272C450.104 261.276 450.011 260.807 449.869 259.956C449.713 259.036 449.507 257.823 449.259 256.355C448.719 253.321 447.895 249.141 446.711 244.592C445.538 240.038 444.216 235.987 443.199 233.078C442.7 231.676 442.287 230.517 441.975 229.638C441.681 228.827 441.531 228.373 441.558 228.362C441.585 228.351 441.785 228.785 442.125 229.579C442.462 230.373 442.934 231.531 443.475 232.978C444.564 235.867 445.935 239.918 447.111 244.487C448.3 249.051 449.081 253.255 449.548 256.307C449.771 257.835 449.941 259.073 450.029 259.933C450.123 260.792 450.161 261.268 450.133 261.272Z" fill="#263238"/>
<path d="M466.208 260.147H435.637V297.395H466.208V260.147Z" fill="#68D4F3"/>
<g opacity="0.3">
<path d="M466.208 260.147H435.637V297.395H466.208V260.147Z" fill="black"/>
</g>
<path d="M456.455 260.147H429.333V297.395H456.455V260.147Z" fill="#68D4F3"/>
<path d="M59.0175 247.197C53.8101 243.861 46.5921 243.798 41.5241 247.341C36.7128 250.704 34.2695 256.826 34.4815 262.693C34.6935 268.559 37.5375 275.729 42.8528 278.81L58.4548 278.749C63.4368 275.086 66.8055 269.184 67.0401 263.005C67.2755 256.826 64.2248 250.532 59.0175 247.197Z" fill="#455A64"/>
<path d="M51.3353 279.377C51.3007 279.377 51.268 278.899 51.2374 278.035C51.21 277.075 51.1753 275.847 51.1333 274.375C51.0547 271.286 50.9327 267.019 50.7267 262.31C50.5187 257.599 50.2654 253.338 50.0727 250.253C49.9847 248.784 49.912 247.557 49.8547 246.599C49.8093 245.736 49.8007 245.257 49.8347 245.254C49.8687 245.251 49.9433 245.724 50.048 246.583C50.154 247.442 50.2834 248.687 50.424 250.227C50.7067 253.308 51.016 257.571 51.2247 262.289C51.4313 267.005 51.4973 271.279 51.486 274.372C51.4807 275.919 51.4614 277.171 51.4314 278.035C51.402 278.899 51.37 279.377 51.3353 279.377Z" fill="#263238"/>
<path d="M36.054 261.365C36.0426 261.502 35.1946 261.544 34.1606 261.459C33.126 261.375 32.2966 261.195 32.308 261.057C32.3193 260.921 33.1666 260.878 34.2013 260.963C35.2353 261.047 36.0653 261.227 36.054 261.365Z" fill="#263238"/>
<path d="M36.344 256.101C36.288 256.227 35.5566 256.024 34.7106 255.649C33.8646 255.273 33.2233 254.867 33.2793 254.741C33.3346 254.615 34.066 254.818 34.9126 255.193C35.7593 255.569 36.4 255.975 36.344 256.101Z" fill="#263238"/>
<path d="M39.0527 252.193C38.9814 252.307 38.1594 251.92 37.3054 251.211C36.4487 250.504 35.9147 249.769 36.014 249.677C36.116 249.581 36.794 250.143 37.6234 250.827C38.4494 251.513 39.128 252.074 39.0527 252.193Z" fill="#263238"/>
<path d="M41.7775 248.507C41.6515 248.562 41.2575 247.947 40.8975 247.132C40.5375 246.317 40.3475 245.611 40.4735 245.555C40.5995 245.5 40.9928 246.115 41.3535 246.931C41.7135 247.745 41.9035 248.451 41.7775 248.507Z" fill="#263238"/>
<path d="M46.0507 245.891C45.928 245.948 45.504 245.293 45.2227 244.384C44.9387 243.476 44.9167 242.696 45.05 242.674C45.188 242.65 45.4247 243.363 45.6987 244.237C45.968 245.11 46.178 245.832 46.0507 245.891Z" fill="#263238"/>
<path d="M53.1827 242.942C53.3127 242.988 53.2333 243.547 53.006 244.192C52.7787 244.837 52.4893 245.322 52.3593 245.276C52.23 245.23 52.3087 244.671 52.5367 244.026C52.7633 243.381 53.0527 242.896 53.1827 242.942Z" fill="#263238"/>
<path d="M58.4727 245.212C58.566 245.313 58.2267 245.779 57.7147 246.253C57.2027 246.727 56.712 247.029 56.6187 246.927C56.5254 246.827 56.8647 246.361 57.3767 245.887C57.888 245.413 58.3787 245.111 58.4727 245.212Z" fill="#263238"/>
<path d="M63.1293 248.219C63.2066 248.333 62.7926 248.748 62.2053 249.145C61.618 249.543 61.0786 249.774 61.002 249.66C60.9246 249.546 61.3386 249.131 61.926 248.733C62.5133 248.335 63.0526 248.105 63.1293 248.219Z" fill="#263238"/>
<path d="M66.436 252.703C66.49 252.83 65.838 253.229 64.9793 253.595C64.1207 253.961 63.3813 254.155 63.3273 254.029C63.2733 253.903 63.9253 253.503 64.784 253.137C65.6427 252.771 66.382 252.577 66.436 252.703Z" fill="#263238"/>
<path d="M67.7381 257.593C67.7548 257.73 67.0914 257.925 66.2568 258.028C65.4214 258.131 64.7308 258.105 64.7134 257.968C64.6968 257.831 65.3601 257.637 66.1954 257.533C67.0301 257.43 67.7208 257.457 67.7381 257.593Z" fill="#263238"/>
<path d="M68.4155 263.613C68.3608 263.739 67.6535 263.553 66.8368 263.198C66.0195 262.843 65.4015 262.453 65.4568 262.326C65.5115 262.2 66.2181 262.385 67.0355 262.741C67.8528 263.097 68.4708 263.487 68.4155 263.613Z" fill="#263238"/>
<path d="M67.8194 268.779C67.7761 268.904 66.8821 268.691 65.9481 268.078C65.0107 267.469 64.4574 266.735 64.5547 266.645C64.6561 266.545 65.3347 267.087 66.2201 267.661C67.1014 268.241 67.8701 268.646 67.8194 268.779Z" fill="#263238"/>
<path d="M65.1301 273.481C65.0481 273.588 64.3368 273.17 63.6541 272.433C62.9688 271.697 62.6048 270.957 62.7168 270.883C62.8328 270.804 63.3628 271.39 64.0188 272.093C64.6715 272.8 65.2168 273.371 65.1301 273.481Z" fill="#263238"/>
<path d="M39.5913 274.033C39.6547 274.155 38.908 274.67 37.9227 275.183C36.9373 275.696 36.0873 276.013 36.024 275.891C35.9607 275.769 36.7073 275.254 37.6927 274.741C38.6773 274.228 39.5273 273.911 39.5913 274.033Z" fill="#263238"/>
<path d="M37.2588 269.78C37.3154 269.905 36.7161 270.299 35.9208 270.66C35.1248 271.021 34.4341 271.212 34.3768 271.087C34.3201 270.961 34.9188 270.567 35.7148 270.207C36.5108 269.845 37.2014 269.655 37.2588 269.78Z" fill="#263238"/>
<path d="M35.5434 266.013C35.5627 266.149 34.8254 266.366 33.8967 266.498C32.9674 266.63 32.1987 266.626 32.1801 266.49C32.1607 266.354 32.8981 266.137 33.8267 266.005C34.7554 265.873 35.5241 265.877 35.5434 266.013Z" fill="#263238"/>
<path d="M41.168 263.936C41.2087 264.064 40.4894 264.4 39.53 264.507C38.5707 264.617 37.7947 264.45 37.806 264.316C37.8154 264.175 38.566 264.117 39.474 264.011C40.3827 263.911 41.128 263.801 41.168 263.936Z" fill="#263238"/>
<path d="M45.8407 259.287C45.8814 259.415 45.3087 259.705 44.5367 259.779C43.7647 259.857 43.1467 259.684 43.1614 259.55C43.1747 259.411 43.7701 259.356 44.4874 259.283C45.2054 259.215 45.8007 259.153 45.8407 259.287Z" fill="#263238"/>
<path d="M46.7334 255.563C46.6888 255.693 46.0688 255.597 45.3494 255.348C44.6301 255.099 44.0828 254.792 44.1281 254.662C44.1728 254.532 44.7928 254.628 45.5121 254.877C46.2314 255.125 46.7788 255.433 46.7334 255.563Z" fill="#263238"/>
<path d="M48.4466 251.796C48.3513 251.891 47.9253 251.611 47.622 251.083C47.3166 250.555 47.2866 250.047 47.4173 250.011C47.552 249.973 47.7813 250.366 48.0533 250.833C48.3213 251.303 48.5473 251.699 48.4466 251.796Z" fill="#263238"/>
<path d="M46.3814 267.216C46.4141 267.35 45.8774 267.595 45.1827 267.765C44.7814 267.863 44.4154 267.915 44.1754 267.913L44.0774 267.623C44.2574 267.59 44.3734 267.598 44.3967 267.651C44.4201 267.704 44.3467 267.794 44.2014 267.905L44.1034 267.614C44.3161 267.503 44.6641 267.379 45.0654 267.281C45.7594 267.112 46.3487 267.083 46.3814 267.216Z" fill="#263238"/>
<path d="M47.344 273.819C47.394 273.947 46.71 274.335 45.816 274.687C44.9214 275.038 44.156 275.219 44.1054 275.091C44.0554 274.963 44.7394 274.575 45.6334 274.223C46.528 273.872 47.294 273.691 47.344 273.819Z" fill="#263238"/>
<path d="M42.066 270.886C42.1107 271.016 41.654 271.289 41.0467 271.496C40.4394 271.703 39.9114 271.765 39.8667 271.634C39.8227 271.504 40.2787 271.231 40.886 271.024C41.4934 270.818 42.0214 270.756 42.066 270.886Z" fill="#263238"/>
<path d="M42.4694 257.445C42.4381 257.577 41.6434 257.499 40.7254 257.172C39.8068 256.848 39.1401 256.409 39.1981 256.287C39.2574 256.161 39.9994 256.388 40.8914 256.703C41.7828 257.02 42.5028 257.31 42.4694 257.445Z" fill="#263238"/>
<path d="M55.2427 255.985C55.3187 256.099 54.8707 256.528 54.2434 256.942C53.6154 257.356 53.0454 257.598 52.9701 257.483C52.8941 257.369 53.3414 256.94 53.9694 256.526C54.5968 256.112 55.1667 255.869 55.2427 255.985Z" fill="#263238"/>
<path d="M55.9367 262.615C55.9647 262.749 55.4947 262.961 54.8867 263.087C54.2787 263.213 53.7633 263.207 53.7353 263.072C53.7073 262.937 54.1773 262.726 54.7853 262.6C55.3933 262.473 55.9087 262.481 55.9367 262.615Z" fill="#263238"/>
<path d="M56.7439 270.071C56.6859 270.195 56.0093 270.005 55.2319 269.645C54.4546 269.285 53.8713 268.893 53.9293 268.767C53.9873 268.643 54.6639 268.833 55.4413 269.193C56.2186 269.553 56.8019 269.946 56.7439 270.071Z" fill="#263238"/>
<path d="M55.036 277.33C54.9293 277.417 54.49 277.058 54.054 276.527C53.618 275.997 53.3506 275.495 53.4573 275.408C53.5633 275.321 54.0033 275.68 54.4393 276.211C54.8746 276.741 55.142 277.243 55.036 277.33Z" fill="#263238"/>
<path d="M54.6867 251.102C54.7707 251.209 54.4807 251.574 53.9828 251.823C53.4854 252.074 53.0187 252.088 52.9841 251.957C52.9467 251.823 53.3108 251.605 53.7594 251.379C54.2094 251.153 54.6014 250.991 54.6867 251.102Z" fill="#263238"/>
<path d="M60.9461 257.79C60.9915 257.917 60.4128 258.235 59.6201 258.344C58.8281 258.456 58.1841 258.307 58.1935 258.173C58.2008 258.033 58.8135 257.955 59.5515 257.851C60.2901 257.75 60.9008 257.657 60.9461 257.79Z" fill="#263238"/>
<path d="M59.6987 251.787C59.7601 251.907 59.1847 252.317 58.3674 252.577C57.5501 252.84 56.8441 252.839 56.8241 252.706C56.8014 252.568 57.4394 252.353 58.2161 252.103C58.9927 251.856 59.6367 251.661 59.6987 251.787Z" fill="#263238"/>
<path d="M62.3122 267.088C62.3102 267.222 61.3268 267.309 60.1408 267.092C58.9535 266.879 58.0635 266.452 58.1088 266.326C58.1542 266.193 59.0842 266.397 60.2295 266.602C61.3735 266.812 62.3168 266.947 62.3122 267.088Z" fill="#263238"/>
<path d="M59.986 275.809C59.9034 275.916 59.1794 275.49 58.4567 274.763C57.732 274.037 57.3094 273.311 57.4167 273.229C57.5274 273.143 58.1094 273.71 58.81 274.411C59.508 275.115 60.0727 275.699 59.986 275.809Z" fill="#263238"/>
<path d="M49.7588 244.689C49.8328 244.796 47.7728 245.631 45.3921 248.14C43.0128 250.593 40.5581 254.927 39.9534 260.161C39.6641 262.763 39.9121 265.281 40.2814 267.527C40.6701 269.777 41.1854 271.774 41.6608 273.439C42.1388 275.103 42.5774 276.436 42.8721 277.36C43.1674 278.284 43.3254 278.798 43.2914 278.811C43.2608 278.822 43.0414 278.331 42.6894 277.425C42.3381 276.519 41.8468 275.2 41.3234 273.54C40.8021 271.88 40.2468 269.877 39.8288 267.606C39.4308 265.337 39.1608 262.779 39.4581 260.103C40.0754 254.748 42.6448 250.335 45.1381 247.895C46.3788 246.656 47.5448 245.829 48.3954 245.35C48.8081 245.089 49.1648 244.949 49.3921 244.832C49.6261 244.723 49.7514 244.674 49.7588 244.689Z" fill="#263238"/>
<path d="M56.5508 279.131C56.4428 279.077 57.6701 277.187 58.7894 273.782C59.9421 270.419 60.8954 265.437 60.1274 260.027C59.7681 257.33 58.9881 254.829 58.0068 252.693C56.9881 250.586 55.6748 248.86 54.3901 247.656C53.0614 246.481 51.7568 245.807 50.8468 245.417C49.9254 245.033 49.3741 244.943 49.3814 244.901C49.3841 244.885 49.5241 244.893 49.7888 244.932C50.0508 244.98 50.4374 245.067 50.9168 245.236C51.8681 245.58 53.2201 246.214 54.6228 247.391C55.9888 248.611 57.3448 250.333 58.4214 252.495C59.4481 254.669 60.2548 257.21 60.6214 259.959C61.4034 265.469 60.3734 270.527 59.1228 273.898C58.8414 274.758 58.4794 275.495 58.2094 276.159C57.8888 276.802 57.6241 277.36 57.3808 277.802C56.8734 278.675 56.5808 279.147 56.5508 279.131Z" fill="#263238"/>
<path d="M37.2588 277.953H64.7135L64.8821 283.448H37.2588V277.953Z" fill="#68D4F3"/>
<path d="M39.5913 280.7L41.168 297.475H61.2393L62.8513 280.884L39.5913 280.7Z" fill="#68D4F3"/>
<path d="M64.8821 283.514C64.8821 283.651 58.6994 283.763 51.0748 283.763C43.4474 283.763 37.2661 283.652 37.2661 283.514C37.2661 283.376 43.4474 283.265 51.0748 283.265C58.6994 283.265 64.8821 283.376 64.8821 283.514Z" fill="#263238"/>
<path d="M62.092 288.623C62.1186 288.639 61.9333 289.025 61.504 289.671C61.0733 290.315 60.388 291.217 59.3746 292.186L59.2486 292.307L59.124 292.176C57.802 290.789 55.986 289.089 53.7433 287.466L54.0466 287.453C53.28 288.125 52.4813 288.827 51.6613 289.546C50.6866 290.395 49.742 291.217 48.8413 292.001L48.6853 292.137L48.5286 292.006C46.8193 290.569 45.264 289.261 43.9446 288.152L44.2113 288.123C43.2646 289.279 42.4693 290.249 41.84 291.017C41.2693 291.695 40.9386 292.059 40.9086 292.037C40.8793 292.013 41.154 291.605 41.6746 290.889C42.2693 290.094 43.0206 289.089 43.916 287.893L44.03 287.74L44.1826 287.864C45.522 288.949 47.1 290.229 48.8353 291.635L48.5233 291.64C49.4206 290.852 50.3613 290.025 51.3326 289.173C52.1553 288.456 52.9566 287.757 53.7253 287.087L53.8726 286.959L54.0293 287.074C56.2893 288.735 58.0973 290.492 59.384 291.936L59.1333 291.926C61.17 290.077 62.0133 288.563 62.092 288.623Z" fill="#263238"/>
<path d="M391.969 292.871H101.355C95.9913 292.871 91.6433 288.523 91.6433 283.159V97.558C91.6433 92.1947 95.9913 87.8467 101.355 87.8467H391.969C397.332 87.8467 401.68 92.1947 401.68 97.558V283.159C401.68 288.523 397.332 292.871 391.969 292.871Z" fill="#455A64"/>
<path d="M405.529 297.569H93.358C86.8053 297.569 81.4927 292.257 81.4927 285.704V279.629H417.394V285.704C417.395 292.257 412.083 297.569 405.529 297.569Z" fill="#455A64"/>
<path d="M216.098 277.707L220.267 284.337H278.919L282.789 277.707H216.098Z" fill="#263238"/>
<path d="M399.016 277.707C399.016 277.818 330.203 277.907 245.337 277.907C160.442 277.907 91.6433 277.817 91.6433 277.707C91.6433 277.596 160.442 277.506 245.337 277.506C330.203 277.506 399.016 277.596 399.016 277.707Z" fill="#263238"/>
<path d="M389.407 272.286H102.703C101.498 272.286 100.521 271.309 100.521 270.104V101.818C100.521 100.613 101.498 99.636 102.703 99.636H389.407C390.611 99.636 391.589 100.613 391.589 101.817V270.105C391.589 271.309 390.611 272.286 389.407 272.286Z" fill="#EBEBEB"/>
<path d="M391.277 272.539H100.21L100.521 112.539H391.277V272.539Z" fill="white"/>
<path d="M124.393 106.303C124.393 107.587 123.353 108.628 122.069 108.628C120.785 108.628 119.745 107.587 119.745 106.303C119.745 105.019 120.785 103.979 122.069 103.979C123.352 103.979 124.393 105.019 124.393 106.303Z" fill="#263238"/>
<path d="M110.305 106.303C110.305 107.587 109.264 108.628 107.98 108.628C106.697 108.628 105.655 107.587 105.655 106.303C105.655 105.019 106.697 103.979 107.98 103.979C109.264 103.979 110.305 105.019 110.305 106.303Z" fill="#263238"/>
<path d="M117.067 106.303C117.067 107.587 116.027 108.628 114.743 108.628C113.459 108.628 112.418 107.587 112.418 106.303C112.418 105.019 113.459 103.979 114.743 103.979C116.027 103.979 117.067 105.019 117.067 106.303Z" fill="#263238"/>
<path d="M391.589 257.089H100.21V272.539H391.589V257.089Z" fill="#263238"/>
<path d="M111.218 266.602V267.097H108.898V266.705L110.149 265.518C110.454 265.226 110.508 265.041 110.508 264.867C110.508 264.579 110.31 264.412 109.923 264.412C109.618 264.412 109.361 264.515 109.186 264.74L108.777 264.425C109.019 264.097 109.456 263.903 109.973 263.903C110.656 263.903 111.097 264.249 111.097 264.807C111.097 265.113 111.011 265.392 110.575 265.801L109.734 266.602H111.218Z" fill="white"/>
<path d="M111.534 265.041C111.534 264.817 111.7 264.668 111.903 264.668C112.105 264.668 112.271 264.817 112.271 265.041C112.271 265.257 112.105 265.414 111.903 265.414C111.7 265.414 111.534 265.257 111.534 265.041ZM111.534 266.755C111.534 266.529 111.7 266.382 111.903 266.382C112.105 266.382 112.271 266.529 112.271 266.755C112.271 266.97 112.105 267.127 111.903 267.127C111.7 267.128 111.534 266.971 111.534 266.755Z" fill="white"/>
<path d="M113.736 263.949V267.097H113.152V264.439H112.486V263.949H113.736Z" fill="white"/>
<path d="M117.166 266.382H116.608V267.097H116.041V266.382H114.315V265.977L115.866 263.949H116.491L115.029 265.887H116.059V265.253H116.608V265.887H117.166V266.382Z" fill="white"/>
<path d="M361.133 265.123H122.308V266.212H361.133V265.123Z" fill="white"/>
<path d="M196.763 263.951H122.129V266.855H196.763V263.951Z" fill="#68D4F3"/>
<path d="M199.172 265.668C199.172 267.675 197.545 269.301 195.538 269.301C193.531 269.301 191.904 267.675 191.904 265.668C191.904 263.661 193.531 262.034 195.538 262.034C197.545 262.035 199.172 263.661 199.172 265.668Z" fill="#68D4F3"/>
<path d="M367.149 265.633C367.149 266.259 366.641 266.654 365.997 266.654C365.139 266.654 364.635 266.101 364.635 265.089C364.635 264.009 365.264 263.416 366.177 263.416C366.492 263.416 366.793 263.483 367.005 263.618L366.789 264.059C366.619 263.946 366.411 263.906 366.191 263.906C365.598 263.906 365.225 264.275 365.225 264.99V264.995C365.414 264.774 365.715 264.667 366.065 264.667C366.686 264.667 367.149 265.043 367.149 265.633ZM366.582 265.66C366.582 265.332 366.335 265.125 365.953 265.125C365.575 265.125 365.314 265.354 365.314 265.665C365.314 265.961 365.548 266.195 365.966 266.195C366.331 266.195 366.582 265.988 366.582 265.66Z" fill="white"/>
<path d="M367.433 264.554C367.433 264.329 367.599 264.181 367.802 264.181C368.004 264.181 368.171 264.329 368.171 264.554C368.171 264.769 368.004 264.927 367.802 264.927C367.599 264.927 367.433 264.769 367.433 264.554ZM367.433 266.267C367.433 266.042 367.599 265.895 367.802 265.895C368.004 265.895 368.171 266.042 368.171 266.267C368.171 266.483 368.004 266.641 367.802 266.641C367.599 266.64 367.433 266.483 367.433 266.267Z" fill="white"/>
<path d="M368.547 265.035C368.547 264.001 369.113 263.416 369.86 263.416C370.611 263.416 371.178 264.001 371.178 265.035C371.178 266.069 370.611 266.655 369.86 266.655C369.114 266.654 368.547 266.069 368.547 265.035ZM370.589 265.035C370.589 264.275 370.293 263.925 369.86 263.925C369.434 263.925 369.136 264.275 369.136 265.035C369.136 265.795 369.434 266.145 369.86 266.145C370.292 266.145 370.589 265.795 370.589 265.035Z" fill="white"/>
<path d="M371.569 265.035C371.569 264.001 372.135 263.416 372.882 263.416C373.633 263.416 374.2 264.001 374.2 265.035C374.2 266.069 373.634 266.655 372.882 266.655C372.136 266.654 371.569 266.069 371.569 265.035ZM373.611 265.035C373.611 264.275 373.315 263.925 372.883 263.925C372.456 263.925 372.159 264.275 372.159 265.035C372.159 265.795 372.455 266.145 372.883 266.145C373.315 266.145 373.611 265.795 373.611 265.035Z" fill="white"/>
<path d="M379.286 264.839H378.197V261.701H381.33V262.789H379.286V264.839Z" fill="white"/>
<path d="M381.333 268.936H378.193V265.803H379.282V267.847H381.333V268.936Z" fill="white"/>
<path d="M386.332 268.936H383.199V267.847H385.243V265.797H386.332V268.936Z" fill="white"/>
<path d="M386.335 264.833H385.245V262.789H383.195V261.701H386.335V264.833Z" fill="white"/>
<path d="M140.125 122.052H122.969L114.391 136.91L122.969 151.767H140.125L148.703 136.91L140.125 122.052Z" fill="#EBEBEB"/>
<path d="M124.369 139.818C123.602 138.969 122.829 138.111 122.27 137.113C121.711 136.115 121.378 134.951 121.563 133.823C121.671 133.163 121.951 132.534 121.996 131.867C122.057 130.949 121.671 129.989 121.997 129.129C122.505 127.783 124.316 127.576 125.414 126.647C126.269 125.923 126.685 124.748 127.626 124.139C128.447 123.607 129.503 123.619 130.472 123.756C131.441 123.893 132.416 124.137 133.386 124.007C134.077 123.914 134.729 123.635 135.406 123.467C136.083 123.3 136.839 123.255 137.442 123.606C138.045 123.957 138.384 124.813 137.988 125.387C139.112 124.869 140.539 125.745 140.847 126.944C141.155 128.143 140.539 129.438 139.587 130.229C138.635 131.019 137.403 131.387 136.187 131.616C132.743 132.265 129.009 131.899 126.041 130.035" fill="#263238"/>
<path d="M140.275 143.485C140.159 141.358 139.564 136.999 138.979 133.059C138.351 128.821 134.575 125.777 130.301 126.063L129.876 126.091C125.315 126.665 123.255 130.859 123.955 135.402L125.293 151.767H136.423C136.423 151.767 136.16 148.896 136.159 148.868C136.159 148.868 140.515 147.889 140.275 143.485Z" fill="#FFBE9D"/>
<path d="M136.162 148.804C136.162 148.804 133.396 149.216 130.316 147.557C130.316 147.557 131.884 150.633 136.249 149.943L136.162 148.804Z" fill="#EB996E"/>
<path d="M137.563 136.834C137.597 137.165 137.344 137.467 136.999 137.509C136.655 137.55 136.347 137.317 136.313 136.985C136.279 136.655 136.531 136.352 136.876 136.311C137.221 136.269 137.529 136.503 137.563 136.834Z" fill="#263238"/>
<path d="M138.177 135.273C138.105 135.36 137.605 135.039 136.929 135.087C136.253 135.124 135.779 135.505 135.701 135.427C135.662 135.393 135.731 135.24 135.937 135.068C136.139 134.897 136.492 134.721 136.914 134.694C137.335 134.668 137.7 134.799 137.914 134.945C138.133 135.09 138.213 135.233 138.177 135.273Z" fill="#263238"/>
<path d="M131.175 137.291C131.209 137.622 130.956 137.923 130.611 137.965C130.267 138.007 129.959 137.773 129.925 137.442C129.891 137.111 130.144 136.809 130.488 136.767C130.833 136.725 131.141 136.96 131.175 137.291Z" fill="#263238"/>
<path d="M131.538 135.843C131.465 135.931 130.965 135.61 130.289 135.657C129.613 135.695 129.14 136.076 129.061 135.998C129.023 135.964 129.091 135.811 129.298 135.639C129.5 135.467 129.853 135.291 130.274 135.265C130.695 135.239 131.06 135.37 131.275 135.515C131.493 135.661 131.574 135.805 131.538 135.843Z" fill="#263238"/>
<path d="M134.328 140.695C134.322 140.657 134.738 140.555 135.413 140.423C135.585 140.393 135.746 140.348 135.767 140.228C135.799 140.101 135.715 139.919 135.618 139.724C135.427 139.317 135.229 138.89 135.019 138.443C134.185 136.619 133.569 135.113 133.642 135.081C133.716 135.048 134.452 136.5 135.287 138.325C135.489 138.775 135.681 139.204 135.865 139.615C135.943 139.807 136.071 140.021 135.999 140.287C135.961 140.419 135.841 140.521 135.732 140.558C135.623 140.599 135.527 140.607 135.441 140.619C134.758 140.701 134.333 140.733 134.328 140.695Z" fill="#263238"/>
<path d="M131.536 133.182C131.481 133.37 130.801 133.328 130.013 133.477C129.223 133.61 128.599 133.885 128.483 133.727C128.431 133.651 128.531 133.471 128.777 133.276C129.022 133.081 129.42 132.885 129.893 132.8C130.365 132.716 130.807 132.763 131.103 132.861C131.402 132.958 131.559 133.093 131.536 133.182Z" fill="#263238"/>
<path d="M137.798 133.332C137.689 133.493 137.213 133.365 136.652 133.395C136.091 133.405 135.625 133.568 135.505 133.415C135.451 133.34 135.516 133.181 135.713 133.022C135.908 132.863 136.241 132.722 136.627 132.708C137.013 132.695 137.356 132.811 137.561 132.956C137.769 133.1 137.845 133.254 137.798 133.332Z" fill="#263238"/>
<path d="M124.532 138.636C124.455 138.609 121.449 137.944 121.746 140.946C122.043 143.948 125.297 142.969 125.293 142.883C125.29 142.797 124.532 138.636 124.532 138.636Z" fill="#FFBE9D"/>
<path d="M123.963 141.897C123.949 141.889 123.915 141.939 123.83 141.989C123.748 142.037 123.602 142.079 123.44 142.035C123.111 141.95 122.794 141.473 122.726 140.933C122.691 140.661 122.723 140.395 122.798 140.17C122.868 139.941 122.995 139.774 123.152 139.729C123.307 139.677 123.429 139.761 123.475 139.842C123.523 139.922 123.51 139.984 123.527 139.987C123.536 139.994 123.586 139.931 123.55 139.809C123.532 139.751 123.489 139.683 123.413 139.633C123.335 139.581 123.227 139.562 123.117 139.585C122.887 139.623 122.699 139.857 122.617 140.104C122.521 140.353 122.479 140.653 122.518 140.959C122.597 141.561 122.963 142.097 123.409 142.179C123.626 142.213 123.796 142.133 123.88 142.053C123.965 141.971 123.974 141.902 123.963 141.897Z" fill="#EB996E"/>
<path d="M138.757 128.948C138.551 130.143 136.127 131.238 134.118 131.179C132.265 131.125 131.35 130.206 130.004 129.553C129.152 129.139 129.152 129.139 127.996 129.327C127.061 129.479 126.576 130.582 126.051 131.371C127.051 133.55 126.647 136.085 126.223 138.445C126.177 138.706 126.119 138.988 125.919 139.163C125.582 139.46 125.035 139.282 124.703 138.978C124.171 138.491 123.929 137.77 123.755 137.071C123.359 135.478 123.206 133.811 123.458 132.189C123.71 130.567 124.381 128.991 125.489 127.781C126.874 126.267 128.899 125.395 130.947 125.29C132.995 125.185 135.052 125.819 136.768 126.943C137.563 127.465 138.307 128.109 138.757 128.948Z" fill="#263238"/>
<path d="M134.771 142.215C134.261 141.977 133.751 141.739 133.241 141.502C133.153 141.461 133.059 141.419 132.962 141.432C132.853 141.447 132.767 141.527 132.697 141.612C132.343 142.042 132.253 142.691 132.528 143.176C132.803 143.661 133.449 143.917 133.964 143.704C134.506 143.479 134.77 142.849 134.812 142.264L134.771 142.215Z" fill="#EB996E"/>
<path d="M134.011 143.811C134.035 143.841 133.692 144.057 133.115 143.892C132.836 143.808 132.518 143.594 132.321 143.247C132.121 142.91 132.047 142.427 132.221 141.993C132.303 141.777 132.433 141.587 132.591 141.437C132.671 141.361 132.753 141.299 132.851 141.241C132.948 141.17 133.156 141.159 133.255 141.218C133.605 141.413 133.84 141.579 134.075 141.729C134.523 142.027 134.788 142.231 134.764 142.273C134.74 142.314 134.431 142.185 133.951 141.941C133.671 141.795 133.401 141.655 133.134 141.515C133.07 141.497 133.077 141.497 133.015 141.529C132.955 141.568 132.885 141.623 132.827 141.681C132.707 141.8 132.608 141.95 132.544 142.117C132.411 142.452 132.457 142.814 132.601 143.093C132.745 143.376 132.977 143.563 133.2 143.661C133.66 143.859 134.003 143.756 134.011 143.811Z" fill="#263238"/>
<path d="M133.529 136.91C133.495 136.911 133.499 136.631 133.365 136.161C133.233 135.699 132.913 135.028 132.216 134.515C131.543 134.001 130.442 133.717 129.38 134.115C128.327 134.481 127.42 135.602 127.432 136.909C127.42 138.217 128.327 139.338 129.38 139.704C130.442 140.103 131.543 139.819 132.216 139.304C132.912 138.791 133.233 138.119 133.365 137.659C133.499 137.189 133.495 136.908 133.529 136.91C133.541 136.91 133.549 136.979 133.553 137.112C133.561 137.245 133.548 137.443 133.496 137.692C133.399 138.183 133.097 138.918 132.365 139.5C131.657 140.082 130.455 140.43 129.271 140.005C128.097 139.619 127.07 138.372 127.084 136.91C127.071 135.448 128.097 134.202 129.271 133.815C130.455 133.391 131.657 133.739 132.365 134.321C133.097 134.902 133.399 135.637 133.496 136.129C133.548 136.377 133.561 136.576 133.553 136.709C133.549 136.841 133.541 136.91 133.529 136.91Z" fill="#263238"/>
<path d="M141.016 136.615C140.983 136.617 140.986 136.343 140.855 135.886C140.725 135.437 140.413 134.783 139.735 134.285C139.079 133.784 138.007 133.508 136.975 133.897C135.95 134.253 135.068 135.343 135.079 136.615C135.067 137.887 135.95 138.978 136.975 139.335C138.008 139.723 139.08 139.447 139.735 138.946C140.413 138.447 140.726 137.793 140.855 137.345C140.986 136.887 140.983 136.614 141.016 136.615C141.028 136.615 141.037 136.683 141.041 136.812C141.049 136.941 141.037 137.135 140.986 137.377C140.892 137.856 140.599 138.573 139.884 139.141C139.195 139.709 138.021 140.049 136.866 139.635C135.721 139.258 134.719 138.041 134.733 136.615C134.719 135.188 135.721 133.972 136.866 133.595C138.021 133.181 139.195 133.521 139.884 134.089C140.599 134.656 140.892 135.373 140.986 135.852C141.037 136.095 141.049 136.288 141.041 136.417C141.037 136.548 141.028 136.615 141.016 136.615Z" fill="#263238"/>
<path d="M134.906 135.924C134.838 135.988 134.541 135.796 134.14 135.809C133.739 135.809 133.451 136.012 133.379 135.952C133.288 135.904 133.567 135.471 134.134 135.462C134.699 135.453 134.995 135.871 134.906 135.924Z" fill="#263238"/>
<path d="M127.447 136.464C127.505 136.541 126.923 137.073 126.147 137.651C125.371 138.231 124.696 138.637 124.639 138.561C124.581 138.484 125.163 137.952 125.939 137.373C126.715 136.795 127.39 136.387 127.447 136.464Z" fill="#263238"/>
<path d="M189.325 136.758C189.325 136.854 181.613 136.931 172.101 136.931C162.586 136.931 154.875 136.853 154.875 136.758C154.875 136.663 162.586 136.585 172.101 136.585C181.612 136.585 189.325 136.663 189.325 136.758Z" fill="#263238"/>
<path d="M173.393 140.363C173.393 140.459 169.298 140.537 164.247 140.537C159.195 140.537 155.101 140.459 155.101 140.363C155.101 140.268 159.195 140.19 164.247 140.19C169.298 140.19 173.393 140.267 173.393 140.363Z" fill="#263238"/>
<path d="M292.53 163.395C292.53 163.395 301.686 167.857 304.901 179.376C308.117 190.895 317.965 220.895 317.965 220.895C317.965 220.895 323.592 227.515 324.195 232.417C324.797 237.32 323.592 249.177 321.783 251.388C319.975 253.599 317.395 253.233 317.395 253.233L293.71 250.986L284.383 188.535L292.53 163.395Z" fill="#68D4F3"/>
<path d="M214.205 162.304C214.205 162.304 197.269 167.616 193.049 172.238L206.916 236.75L206.695 257.105H286.987C286.987 256.1 287.707 189.522 287.707 189.522L292.53 163.396L263.992 158.372L258.365 153.951L226.611 155.559L221.788 160.382L214.205 162.304Z" fill="#68D4F3"/>
<g opacity="0.3">
<path d="M220.637 218.271C220.39 217.724 220.036 217.133 219.448 217.011C218.481 216.812 217.834 217.955 217.505 218.887C214.897 226.271 211.447 233.063 206.957 239.481L206.751 249.386C211.432 245.447 216.047 241.228 219.031 235.887C222.015 230.547 223.157 223.846 220.637 218.271Z" fill="black"/>
</g>
<path d="M193.049 172.238C193.049 172.238 187.469 179.845 185.151 184.811C182.834 189.776 163.634 231.487 162.475 235.791C161.317 240.094 158.337 253.667 167.11 256.811H185.151L203.26 220.194L204.186 177.693L193.049 172.238Z" fill="#68D4F3"/>
<path d="M186.307 230.36C186.283 230.387 185.905 230.005 185.074 229.533C184.245 229.064 182.957 228.525 181.287 228.161C180.454 227.979 179.527 227.836 178.527 227.773C177.527 227.711 176.453 227.729 175.363 227.979C173.174 228.467 170.999 229.849 169.289 231.792C167.552 233.732 166.48 236.024 165.85 238.186C165.211 240.353 164.937 242.385 164.765 244.088C164.596 245.795 164.533 247.184 164.474 248.143C164.446 248.592 164.423 248.957 164.405 249.248C164.385 249.501 164.369 249.633 164.357 249.633C164.345 249.632 164.338 249.499 164.335 249.246C164.336 248.955 164.337 248.588 164.339 248.139C164.357 247.177 164.383 245.784 164.521 244.066C164.663 242.351 164.912 240.299 165.543 238.096C166.164 235.901 167.252 233.546 169.029 231.562C170.779 229.574 173.025 228.155 175.293 227.667C176.425 227.417 177.535 227.41 178.547 227.486C179.563 227.562 180.501 227.721 181.343 227.922C183.028 228.322 184.322 228.904 185.143 229.417C185.553 229.676 185.85 229.909 186.038 230.08C186.223 230.256 186.315 230.351 186.307 230.36Z" fill="#263238"/>
<path d="M177.751 223.069C177.749 223.045 177.965 223.012 178.358 222.972C178.751 222.924 179.325 222.913 180.031 222.949C180.739 222.98 181.578 223.101 182.492 223.313C183.401 223.541 184.384 223.871 185.365 224.332C186.342 224.805 187.216 225.361 187.966 225.924C188.706 226.501 189.328 227.077 189.797 227.608C190.271 228.134 190.623 228.588 190.833 228.923C191.049 229.254 191.158 229.442 191.139 229.455C191.085 229.493 190.596 228.77 189.619 227.777C189.135 227.277 188.509 226.731 187.774 226.18C187.029 225.643 186.17 225.107 185.215 224.645C184.256 224.195 183.299 223.864 182.413 223.623C181.523 223.399 180.705 223.255 180.011 223.194C178.625 223.06 177.755 223.135 177.751 223.069Z" fill="#263238"/>
<path d="M194.063 221.063C194.059 221.086 193.761 221.063 193.228 220.999C192.696 220.931 191.923 220.853 190.968 220.783C189.059 220.638 186.405 220.603 183.505 220.947C180.604 221.297 178.033 221.957 176.211 222.548C175.3 222.842 174.567 223.1 174.067 223.292C173.564 223.479 173.28 223.573 173.271 223.551C173.261 223.529 173.526 223.393 174.015 223.167C174.502 222.935 175.225 222.641 176.133 222.315C177.945 221.661 180.534 220.956 183.463 220.602C186.392 220.255 189.074 220.329 190.99 220.538C191.949 220.641 192.721 220.756 193.249 220.866C193.777 220.97 194.067 221.039 194.063 221.063Z" fill="#263238"/>
<path d="M245.451 185.426C245.443 185.431 245.381 185.357 245.267 185.209C245.138 185.036 244.975 184.819 244.775 184.549C244.333 183.937 243.723 183.091 242.961 182.037C241.403 179.839 239.231 176.775 236.677 173.17L236.957 173.131C235.985 175.986 234.911 179.135 233.783 182.45L233.711 182.66L233.529 182.543C233.411 182.467 233.283 182.385 233.155 182.302C231.662 181.355 230.345 180.217 229.227 178.985C228.113 177.746 227.189 176.425 226.422 175.106C224.888 172.462 223.963 169.853 223.335 167.644C222.711 165.428 222.385 163.593 222.167 162.329C222.061 161.724 221.977 161.24 221.914 160.875C221.883 160.709 221.85 160.587 221.829 160.503C221.798 160.427 221.783 160.384 221.787 160.38C221.861 160.349 222.057 161.047 222.299 162.304C222.558 163.559 222.92 165.381 223.571 167.575C224.225 169.763 225.167 172.341 226.697 174.944C227.463 176.242 228.379 177.54 229.478 178.755C230.581 179.964 231.875 181.079 233.34 182.008C233.466 182.089 233.591 182.17 233.707 182.244L233.454 182.337C234.593 179.025 235.675 175.879 236.656 173.027L236.758 172.729L236.936 172.987C239.449 176.62 241.585 179.71 243.117 181.925C243.847 183.002 244.433 183.865 244.857 184.489C245.041 184.77 245.19 184.997 245.308 185.177C245.409 185.337 245.458 185.421 245.451 185.426Z" fill="#263238"/>
<g opacity="0.3">
<path d="M266.354 216.223C265.61 223.681 267.257 231.359 270.993 237.857C274.73 244.355 280.204 250.146 287.024 253.255C287.245 246.634 286.927 238.835 287.147 232.214L266.354 216.223Z" fill="black"/>
</g>
<path d="M265.599 207.506C265.599 207.506 262.682 208.315 264.869 214.291C267.057 220.265 267.786 219.905 269.244 225.494C270.702 231.084 272.403 236.185 274.955 239.344C277.507 242.503 286.986 248.944 286.986 248.944L295.493 240.924C295.493 240.924 294.091 234.947 294.427 230.887C294.764 226.828 295.615 216.863 295.493 215.162C295.371 213.461 293.548 209.329 293.548 209.329V206.503L289.173 193.045C289.173 193.045 286.743 191.951 285.893 195.84L284.435 191.713C284.435 191.713 282.126 191.344 281.518 196.083C280.911 200.822 282.004 207.384 282.004 207.384L280.789 215.647L278.966 221.237L277.386 221.481C277.386 221.481 275.008 220.831 273.706 216.356C272.404 211.881 268.88 206.534 265.599 207.506Z" fill="#FFBE9D"/>
<path d="M292.645 228.643C292.635 228.644 292.622 228.539 292.605 228.337C292.589 228.105 292.569 227.811 292.544 227.446C292.5 226.631 292.44 225.503 292.364 224.099C292.233 221.197 292.051 217.16 291.838 212.446L291.876 212.544C291.486 212.076 290.788 211.937 290.155 212.095C289.511 212.251 288.935 212.652 288.578 213.251C287.835 214.446 287.795 216.004 287.562 217.508C287.101 220.914 286.661 224.157 286.261 227.113C286.059 228.589 285.845 229.994 285.557 231.294C285.278 232.596 284.885 233.781 284.503 234.839C284.127 235.9 283.794 236.86 283.587 237.725C283.379 238.588 283.297 239.352 283.313 239.975C283.339 241.231 283.703 241.867 283.649 241.881C283.639 241.885 283.569 241.726 283.445 241.415C283.345 241.098 283.204 240.618 283.178 239.98C283.141 239.345 283.206 238.561 283.399 237.681C283.59 236.799 283.909 235.825 284.271 234.758C284.638 233.693 285.011 232.525 285.276 231.233C285.549 229.943 285.751 228.545 285.944 227.069C286.336 224.113 286.766 220.868 287.218 217.461C287.325 216.702 287.407 215.952 287.539 215.203C287.674 214.46 287.881 213.713 288.289 213.067C288.678 212.412 289.358 211.931 290.078 211.769C290.789 211.59 291.639 211.746 292.125 212.333L292.161 212.377L292.163 212.432C292.325 217.148 292.463 221.187 292.563 224.091C292.599 225.496 292.629 226.625 292.65 227.441C292.654 227.807 292.657 228.101 292.659 228.334C292.659 228.537 292.654 228.643 292.645 228.643Z" fill="#EB996E"/>
<path d="M287.994 213.33C287.973 213.338 287.838 213.071 287.635 212.569C287.436 212.067 287.171 211.328 286.923 210.391C286.675 209.455 286.445 208.32 286.313 207.043C286.247 206.406 286.201 205.724 286.276 205.014C286.349 204.31 286.558 203.562 287.009 202.931C287.393 202.383 287.941 201.945 288.565 201.763L288.695 201.725L288.762 201.843C289.994 204.016 291.064 205.935 291.817 207.315C292.162 207.961 292.453 208.505 292.688 208.946C292.886 209.331 292.986 209.547 292.967 209.558C292.949 209.569 292.814 209.373 292.583 209.006C292.323 208.579 292.003 208.052 291.622 207.426C290.817 206.076 289.71 204.179 288.465 202.012L288.662 202.091C288.126 202.251 287.641 202.634 287.293 203.131C286.884 203.703 286.688 204.383 286.613 205.052C286.538 205.723 286.574 206.384 286.63 207.013C286.743 208.274 286.945 209.399 287.161 210.333C287.375 211.268 287.603 212.012 287.762 212.525C287.925 213.037 288.018 213.32 287.994 213.33Z" fill="#EB996E"/>
<path d="M285.961 214.423C285.937 214.424 285.91 214.148 285.882 213.649C285.859 213.075 285.83 212.369 285.796 211.533C285.739 209.747 285.683 207.279 285.644 204.553C285.623 201.83 285.517 199.353 285.752 197.559C285.865 196.665 286.044 195.953 286.208 195.477C286.37 195 286.503 194.754 286.52 194.761C286.58 194.78 286.149 195.813 285.997 197.585C285.827 199.35 285.971 201.82 285.991 204.548C286.031 207.274 286.047 209.743 286.042 211.53C286.033 212.366 286.024 213.073 286.017 213.647C286.003 214.147 285.985 214.423 285.961 214.423Z" fill="#EB996E"/>
<path d="M278.768 236.831C278.719 236.791 279.251 236.164 279.909 235.028C280.243 234.463 280.581 233.758 280.899 232.953C281.202 232.143 281.475 231.229 281.657 230.248C281.829 229.264 281.893 228.313 281.893 227.447C281.877 226.583 281.806 225.803 281.691 225.157C281.472 223.863 281.192 223.09 281.253 223.069C281.275 223.061 281.36 223.247 281.495 223.595C281.636 223.941 281.79 224.46 281.932 225.112C282.08 225.764 282.178 226.557 282.213 227.441C282.231 228.326 282.175 229.302 281.999 230.309C281.811 231.315 281.522 232.249 281.196 233.071C280.855 233.887 280.485 234.596 280.119 235.155C279.757 235.716 279.431 236.149 279.179 236.423C278.931 236.701 278.786 236.847 278.768 236.831Z" fill="#EB996E"/>
<path d="M293.7 232.651L301.082 235.213C301.082 235.213 308.13 231.567 312.991 235.213C317.851 238.858 322.073 248.466 320.737 252.355C320.737 252.355 317.382 256.497 314.83 257.104C312.278 257.711 302.357 255.309 298.23 254.439C294.091 253.568 286.985 248.944 286.985 248.944L293.7 232.651Z" fill="#FFBE9D"/>
<path d="M294.607 243.526C294.583 243.526 294.557 243.293 294.529 242.873C294.499 242.373 294.464 241.779 294.423 241.089C294.345 239.583 294.243 237.501 294.213 235.196C294.178 232.891 294.243 230.8 294.383 229.293C294.448 228.54 294.531 227.932 294.606 227.515C294.682 227.099 294.735 226.871 294.759 226.875C294.813 226.883 294.699 227.808 294.628 229.311C294.552 230.813 294.525 232.893 294.56 235.192C294.602 237.445 294.639 239.483 294.669 241.082C294.677 241.837 294.675 242.448 294.663 242.871C294.65 243.293 294.631 243.526 294.607 243.526Z" fill="#EB996E"/>
<path d="M318.949 234.923C318.893 234.975 318.137 233.925 316.494 232.71C314.877 231.498 312.249 230.206 309.138 230.031C306.025 229.863 303.271 230.859 301.531 231.885C299.763 232.912 298.897 233.873 298.847 233.815C298.833 233.802 299.038 233.555 299.456 233.157C299.873 232.757 300.524 232.223 301.405 231.675C303.143 230.575 305.957 229.511 309.157 229.685C312.355 229.864 315.035 231.231 316.642 232.514C317.457 233.155 318.046 233.757 318.417 234.201C318.788 234.644 318.965 234.911 318.949 234.923Z" fill="#263238"/>
<path d="M318.001 228.768C317.953 228.84 316.967 227.844 314.929 227.075C312.923 226.289 309.812 225.926 306.619 226.825C305.025 227.27 303.567 227.907 302.321 228.614C301.075 229.327 300.035 230.107 299.207 230.813C298.379 231.52 297.745 232.137 297.311 232.567C296.877 232.997 296.635 233.235 296.616 233.217C296.599 233.203 296.807 232.934 297.213 232.473C297.619 232.013 298.229 231.366 299.046 230.628C299.861 229.89 300.902 229.078 302.161 228.337C303.422 227.601 304.9 226.945 306.525 226.491C309.797 225.569 312.991 225.983 315.019 226.846C316.043 227.267 316.805 227.749 317.291 228.129C317.541 228.309 317.709 228.483 317.831 228.587C317.95 228.697 318.008 228.759 318.001 228.768Z" fill="#263238"/>
<path d="M318.061 223.433C318.043 223.502 316.752 223.107 314.609 222.817C313.539 222.665 312.252 222.58 310.825 222.577C309.397 222.599 307.83 222.716 306.205 222.993C304.583 223.287 303.069 223.712 301.721 224.18C300.38 224.669 299.2 225.189 298.245 225.697C296.329 226.702 295.251 227.513 295.211 227.455C295.197 227.435 295.46 227.227 295.95 226.864C296.193 226.679 296.496 226.462 296.867 226.237C297.235 226.009 297.643 225.73 298.129 225.481C299.077 224.939 300.261 224.391 301.611 223.879C302.97 223.389 304.502 222.949 306.145 222.651C307.79 222.371 309.379 222.261 310.824 222.258C312.269 222.278 313.567 222.39 314.643 222.575C315.185 222.643 315.665 222.766 316.089 222.855C316.514 222.939 316.873 223.04 317.164 223.131C317.749 223.304 318.068 223.411 318.061 223.433Z" fill="#263238"/>
<path d="M261.505 158.151C261.505 158.151 261.847 158.79 262.016 160.114C262.197 161.43 262.172 163.399 261.736 165.841C261.517 167.061 261.221 168.401 260.782 169.832C260.323 171.265 259.629 172.729 258.843 174.266C257.253 177.332 255.253 180.675 252.935 184.241L252.665 184.657L252.664 184.159C252.661 181.803 252.657 179.33 252.653 176.761L252.912 176.885C250.927 178.487 248.838 180.174 246.686 181.911L246.74 181.831C245.297 186.404 244.347 191.495 243.971 196.797C243.361 204.91 243.853 212.67 244.235 219.71C244.563 226.76 244.778 233.108 244.998 238.439C245.209 243.769 245.402 248.082 245.563 251.061C245.65 252.537 245.718 253.689 245.765 254.489C245.791 254.869 245.81 255.165 245.825 255.381C245.836 255.582 245.833 255.685 245.833 255.685C245.833 255.685 245.813 255.584 245.789 255.384C245.767 255.169 245.735 254.873 245.696 254.495C245.622 253.713 245.527 252.558 245.428 251.069C245.226 248.092 244.996 243.78 244.753 238.45C244.514 233.115 244.231 226.771 243.916 219.727C243.516 212.692 243.013 204.915 243.625 196.771C244.003 191.448 244.961 186.328 246.421 181.729L246.436 181.681L246.475 181.649C248.631 179.916 250.724 178.234 252.712 176.636L252.972 176.427L252.971 176.761C252.967 179.329 252.963 181.802 252.96 184.158L252.689 184.076C257.269 176.973 260.993 170.802 261.567 165.809C262.025 163.385 262.077 161.432 261.926 160.124C261.862 159.467 261.733 158.977 261.652 158.647C261.548 158.323 261.505 158.151 261.505 158.151Z" fill="#263238"/>
<path d="M249.547 244.148L249.309 244.14C248.345 244.167 247.485 245.049 247.483 246.014C247.48 246.979 248.334 247.866 249.298 247.899C250.263 247.933 251.176 247.107 251.24 246.145C251.304 245.181 250.508 244.242 249.547 244.148Z" fill="white"/>
<path d="M249.547 218.453L249.309 218.445C248.345 218.473 247.485 219.355 247.483 220.319C247.48 221.284 248.334 222.171 249.298 222.205C250.263 222.238 251.176 221.413 251.24 220.45C251.304 219.487 250.508 218.548 249.547 218.453Z" fill="white"/>
<path d="M249.298 195.466C250.263 195.499 251.176 194.674 251.24 193.711C251.304 192.749 250.508 191.809 249.547 191.715L249.309 191.707C248.345 191.735 247.485 192.616 247.483 193.581C247.479 194.545 248.334 195.433 249.298 195.466Z" fill="white"/>
<path d="M220.516 128.044C218.179 125.457 215.821 122.841 214.117 119.798C212.413 116.755 211.397 113.205 211.961 109.763C212.291 107.751 213.145 105.835 213.281 103.8C213.469 101 212.291 98.0747 213.284 95.4507C214.835 91.3494 220.357 90.7154 223.704 87.882C226.311 85.6754 227.581 82.0927 230.448 80.2374C232.953 78.6161 236.172 78.6514 239.126 79.0694C242.081 79.4874 245.053 80.2327 248.011 79.8354C250.119 79.552 252.104 78.6994 254.169 78.188C256.234 77.6767 258.538 77.5421 260.377 78.6107C262.217 79.6794 263.249 82.2901 262.043 84.0427C265.47 82.4627 269.823 85.1334 270.761 88.7887C271.699 92.444 269.821 96.3927 266.917 98.8034C264.014 101.213 260.258 102.335 256.55 103.034C246.051 105.013 234.663 103.897 225.615 98.2147" fill="#263238"/>
<path d="M257.424 163.341C256.911 159.367 256.492 156.051 256.466 155.639C256.466 155.639 269.747 152.654 269.015 139.225C268.661 132.735 266.845 119.428 265.062 107.408C263.147 94.4994 251.625 85.2327 238.604 86.1041L237.309 86.1907C223.403 87.94 217.121 100.727 219.254 114.579L226.757 161.027C226.757 161.027 229.959 171.301 236.807 173.08L245.451 185.427L246.879 180.111L253.322 174.503C253.322 174.503 254.8 172.903 256.498 169.775C257.885 167.218 257.593 164.588 257.424 163.341Z" fill="#FFBE9D"/>
<path d="M256.476 155.444C256.476 155.444 248.042 156.701 238.65 151.643C238.65 151.643 243.431 161.023 256.739 158.919L256.476 155.444Z" fill="#EB996E"/>
<path d="M260.747 118.947C260.851 119.956 260.081 120.876 259.029 121.003C257.978 121.13 257.041 120.417 256.938 119.407C256.835 118.398 257.604 117.477 258.654 117.349C259.706 117.223 260.643 117.937 260.747 118.947Z" fill="#263238"/>
<path d="M262.62 114.186C262.399 114.451 260.876 113.474 258.813 113.618C256.752 113.731 255.31 114.893 255.069 114.656C254.952 114.551 255.163 114.084 255.79 113.561C256.407 113.04 257.482 112.501 258.767 112.421C260.051 112.342 261.163 112.742 261.817 113.185C262.485 113.629 262.729 114.066 262.62 114.186Z" fill="#263238"/>
<path d="M241.267 120.339C241.371 121.349 240.601 122.269 239.549 122.396C238.499 122.523 237.562 121.81 237.459 120.801C237.355 119.791 238.125 118.87 239.175 118.743C240.227 118.615 241.164 119.33 241.267 120.339Z" fill="#263238"/>
<path d="M242.377 115.926C242.155 116.192 240.63 115.215 238.57 115.358C236.509 115.472 235.066 116.633 234.826 116.396C234.709 116.291 234.918 115.825 235.548 115.301C236.165 114.779 237.239 114.241 238.524 114.16C239.809 114.081 240.921 114.482 241.575 114.924C242.239 115.369 242.486 115.807 242.377 115.926Z" fill="#263238"/>
<path d="M250.883 130.718C250.866 130.601 252.133 130.294 254.192 129.89C254.715 129.801 255.207 129.663 255.271 129.297C255.37 128.909 255.112 128.356 254.815 127.76C254.235 126.519 253.628 125.218 252.99 123.855C250.446 118.291 248.567 113.702 248.791 113.601C249.017 113.501 251.261 117.929 253.805 123.493C254.42 124.866 255.007 126.175 255.567 127.427C255.805 128.013 256.194 128.668 255.978 129.475C255.863 129.878 255.495 130.19 255.164 130.303C254.833 130.429 254.537 130.455 254.278 130.487C252.195 130.739 250.899 130.835 250.883 130.718Z" fill="#263238"/>
<path d="M242.369 107.81C242.203 108.384 240.126 108.256 237.727 108.71C235.317 109.115 233.414 109.954 233.059 109.473C232.9 109.241 233.205 108.691 233.957 108.096C234.703 107.501 235.916 106.903 237.357 106.644C238.799 106.389 240.144 106.53 241.049 106.829C241.962 107.127 242.439 107.538 242.369 107.81Z" fill="#263238"/>
<path d="M261.463 108.269C261.131 108.761 259.678 108.37 257.969 108.461C256.256 108.493 254.835 108.987 254.469 108.519C254.308 108.291 254.503 107.807 255.106 107.321C255.699 106.838 256.717 106.407 257.893 106.364C259.069 106.323 260.115 106.679 260.741 107.119C261.377 107.561 261.607 108.029 261.463 108.269Z" fill="#263238"/>
<path d="M221.015 124.441C220.779 124.357 211.613 122.331 212.519 131.485C213.426 140.639 223.347 137.655 223.336 137.391C223.326 137.127 221.015 124.441 221.015 124.441Z" fill="#FFBE9D"/>
<path d="M219.279 134.385C219.236 134.36 219.131 134.513 218.873 134.663C218.623 134.809 218.179 134.937 217.684 134.806C216.682 134.547 215.715 133.092 215.507 131.447C215.401 130.616 215.498 129.805 215.728 129.119C215.941 128.422 216.328 127.911 216.807 127.777C217.28 127.617 217.653 127.874 217.791 128.121C217.939 128.365 217.899 128.553 217.949 128.564C217.977 128.585 218.13 128.391 218.019 128.021C217.963 127.843 217.834 127.637 217.602 127.483C217.365 127.325 217.033 127.267 216.697 127.337C215.996 127.455 215.425 128.168 215.171 128.921C214.88 129.681 214.752 130.594 214.871 131.527C215.113 133.365 216.228 134.998 217.589 135.249C218.25 135.353 218.768 135.107 219.024 134.863C219.285 134.608 219.313 134.399 219.279 134.385Z" fill="#EB996E"/>
<path d="M264.388 94.9007C263.759 98.5447 256.369 101.883 250.241 101.705C244.593 101.54 241.802 98.7374 237.697 96.7454C235.099 95.4847 235.099 95.4847 231.574 96.0574C228.724 96.5207 227.244 99.8841 225.644 102.287C228.693 108.933 227.461 116.661 226.168 123.858C226.025 124.653 225.848 125.512 225.242 126.046C224.213 126.953 222.545 126.41 221.532 125.483C219.912 124 219.174 121.8 218.643 119.669C217.433 114.813 216.969 109.728 217.737 104.783C218.505 99.8381 220.551 95.0341 223.929 91.3427C228.152 86.7294 234.324 84.0701 240.57 83.7487C246.815 83.4281 253.088 85.3607 258.32 88.7881C260.747 90.3781 263.017 92.3441 264.388 94.9007Z" fill="#263238"/>
<path d="M252.232 135.355C250.677 134.63 249.121 133.905 247.566 133.179C247.298 133.054 247.011 132.926 246.717 132.965C246.387 133.009 246.122 133.257 245.91 133.514C244.828 134.825 244.555 136.803 245.393 138.282C246.231 139.761 248.201 140.542 249.771 139.892C251.425 139.207 252.229 137.287 252.358 135.501L252.232 135.355Z" fill="#EB996E"/>
<path d="M249.917 140.221C249.931 140.261 249.701 140.396 249.235 140.493C248.772 140.582 248.056 140.617 247.227 140.345C246.407 140.082 245.482 139.444 244.91 138.42C244.328 137.422 244.118 136.012 244.626 134.74C244.869 134.108 245.247 133.549 245.709 133.108C245.943 132.885 246.185 132.702 246.465 132.536C246.611 132.455 246.794 132.375 247.003 132.365C247.209 132.353 247.394 132.406 247.545 132.469C247.849 132.605 248.047 132.752 248.272 132.882C248.489 133.015 248.702 133.146 248.908 133.273C249.31 133.524 249.689 133.761 250.044 133.983C251.428 134.862 252.259 135.447 252.211 135.529C252.163 135.612 251.244 135.177 249.797 134.408C249.429 134.209 249.036 133.996 248.619 133.771C248.407 133.653 248.189 133.533 247.965 133.41C247.742 133.291 247.5 133.139 247.306 133.063C247.093 132.989 247.001 132.994 246.795 133.111C246.592 133.24 246.371 133.409 246.182 133.597C245.798 133.977 245.48 134.453 245.275 134.989C244.847 136.063 245.001 137.23 245.472 138.113C245.937 139.009 246.689 139.593 247.4 139.886C248.116 140.183 248.765 140.228 249.207 140.225C249.651 140.214 249.903 140.171 249.917 140.221Z" fill="#263238"/>
<path d="M248.445 119.177C248.391 119.181 248.453 118.324 248.081 116.859C247.713 115.422 246.755 113.309 244.595 111.675C243.525 110.877 242.177 110.199 240.623 109.928C239.08 109.666 237.339 109.717 235.683 110.349C234.85 110.639 234.046 111.077 233.307 111.631C232.56 112.173 231.882 112.847 231.323 113.627C230.168 115.164 229.517 117.139 229.499 119.175C229.517 121.212 230.167 123.188 231.323 124.726C231.881 125.507 232.56 126.18 233.307 126.723C234.045 127.276 234.849 127.715 235.683 128.005C237.339 128.637 239.08 128.688 240.623 128.426C242.177 128.154 243.524 127.477 244.595 126.678C246.755 125.044 247.713 122.931 248.08 121.495C248.453 120.029 248.391 119.172 248.445 119.177C248.451 119.177 248.455 119.229 248.455 119.332C248.454 119.456 248.452 119.605 248.449 119.788C248.45 119.989 248.439 120.237 248.391 120.528C248.352 120.819 248.315 121.158 248.211 121.527C248.055 122.275 247.719 123.163 247.177 124.107C246.631 125.047 245.836 126.033 244.744 126.873C243.656 127.705 242.275 128.415 240.676 128.709C239.088 128.991 237.291 128.95 235.574 128.306C234.71 128.009 233.876 127.559 233.109 126.989C232.334 126.43 231.63 125.735 231.049 124.927C229.849 123.337 229.169 121.286 229.151 119.175C229.17 117.065 229.849 115.015 231.049 113.425C231.631 112.619 232.335 111.923 233.11 111.364C233.877 110.794 234.711 110.344 235.574 110.047C237.291 109.403 239.088 109.361 240.676 109.645C242.275 109.937 243.655 110.648 244.744 111.48C245.836 112.319 246.631 113.305 247.177 114.245C247.719 115.189 248.055 116.077 248.212 116.825C248.316 117.194 248.353 117.533 248.391 117.824C248.44 118.115 248.45 118.363 248.45 118.564C248.453 118.747 248.454 118.897 248.456 119.02C248.455 119.125 248.451 119.177 248.445 119.177Z" fill="#263238"/>
<path d="M271.276 118.28C271.223 118.285 271.281 117.449 270.919 116.022C270.561 114.623 269.627 112.565 267.523 110.973C266.48 110.196 265.167 109.536 263.654 109.271C262.151 109.017 260.455 109.066 258.843 109.681C258.031 109.964 257.248 110.391 256.529 110.93C255.801 111.458 255.141 112.115 254.597 112.874C253.471 114.371 252.838 116.295 252.819 118.278C252.837 120.261 253.471 122.186 254.596 123.684C255.14 124.444 255.801 125.1 256.529 125.629C257.248 126.168 258.031 126.595 258.843 126.878C260.456 127.493 262.151 127.543 263.655 127.288C265.168 127.023 266.481 126.363 267.523 125.586C269.628 123.994 270.561 121.937 270.92 120.537C271.282 119.11 271.223 118.275 271.276 118.28C271.288 118.28 271.289 118.485 271.281 118.876C271.281 119.072 271.271 119.314 271.224 119.597C271.187 119.881 271.151 120.211 271.05 120.571C270.727 121.999 269.813 124.121 267.671 125.782C266.611 126.593 265.265 127.286 263.707 127.572C262.159 127.848 260.407 127.808 258.733 127.18C257.891 126.891 257.077 126.452 256.33 125.897C255.574 125.351 254.887 124.673 254.321 123.887C253.151 122.337 252.489 120.337 252.471 118.279C252.489 116.222 253.151 114.223 254.321 112.674C254.888 111.887 255.575 111.21 256.33 110.665C257.077 110.109 257.89 109.671 258.732 109.381C260.405 108.753 262.157 108.713 263.705 108.989C265.264 109.274 266.61 109.967 267.67 110.778C269.811 112.438 270.725 114.56 271.049 115.989C271.15 116.349 271.185 116.679 271.223 116.963C271.27 117.247 271.28 117.489 271.279 117.685C271.289 118.075 271.288 118.28 271.276 118.28Z" fill="#263238"/>
<path d="M252.645 116.171C252.608 116.209 252.387 116.024 251.982 115.832C251.58 115.64 250.979 115.452 250.303 115.464C249.626 115.473 249.032 115.683 248.638 115.891C248.241 116.098 248.029 116.293 247.989 116.257C247.957 116.231 248.112 115.964 248.509 115.681C248.901 115.401 249.546 115.127 250.296 115.117C251.046 115.104 251.699 115.354 252.101 115.619C252.51 115.885 252.677 116.143 252.645 116.171Z" fill="#263238"/>
<path d="M229.903 117.819C229.96 117.895 228.089 119.389 225.725 121.154C223.359 122.92 221.396 124.289 221.339 124.211C221.281 124.135 223.151 122.641 225.517 120.875C227.882 119.111 229.845 117.742 229.903 117.819Z" fill="#263238"/>
<g opacity="0.3">
<path d="M222.014 161.209C221.087 170.257 224.527 179.806 231.783 185.289C232.353 185.719 233.067 186.146 233.739 185.903C234.205 185.735 234.503 185.288 234.751 184.859C236.819 181.277 237.513 177.326 236.914 173.233C235.765 176.259 234.779 179.229 233.619 182.395C227.296 178.555 223.355 170.392 222.014 161.209Z" fill="black"/>
</g>
<path opacity="0.3" d="M246.581 181.78L251.905 179.835L252.787 188.841C252.787 188.841 258.533 178.369 260.911 173.591C263.288 168.813 262.065 160.38 262.065 160.38C262.065 160.38 262.916 167.725 257.158 177.094L252.812 184.157V176.76L246.581 181.78Z" fill="black"/>
<g opacity="0.3">
<path d="M184.636 227.553C182.261 226.431 179.529 226.281 176.921 226.585C174.165 226.905 171.4 227.749 169.241 229.491C167.083 231.233 165.619 233.977 165.888 236.738L166.155 236.776C168.012 231.747 171.708 228.088 176.474 227.645C181.239 227.203 185.889 229.323 189.161 232.817C188.843 230.21 187.011 228.674 184.636 227.553Z" fill="black"/>
</g>
<g opacity="0.3">
<path d="M319.293 232.694C317.509 230.768 315.001 229.601 312.415 229.151C307.874 228.359 303 229.769 299.584 232.865L300.6 232.041C303.181 230.531 306.156 229.635 309.145 229.719C312.134 229.804 315.125 230.91 317.29 232.973C319.281 234.87 320.477 237.431 321.618 239.932C322.063 237.345 321.077 234.62 319.293 232.694Z" fill="black"/>
</g>
<path d="M284.967 190.867C284.945 190.858 285.031 190.599 285.205 190.139C285.411 189.613 285.664 188.965 285.963 188.201C286.608 186.568 287.493 184.31 288.427 181.8C289.36 179.289 290.167 177.001 290.746 175.343C291.019 174.57 291.251 173.915 291.439 173.382C291.607 172.92 291.711 172.668 291.734 172.675C291.757 172.683 291.697 172.948 291.568 173.423C291.44 173.899 291.239 174.581 290.979 175.421C290.459 177.101 289.687 179.405 288.752 181.921C287.816 184.436 286.893 186.685 286.189 188.296C285.837 189.102 285.543 189.75 285.33 190.193C285.117 190.636 284.989 190.877 284.967 190.867Z" fill="#263238"/>
<path d="M200.92 191.521C200.826 191.541 200.101 188.368 199.302 184.436C198.502 180.503 197.93 177.3 198.024 177.281C198.118 177.261 198.843 180.433 199.642 184.367C200.442 188.299 201.014 191.503 200.92 191.521Z" fill="#263238"/>
<path d="M199.662 231.179C199.873 231.285 197.219 210.404 197.219 210.404C197.219 210.404 198.894 194.558 199.835 193.825L199.859 188.234C199.859 188.234 202.451 186.664 203.147 189.199C203.147 189.199 205.445 187.203 205.846 191.953C206.247 196.703 206.332 201.557 206.332 201.557L211.447 214.347L212.289 214.773C212.289 214.773 213.387 204.753 214.027 203.279C214.666 201.804 215.104 198.219 217.529 198.757C219.953 199.295 220.155 201.301 219.719 204.569C219.283 207.839 218.741 211.213 218.943 213.324C219.145 215.435 220.104 220.082 219.809 223.774C219.515 227.466 217.493 231.361 215.371 234.095C213.249 236.829 209.195 242.485 206.991 244.189C206.222 244.784 199.662 231.179 199.662 231.179Z" fill="#FFBE9D"/>
<path d="M202.244 214.187C202.22 214.185 202.226 213.867 202.258 213.293C202.302 212.651 202.358 211.838 202.425 210.867C202.581 208.82 202.82 205.994 203.106 202.876C203.254 201.321 203.394 199.839 203.523 198.48C203.59 197.808 203.632 197.173 203.546 196.595C203.466 196.017 203.239 195.516 202.909 195.154C202.234 194.422 201.365 194.237 200.821 194.237C200.257 194.233 199.962 194.387 199.95 194.349C199.946 194.337 200.016 194.301 200.158 194.239C200.302 194.187 200.522 194.119 200.816 194.102C201.388 194.061 202.322 194.208 203.088 194.987C203.466 195.373 203.734 195.933 203.83 196.55C203.935 197.169 203.899 197.832 203.842 198.509C203.722 199.868 203.59 201.351 203.452 202.907C203.166 206.026 202.888 208.848 202.67 210.889C202.56 211.857 202.467 212.667 202.394 213.305C202.32 213.875 202.268 214.189 202.244 214.187Z" fill="#EB996E"/>
<path d="M204.993 205.647C205.043 205.689 204.473 206.19 204.088 207.295C203.676 208.384 203.527 210.019 203.238 211.803C202.963 213.588 202.694 215.201 202.483 216.366C202.271 217.531 202.117 218.248 202.069 218.241C202.022 218.233 202.091 217.503 202.24 216.329C202.389 215.154 202.619 213.535 202.895 211.75C203.184 209.976 203.37 208.327 203.859 207.207C204.091 206.648 204.373 206.239 204.599 205.989C204.822 205.735 204.982 205.634 204.993 205.647Z" fill="#EB996E"/>
<path d="M203.114 188.924C203.137 188.92 203.2 189.154 203.292 189.581C203.385 190.007 203.501 190.629 203.629 191.399C203.883 192.94 204.163 195.081 204.339 197.459C204.514 199.837 204.553 201.997 204.527 203.558C204.514 204.339 204.491 204.97 204.461 205.406C204.433 205.842 204.406 206.083 204.382 206.082C204.331 206.081 204.319 205.116 204.281 203.559C204.244 202.003 204.167 199.853 203.993 197.485C203.817 195.117 203.578 192.979 203.385 191.434C203.193 189.889 203.063 188.933 203.114 188.924Z" fill="#EB996E"/>
<path d="M217.868 208.501C217.919 208.579 217.121 208.951 216.145 208.647C215.167 208.355 214.711 207.601 214.797 207.564C214.874 207.497 215.387 208.063 216.247 208.315C217.101 208.587 217.841 208.403 217.868 208.501Z" fill="#EB996E"/>
<path d="M199.949 228.582L186.437 234.261H178.387C178.387 234.261 170.423 236.745 169.199 244.21C167.973 251.675 167.799 255.516 171.299 256.439C174.799 257.363 184.687 257.465 189.587 255.839C194.487 254.213 207.324 243.855 207.324 243.855L208.561 236.361L199.949 228.582Z" fill="#FFBE9D"/>
<path d="M203.114 236.831C203.097 236.847 202.961 236.722 202.73 236.479C202.49 236.243 202.195 235.856 201.853 235.362C201.185 234.365 200.453 232.852 199.965 231.088C199.46 229.328 199.245 227.683 199.133 226.496C199.03 225.307 199.036 224.568 199.08 224.565C199.131 224.562 199.212 225.293 199.376 226.468C199.549 227.639 199.801 229.261 200.299 230.993C200.779 232.729 201.457 234.22 202.059 235.231C202.667 236.241 203.162 236.788 203.114 236.831Z" fill="#EB996E"/>
<path d="M208.997 239.201C208.924 239.174 209.533 238.147 209.767 236.304C209.879 235.389 209.869 234.275 209.607 233.087C209.349 231.895 208.779 230.668 207.952 229.523C207.131 228.372 206.208 227.371 205.43 226.401C204.644 225.437 204.015 224.494 203.603 223.64C203.189 222.786 202.997 222.032 202.926 221.509C202.858 220.983 202.885 220.69 202.903 220.69C202.971 220.675 202.947 221.882 203.822 223.529C204.251 224.349 204.885 225.257 205.677 226.199C206.461 227.148 207.394 228.145 208.234 229.322C209.08 230.491 209.671 231.783 209.919 233.019C210.173 234.253 210.156 235.402 210.009 236.337C209.863 237.275 209.605 238.003 209.39 238.484C209.287 238.727 209.187 238.906 209.117 239.026C209.049 239.146 209.007 239.206 208.997 239.201Z" fill="#EB996E"/>
<path d="M188.166 206.665C188.081 206.709 186.607 204.026 184.873 200.674C183.139 197.321 181.803 194.567 181.889 194.523C181.974 194.479 183.448 197.161 185.181 200.515C186.915 203.867 188.251 206.621 188.166 206.665Z" fill="white"/>
<path d="M210.019 182.338C209.931 182.299 210.843 180.063 212.054 177.343C213.266 174.623 214.319 172.45 214.407 172.489C214.494 172.529 213.583 174.765 212.371 177.485C211.16 180.204 210.107 182.377 210.019 182.338Z" fill="white"/>
<path d="M231.418 198.126C231.344 198.187 229.973 196.653 228.356 194.699C226.738 192.745 225.487 191.112 225.561 191.051C225.635 190.989 227.005 192.524 228.623 194.478C230.241 196.431 231.492 198.065 231.418 198.126Z" fill="white"/>
<path d="M226.495 219.841C226.417 219.785 227.451 218.227 228.802 216.363C230.155 214.499 231.313 213.033 231.391 213.089C231.469 213.145 230.436 214.703 229.083 216.567C227.731 218.431 226.573 219.897 226.495 219.841Z" fill="white"/>
<path d="M219.868 250.511C219.826 250.532 219.523 250.023 219.085 249.172C218.647 248.321 218.08 247.127 217.509 245.784C216.938 244.44 216.472 243.203 216.164 242.297C215.855 241.392 215.699 240.82 215.743 240.805C215.789 240.788 216.027 241.33 216.394 242.211C216.813 243.213 217.295 244.371 217.829 245.649C218.378 246.919 218.876 248.071 219.307 249.067C219.687 249.943 219.912 250.49 219.868 250.511Z" fill="white"/>
<path d="M238.696 237.473C238.678 237.567 236.865 237.295 234.649 236.866C232.431 236.437 230.649 236.013 230.667 235.919C230.685 235.825 232.497 236.096 234.715 236.525C236.931 236.955 238.714 237.379 238.696 237.473Z" fill="white"/>
<path d="M253.297 208.814C253.227 208.749 254.955 206.771 257.157 204.397C259.359 202.021 261.201 200.15 261.271 200.215C261.341 200.281 259.613 202.258 257.411 204.633C255.209 207.007 253.367 208.879 253.297 208.814Z" fill="white"/>
<path d="M267.987 247.036C267.913 247.097 265.757 244.602 263.173 241.464C260.587 238.325 258.551 235.732 258.625 235.671C258.699 235.61 260.855 238.104 263.441 241.243C266.025 244.381 268.061 246.975 267.987 247.036Z" fill="white"/>
<path d="M176.797 230.745C176.847 230.84 174.877 231.839 172.731 233.486C170.574 235.121 169.091 236.757 169.011 236.684C168.978 236.655 169.307 236.208 169.918 235.552C170.528 234.896 171.431 234.042 172.52 233.21C173.609 232.38 174.672 231.735 175.465 231.32C176.26 230.905 176.778 230.705 176.797 230.745Z" fill="white"/>
<path d="M182.291 216.014C182.371 216.067 181.669 217.262 180.725 218.682C179.78 220.103 178.949 221.211 178.869 221.158C178.789 221.105 179.491 219.911 180.435 218.489C181.38 217.069 182.211 215.961 182.291 216.014Z" fill="white"/>
<path d="M194.666 230.48C194.59 230.525 193.895 229.359 193.533 227.741C193.161 226.126 193.283 224.774 193.371 224.782C193.474 224.782 193.509 226.098 193.871 227.665C194.221 229.233 194.759 230.435 194.666 230.48Z" fill="white"/>
<path d="M196.501 184.532C196.514 184.627 195.364 184.869 193.933 185.073C192.501 185.276 191.329 185.364 191.315 185.269C191.302 185.175 192.451 184.933 193.884 184.729C195.315 184.525 196.487 184.437 196.501 184.532Z" fill="white"/>
<path d="M205.796 168.049C205.843 168.133 204.836 168.779 203.548 169.493C202.259 170.207 201.178 170.718 201.131 170.634C201.085 170.55 202.091 169.903 203.38 169.189C204.667 168.475 205.749 167.965 205.796 168.049Z" fill="white"/>
<path d="M231.935 175.011C231.859 175.069 230.707 173.686 229.363 171.921C228.019 170.156 226.991 168.679 227.068 168.621C227.144 168.563 228.295 169.946 229.64 171.711C230.983 173.476 232.011 174.953 231.935 175.011Z" fill="white"/>
<path d="M265.117 191.588C265.052 191.649 263.84 190.401 262.716 188.586C261.584 186.775 261.001 185.137 261.083 185.105C261.178 185.065 261.895 186.619 263.011 188.403C264.117 190.19 265.195 191.521 265.117 191.588Z" fill="white"/>
<path d="M277.781 195.763C277.868 195.802 277.253 197.347 276.407 199.211C275.56 201.077 274.803 202.556 274.716 202.517C274.629 202.477 275.244 200.933 276.091 199.068C276.937 197.203 277.693 195.723 277.781 195.763Z" fill="white"/>
<path d="M279.551 178.476C279.477 178.537 277.969 176.847 276.183 174.7C274.397 172.553 273.008 170.763 273.082 170.701C273.156 170.64 274.663 172.331 276.451 174.478C278.237 176.625 279.625 178.415 279.551 178.476Z" fill="white"/>
<path d="M260.208 164.434C260.112 164.438 259.977 162.991 259.907 161.203C259.836 159.415 259.857 157.963 259.953 157.959C260.049 157.955 260.183 159.401 260.254 161.189C260.324 162.977 260.303 164.43 260.208 164.434Z" fill="white"/>
<path d="M275.979 163.559C275.991 163.655 274.148 163.979 271.863 164.285C269.576 164.591 267.713 164.761 267.7 164.666C267.687 164.571 269.53 164.246 271.817 163.941C274.103 163.635 275.966 163.464 275.979 163.559Z" fill="white"/>
<path d="M300.819 181.805C300.733 181.847 299.624 179.733 298.343 177.085C297.061 174.435 296.092 172.254 296.178 172.212C296.264 172.17 297.373 174.283 298.655 176.933C299.936 179.583 300.905 181.764 300.819 181.805Z" fill="white"/>
<path d="M296.637 197.572C296.543 197.553 296.803 195.854 297.217 193.777C297.632 191.7 298.045 190.032 298.139 190.051C298.233 190.069 297.973 191.768 297.558 193.845C297.143 195.922 296.731 197.591 296.637 197.572Z" fill="white"/>
<path d="M308.159 210.001C308.068 210.033 307.183 207.739 306.182 204.879C305.181 202.017 304.442 199.673 304.533 199.641C304.623 199.609 305.508 201.903 306.51 204.764C307.511 207.625 308.249 209.969 308.159 210.001Z" fill="white"/>
<path d="M306.554 217.271C306.537 217.356 304.939 217.023 303.187 216.067C301.428 215.121 300.276 213.964 300.338 213.903C300.406 213.823 301.635 214.839 303.352 215.761C305.062 216.696 306.584 217.171 306.554 217.271Z" fill="white"/>
<path d="M321.313 233.849C321.226 233.888 320.691 232.875 320.118 231.589C319.545 230.301 319.152 229.227 319.239 229.187C319.327 229.148 319.862 230.16 320.435 231.447C321.007 232.735 321.401 233.81 321.313 233.849Z" fill="white"/>
<path d="M234.141 256.967C234.045 256.978 233.813 255.656 233.623 254.015C233.432 252.373 233.354 251.034 233.449 251.023C233.545 251.012 233.777 252.333 233.967 253.975C234.159 255.616 234.236 256.956 234.141 256.967Z" fill="white"/>
<path d="M279.427 255.823C279.333 255.803 279.528 254.51 279.863 252.936C280.197 251.361 280.545 250.101 280.639 250.121C280.733 250.141 280.537 251.433 280.202 253.008C279.867 254.582 279.52 255.843 279.427 255.823Z" fill="white"/>
<path d="M288.109 123.629L293.965 113.309C291.375 109.104 289.877 104.153 289.877 98.8527C289.877 83.6073 302.236 71.2487 317.481 71.2487C332.726 71.2487 345.084 83.6073 345.084 98.8527C345.084 114.097 332.725 126.456 317.481 126.456C311.115 126.456 305.257 124.295 300.587 120.675L300.597 120.687L288.109 123.629Z" fill="#FAFAFA"/>
<path d="M288.11 123.629C288.704 123.493 292.657 122.59 300.618 120.771L300.746 120.741L300.666 120.636L300.656 120.624L300.537 120.743C302.112 121.963 303.998 123.165 306.215 124.166C308.435 125.151 310.978 125.955 313.786 126.328C315.188 126.507 316.653 126.623 318.158 126.549C318.91 126.507 319.676 126.489 320.448 126.424C321.216 126.308 321.993 126.191 322.782 126.071C325.908 125.454 329.105 124.267 332.086 122.417C335.066 120.574 337.826 118.07 340.038 114.994C342.246 111.923 343.92 108.283 344.704 104.326C345.481 100.375 345.416 96.1406 344.378 92.042C343.334 87.958 341.382 83.9679 338.46 80.6853L337.332 79.4446C336.961 79.0273 336.519 78.6833 336.117 78.3006C335.696 77.9386 335.317 77.5286 334.865 77.2086L333.54 76.218C333.11 75.8713 332.638 75.5913 332.168 75.3106C331.7 75.0266 331.232 74.7426 330.766 74.4599C330.276 74.2219 329.788 73.9846 329.3 73.7479C328.808 73.5213 328.334 73.2526 327.819 73.0899C323.808 71.498 319.53 70.8913 315.441 71.1879C311.351 71.4826 307.437 72.6559 304.08 74.5459C300.712 76.4206 297.872 78.9239 295.68 81.7199C293.481 84.5173 291.932 87.6026 290.973 90.6746C290.02 93.7613 289.762 96.8226 289.773 99.6559C289.855 102.497 290.372 105.113 291.125 107.41C291.88 109.71 292.871 111.688 293.894 113.352L293.893 113.269C290.2 119.886 288.394 123.121 288.11 123.629C288.401 123.125 290.252 119.915 294.037 113.349L294.061 113.308L294.036 113.266C293.03 111.605 292.056 109.634 291.318 107.347C290.582 105.064 290.081 102.466 290.01 99.6486C290.011 96.8386 290.276 93.8066 291.229 90.7526C292.188 87.7126 293.729 84.6633 295.911 81.8999C298.086 79.1379 300.9 76.6679 304.233 74.8193C307.555 72.9559 311.424 71.802 315.466 71.5146C319.508 71.226 323.734 71.8279 327.694 73.4026C328.204 73.5633 328.671 73.8293 329.156 74.0533C329.638 74.2873 330.121 74.5219 330.605 74.7573C331.065 75.0366 331.526 75.3173 331.988 75.598C332.453 75.876 332.92 76.1519 333.344 76.4946L334.653 77.4733C335.1 77.7893 335.474 78.1946 335.889 78.552C336.286 78.9306 336.723 79.2699 337.088 79.6819L338.202 80.9079C341.089 84.1499 343.017 88.0906 344.051 92.124C345.078 96.1713 345.145 100.356 344.382 104.261C343.612 108.171 341.961 111.771 339.783 114.81C337.601 117.855 334.876 120.336 331.932 122.167C328.986 124.003 325.826 125.186 322.731 125.807C321.951 125.927 321.181 126.045 320.422 126.163C319.657 126.229 318.898 126.249 318.153 126.294C316.662 126.372 315.21 126.262 313.819 126.09C311.034 125.73 308.508 124.943 306.3 123.977C304.094 122.993 302.214 121.81 300.641 120.607L300.127 120.214L300.522 120.726L300.531 120.738L300.579 120.604C292.642 122.53 288.701 123.485 288.11 123.629Z" fill="#263238"/>
<path d="M324.935 97.7006C324.935 99.1906 326.142 100.398 327.632 100.398C329.122 100.398 330.33 99.1906 330.33 97.7006C330.33 96.2106 329.123 95.0033 327.632 95.0033C326.142 95.0033 324.935 96.2106 324.935 97.7006Z" fill="#263238"/>
<path d="M314.139 97.7006C314.139 99.1906 315.347 100.398 316.836 100.398C318.326 100.398 319.534 99.1906 319.534 97.7006C319.534 96.2106 318.327 95.0033 316.836 95.0033C315.347 95.0033 314.139 96.2106 314.139 97.7006Z" fill="#263238"/>
<path d="M303.371 96.352C302.627 97.642 303.069 99.292 304.359 100.037C305.649 100.782 307.299 100.34 308.044 99.05C308.789 97.76 308.347 96.11 307.057 95.3653C305.766 94.6193 304.116 95.0613 303.371 96.352Z" fill="#263238"/>
</svg>
